<svg width="1540" height="1215" viewBox="0 0 1540 1215" fill="none" xmlns="http://www.w3.org/2000/svg">
<path d="M1242.51 1213.12C1242.1 1214.16 1240.93 1214.66 1239.89 1214.25C1148.24 1177.7 1045.61 1177.7 953.955 1214.25C952.927 1214.66 951.757 1214.17 951.345 1213.14L950.725 1211.59C950.315 1210.57 950.811 1209.41 951.835 1209C1044.85 1171.94 1148.98 1171.94 1242 1209C1243.02 1209.41 1243.52 1210.57 1243.11 1211.59L1242.51 1213.12Z" fill="#818181" fill-opacity="0.1"/>
<path d="M67.3416 1213.13C66.9359 1214.16 65.7711 1214.67 64.7405 1214.26C19.2566 1196.46 -29.237 1187.16 -78.2318 1186.84C-127.231 1187.16 -175.73 1196.46 -221.216 1214.27C-222.242 1214.67 -223.402 1214.17 -223.812 1213.15L-224.432 1211.61C-224.844 1210.58 -224.343 1209.41 -223.311 1209.01C-177.151 1190.97 -127.945 1181.54 -78.2318 1181.21C-28.5269 1181.54 20.6696 1190.97 66.8206 1209.01C67.8477 1209.41 68.3503 1210.57 67.946 1211.6L67.3416 1213.13Z" fill="#818181" fill-opacity="0.1"/>
<path d="M1323.51 1213.13C1322.98 1214.09 1321.78 1214.44 1320.82 1213.93C1260.42 1181.71 1186.67 1149.07 1097.01 1149.07C1007.34 1149.07 933.481 1181.71 873.154 1213.93C872.191 1214.44 870.999 1214.09 870.468 1213.13L869.654 1211.67C869.11 1210.69 869.465 1209.47 870.451 1208.94C931.493 1176.39 1006.07 1143.44 1097.01 1143.44C1187.95 1143.44 1262.48 1176.39 1323.52 1208.94C1324.51 1209.47 1324.86 1210.69 1324.32 1211.67L1323.51 1213.13Z" fill="#818181" fill-opacity="0.1"/>
<path d="M148.266 1213.13C147.735 1214.09 146.544 1214.44 145.581 1213.93C85.1808 1181.71 11.4334 1149.07 -78.2336 1149.07C-167.899 1149.07 -241.759 1181.71 -302.086 1213.93C-303.049 1214.44 -304.241 1214.09 -304.772 1213.13L-305.586 1211.67C-306.13 1210.69 -305.775 1209.47 -304.789 1208.94C-243.747 1176.39 -169.172 1143.44 -78.2336 1143.44C12.705 1143.44 87.242 1176.39 148.283 1208.94C149.27 1209.47 149.625 1210.69 149.081 1211.67L148.266 1213.13Z" fill="#818181" fill-opacity="0.1"/>
<path d="M1390.35 1213.16C1389.78 1214.07 1388.59 1214.35 1387.67 1213.82C1300.49 1163.24 1210.2 1111.3 1097 1111.3C983.811 1111.3 893.533 1163.18 806.337 1213.79C805.392 1214.34 804.184 1214.02 803.621 1213.09L802.768 1211.67C802.192 1210.71 802.51 1209.47 803.476 1208.91C891.158 1157.98 982.231 1105.66 1097.07 1105.66C1211.9 1105.66 1302.73 1157.96 1390.62 1208.88C1391.6 1209.45 1391.91 1210.73 1391.3 1211.69L1390.35 1213.16Z" fill="#818181" fill-opacity="0.1"/>
<path d="M215.124 1213.17C214.547 1214.07 213.364 1214.35 212.439 1213.82C125.228 1163.24 34.9753 1111.3 -78.2313 1111.3C-191.417 1111.3 -281.695 1163.18 -368.892 1213.79C-369.836 1214.34 -371.044 1214.02 -371.608 1213.09L-372.46 1211.67C-373.036 1210.71 -372.719 1209.47 -371.753 1208.91C-284.071 1157.98 -192.998 1105.66 -78.1546 1105.66C36.6671 1105.66 127.463 1157.96 215.389 1208.88C216.375 1209.45 216.684 1210.73 216.069 1211.69L215.124 1213.17Z" fill="#818181" fill-opacity="0.1"/>
<path d="M1457.22 1213.13C1456.68 1214.08 1455.49 1214.44 1454.53 1213.92C1432.55 1202.09 1410.59 1189.33 1389.32 1177C1301.64 1126.05 1211.08 1073.49 1097 1073.49C982.926 1073.49 892.364 1126.05 804.487 1177C783.257 1189.33 761.298 1202.09 739.285 1213.92C738.324 1214.44 737.127 1214.09 736.596 1213.13L735.78 1211.67C735.237 1210.69 735.598 1209.46 736.581 1208.93C758.464 1197.15 780.363 1184.44 801.572 1172.16C889.794 1120.91 981.315 1067.89 1096.92 1067.89C1212.53 1067.89 1303.83 1120.91 1392.28 1172.16C1413.45 1184.48 1435.35 1197.15 1457.23 1208.93C1458.21 1209.46 1458.57 1210.69 1458.03 1211.67L1457.22 1213.13Z" fill="#818181" fill-opacity="0.1"/>
<path d="M282.004 1213.18C281.461 1214.11 280.281 1214.45 279.333 1213.94C257.345 1202.1 235.375 1189.34 214.098 1177C126.412 1126.05 35.6968 1073.49 -78.2252 1073.49C-192.147 1073.49 -282.863 1126.05 -370.587 1176.96C-391.817 1189.29 -413.775 1202.05 -435.788 1213.88C-436.749 1214.4 -437.946 1214.05 -438.478 1213.09L-439.293 1211.63C-439.837 1210.65 -439.476 1209.42 -438.492 1208.89C-416.61 1197.11 -394.71 1184.4 -373.502 1172.12C-285.279 1120.87 -193.758 1067.85 -78.1485 1067.85C37.4612 1067.85 128.752 1120.87 217.205 1172.12C238.364 1184.39 260.25 1197.1 282.12 1208.87C283.118 1209.41 283.473 1210.67 282.901 1211.65L282.004 1213.18Z" fill="#818181" fill-opacity="0.1"/>
<path d="M1538.4 1213.24C1537.98 1214.22 1536.85 1214.7 1535.85 1214.31C1484.43 1194.41 1436.1 1166.36 1389.35 1139.23C1301.63 1088.5 1211.07 1035.94 1096.99 1035.94C982.915 1035.94 892.353 1088.5 804.475 1139.23C757.737 1166.35 709.387 1194.39 657.983 1214.29C656.965 1214.69 655.82 1214.19 655.414 1213.17L654.794 1211.63C654.378 1210.59 654.891 1209.42 655.933 1209.01C707.048 1189.19 755.185 1161.39 801.714 1134.39C889.936 1083.1 981.457 1030.12 1097.07 1030.12C1212.68 1030.12 1303.97 1083.14 1392.42 1134.39C1438.93 1161.38 1487.09 1189.28 1537.96 1208.99C1539.02 1209.4 1539.53 1210.61 1539.08 1211.66L1538.4 1213.24Z" fill="#818181" fill-opacity="0.1"/>
<path d="M363.199 1213.2C362.784 1214.2 361.648 1214.69 360.638 1214.3C309.19 1194.4 260.87 1166.36 214.087 1139.23C126.402 1088.51 35.686 1035.94 -78.2359 1035.94C-192.158 1035.94 -282.874 1088.51 -370.597 1139.42C-417.026 1166.17 -465.028 1194.02 -516.083 1213.87C-517.105 1214.27 -518.254 1213.77 -518.659 1212.75L-519.255 1211.25C-519.665 1210.21 -519.153 1209.04 -518.116 1208.64C-467.529 1188.93 -419.697 1161.2 -373.512 1134.28C-285.29 1082.99 -193.769 1030.01 -78.1592 1030.01C37.4505 1030.01 128.741 1083.02 217.194 1134.28C263.713 1161.27 311.878 1189.18 362.761 1208.89C363.811 1209.3 364.323 1210.49 363.892 1211.53L363.199 1213.2Z" fill="#818181" fill-opacity="0.1"/>
<path d="M509.364 1205.73C393.831 1205.73 302.463 1152.71 214.01 1101.46C126.325 1050.58 35.6093 997.942 -78.3126 997.942C-192.235 997.942 -282.95 1050.51 -370.674 1101.46C-417.026 1128.39 -465.025 1156.24 -516.079 1176.1C-517.102 1176.5 -518.253 1175.99 -518.656 1174.97L-519.261 1173.43C-519.668 1172.4 -519.155 1171.23 -518.119 1170.83C-467.531 1151.16 -419.698 1123.43 -373.512 1096.46C-285.29 1045.18 -193.769 992.16 -78.1592 992.16C37.4505 992.16 128.742 1045.18 217.194 1096.46C304.879 1147.34 395.557 1199.94 509.517 1199.94C623.477 1199.94 714.155 1147.38 801.878 1096.46C889.589 1045.47 980.56 992.775 1095.22 992.166C1096.33 992.16 1097.23 993.056 1097.23 994.16V995.792C1097.23 996.897 1096.33 997.792 1095.22 997.798C982.204 998.411 892.078 1050.66 804.87 1101.31C716.264 1152.71 624.897 1205.73 509.364 1205.73Z" fill="#818181" fill-opacity="0.1"/>
<path d="M509.364 1167.95C393.831 1167.95 302.463 1114.94 214.01 1063.69C126.325 1012.77 35.6093 960.169 -78.3126 960.169C-192.235 960.169 -282.95 1012.73 -370.674 1063.69C-417.026 1090.62 -465.025 1118.47 -516.079 1138.33C-517.102 1138.72 -518.253 1138.22 -518.656 1137.2L-519.261 1135.66C-519.668 1134.63 -519.155 1133.46 -518.119 1133.06C-467.531 1113.39 -419.698 1085.65 -373.512 1058.69C-285.29 1007.4 -193.769 954.387 -78.1592 954.387C37.4505 954.387 128.742 1007.4 217.194 1058.69C304.879 1109.57 395.557 1162.17 509.517 1162.17C623.477 1162.17 714.155 1109.6 801.878 1058.69C889.589 1007.7 980.56 955.002 1095.22 954.392C1096.33 954.386 1097.23 955.282 1097.23 956.387V958.019C1097.23 959.123 1096.33 960.018 1095.22 960.024C982.204 960.638 892.078 1012.88 804.87 1063.54C716.264 1114.79 624.897 1167.95 509.364 1167.95Z" fill="#818181" fill-opacity="0.1"/>
<path d="M509.364 1130.18C393.831 1130.18 302.463 1077.17 214.01 1025.91C126.325 975.001 35.6093 922.398 -78.3126 922.398C-192.235 922.398 -282.95 974.963 -370.674 1025.88C-417.026 1052.85 -465.025 1080.7 -516.079 1100.56C-517.102 1100.95 -518.253 1100.45 -518.656 1099.43L-519.261 1097.89C-519.668 1096.86 -519.156 1095.69 -518.121 1095.29C-467.532 1075.58 -419.699 1047.88 -373.512 1020.92C-285.29 969.669 -193.769 916.653 -78.1592 916.653C37.4505 916.653 128.742 969.669 217.194 1020.92C304.879 1071.83 395.557 1124.44 509.517 1124.44C623.477 1124.44 714.155 1071.87 801.878 1020.92C889.589 969.967 980.56 917.269 1095.22 916.659C1096.33 916.653 1097.23 917.549 1097.23 918.653V920.285C1097.23 921.39 1096.33 922.285 1095.22 922.291C982.204 922.904 892.078 975.151 804.87 1025.8C716.264 1077.24 624.897 1130.18 509.364 1130.18Z" fill="#818181" fill-opacity="0.1"/>
<path d="M509.364 1092.26C393.831 1092.26 302.463 1039.24 214.01 987.955C126.325 937.079 35.6093 884.476 -78.3126 884.476C-192.235 884.476 -282.95 937.042 -370.674 987.955C-417.027 1015.04 -465.027 1042.78 -516.081 1062.74C-517.103 1063.14 -518.255 1062.64 -518.66 1061.62L-519.255 1060.12C-519.665 1059.09 -519.153 1057.92 -518.116 1057.51C-467.529 1037.8 -419.697 1010.07 -373.512 983.149C-285.29 931.898 -193.769 878.882 -78.1592 878.882C37.4505 878.882 128.742 931.898 217.194 983.149C304.879 1034.02 395.557 1086.67 509.517 1086.67C623.477 1086.67 714.155 1034.1 801.878 983.149C889.589 932.195 980.56 879.497 1095.22 878.887C1096.33 878.881 1097.23 879.777 1097.23 880.882V882.514C1097.23 883.618 1096.33 884.513 1095.22 884.519C982.204 885.133 892.078 937.379 804.87 987.993C716.264 1039.39 624.897 1092.26 509.364 1092.26Z" fill="#818181" fill-opacity="0.1"/>
<path d="M509.364 1054.71C393.831 1054.71 302.463 1001.7 214.01 950.408C126.325 899.532 35.6093 846.929 -78.3126 846.929C-192.235 846.929 -282.95 899.495 -370.674 950.408C-417.028 977.269 -465.03 1005.23 -516.085 1024.98C-517.106 1025.38 -518.253 1024.87 -518.657 1023.85L-519.255 1022.35C-519.665 1021.31 -519.153 1020.14 -518.116 1019.74C-467.529 1000.03 -419.697 972.302 -373.512 945.377C-285.29 894.125 -193.769 841.109 -78.1592 841.109C37.4505 841.109 128.742 894.125 217.194 945.377C304.879 996.252 395.557 1048.89 509.517 1048.89C623.477 1048.89 714.155 996.327 801.878 945.377C889.589 894.423 980.56 841.725 1095.22 841.115C1096.33 841.109 1097.23 842.005 1097.23 843.109V844.741C1097.23 845.846 1096.33 846.741 1095.22 846.747C982.204 847.36 892.078 899.606 804.87 950.22C716.264 1001.62 624.897 1054.71 509.364 1054.71Z" fill="#818181" fill-opacity="0.1"/>
<path d="M509.364 1016.83C393.831 1016.83 302.463 963.812 214.01 912.561C126.325 861.685 35.6093 809.045 -78.3126 809.045C-192.235 809.045 -282.95 861.61 -370.674 912.561C-417.027 939.495 -465.028 967.346 -516.083 987.203C-517.105 987.601 -518.254 987.097 -518.659 986.078L-519.255 984.576C-519.665 983.542 -519.153 982.372 -518.116 981.968C-467.529 962.26 -419.697 934.53 -373.512 907.605C-285.29 856.316 -193.769 803.3 -78.1592 803.3C37.4505 803.3 128.742 856.316 217.194 907.605C304.879 958.48 395.557 1011.08 509.517 1011.08C623.477 1011.08 714.155 958.518 801.878 907.605C889.589 856.613 980.56 803.915 1095.22 803.305C1096.33 803.299 1097.23 804.195 1097.23 805.3V806.932C1097.23 808.036 1096.33 808.931 1095.22 808.937C982.204 809.551 892.078 861.797 804.87 912.448C716.264 963.812 624.897 1016.83 509.364 1016.83Z" fill="#818181" fill-opacity="0.1"/>
<path d="M509.364 979.055C393.831 979.055 302.463 926.039 214.01 874.788C126.325 823.912 35.6093 771.271 -78.3126 771.271C-192.235 771.271 -282.95 823.837 -370.674 874.788C-417.026 901.722 -465.025 929.572 -516.079 949.428C-517.102 949.827 -518.253 949.32 -518.656 948.298L-519.261 946.764C-519.668 945.73 -519.155 944.563 -518.119 944.16C-467.531 924.488 -419.698 896.757 -373.512 869.794C-285.29 818.505 -193.769 765.489 -78.1592 765.489C37.4505 765.489 128.742 818.505 217.194 869.794C304.879 920.67 395.557 973.273 509.517 973.273C623.477 973.273 714.155 920.707 801.878 869.794C889.589 818.803 980.56 766.105 1095.22 765.495C1096.33 765.489 1097.23 766.385 1097.23 767.489V769.121C1097.23 770.226 1096.33 771.121 1095.22 771.127C982.204 771.74 892.078 823.987 804.87 874.638C716.264 926.039 624.897 979.055 509.364 979.055Z" fill="#818181" fill-opacity="0.1"/>
<path d="M509.364 941.284C393.831 941.284 302.463 888.268 214.01 837.017C126.325 786.103 35.6093 733.501 -78.3126 733.501C-192.235 733.501 -282.95 786.066 -370.674 837.017C-417.026 863.951 -465.025 891.801 -516.079 911.658C-517.102 912.056 -518.253 911.549 -518.656 910.528L-519.261 908.992C-519.668 907.959 -519.156 906.792 -518.121 906.389C-467.532 886.681 -419.699 858.986 -373.512 832.023C-285.29 780.772 -193.769 727.756 -78.1592 727.756C37.4505 727.756 128.742 780.772 217.194 832.023C304.879 882.936 395.557 935.539 509.517 935.539C623.477 935.539 714.155 882.974 801.878 832.023C889.589 781.069 980.56 728.371 1095.22 727.761C1096.33 727.755 1097.23 728.651 1097.23 729.756V731.388C1097.23 732.492 1096.33 733.387 1095.22 733.393C982.204 734.007 892.078 786.253 804.87 836.904C716.264 888.268 624.897 941.284 509.364 941.284Z" fill="#818181" fill-opacity="0.1"/>
<path d="M509.364 903.512C393.831 903.512 302.463 850.496 214.01 799.207C126.325 748.331 35.6093 695.728 -78.3126 695.728C-192.235 695.728 -282.874 748.331 -370.597 799.395C-417.026 826.181 -465.027 854.03 -516.081 873.778C-517.104 874.173 -518.252 873.667 -518.655 872.646L-519.261 871.107C-519.668 870.074 -519.156 868.907 -518.121 868.504C-467.532 848.796 -419.699 821.064 -373.512 794.138C-285.29 742.887 -193.769 689.871 -78.1592 689.871C37.4505 689.871 128.742 742.887 217.194 794.138C304.879 845.052 395.557 897.655 509.517 897.655C623.477 897.655 714.155 845.089 801.878 794.138C889.589 743.185 980.56 690.486 1095.22 689.876C1096.33 689.871 1097.23 690.767 1097.23 691.871V693.503C1097.23 694.608 1096.33 695.503 1095.22 695.509C982.204 696.122 892.078 748.368 804.87 798.982C716.264 850.496 624.897 903.512 509.364 903.512Z" fill="#818181" fill-opacity="0.1"/>
<path d="M509.364 865.74C393.831 865.74 302.463 812.724 214.01 761.436C126.325 710.56 35.6093 657.957 -78.3126 657.957C-192.235 657.957 -282.95 710.522 -370.674 761.436C-417.026 788.37 -465.026 816.22 -516.08 836.222C-517.103 836.622 -518.255 836.119 -518.66 835.098L-519.255 833.601C-519.665 832.567 -519.153 831.397 -518.116 830.993C-467.529 811.285 -419.697 783.554 -373.512 756.63C-285.29 705.378 -193.769 652.362 -78.1592 652.362C37.4505 652.362 128.742 705.378 217.194 756.63C304.879 807.505 395.557 860.146 509.517 860.146C623.477 860.146 714.155 807.58 801.878 756.63C889.589 705.676 980.56 652.978 1095.22 652.368C1096.33 652.362 1097.23 653.258 1097.23 654.362V655.994C1097.23 657.099 1096.33 657.994 1095.22 658C982.204 658.613 892.078 710.859 804.87 761.473C716.264 812.724 624.897 865.74 509.364 865.74Z" fill="#818181" fill-opacity="0.1"/>
<path d="M509.364 827.967C393.831 827.967 302.463 774.951 214.01 723.662C126.325 672.786 35.6093 620.183 -78.3126 620.183C-192.235 620.183 -282.95 672.749 -370.674 723.662C-417.027 750.596 -465.028 778.448 -516.083 798.304C-517.105 798.702 -518.254 798.198 -518.659 797.179L-519.255 795.677C-519.665 794.643 -519.153 793.473 -518.116 793.069C-467.529 773.361 -419.697 745.631 -373.512 718.706C-285.29 667.417 -193.769 614.438 -78.1592 614.438C37.4505 614.438 128.742 667.454 217.194 718.706C304.879 769.581 395.557 822.222 509.517 822.222C623.477 822.222 714.155 769.657 801.878 718.706C889.589 667.752 980.56 615.054 1095.22 614.444C1096.33 614.438 1097.23 615.334 1097.23 616.438V618.07C1097.23 619.175 1096.33 620.07 1095.22 620.076C982.204 620.689 892.078 672.936 804.87 723.549C716.264 774.951 624.897 827.967 509.364 827.967Z" fill="#818181" fill-opacity="0.1"/>
<path d="M509.364 790.158C393.831 790.158 302.463 737.143 214.01 685.891C126.325 635.015 35.6093 582.375 -78.3127 582.375C-192.235 582.375 -282.95 634.94 -370.674 685.891C-417.026 712.714 -465.025 740.673 -516.079 760.532C-517.102 760.93 -518.253 760.424 -518.656 759.402L-519.261 757.867C-519.668 756.834 -519.155 755.666 -518.119 755.264C-467.531 735.592 -419.698 707.86 -373.512 680.898C-285.29 629.609 -193.769 576.593 -78.1592 576.593C37.4505 576.593 128.741 629.609 217.194 680.898C304.726 731.811 395.403 784.376 509.364 784.376C623.324 784.376 714.001 731.811 801.725 680.898C889.435 629.906 980.406 577.208 1095.07 576.598C1096.17 576.592 1097.08 577.488 1097.08 578.593V580.225C1097.08 581.329 1096.17 582.224 1095.07 582.23C982.05 582.844 891.924 635.09 804.717 685.741C716.264 737.142 624.896 790.158 509.364 790.158Z" fill="#818181" fill-opacity="0.1"/>
<path d="M509.364 752.386C393.831 752.386 302.463 699.37 214.01 648.119C126.325 597.243 35.6093 544.603 -78.3127 544.603C-192.235 544.603 -282.95 597.168 -370.674 648.119C-417.026 675.164 -465.025 702.905 -516.079 722.76C-517.102 723.158 -518.253 722.651 -518.656 721.63L-519.261 720.095C-519.668 719.061 -519.155 717.894 -518.119 717.491C-467.531 697.819 -419.698 670.088 -373.512 643.125C-285.29 591.836 -193.769 538.82 -78.1592 538.82C37.4505 538.82 128.741 591.836 217.194 643.125C304.726 694.264 395.403 746.829 509.364 746.829C623.324 746.829 714.001 694.264 801.725 643.35C889.435 592.359 980.406 539.661 1095.07 539.051C1096.17 539.045 1097.08 539.941 1097.08 541.046V542.678C1097.08 543.782 1096.17 544.677 1095.07 544.683C982.05 545.296 891.924 597.543 804.717 648.194C716.264 699.37 624.896 752.386 509.364 752.386Z" fill="#818181" fill-opacity="0.1"/>
<path d="M509.364 714.614C393.831 714.614 302.463 661.598 214.01 610.309C126.325 559.433 35.6093 506.83 -78.3126 506.83C-192.235 506.83 -282.95 559.395 -370.674 610.309C-417.026 637.28 -465.025 665.13 -516.079 684.987C-517.102 685.385 -518.253 684.879 -518.656 683.857L-519.261 682.321C-519.668 681.288 -519.156 680.121 -518.121 679.718C-467.532 660.011 -419.699 632.316 -373.512 605.353C-285.29 554.101 -193.769 501.085 -78.1592 501.085C37.4505 501.085 128.742 554.101 217.194 605.353C304.879 656.266 395.557 708.869 509.517 708.869C623.477 708.869 714.155 656.304 801.878 605.353C889.589 554.399 980.56 501.701 1095.22 501.091C1096.33 501.085 1097.23 501.981 1097.23 503.085V504.717C1097.23 505.822 1096.33 506.717 1095.22 506.723C982.204 507.336 892.078 559.583 804.87 610.196C716.264 661.598 624.897 714.614 509.364 714.614Z" fill="#818181" fill-opacity="0.1"/>
<path d="M509.364 676.842C393.831 676.842 302.463 623.826 214.01 572.537C126.402 521.548 35.6861 468.983 -78.2359 468.983C-192.158 468.983 -282.874 521.548 -370.597 572.462C-417.025 599.507 -465.025 627.322 -516.078 647.214C-517.102 647.612 -518.254 647.106 -518.656 646.084L-519.261 644.549C-519.668 643.516 -519.156 642.349 -518.121 641.946C-467.532 622.238 -419.699 594.506 -373.512 567.581C-285.29 516.329 -193.769 463.313 -78.1592 463.313C37.4505 463.313 128.742 516.329 217.194 567.581C304.879 618.457 395.557 671.097 509.517 671.097C623.477 671.097 714.155 618.532 801.878 567.581C889.589 516.627 980.56 463.929 1095.22 463.319C1096.33 463.313 1097.23 464.209 1097.23 465.313V466.983C1097.23 468.088 1096.33 468.982 1095.22 468.988C982.204 469.602 892.078 521.848 804.87 572.462C716.264 623.826 624.897 676.842 509.364 676.842Z" fill="#818181" fill-opacity="0.1"/>
<path d="M509.364 639.071C393.831 639.071 302.463 586.055 214.01 534.766C126.402 484.003 35.6861 431.437 -78.2359 431.437C-192.158 431.437 -282.874 484.003 -370.597 534.916C-417.026 561.702 -465.028 589.552 -516.083 609.408C-517.105 609.806 -518.254 609.302 -518.659 608.283L-519.255 606.781C-519.665 605.747 -519.153 604.577 -518.116 604.173C-467.529 584.465 -419.697 556.735 -373.512 529.81C-285.29 478.558 -193.769 425.542 -78.1592 425.542C37.4505 425.542 128.742 478.558 217.194 529.81C304.879 580.686 395.557 633.326 509.517 633.326C623.477 633.326 714.155 580.761 801.878 529.81C889.589 478.856 980.56 426.158 1095.22 425.548C1096.33 425.542 1097.23 426.438 1097.23 427.542V429.437C1097.23 430.542 1096.33 431.437 1095.22 431.443C982.204 432.056 892.078 484.302 804.87 534.916C716.264 586.055 624.897 639.071 509.364 639.071Z" fill="#818181" fill-opacity="0.1"/>
<path d="M509.364 601.261C393.831 601.261 302.463 548.282 214.01 496.993C126.325 446.118 35.6093 393.477 -78.3126 393.477C-192.235 393.477 -282.95 446.042 -370.674 496.993C-417.027 523.928 -465.028 551.779 -516.083 571.636C-517.105 572.033 -518.254 571.529 -518.659 570.51L-519.255 569.009C-519.665 567.975 -519.153 566.805 -518.116 566.401C-467.529 546.693 -419.697 518.962 -373.512 492.037C-285.29 440.748 -193.769 387.732 -78.1592 387.732C37.4505 387.732 128.742 440.748 217.194 492.037C304.879 542.913 395.557 595.516 509.517 595.516C623.477 595.516 714.155 542.951 801.878 492.037C889.589 441.046 980.56 388.348 1095.22 387.738C1096.33 387.732 1097.23 388.628 1097.23 389.732V391.364C1097.23 392.469 1096.33 393.364 1095.22 393.37C982.204 393.983 892.078 446.23 804.87 496.881C716.264 548.282 624.897 601.261 509.364 601.261Z" fill="#818181" fill-opacity="0.1"/>
<path d="M509.364 563.49C393.831 563.49 302.463 510.474 214.01 459.222C126.325 408.347 35.6093 355.706 -78.3126 355.706C-192.235 355.706 -282.95 408.271 -370.674 459.222C-417.026 486.156 -465.025 514.006 -516.079 533.863C-517.102 534.261 -518.253 533.755 -518.656 532.733L-519.261 531.198C-519.668 530.165 -519.155 528.998 -518.119 528.595C-467.531 508.923 -419.698 481.191 -373.512 454.229C-285.29 402.94 -193.769 349.924 -78.1592 349.924C37.4505 349.924 128.742 402.94 217.194 454.229C304.879 505.104 395.557 557.707 509.517 557.707C623.477 557.707 714.155 505.142 801.878 454.229C889.589 403.237 980.56 350.539 1095.22 349.929C1096.33 349.923 1097.23 350.819 1097.23 351.924V353.556C1097.23 354.66 1096.33 355.555 1095.22 355.561C982.204 356.175 892.078 408.421 804.87 459.072C716.264 510.474 624.897 563.49 509.364 563.49Z" fill="#818181" fill-opacity="0.1"/>
<path d="M509.364 525.716C393.831 525.716 302.463 472.7 214.01 421.449C126.325 370.536 35.6093 317.933 -78.3126 317.933C-192.235 317.933 -282.95 370.498 -370.674 421.449C-417.024 448.382 -465.023 476.231 -516.074 496.088C-517.099 496.487 -518.252 495.978 -518.653 494.953L-519.267 493.385C-519.671 492.352 -519.157 491.188 -518.124 490.786C-467.534 471.114 -419.7 443.381 -373.512 416.418C-285.29 365.166 -193.769 312.15 -78.1592 312.15C37.4505 312.15 128.742 365.166 217.194 416.455C304.879 467.331 395.557 519.934 509.517 519.934C623.477 519.934 714.155 467.368 801.878 416.455C889.589 365.464 980.56 312.766 1095.22 312.156C1096.33 312.15 1097.23 313.046 1097.23 314.15V315.782C1097.23 316.887 1096.33 317.782 1095.22 317.788C982.204 318.401 892.078 370.648 804.87 421.299C716.264 472.738 624.897 525.716 509.364 525.716Z" fill="#818181" fill-opacity="0.1"/>
<path d="M509.364 487.944C393.831 487.944 302.463 434.928 214.01 383.639C126.325 332.763 35.6093 280.16 -78.3126 280.16C-192.235 280.16 -282.95 332.726 -370.674 383.639C-417.033 410.614 -465.04 438.469 -516.102 458.326C-517.116 458.721 -518.258 458.227 -518.67 457.22L-519.228 455.854C-519.652 454.816 -519.141 453.634 -518.097 453.227C-467.517 433.52 -419.692 405.829 -373.512 378.871C-285.29 327.619 -193.769 274.604 -78.1592 274.604C37.4505 274.604 128.742 327.619 217.194 378.871C304.879 429.784 395.557 482.387 509.517 482.387C623.477 482.387 714.155 429.822 801.878 378.871C889.589 327.917 980.56 275.219 1095.22 274.609C1096.33 274.603 1097.23 275.499 1097.23 276.604V278.236C1097.23 279.34 1096.33 280.235 1095.22 280.241C982.204 280.854 892.078 333.101 804.87 383.714C716.264 434.928 624.897 487.944 509.364 487.944Z" fill="#818181" fill-opacity="0.1"/>
<path d="M509.364 450.211C393.831 450.211 302.463 397.195 214.01 345.906C126.325 295.03 35.6093 242.427 -78.3126 242.427C-192.235 242.427 -282.95 294.993 -370.674 345.906C-417.028 372.804 -465.029 400.728 -516.085 420.514C-517.106 420.91 -518.254 420.406 -518.658 419.388L-519.255 417.884C-519.665 416.85 -519.153 415.68 -518.116 415.276C-467.529 395.568 -419.697 367.837 -373.512 340.912C-285.29 289.661 -193.769 236.645 -78.1592 236.645C37.4505 236.645 128.742 289.661 217.194 340.912C304.879 391.788 395.557 444.429 509.517 444.429C623.477 444.429 714.155 391.863 801.878 340.912C889.589 289.958 980.56 237.26 1095.22 236.65C1096.33 236.644 1097.23 237.54 1097.23 238.645V240.277C1097.23 241.382 1096.33 242.276 1095.22 242.282C982.204 242.896 892.078 295.142 804.87 345.756C716.264 397.157 624.897 450.211 509.364 450.211Z" fill="#818181" fill-opacity="0.1"/>
<path d="M509.364 412.4C393.831 412.4 302.463 359.384 214.01 308.095C126.325 257.22 35.6093 204.617 -78.3126 204.617C-192.235 204.617 -282.95 257.182 -370.674 308.095C-417.027 335.03 -465.028 362.881 -516.083 382.738C-517.105 383.135 -518.254 382.631 -518.659 381.613L-519.255 380.111C-519.665 379.077 -519.153 377.907 -518.116 377.503C-467.529 357.795 -419.697 330.064 -373.512 303.139C-285.29 251.888 -193.769 198.872 -78.1592 198.872C37.4505 198.872 128.742 251.888 217.194 303.139C304.879 354.015 395.557 406.656 509.517 406.656C623.477 406.656 714.155 354.09 801.878 303.139C889.589 252.185 980.56 199.487 1095.22 198.877C1096.33 198.872 1097.23 199.768 1097.23 200.872V202.504C1097.23 203.609 1096.33 204.504 1095.22 204.51C982.204 205.123 892.078 257.369 804.87 307.983C716.264 359.384 624.897 412.4 509.364 412.4Z" fill="#818181" fill-opacity="0.1"/>
<path d="M509.364 374.591C393.831 374.591 302.463 321.575 214.01 270.323C126.325 219.448 35.6093 166.807 -78.3126 166.807C-192.235 166.807 -282.95 219.373 -370.674 270.323C-417.027 297.258 -465.028 325.109 -516.083 344.966C-517.105 345.363 -518.254 344.859 -518.659 343.841L-519.255 342.339C-519.665 341.305 -519.153 340.135 -518.116 339.731C-467.529 320.023 -419.697 292.292 -373.512 265.367C-285.29 214.078 -193.769 161.062 -78.1592 161.062C37.4505 161.062 128.742 214.078 217.194 265.367C304.879 316.243 395.557 368.846 509.517 368.846C623.477 368.846 714.155 316.281 801.878 265.367C889.589 214.376 980.56 161.678 1095.22 161.068C1096.33 161.062 1097.23 161.958 1097.23 163.062V164.695C1097.23 165.799 1096.33 166.694 1095.22 166.7C982.204 167.313 892.078 219.56 804.87 270.211C716.264 321.575 624.897 374.591 509.364 374.591Z" fill="#818181" fill-opacity="0.1"/>
<path d="M509.364 336.82C393.831 336.82 302.463 283.804 214.01 232.552C126.325 181.677 35.6093 129.036 -78.3126 129.036C-192.235 129.036 -282.874 181.677 -370.597 232.44C-417.025 259.485 -465.025 287.336 -516.079 307.193C-517.102 307.591 -518.253 307.085 -518.656 306.063L-519.261 304.529C-519.668 303.495 -519.155 302.328 -518.119 301.925C-467.531 282.253 -419.698 254.521 -373.512 227.559C-285.29 176.27 -193.769 123.254 -78.1592 123.254C37.4505 123.254 128.742 176.27 217.194 227.559C304.879 278.434 395.557 331.037 509.517 331.037C623.477 331.037 714.155 278.472 801.878 227.559C889.589 176.568 980.56 123.869 1095.22 123.259C1096.33 123.253 1097.23 124.149 1097.23 125.254V126.886C1097.23 127.99 1096.33 128.885 1095.22 128.891C982.204 129.505 892.078 181.751 804.87 232.402C716.264 283.804 624.897 336.82 509.364 336.82Z" fill="#818181" fill-opacity="0.1"/>
<path d="M509.363 299.047C393.83 299.047 302.463 246.031 214.01 194.78C126.402 143.867 35.686 91.2638 -78.236 91.2638C-192.158 91.2638 -282.874 143.867 -370.597 194.893C-417.026 221.716 -465.027 249.565 -516.082 269.277C-517.104 269.672 -518.252 269.165 -518.654 268.145L-519.261 266.606C-519.668 265.572 -519.155 264.405 -518.119 264.002C-467.531 244.331 -419.698 216.599 -373.512 189.636C-285.137 138.573 -193.769 85.6318 -78.236 85.6318C37.297 85.6318 128.665 138.648 217.117 189.937C304.803 240.812 395.48 293.415 509.44 293.415C623.4 293.415 714.078 240.85 801.801 189.937C889.512 138.945 980.483 86.2471 1095.14 85.6372C1096.25 85.6313 1097.15 86.5273 1097.15 87.6318V89.2638C1097.15 90.3684 1096.25 91.2633 1095.14 91.2693C982.127 91.8827 892.001 144.129 804.793 194.78C716.264 246.031 624.896 299.047 509.363 299.047Z" fill="#818181" fill-opacity="0.1"/>
<path d="M509.364 261.275C393.831 261.275 302.463 208.259 214.01 156.971C126.402 106.095 35.6861 53.4918 -78.2359 53.4918C-192.158 53.4918 -282.874 106.057 -370.597 156.971C-417.024 183.941 -465.024 211.792 -516.077 231.721C-517.101 232.12 -518.254 231.614 -518.657 230.592L-519.261 229.058C-519.668 228.025 -519.156 226.858 -518.121 226.455C-467.532 206.748 -419.699 179.052 -373.512 152.09C-285.29 100.838 -193.769 47.8223 -78.1592 47.8223C37.4505 47.8223 128.742 100.838 217.194 152.09C304.879 203.003 395.557 255.606 509.517 255.606C623.477 255.606 714.155 203.04 801.878 152.09C889.589 101.136 980.56 48.4376 1095.22 47.8276C1096.33 47.8217 1097.23 48.7177 1097.23 49.8223V51.4543C1097.23 52.5588 1096.33 53.4537 1095.22 53.4597C982.204 54.0731 892.078 106.319 804.87 156.933C716.264 208.259 624.897 261.275 509.364 261.275Z" fill="#818181" fill-opacity="0.1"/>
<path d="M509.364 223.502C393.831 223.502 302.463 170.486 214.01 119.198C126.402 68.3217 35.6861 15.7188 -78.2359 15.7188C-192.158 15.7188 -282.874 68.3217 -370.597 119.198C-417.026 146.132 -465.028 173.983 -516.083 193.84C-517.105 194.237 -518.254 193.734 -518.659 192.715L-519.255 191.213C-519.665 190.179 -519.153 189.009 -518.116 188.605C-467.529 168.897 -419.697 141.166 -373.512 114.241C-285.29 62.9901 -193.769 9.97412 -78.1592 9.97412C37.4505 9.97412 128.742 62.9901 217.194 114.241C304.879 165.117 395.557 217.758 509.517 217.758C623.477 217.758 714.155 165.192 801.878 114.241C889.589 63.2875 980.56 10.5894 1095.22 9.97947C1096.33 9.97359 1097.23 10.8696 1097.23 11.9741V13.6061C1097.23 14.7107 1096.33 15.6056 1095.22 15.6116C982.204 16.2249 892.078 68.4713 804.87 119.085C716.264 170.486 624.897 223.502 509.364 223.502Z" fill="#818181" fill-opacity="0.1"/>
<path d="M509.361 185.731C393.828 185.731 302.46 132.678 214.008 81.4263C167.552 54.4242 119.45 26.616 68.4805 6.79724C67.445 6.39458 66.9316 5.2274 67.339 4.19366L67.945 2.65562C68.3471 1.63525 69.496 1.12863 70.5189 1.52432C121.955 21.422 170.264 49.4607 217 76.5828C304.723 127.308 395.401 180.099 509.361 180.099C623.321 180.099 713.998 127.534 801.722 76.5828C848.464 49.4573 896.779 21.4149 948.408 1.51677C949.425 1.12447 950.568 1.62486 950.975 2.63724L951.595 4.1828C952.011 5.21997 951.497 6.39667 950.454 6.79968C899.193 26.6183 851.165 54.4253 804.484 81.4263C716.262 132.715 624.894 185.731 509.361 185.731Z" fill="#818181" fill-opacity="0.1"/>
<path d="M509.36 147.916C393.827 147.916 302.46 94.8999 214.007 43.6486C192.841 31.3345 170.949 18.6647 149.037 7.05822C148.044 6.53262 147.677 5.29435 148.223 4.31346L149.031 2.86332C149.562 1.91003 150.76 1.55831 151.721 2.07493C173.734 13.9055 195.693 26.6631 216.961 38.9928C304.723 89.756 395.4 142.321 509.36 142.321C623.321 142.321 713.998 89.756 801.722 38.8051C822.952 26.4753 844.911 13.7177 866.923 1.8872C867.884 1.37057 869.082 1.7223 869.613 2.67558L870.427 4.13732C870.972 5.11375 870.61 6.34637 869.625 6.87573C847.709 18.6597 825.846 31.3627 804.637 43.4609C716.261 94.8999 624.893 147.916 509.36 147.916Z" fill="#818181" fill-opacity="0.1"/>
<path d="M509.355 110.146C394.592 110.146 303.673 57.834 215.77 6.9033C214.799 6.34074 214.483 5.09042 215.067 4.13236L215.937 2.70581C216.503 1.77729 217.706 1.47059 218.647 2.01635C305.808 52.585 396.051 104.514 509.279 104.514C622.506 104.514 712.749 52.6222 799.91 2.01722C800.851 1.47104 802.054 1.77762 802.621 2.70637L803.491 4.13368C804.075 5.09124 803.759 6.34083 802.789 6.90381C715.037 57.8344 624.118 110.146 509.355 110.146Z" fill="#818181" fill-opacity="0.1"/>
<path d="M509.354 72.3719C418.416 72.3719 343.841 39.4154 282.799 6.86902C281.813 6.34313 281.458 5.11378 282.002 4.13736L282.817 2.6748C283.348 1.72182 284.538 1.36684 285.501 1.8796C345.939 34.0628 419.686 66.7399 509.354 66.7399C599.024 66.7399 672.66 34.0615 733.208 1.87761C734.171 1.36586 735.36 1.72101 735.891 2.67345L736.707 4.13736C737.251 5.11378 736.896 6.34313 735.91 6.86902C674.867 39.4154 600.293 72.3719 509.354 72.3719Z" fill="#818181" fill-opacity="0.1"/>
</svg>
