<svg width="425" height="233" viewBox="0 0 425 233" fill="none" xmlns="http://www.w3.org/2000/svg">
<path d="M275.719 13.156C278.905 12.6776 281.791 12.3281 284.376 12.1073C286.968 11.8681 289.247 11.7393 291.251 11.7393C293.254 11.7393 295.754 11.8681 298.401 12.1073C301.048 12.3465 303.916 12.6776 306.967 13.156V139.344C301.841 140.296 296.647 140.825 291.435 140.926C286.161 140.843 280.903 140.314 275.719 139.344V13.156ZM329.024 13.4505C331.579 12.9904 333.932 12.6409 336.028 12.4017C338.06 12.1783 340.104 12.0616 342.149 12.0521C344.343 12.0587 346.535 12.2061 348.711 12.4936C350.99 12.788 352.957 13.1008 354.574 13.4505L395.197 82.1563V13.1745C398.175 12.7145 400.858 12.3649 403.248 12.1441C405.637 11.9233 407.806 11.7945 409.755 11.7945C411.812 11.7984 413.868 11.9151 415.912 12.1441C418.1 12.3649 420.379 12.7145 422.769 13.1745L422.603 139.049C420.929 139.504 419.229 139.855 417.512 140.098C415.139 140.457 412.742 140.629 410.343 140.613C407.702 140.636 405.064 140.432 402.457 140.006C400.123 139.601 398.432 139.27 397.384 139.049L356.596 70.6931V139.325C352.095 140.298 347.507 140.816 342.902 140.871C338.237 140.812 333.589 140.294 329.024 139.325V13.4505Z" fill="white"/>
<path d="M296.967 212.521C297.206 212.944 297.39 213.349 297.573 213.735C297.74 214.132 297.864 214.545 297.941 214.968C296.854 215.487 295.705 215.864 294.522 216.09C293.141 216.36 291.738 216.495 290.331 216.495C288.41 216.512 286.502 216.169 284.707 215.483C283.042 214.832 281.542 213.82 280.313 212.521C279.055 211.121 278.092 209.481 277.483 207.7C276.782 205.569 276.441 203.337 276.472 201.094C276.436 198.792 276.771 196.5 277.464 194.305C278.055 192.456 279.004 190.743 280.258 189.263C281.451 187.9 282.942 186.829 284.615 186.135C286.428 185.393 288.372 185.024 290.331 185.05C291.823 185.023 293.314 185.152 294.779 185.436C295.956 185.693 296.82 185.914 297.353 186.08C297.314 186.51 297.234 186.935 297.114 187.35C296.992 187.763 296.845 188.169 296.673 188.564L295.552 188.233C295.13 188.105 294.7 188.007 294.265 187.938C293.711 187.836 293.153 187.762 292.592 187.717C291.967 187.717 291.232 187.717 290.386 187.717C288.844 187.688 287.313 187.996 285.901 188.619C284.581 189.223 283.422 190.131 282.519 191.269C281.53 192.523 280.798 193.961 280.369 195.501C279.829 197.34 279.568 199.251 279.597 201.168C279.564 203.091 279.85 205.006 280.442 206.835C280.935 208.318 281.737 209.679 282.795 210.828C283.767 211.875 284.969 212.682 286.306 213.183C287.695 213.693 289.164 213.948 290.644 213.938C291.879 213.951 293.112 213.828 294.32 213.57C295.264 213.359 296.178 213.031 297.04 212.594L296.967 212.521ZM319.41 216.495C317.508 216.536 315.621 216.139 313.896 215.336C312.345 214.587 311 213.469 309.981 212.079C308.901 210.572 308.115 208.874 307.665 207.074C306.611 202.933 306.611 198.593 307.665 194.452C308.119 192.665 308.905 190.98 309.981 189.484C311 188.094 312.345 186.976 313.896 186.227C315.632 185.456 317.511 185.058 319.41 185.058C321.31 185.058 323.188 185.456 324.925 186.227C326.476 186.976 327.82 188.094 328.84 189.484C329.914 190.984 330.706 192.667 331.174 194.452C332.203 198.596 332.203 202.93 331.174 207.074C330.709 208.872 329.918 210.568 328.84 212.079C327.82 213.469 326.476 214.587 324.925 215.336C323.2 216.141 321.313 216.538 319.41 216.495ZM319.41 213.827C320.878 213.87 322.332 213.541 323.638 212.87C324.829 212.231 325.846 211.309 326.597 210.184C327.436 208.927 328.029 207.522 328.344 206.044C329.128 202.561 329.128 198.947 328.344 195.464C328.029 193.991 327.436 192.592 326.597 191.342C325.835 190.232 324.821 189.318 323.638 188.674C322.329 188.012 320.877 187.683 319.41 187.717C317.938 187.686 316.481 188.014 315.164 188.674C313.975 189.308 312.958 190.224 312.205 191.342C311.387 192.601 310.802 193.998 310.477 195.464C309.718 198.95 309.718 202.558 310.477 206.044C310.802 207.516 311.387 208.918 312.205 210.184C312.947 211.317 313.966 212.241 315.164 212.87C316.478 213.539 317.937 213.868 319.41 213.827ZM343.729 185.565H344.703H345.53H346.284H347.405V213.441H359.941C359.953 213.618 359.953 213.797 359.941 213.974C359.941 214.25 359.941 214.471 359.941 214.674C359.941 214.876 359.941 215.134 359.941 215.373C359.941 215.612 359.941 215.814 359.941 215.281H343.729V185.565ZM379.885 216.495C377.982 216.536 376.096 216.139 374.37 215.336C372.819 214.587 371.474 213.469 370.455 212.079C369.375 210.572 368.589 208.874 368.139 207.074C367.086 202.933 367.086 198.593 368.139 194.452C368.593 192.665 369.379 190.98 370.455 189.484C371.474 188.094 372.819 186.976 374.37 186.227C376.107 185.456 377.985 185.058 379.885 185.058C381.784 185.058 383.663 185.456 385.399 186.227C386.95 186.976 388.295 188.094 389.314 189.484C390.39 190.98 391.176 192.665 391.63 194.452C392.684 198.593 392.684 202.933 391.63 207.074C391.18 208.874 390.394 210.572 389.314 212.079C388.295 213.469 386.95 214.587 385.399 215.336C383.674 216.139 381.787 216.536 379.885 216.495ZM379.885 213.827C381.352 213.868 382.806 213.539 384.112 212.87C385.304 212.231 386.32 211.309 387.072 210.184C387.903 208.923 388.495 207.52 388.818 206.044C389.577 202.558 389.577 198.95 388.818 195.464C388.495 193.994 387.903 192.596 387.072 191.342C386.309 190.232 385.295 189.318 384.112 188.674C382.788 188.045 381.341 187.718 379.875 187.718C378.41 187.718 376.962 188.045 375.639 188.674C374.449 189.308 373.433 190.224 372.679 191.342C371.855 192.6 371.263 193.996 370.933 195.464C370.198 198.952 370.198 202.556 370.933 206.044C371.264 207.517 371.855 208.919 372.679 210.184C373.421 211.317 374.44 212.241 375.639 212.87C376.952 213.539 378.412 213.868 379.885 213.827ZM404.387 185.436L406.225 185.289L407.567 185.16C408.008 185.16 408.467 185.16 408.945 185.16H410.636C411.977 185.162 413.314 185.304 414.625 185.583C415.882 185.851 417.079 186.35 418.154 187.055C419.211 187.765 420.076 188.726 420.673 189.852C421.353 191.221 421.681 192.739 421.628 194.268C421.639 195.297 421.439 196.318 421.04 197.267C420.648 198.149 420.128 198.967 419.496 199.696C418.851 200.41 418.109 201.03 417.29 201.536C416.482 202.051 415.626 202.488 414.735 202.842L414.405 202.953L424.073 216.072C423.797 216.072 423.228 215.373 423.228 215.373H421.555C421.555 215.373 421.022 216.127 420.728 216.072L409.901 201.904V201.72L410.949 201.481C411.899 201.224 412.827 200.892 413.724 200.487C414.581 200.095 415.384 199.594 416.114 198.997C416.794 198.427 417.362 197.734 417.787 196.954C418.229 196.09 418.45 195.129 418.43 194.158C418.499 193.23 418.351 192.3 417.996 191.441C417.642 190.581 417.092 189.817 416.39 189.208C414.803 188.024 412.851 187.438 410.875 187.552C410.287 187.552 409.736 187.552 409.221 187.552C408.826 187.579 408.432 187.634 408.045 187.717V215.925H406.703H405.177H404.368L404.387 185.436Z" fill="white"/>
<path d="M97.7147 0L195.411 56.8746L97.7147 113.731L0 56.8746L97.7147 0Z" fill="#FF5B30"/>
<path d="M0.38623 65.0442L93.7445 120.373V233L0.38623 177.321" fill="#FFF7F5"/>
<path d="M102.182 120.686L194.841 65.3755V178.26L102.182 233" fill="#FF7C63"/>
</svg>
