<svg width="1604" height="582" viewBox="0 0 1604 582" fill="none" xmlns="http://www.w3.org/2000/svg">
<path d="M1372.11 581.143C1371.78 581.655 1371.17 581.901 1370.58 581.756C1298.84 564.082 1218.43 564.083 1146.7 581.757C1146.11 581.902 1145.49 581.66 1145.16 581.153C1144.63 580.335 1145.06 579.234 1146.01 579.003C1218.24 561.4 1299.03 561.401 1371.26 579.008C1372.2 579.238 1372.63 580.327 1372.11 581.143Z" fill="#818181" fill-opacity="0.1"/>
<path d="M455.883 581.149C455.557 581.658 454.944 581.903 454.357 581.761C418.759 573.155 380.784 568.656 342.415 568.501C304.044 568.654 266.067 573.154 230.467 581.762C229.883 581.904 229.272 581.662 228.944 581.159C228.409 580.339 228.844 579.237 229.795 579.01C265.642 570.439 303.832 565.959 342.415 565.802C380.996 565.961 419.184 570.443 455.027 579.015C455.972 579.241 456.407 580.331 455.883 581.149Z" fill="#818181" fill-opacity="0.1"/>
<path d="M1435.18 581.224C1434.79 581.653 1434.19 581.814 1433.64 581.633C1386.47 566.142 1328.83 550.398 1258.7 550.398C1188.57 550.398 1130.84 566.142 1083.73 581.633C1083.18 581.814 1082.58 581.653 1082.19 581.224C1081.48 580.438 1081.8 579.183 1082.81 578.853C1130.26 563.332 1188.17 547.698 1258.7 547.698C1329.23 547.698 1387.11 563.332 1434.56 578.853C1435.57 579.183 1435.9 580.438 1435.18 581.224Z" fill="#818181" fill-opacity="0.1"/>
<path d="M518.908 581.224C518.52 581.653 517.919 581.814 517.369 581.633C470.195 566.142 412.556 550.398 342.425 550.398C272.296 550.398 214.568 566.142 167.451 581.633C166.901 581.814 166.301 581.653 165.912 581.224C165.2 580.438 165.526 579.183 166.533 578.853C213.987 563.332 271.893 547.698 342.425 547.698C412.958 547.698 470.835 563.332 518.287 578.853C519.295 579.183 519.62 580.438 518.908 581.224Z" fill="#818181" fill-opacity="0.1"/>
<path d="M1487.27 581.251C1486.86 581.644 1486.26 581.772 1485.73 581.581C1417.63 557.292 1347.13 532.291 1258.69 532.291C1170.26 532.291 1099.76 557.27 1031.64 581.575C1031.1 581.769 1030.49 581.629 1030.09 581.217C1029.34 580.448 1029.63 579.158 1030.65 578.796C1098.76 554.473 1169.56 529.592 1258.75 529.592C1347.89 529.592 1418.49 554.446 1486.74 578.756C1487.79 579.13 1488.07 580.479 1487.27 581.251Z" fill="#818181" fill-opacity="0.1"/>
<path d="M571 581.251C570.59 581.644 569.994 581.772 569.459 581.581C501.336 557.292 430.863 532.291 342.422 532.291C253.987 532.291 183.489 557.27 115.372 581.575C114.829 581.769 114.225 581.629 113.822 581.217C113.069 580.448 113.365 579.158 114.378 578.796C182.494 554.473 253.293 529.592 342.482 529.592C431.621 529.592 502.188 554.446 570.466 578.756C571.517 579.13 571.805 580.479 571 581.251Z" fill="#818181" fill-opacity="0.1"/>
<path d="M1539.43 581.221C1539.04 581.651 1538.43 581.81 1537.88 581.629C1520.6 575.917 1503.33 569.747 1486.6 563.786C1418.24 539.363 1347.63 514.167 1258.69 514.167C1169.75 514.167 1099.15 539.363 1030.63 563.786C1013.94 569.747 996.664 575.917 979.352 581.629C978.802 581.811 978.198 581.651 977.809 581.222C977.097 580.436 977.429 579.178 978.435 578.844C995.248 573.265 1012.07 567.265 1028.36 561.464C1097.14 536.898 1168.5 511.485 1258.63 511.485C1348.77 511.485 1419.94 536.898 1488.9 561.464C1505.17 567.282 1521.99 573.266 1538.8 578.844C1539.81 579.178 1540.14 580.436 1539.43 581.221Z" fill="#818181" fill-opacity="0.1"/>
<path d="M623.173 581.243C622.775 581.661 622.172 581.813 621.623 581.632C604.338 575.92 587.063 569.749 570.336 563.787C501.973 539.365 431.246 514.168 342.427 514.168C253.608 514.168 182.882 539.365 114.488 563.769C97.7929 569.731 80.5195 575.901 63.2078 581.613C62.658 581.794 62.053 581.634 61.6642 581.205C60.9521 580.42 61.2841 579.161 62.2904 578.827C79.1031 573.248 95.9208 567.249 112.216 561.448C180.998 536.881 252.352 511.469 342.487 511.469C432.622 511.469 503.797 536.881 572.759 561.448C588.994 567.238 605.778 573.226 622.558 578.795C623.597 579.14 623.926 580.449 623.173 581.243Z" fill="#818181" fill-opacity="0.1"/>
<path d="M1602.79 581.206C1602.46 581.685 1601.86 581.911 1601.29 581.776C1561.03 572.232 1523.21 558.735 1486.62 545.68C1418.23 521.366 1347.62 496.169 1258.68 496.169C1169.74 496.169 1099.14 521.366 1030.62 545.68C994.043 558.732 956.197 572.226 915.947 581.771C915.367 581.908 914.763 581.667 914.437 581.168C913.901 580.346 914.344 579.242 915.298 579.013C954.969 569.521 992.342 556.248 1028.47 543.359C1097.25 518.774 1168.61 493.38 1258.74 493.38C1348.88 493.38 1420.05 518.792 1489.01 543.359C1525.11 556.238 1562.48 569.552 1601.95 578.993C1602.93 579.228 1603.37 580.379 1602.79 581.206Z" fill="#818181" fill-opacity="0.1"/>
<path d="M686.564 581.169C686.227 581.669 685.614 581.909 685.027 581.77C644.751 572.226 606.937 558.732 570.33 545.682C501.966 521.367 431.24 496.171 342.42 496.171C253.601 496.171 182.875 521.367 114.482 545.772C78.1397 558.644 40.5617 572.048 0.579923 581.573C0.00201464 581.711 -0.600392 581.469 -0.922594 580.97C-1.44819 580.156 -1.00908 579.066 -0.0668163 578.84C39.2017 569.4 76.3421 556.161 112.209 543.306C180.991 518.721 252.345 493.327 342.48 493.327C432.615 493.327 503.79 518.739 572.752 543.306C608.853 556.186 646.225 569.5 685.693 578.941C686.68 579.178 687.131 580.327 686.564 581.169Z" fill="#818181" fill-opacity="0.1"/>
<path d="M800.541 577.556C710.466 577.556 639.232 552.143 570.27 527.577C501.906 503.191 431.18 477.958 342.361 477.958C253.542 477.958 182.815 503.155 114.422 527.577C78.1419 540.538 40.5674 553.941 0.589018 563.467C0.00603127 563.605 -0.601528 563.36 -0.924917 562.856C-1.45005 562.036 -1.00729 560.943 -0.0609827 560.716C39.2054 551.294 76.3439 538.056 112.209 525.183C180.991 500.599 252.345 475.187 342.48 475.187C432.615 475.187 503.79 500.599 572.752 525.183C641.116 549.57 711.812 574.784 800.661 574.784C889.51 574.784 960.206 549.588 1028.6 525.183C1097.04 500.722 1168.02 475.442 1257.51 475.188C1258.26 475.186 1258.87 475.791 1258.87 476.536C1258.87 477.282 1258.26 477.886 1257.51 477.888C1169.3 478.143 1098.98 503.207 1030.93 527.505C961.851 552.143 890.616 577.556 800.541 577.556Z" fill="#818181" fill-opacity="0.1"/>
<path d="M800.541 559.449C710.466 559.449 639.232 534.037 570.27 509.471C501.906 485.066 431.18 459.852 342.361 459.852C253.542 459.852 182.815 485.048 114.422 509.471C78.1419 522.431 40.5674 535.835 0.589018 545.36C0.00603127 545.499 -0.601528 545.254 -0.924917 544.749C-1.45005 543.93 -1.00729 542.837 -0.0609827 542.61C39.2054 533.188 76.3439 519.949 112.209 507.077C180.991 482.492 252.345 457.08 342.48 457.08C432.615 457.08 503.79 482.492 572.752 507.077C641.116 531.463 711.812 556.678 800.661 556.678C889.51 556.678 960.206 531.481 1028.6 507.077C1097.04 482.616 1168.02 457.335 1257.51 457.082C1258.26 457.08 1258.87 457.684 1258.87 458.43C1258.87 459.175 1258.26 459.779 1257.51 459.782C1169.3 460.036 1098.98 485.101 1030.93 509.399C961.851 533.965 890.616 559.449 800.541 559.449Z" fill="#818181" fill-opacity="0.1"/>
<path d="M800.541 541.343C710.466 541.343 639.232 515.931 570.27 491.365C501.906 466.96 431.18 441.746 342.361 441.746C253.542 441.746 182.815 466.942 114.422 491.347C78.142 504.325 40.5676 517.729 0.589321 527.254C0.00615859 527.393 -0.601593 527.148 -0.92508 526.643C-1.45023 525.824 -1.00772 524.731 -0.0614614 524.503C39.2051 515.064 76.3437 501.843 112.209 488.971C180.991 464.405 252.345 438.992 342.48 438.992C432.615 438.992 503.79 464.405 572.752 488.971C641.116 513.375 711.812 538.59 800.661 538.59C889.51 538.59 960.206 513.393 1028.6 488.971C1097.04 464.528 1168.02 439.248 1257.51 438.994C1258.26 438.992 1258.87 439.597 1258.87 440.342C1258.87 441.087 1258.26 441.692 1257.51 441.694C1169.3 441.949 1098.98 467.013 1030.93 491.311C961.851 515.967 890.616 541.343 800.541 541.343Z" fill="#818181" fill-opacity="0.1"/>
<path d="M800.541 523.168C710.466 523.168 639.232 497.756 570.27 473.171C501.906 448.785 431.18 423.57 342.361 423.57C253.542 423.57 182.815 448.767 114.422 473.171C78.1394 486.204 40.5621 499.556 0.580507 509.133C0.00239253 509.272 -0.600664 509.03 -0.923076 508.531C-1.44844 507.717 -1.00952 506.628 -0.0676806 506.401C39.2012 496.962 76.3418 483.723 112.209 470.867C180.991 446.301 252.345 420.889 342.48 420.889C432.615 420.889 503.79 446.301 572.752 470.867C641.116 495.254 711.812 520.486 800.661 520.486C889.51 520.486 960.206 495.29 1028.6 470.867C1097.04 446.424 1168.02 421.144 1257.51 420.891C1258.26 420.888 1258.87 421.493 1258.87 422.238C1258.87 422.984 1258.26 423.588 1257.51 423.59C1169.3 423.845 1098.98 448.909 1030.93 473.189C961.851 497.828 890.616 523.168 800.541 523.168Z" fill="#818181" fill-opacity="0.1"/>
<path d="M800.541 505.17C710.466 505.17 639.232 479.758 570.27 455.174C501.906 430.787 431.18 405.573 342.361 405.573C253.542 405.573 182.815 430.769 114.422 455.174C78.139 468.1 40.5614 481.557 0.579347 491.031C0.00163841 491.168 -0.600121 490.925 -0.922115 490.427C-1.44794 489.612 -1.00863 488.522 -0.0659432 488.295C39.2023 478.856 76.3423 465.617 112.209 452.762C180.991 428.196 252.345 402.783 342.48 402.783C432.615 402.783 503.79 428.196 572.752 452.762C641.116 477.148 711.812 502.381 800.661 502.381C889.51 502.381 960.206 477.184 1028.6 452.762C1097.04 428.319 1168.02 403.039 1257.51 402.785C1258.26 402.783 1258.87 403.388 1258.87 404.133C1258.87 404.878 1258.26 405.483 1257.51 405.485C1169.3 405.74 1098.98 430.804 1030.93 455.084C961.851 479.722 890.616 505.17 800.541 505.17Z" fill="#818181" fill-opacity="0.1"/>
<path d="M800.541 487.009C710.466 487.009 639.232 461.597 570.27 437.031C501.906 412.644 431.18 387.412 342.361 387.412C253.542 387.412 182.815 412.608 114.422 437.031C78.1392 449.993 40.5617 463.397 0.579938 472.922C0.00202131 473.06 -0.600394 472.818 -0.922598 472.319C-1.44819 471.505 -1.00908 470.415 -0.0668081 470.189C39.2017 460.749 76.3421 447.51 112.209 434.655C180.991 410.071 252.345 384.658 342.48 384.658C432.615 384.658 503.79 410.071 572.752 434.655C641.116 459.042 711.812 484.256 800.661 484.256C889.51 484.256 960.206 459.06 1028.6 434.655C1097.04 410.194 1168.02 384.914 1257.51 384.66C1258.26 384.658 1258.87 385.263 1258.87 386.008C1258.87 386.753 1258.26 387.358 1257.51 387.36C1169.3 387.615 1098.98 412.679 1030.93 436.977C961.851 461.597 890.616 487.009 800.541 487.009Z" fill="#818181" fill-opacity="0.1"/>
<path d="M800.541 468.905C710.466 468.905 639.232 443.493 570.27 418.927C501.906 394.54 431.18 369.308 342.361 369.308C253.542 369.308 182.815 394.504 114.422 418.927C78.1419 431.887 40.5674 445.291 0.589018 454.816C0.00603127 454.955 -0.601528 454.71 -0.924917 454.205C-1.45005 453.386 -1.00729 452.293 -0.0609827 452.066C39.2054 442.644 76.3439 429.405 112.209 416.533C180.991 391.948 252.345 366.536 342.48 366.536C432.615 366.536 503.79 391.948 572.752 416.533C641.116 440.919 711.812 466.134 800.661 466.134C889.51 466.134 960.206 440.937 1028.6 416.533C1097.04 392.072 1168.02 366.791 1257.51 366.538C1258.26 366.536 1258.87 367.14 1258.87 367.886C1258.87 368.631 1258.26 369.236 1257.51 369.238C1169.3 369.493 1098.98 394.557 1030.93 418.855C961.851 443.493 890.616 468.905 800.541 468.905Z" fill="#818181" fill-opacity="0.1"/>
<path d="M800.541 450.799C710.466 450.799 639.232 425.387 570.27 400.821C501.906 376.416 431.18 351.202 342.361 351.202C253.542 351.202 182.815 376.398 114.422 400.821C78.142 413.782 40.5676 427.185 0.589321 436.71C0.00615883 436.849 -0.601593 436.604 -0.925079 436.099C-1.45023 435.28 -1.00772 434.187 -0.0614614 433.959C39.2051 424.52 76.3437 411.3 112.209 398.427C180.991 373.861 252.345 348.448 342.48 348.448C432.615 348.448 503.79 373.861 572.752 398.427C641.116 422.832 711.812 448.046 800.661 448.046C889.51 448.046 960.206 422.85 1028.6 398.427C1097.04 373.984 1168.02 348.704 1257.51 348.45C1258.26 348.448 1258.87 349.053 1258.87 349.798C1258.87 350.544 1258.26 351.148 1257.51 351.15C1169.3 351.405 1098.98 376.469 1030.93 400.767C961.851 425.387 890.616 450.799 800.541 450.799Z" fill="#818181" fill-opacity="0.1"/>
<path d="M800.541 432.694C710.466 432.694 639.232 407.282 570.27 382.698C501.906 358.311 431.18 333.097 342.361 333.097C253.542 333.097 182.875 358.311 114.482 382.787C78.1423 395.677 40.5673 409.08 0.58873 418.552C0.00577235 418.691 -0.60132 418.445 -0.924597 417.941C-1.44998 417.121 -1.00727 416.028 -0.0605973 415.8C39.2056 406.36 76.344 393.123 112.209 380.268C180.991 355.701 252.345 330.289 342.48 330.289C432.615 330.289 503.79 355.701 572.752 380.268C641.116 404.672 711.812 429.887 800.661 429.887C889.51 429.887 960.206 404.69 1028.6 380.268C1097.04 355.825 1168.02 330.544 1257.51 330.291C1258.26 330.289 1258.87 330.893 1258.87 331.639C1258.87 332.384 1258.26 332.988 1257.51 332.991C1169.3 333.245 1098.98 358.309 1030.93 382.59C961.851 407.282 890.616 432.694 800.541 432.694Z" fill="#818181" fill-opacity="0.1"/>
<path d="M800.541 414.588C710.466 414.588 639.232 389.176 570.27 364.591C501.906 340.205 431.18 314.99 342.361 314.99C253.542 314.99 182.815 340.187 114.422 364.591C78.1394 377.553 40.5622 390.957 0.580709 400.553C0.00252151 400.692 -0.600757 400.45 -0.92324 399.95C-1.44852 399.137 -1.00967 398.048 -0.0679605 397.821C39.201 388.382 76.3417 375.143 112.209 362.287C180.991 337.721 252.345 312.309 342.48 312.309C432.615 312.309 503.79 337.721 572.752 362.287C641.116 386.674 711.812 411.906 800.661 411.906C889.51 411.906 960.206 386.71 1028.6 362.287C1097.04 337.844 1168.02 312.564 1257.51 312.311C1258.26 312.308 1258.87 312.913 1258.87 313.658C1258.87 314.404 1258.26 315.008 1257.51 315.01C1169.3 315.265 1098.98 340.329 1030.93 364.609C961.851 389.176 890.616 414.588 800.541 414.588Z" fill="#818181" fill-opacity="0.1"/>
<path d="M800.541 396.484C710.466 396.484 639.232 371.072 570.27 346.487C501.906 322.101 431.18 296.886 342.361 296.886C253.542 296.886 182.815 322.083 114.422 346.487C78.1392 359.449 40.5617 372.854 0.579938 382.379C0.00202131 382.517 -0.600394 382.275 -0.922598 381.775C-1.44819 380.961 -1.00908 379.872 -0.0668081 379.645C39.2017 370.206 76.3421 356.967 112.209 344.112C180.991 319.527 252.345 294.133 342.48 294.133C432.615 294.133 503.79 319.545 572.752 344.112C641.116 368.498 711.812 393.73 800.661 393.73C889.51 393.73 960.206 368.534 1028.6 344.112C1097.04 319.669 1168.02 294.388 1257.51 294.135C1258.26 294.133 1258.87 294.737 1258.87 295.483C1258.87 296.228 1258.26 296.832 1257.51 296.834C1169.3 297.089 1098.98 322.153 1030.93 346.433C961.851 371.072 890.616 396.484 800.541 396.484Z" fill="#818181" fill-opacity="0.1"/>
<path d="M800.541 378.359C710.466 378.359 639.232 352.947 570.27 328.381C501.906 303.994 431.18 278.762 342.361 278.762C253.542 278.762 182.815 303.958 114.422 328.381C78.1419 341.288 40.5674 354.744 0.589011 364.27C0.00602674 364.409 -0.601528 364.164 -0.924917 363.659C-1.45005 362.84 -1.00729 361.747 -0.0609828 361.52C39.2054 352.098 76.3439 338.859 112.209 325.987C180.991 301.403 252.345 275.99 342.48 275.99C432.615 275.99 503.79 301.403 572.752 325.987C640.996 350.392 711.692 375.588 800.541 375.588C889.39 375.588 960.086 350.392 1028.48 325.987C1096.92 301.526 1167.9 276.246 1257.39 275.992C1258.14 275.99 1258.75 276.595 1258.75 277.34C1258.75 278.086 1258.14 278.69 1257.39 278.692C1169.18 278.947 1098.86 304.011 1030.81 328.309C961.851 352.947 890.616 378.359 800.541 378.359Z" fill="#818181" fill-opacity="0.1"/>
<path d="M800.541 360.254C710.466 360.254 639.232 334.842 570.27 310.275C501.906 285.889 431.18 260.656 342.361 260.656C253.542 260.656 182.815 285.853 114.422 310.275C78.1419 323.29 40.5674 336.641 0.589033 346.165C0.00604272 346.304 -0.601528 346.058 -0.924917 345.554C-1.45005 344.734 -1.00729 343.642 -0.0609826 343.415C39.2054 333.992 76.3439 320.754 112.209 307.882C180.991 283.297 252.345 257.885 342.48 257.885C432.615 257.885 503.79 283.297 572.752 307.882C640.996 332.394 711.692 357.59 800.541 357.59C889.39 357.59 960.086 332.394 1028.48 307.99C1096.92 283.529 1167.9 258.248 1257.39 257.995C1258.14 257.993 1258.75 258.597 1258.75 259.343C1258.75 260.088 1258.14 260.692 1257.39 260.694C1169.18 260.949 1098.86 286.013 1030.81 310.311C961.851 334.842 890.616 360.254 800.541 360.254Z" fill="#818181" fill-opacity="0.1"/>
<path d="M800.541 342.147C710.466 342.147 639.232 316.735 570.27 292.15C501.906 267.764 431.18 242.549 342.361 242.549C253.542 242.549 182.815 267.746 114.422 292.15C78.142 305.129 40.5676 318.533 0.589321 328.058C0.00615883 328.197 -0.601593 327.951 -0.925079 327.447C-1.45023 326.627 -1.00772 325.534 -0.0614614 325.307C39.2051 315.868 76.3437 302.647 112.209 289.775C180.991 265.208 252.345 239.796 342.48 239.796C432.615 239.796 503.79 265.208 572.752 289.775C641.116 314.179 711.812 339.394 800.661 339.394C889.51 339.394 960.206 314.197 1028.6 289.775C1097.04 265.332 1168.02 240.051 1257.51 239.798C1258.26 239.796 1258.87 240.4 1258.87 241.146C1258.87 241.891 1258.26 242.495 1257.51 242.497C1169.3 242.752 1098.98 267.816 1030.93 292.096C961.851 316.735 890.616 342.147 800.541 342.147Z" fill="#818181" fill-opacity="0.1"/>
<path d="M800.541 324.044C710.466 324.044 639.232 298.631 570.27 274.047C501.966 249.606 431.24 224.41 342.421 224.41C253.601 224.41 182.875 249.606 114.482 274.011C78.1426 287.025 40.5678 300.412 0.58953 309.954C0.00629091 310.093 -0.601686 309.848 -0.925244 309.343C-1.45031 308.524 -1.00786 307.431 -0.0617495 307.204C39.2049 297.764 76.3436 284.526 112.209 271.671C180.991 247.105 252.345 221.692 342.48 221.692C432.615 221.692 503.79 247.105 572.752 271.671C641.116 296.058 711.812 321.29 800.661 321.29C889.51 321.29 960.206 296.094 1028.6 271.671C1097.03 247.229 1168.01 221.949 1257.51 221.694C1258.26 221.692 1258.87 222.301 1258.87 223.051C1258.87 223.802 1258.26 224.41 1257.51 224.412C1169.3 224.668 1098.98 249.732 1030.93 274.011C961.851 298.631 890.616 324.044 800.541 324.044Z" fill="#818181" fill-opacity="0.1"/>
<path d="M800.541 305.938C710.466 305.938 639.232 280.526 570.27 255.941C501.966 231.609 431.24 206.413 342.421 206.413C253.601 206.413 182.875 231.609 114.482 256.013C78.1397 268.904 40.5617 282.308 0.579938 291.833C0.00202131 291.971 -0.600394 291.729 -0.922598 291.23C-1.44819 290.415 -1.00908 289.326 -0.0668081 289.099C39.2017 279.66 76.3421 266.421 112.209 253.566C180.991 228.999 252.345 203.587 342.48 203.587C432.615 203.587 503.79 228.999 572.752 253.566C641.116 277.952 711.812 303.185 800.661 303.185C889.51 303.185 960.206 277.988 1028.6 253.566C1097.02 229.128 1167.99 203.854 1257.45 203.589C1258.23 203.587 1258.87 204.219 1258.87 205C1258.87 205.78 1258.23 206.412 1257.45 206.415C1169.27 206.681 1098.96 231.739 1030.93 256.013C961.851 280.526 890.616 305.938 800.541 305.938Z" fill="#818181" fill-opacity="0.1"/>
<path d="M800.541 287.816C710.466 287.816 639.232 262.422 570.27 237.837C501.906 213.451 431.18 188.218 342.361 188.218C253.542 188.218 182.815 213.415 114.422 237.837C78.1392 250.799 40.5617 264.204 0.579938 273.729C0.00202131 273.867 -0.600394 273.625 -0.922598 273.125C-1.44819 272.311 -1.00908 271.222 -0.0668081 270.995C39.2017 261.556 76.3421 248.317 112.209 235.462C180.991 210.877 252.345 185.465 342.48 185.465C432.615 185.465 503.79 210.877 572.752 235.462C641.116 259.848 711.812 285.062 800.661 285.062C889.51 285.062 960.206 259.866 1028.6 235.462C1097.04 211.001 1168.02 185.72 1257.51 185.467C1258.26 185.465 1258.87 186.069 1258.87 186.815C1258.87 187.56 1258.26 188.164 1257.51 188.166C1169.3 188.421 1098.98 213.485 1030.93 237.783C961.851 262.422 890.616 287.816 800.541 287.816Z" fill="#818181" fill-opacity="0.1"/>
<path d="M800.541 269.71C710.466 269.71 639.232 244.298 570.27 219.731C501.906 195.345 431.18 170.112 342.361 170.112C253.542 170.112 182.815 195.309 114.422 219.731C78.1419 232.692 40.5674 246.096 0.589026 255.621C0.00603437 255.76 -0.601529 255.514 -0.924919 255.01C-1.45005 254.19 -1.00729 253.098 -0.0609778 252.871C39.2054 243.448 76.3439 230.21 112.209 217.338C180.991 192.753 252.345 167.341 342.48 167.341C432.615 167.341 503.79 192.753 572.752 217.338C641.116 241.724 711.812 266.938 800.661 266.938C889.51 266.938 960.206 241.742 1028.6 217.338C1097.04 192.877 1168.02 167.596 1257.51 167.343C1258.26 167.341 1258.87 167.945 1258.87 168.691C1258.87 169.436 1258.26 170.04 1257.51 170.042C1169.3 170.297 1098.98 195.361 1030.93 219.659C961.851 244.298 890.616 269.71 800.541 269.71Z" fill="#818181" fill-opacity="0.1"/>
<path d="M800.541 251.603C710.466 251.603 639.232 226.19 570.27 201.624C501.906 177.219 431.18 152.005 342.361 152.005C253.542 152.005 182.815 177.201 114.422 201.624C78.1448 214.584 40.5733 227.986 0.59843 237.511C0.010186 237.651 -0.602721 237.403 -0.92738 236.893C-1.45206 236.068 -1.00591 234.972 -0.0556163 234.744C39.2088 225.322 76.3455 212.084 112.209 199.212C180.991 174.646 252.345 149.233 342.48 149.233C432.615 149.233 503.79 174.646 572.752 199.23C641.116 223.617 711.812 248.831 800.661 248.831C889.51 248.831 960.206 223.635 1028.6 199.23C1097.04 174.769 1168.02 149.489 1257.51 149.235C1258.26 149.233 1258.87 149.838 1258.87 150.583C1258.87 151.329 1258.26 151.933 1257.51 151.935C1169.3 152.19 1098.98 177.254 1030.93 201.552C961.851 226.208 890.616 251.603 800.541 251.603Z" fill="#818181" fill-opacity="0.1"/>
<path d="M800.541 233.499C710.466 233.499 639.232 208.086 570.27 183.502C501.906 159.115 431.18 133.901 342.361 133.901C253.542 133.901 182.815 159.097 114.422 183.502C78.1279 196.486 40.5383 209.895 0.542563 219.42C-0.0144058 219.553 -0.595508 219.324 -0.912437 218.847C-1.43978 218.054 -1.01432 216.977 -0.0880201 216.755C39.1884 207.315 76.3356 194.091 112.209 181.216C180.991 156.65 252.345 131.237 342.48 131.237C432.615 131.237 503.79 156.65 572.752 181.216C641.116 205.621 711.812 230.835 800.661 230.835C889.51 230.835 960.206 205.639 1028.6 181.216C1097.04 156.773 1168.02 131.493 1257.51 131.239C1258.26 131.237 1258.87 131.842 1258.87 132.587C1258.87 133.333 1258.26 133.937 1257.51 133.939C1169.3 134.194 1098.98 159.258 1030.93 183.538C961.851 208.086 890.616 233.499 800.541 233.499Z" fill="#818181" fill-opacity="0.1"/>
<path d="M800.541 215.412C710.466 215.412 639.232 190 570.27 165.415C501.906 141.029 431.18 115.815 342.361 115.815C253.542 115.815 182.815 141.011 114.422 165.415C78.1391 178.36 40.5615 191.799 0.579541 201.29C0.00176334 201.427 -0.600212 201.185 -0.922276 200.686C-1.44803 199.872 -1.00878 198.782 -0.0662316 198.555C39.2021 189.116 76.3423 175.877 112.209 163.022C180.991 138.455 252.345 113.043 342.48 113.043C432.615 113.043 503.79 138.455 572.752 163.022C641.116 187.408 711.812 212.641 800.661 212.641C889.51 212.641 960.206 187.444 1028.6 163.022C1097.04 138.579 1168.02 113.298 1257.51 113.045C1258.26 113.043 1258.87 113.647 1258.87 114.393C1258.87 115.138 1258.26 115.742 1257.51 115.745C1169.3 115.999 1098.98 141.063 1030.93 165.343C961.851 189.982 890.616 215.412 800.541 215.412Z" fill="#818181" fill-opacity="0.1"/>
<path d="M800.541 197.288C710.466 197.288 639.232 171.875 570.27 147.291C501.906 122.904 431.18 97.6901 342.361 97.6901C253.542 97.6901 182.815 122.886 114.422 147.291C78.1392 160.253 40.5617 173.658 0.579938 183.183C0.00202131 183.32 -0.600394 183.078 -0.922597 182.579C-1.44819 181.765 -1.00908 180.675 -0.0668081 180.449C39.2017 171.009 76.3421 157.771 112.209 144.915C180.991 120.349 252.345 94.9365 342.48 94.9365C432.615 94.9365 503.79 120.349 572.752 144.915C641.116 169.302 711.812 194.534 800.661 194.534C889.51 194.534 960.206 169.338 1028.6 144.915C1097.04 120.472 1168.02 95.1918 1257.51 94.9384C1258.26 94.9363 1258.87 95.5409 1258.87 96.2863C1258.87 97.0318 1258.26 97.6359 1257.51 97.6381C1169.3 97.8929 1098.98 122.957 1030.93 147.237C961.851 171.875 890.616 197.288 800.541 197.288Z" fill="#818181" fill-opacity="0.1"/>
<path d="M800.541 179.165C710.466 179.165 639.232 153.752 570.27 129.186C501.906 104.799 431.18 79.5671 342.361 79.5671C253.542 79.5671 182.815 104.763 114.422 129.186C78.1392 142.148 40.5617 155.552 0.579945 165.078C0.00202417 165.215 -0.600395 164.973 -0.922599 164.474C-1.44819 163.66 -1.00907 162.57 -0.0668035 162.344C39.2017 152.904 76.3421 139.666 112.209 126.81C180.991 102.226 252.345 76.8135 342.48 76.8135C432.615 76.8135 503.79 102.226 572.752 126.81C641.116 151.197 711.812 176.411 800.661 176.411C889.51 176.411 960.206 151.215 1028.6 126.81C1097.04 102.349 1168.02 77.0688 1257.51 76.8154C1258.26 76.8133 1258.87 77.4178 1258.87 78.1633C1258.87 78.9088 1258.26 79.5129 1257.51 79.515C1169.3 79.7699 1098.98 104.834 1030.93 129.132C961.851 153.752 890.616 179.165 800.541 179.165Z" fill="#818181" fill-opacity="0.1"/>
<path d="M800.541 161.06C710.466 161.06 639.232 135.647 570.27 111.081C501.906 86.6944 431.18 61.462 342.361 61.462C253.542 61.462 182.875 86.6944 114.482 111.027C78.1424 124.041 40.5674 137.445 0.589026 146.97C0.00603437 147.109 -0.601529 146.864 -0.924919 146.359C-1.45005 145.54 -1.00729 144.447 -0.0609779 144.22C39.2054 134.798 76.3439 121.56 112.209 108.687C180.991 84.1028 252.345 58.6904 342.48 58.6904C432.615 58.6904 503.79 84.1028 572.752 108.687C641.116 133.074 711.812 158.288 800.661 158.288C889.51 158.288 960.206 133.092 1028.6 108.687C1097.04 84.2263 1168.02 58.9458 1257.51 58.6924C1258.26 58.6902 1258.87 59.2948 1258.87 60.0402C1258.87 60.7857 1258.26 61.3898 1257.51 61.392C1169.3 61.6468 1098.98 86.7109 1030.93 111.009C961.851 135.647 890.616 161.06 800.541 161.06Z" fill="#818181" fill-opacity="0.1"/>
<path d="M800.541 142.954C710.466 142.954 639.232 117.542 570.27 92.9757C501.966 68.5712 431.24 43.3568 342.421 43.3568C253.601 43.3568 182.875 68.5712 114.482 93.0297C78.1422 105.937 40.567 119.34 0.588247 128.795C0.00552917 128.933 -0.601164 128.687 -0.924275 128.183C-1.44972 127.363 -1.00669 126.27 -0.0598173 126.043C39.2061 116.62 76.3442 103.382 112.209 90.51C181.111 66.0336 252.345 40.6572 342.421 40.6572C432.496 40.6572 503.73 66.0696 572.692 90.654C641.056 115.041 711.752 140.255 800.601 140.255C889.45 140.255 960.146 115.059 1028.54 90.654C1096.98 66.1931 1167.96 40.9125 1257.45 40.6591C1258.2 40.657 1258.81 41.2616 1258.81 42.007C1258.81 42.7525 1258.2 43.3566 1257.45 43.3588C1169.24 43.6136 1098.92 68.6777 1030.87 92.9757C961.851 117.542 890.616 142.954 800.541 142.954Z" fill="#818181" fill-opacity="0.1"/>
<path d="M800.541 124.847C710.466 124.847 639.232 99.4352 570.27 74.8507C501.966 50.4642 431.24 25.2498 342.421 25.2498C253.601 25.2498 182.875 50.4462 114.482 74.8507C78.1426 87.8294 40.5679 101.233 0.58971 110.793C0.00640821 110.933 -0.601776 110.687 -0.925403 110.182C-1.4504 109.363 -1.00801 108.271 -0.0620365 108.043C39.2047 98.6045 76.3435 85.3836 112.209 72.511C180.991 47.9446 252.345 22.5322 342.48 22.5322C432.615 22.5322 503.79 47.9446 572.752 72.511C641.116 96.9155 711.812 122.13 800.661 122.13C889.51 122.13 960.206 96.9335 1028.6 72.511C1097.04 48.068 1168.02 22.7875 1257.51 22.5341C1258.26 22.532 1258.87 23.1366 1258.87 23.882C1258.87 24.6275 1258.26 25.2316 1257.51 25.2338C1169.3 25.4886 1098.98 50.5526 1030.93 74.8327C961.851 99.4352 890.616 124.847 800.541 124.847Z" fill="#818181" fill-opacity="0.1"/>
<path d="M800.541 106.744C710.466 106.744 639.232 81.3315 570.27 56.747C501.966 32.3605 431.24 7.14618 342.421 7.14618C253.601 7.14618 182.875 32.3605 114.482 56.747C78.1397 69.7089 40.5617 83.1136 0.579938 92.6388C0.00202131 92.7765 -0.600394 92.5343 -0.922597 92.0352C-1.44819 91.221 -1.00908 90.1315 -0.0668081 89.905C39.2017 80.4653 76.3421 67.2267 112.209 54.3714C180.991 29.8049 252.345 4.39258 342.48 4.39258C432.615 4.39258 503.79 29.8049 572.752 54.3714C641.116 78.7579 711.812 103.99 800.661 103.99C889.51 103.99 960.206 78.7939 1028.6 54.3714C1097.04 29.9283 1168.02 4.6479 1257.51 4.3945C1258.26 4.39239 1258.87 4.99691 1258.87 5.74238C1258.87 6.48786 1258.26 7.092 1257.51 7.09415C1169.3 7.34897 1098.98 32.4129 1030.93 56.693C961.851 81.3315 890.616 106.744 800.541 106.744Z" fill="#818181" fill-opacity="0.1"/>
<path d="M800.539 88.6373C710.464 88.6373 639.229 63.2069 570.267 38.6404C534.192 25.7488 496.844 12.4739 457.281 2.98161C456.334 2.75446 455.891 1.66123 456.416 0.841534C456.74 0.337267 457.347 0.0917239 457.929 0.229828C498.206 9.774 536.021 23.2678 572.6 36.3188C640.994 60.6333 711.69 85.9376 800.539 85.9376C889.388 85.9376 960.084 60.7413 1028.48 36.3188C1065.06 23.2666 1102.88 9.77155 1143.31 0.227226C1143.88 0.0904554 1144.49 0.331897 1144.81 0.830344C1145.35 1.65191 1144.91 2.75702 1143.95 2.98471C1104.17 12.4768 1066.88 25.7502 1030.63 38.6404C961.849 63.2249 890.614 88.6373 800.539 88.6373Z" fill="#818181" fill-opacity="0.1"/>
<path d="M0.579993 74.5322C0.00207543 74.6699 -0.600394 74.4277 -0.922598 73.9286C-1.44819 73.1144 -1.00908 72.0249 -0.0668081 71.7984C39.2017 62.3587 76.3421 49.1201 112.209 36.2648C148.373 23.3026 186.687 9.77358 226.886 0.228784C227.466 0.0910665 228.07 0.332599 228.396 0.831789C228.932 1.65308 228.49 2.75782 227.536 2.98653C187.952 12.4785 150.609 25.7511 114.482 38.6404C78.0507 51.638 40.5604 65.0075 0.579993 74.5322Z" fill="#818181" fill-opacity="0.1"/>
<path d="M800.538 70.5131C710.462 70.5131 639.228 45.1008 570.266 20.5343C554.001 14.7165 537.186 8.73305 520.348 3.23528C519.341 2.90648 519.006 1.64885 519.717 0.86395C520.104 0.436634 520.707 0.277311 521.255 0.458018C538.567 6.17049 555.843 12.3409 572.569 18.3027C640.992 42.6352 711.689 67.8315 800.538 67.8315C889.387 67.8315 960.083 42.6352 1028.48 18.2127C1045.17 12.2513 1062.45 6.08127 1079.76 0.369096C1080.31 0.18774 1080.91 0.347634 1081.3 0.776478C1082.01 1.56201 1081.68 2.82043 1080.67 3.15388C1063.84 8.73283 1047.05 14.7294 1030.75 20.4444C961.847 45.1008 890.613 70.5131 800.538 70.5131Z" fill="#818181" fill-opacity="0.1"/>
<path d="M0.589033 56.4246C0.00604153 56.5635 -0.601529 56.3182 -0.924918 55.8136C-1.45005 54.9943 -1.00729 53.9015 -0.0609801 53.6744C39.2054 44.252 76.3434 31.0138 112.179 18.1414C128.904 12.18 146.178 6.00998 163.49 0.297807C164.039 0.116451 164.644 0.276345 165.033 0.705189C165.745 1.49073 165.412 2.74913 164.406 3.08254C147.566 8.66151 130.749 14.6581 114.482 20.3731C78.1424 33.5303 40.5674 46.9001 0.589033 56.4246Z" fill="#818181" fill-opacity="0.1"/>
<path d="M800.537 52.4079C711.417 52.4079 640.739 27.5313 572.459 3.2103C571.437 2.84653 571.143 1.54473 571.906 0.774994C572.31 0.367592 572.913 0.230242 573.453 0.423026C641.542 24.711 712.012 49.7083 800.477 49.7083C888.943 49.7083 959.412 24.7289 1027.5 0.423425C1028.04 0.230405 1028.64 0.367774 1029.05 0.775416C1029.81 1.54518 1029.52 2.84693 1028.5 3.21126C960.333 27.5319 889.657 52.4079 800.537 52.4079Z" fill="#818181" fill-opacity="0.1"/>
<path d="M0.589209 38.3201C0.00612235 38.4592 -0.601591 38.2138 -0.925046 37.7091C-1.45015 36.8898 -1.00755 35.7971 -0.0613189 35.5699C38.8573 26.2249 75.7372 13.1424 111.273 0.352339C111.809 0.159571 112.407 0.291705 112.812 0.691683C113.586 1.4561 113.297 2.76624 112.274 3.13394C76.5923 15.9485 39.7302 28.988 0.589209 38.3201Z" fill="#818181" fill-opacity="0.1"/>
<path d="M800.539 34.3024C730.007 34.3024 672.101 18.6687 624.647 3.14754C623.64 2.81791 623.314 1.56193 624.026 0.776308C624.415 0.347542 625.015 0.186277 625.565 0.366533C672.768 15.8402 730.408 31.6027 800.539 31.6027C870.671 31.6027 928.223 15.8398 975.513 0.365935C976.063 0.186037 976.663 0.34738 977.051 0.776004C977.764 1.56177 977.438 2.81798 976.43 3.14766C928.977 18.6688 871.071 34.3024 800.539 34.3024Z" fill="#818181" fill-opacity="0.1"/>
</svg>
