<svg width="1536" height="416" viewBox="0 0 1536 416" fill="none" xmlns="http://www.w3.org/2000/svg">
<path d="M1314.08 415.551C1313.84 415.829 1313.47 415.959 1313.11 415.892C1244.29 403.171 1167.09 403.171 1098.27 415.893C1097.91 415.959 1097.54 415.832 1097.3 415.558V415.558C1096.78 414.957 1097.1 414.016 1097.89 413.873C1167.02 401.27 1244.36 401.272 1313.49 413.877C1314.27 414.019 1314.59 414.95 1314.08 415.551V415.551Z" fill="#818181" fill-opacity="0.1"/>
<path d="M437.787 415.553C437.55 415.83 437.184 415.959 436.826 415.894C402.675 409.7 366.229 406.462 329.403 406.351C292.575 406.461 256.127 409.699 221.975 415.895C221.619 415.96 221.256 415.833 221.018 415.56V415.56C220.494 414.96 220.823 414.018 221.607 413.878C255.915 407.742 292.471 404.534 329.403 404.422C366.333 404.536 402.888 407.744 437.194 413.882C437.972 414.021 438.301 414.953 437.787 415.553V415.553Z" fill="#818181" fill-opacity="0.1"/>
<path d="M1374.34 415.606C1374.08 415.821 1373.74 415.901 1373.41 415.82C1328.23 404.721 1272.99 393.41 1205.75 393.41C1138.51 393.41 1083.19 404.721 1038.06 415.82C1037.73 415.901 1037.39 415.821 1037.13 415.606V415.606C1036.45 415.046 1036.69 413.953 1037.55 413.744C1082.93 402.652 1138.3 391.48 1205.75 391.48C1273.2 391.48 1328.55 402.652 1373.93 413.744C1374.78 413.953 1375.02 415.046 1374.34 415.606V415.606Z" fill="#818181" fill-opacity="0.1"/>
<path d="M498.006 415.606C497.745 415.821 497.401 415.901 497.072 415.82C451.891 404.721 396.655 393.41 329.412 393.41C262.17 393.41 206.848 404.721 161.723 415.82C161.395 415.901 161.051 415.821 160.79 415.606V415.606C160.11 415.046 160.353 413.953 161.208 413.744C206.589 402.652 261.965 391.48 329.412 391.48C396.86 391.48 452.207 402.652 497.588 413.744C498.443 413.953 498.685 415.046 498.006 415.606V415.606Z" fill="#818181" fill-opacity="0.1"/>
<path d="M1424.14 415.621C1423.87 415.812 1423.53 415.874 1423.22 415.79C1357.99 398.4 1290.47 380.47 1205.74 380.47C1121.02 380.47 1053.5 398.385 988.25 415.786C987.926 415.873 987.581 415.804 987.315 415.601V415.601C986.601 415.055 986.822 413.928 987.691 413.696C1052.82 396.315 1120.52 378.54 1205.8 378.54C1291.02 378.54 1358.53 396.293 1423.78 413.665C1424.68 413.904 1424.89 415.08 1424.14 415.621V415.621Z" fill="#818181" fill-opacity="0.1"/>
<path d="M547.807 415.621C547.54 415.812 547.202 415.874 546.884 415.79C481.627 398.4 414.141 380.47 329.41 380.47C244.684 380.47 177.172 398.385 111.919 415.786C111.595 415.873 111.25 415.804 110.984 415.601V415.601C110.27 415.055 110.491 413.928 111.36 413.696C176.49 396.315 244.19 378.54 329.467 378.54C414.693 378.54 482.168 396.294 547.451 413.665C548.349 413.904 548.563 415.08 547.807 415.621V415.621Z" fill="#818181" fill-opacity="0.1"/>
<path d="M1474.04 415.606C1473.78 415.821 1473.44 415.9 1473.11 415.819C1456.46 411.713 1439.82 407.271 1423.72 402.981C1358.33 385.524 1290.81 367.514 1205.74 367.514C1120.68 367.514 1053.15 385.524 987.625 402.981C971.547 407.271 954.909 411.713 938.237 415.819C937.908 415.9 937.561 415.821 937.3 415.606V415.606C936.62 415.046 936.87 413.95 937.724 413.738C953.797 409.752 969.874 405.466 985.451 401.321C1051.24 383.762 1119.48 365.598 1205.69 365.598C1291.89 365.598 1359.96 383.762 1425.92 401.321C1441.47 405.478 1457.55 409.753 1473.62 413.738C1474.47 413.95 1474.72 415.046 1474.04 415.606V415.606Z" fill="#818181" fill-opacity="0.1"/>
<path d="M597.718 415.62C597.454 415.827 597.109 415.902 596.782 415.822C580.137 411.715 563.497 407.273 547.389 402.982C482.005 385.525 414.362 367.516 329.414 367.516C244.466 367.516 176.823 385.525 111.41 402.969C95.332 407.26 78.6937 411.701 62.0218 415.808C61.6933 415.889 61.346 415.809 61.0849 415.594V415.594C60.4056 415.034 60.6549 413.939 61.5096 413.727C77.582 409.741 93.659 405.454 109.236 401.31C175.021 383.75 243.265 365.586 329.471 365.586C415.677 365.586 483.75 383.75 549.706 401.31C565.224 405.446 581.265 409.723 597.305 413.702C598.186 413.921 598.431 415.058 597.718 415.62V415.62Z" fill="#818181" fill-opacity="0.1"/>
<path d="M1534.69 415.591C1534.46 415.846 1534.1 415.963 1533.76 415.902C1495.13 409.076 1458.84 399.399 1423.74 390.039C1358.33 372.66 1290.8 354.65 1205.73 354.65C1120.67 354.65 1053.14 372.66 987.616 390.039C952.522 399.397 916.21 409.073 877.581 415.899C877.228 415.961 876.868 415.834 876.632 415.565V415.565C876.108 414.964 876.442 414.021 877.227 413.881C915.202 407.095 950.975 397.6 985.556 388.38C1051.34 370.808 1119.58 352.656 1205.79 352.656C1292 352.656 1360.07 370.82 1426.03 388.38C1460.58 397.592 1496.34 407.116 1534.12 413.865C1534.93 414.009 1535.26 414.992 1534.69 415.591V415.591Z" fill="#818181" fill-opacity="0.1"/>
<path d="M658.405 415.568C658.163 415.837 657.799 415.962 657.443 415.899C618.787 409.073 582.505 399.397 547.383 390.04C481.999 372.66 414.356 354.651 329.408 354.651C244.461 354.651 176.817 372.66 111.404 390.104C76.5392 399.334 40.4845 408.945 2.11297 415.757C1.7609 415.82 1.40132 415.692 1.16758 415.422V415.422C0.652787 414.826 0.984451 413.896 1.7596 413.756C39.3495 407.008 74.9002 397.538 109.231 388.342C175.015 370.769 243.259 352.618 329.465 352.618C415.672 352.618 483.744 370.782 549.7 388.342C584.254 397.555 620.026 407.08 657.806 413.829C658.618 413.974 658.957 414.956 658.405 415.568V415.568Z" fill="#818181" fill-opacity="0.1"/>
<path d="M767.561 412.823C681.412 412.823 613.282 394.658 547.326 377.099C481.942 359.668 414.299 341.632 329.351 341.632C244.403 341.632 176.76 359.642 111.347 377.099C76.5407 386.392 40.4881 396.003 2.11872 402.815C1.76328 402.879 1.40034 402.749 1.16534 402.475V402.475C0.650557 401.875 0.985196 400.942 1.76356 400.802C39.352 394.066 74.9014 384.596 109.231 375.388C175.015 357.816 243.259 339.651 329.465 339.651C415.672 339.651 483.744 357.816 549.7 375.388C615.084 392.819 682.699 410.841 767.675 410.841C852.652 410.841 920.267 392.832 985.679 375.388C1051.22 357.881 1119.2 339.788 1204.94 339.652C1205.48 339.651 1205.91 340.083 1205.91 340.616V340.616C1205.91 341.149 1205.48 341.581 1204.94 341.582C1120.42 341.718 1053.07 359.657 987.91 377.047C921.84 394.658 853.71 412.823 767.561 412.823Z" fill="#818181" fill-opacity="0.1"/>
<path d="M767.561 399.881C681.412 399.881 613.282 381.717 547.326 364.157C481.942 346.714 414.299 328.691 329.351 328.691C244.403 328.691 176.76 346.701 111.347 364.157C76.5407 373.45 40.4881 383.062 2.11872 389.874C1.76328 389.937 1.40034 389.808 1.16534 389.534V389.534C0.650557 388.933 0.985196 388 1.76356 387.861C39.352 381.125 74.9014 371.655 109.231 362.447C175.015 344.874 243.259 326.71 329.465 326.71C415.672 326.71 483.744 344.874 549.7 362.447C615.084 379.877 682.699 397.9 767.675 397.9C852.652 397.9 920.267 379.89 985.679 362.447C1051.22 344.94 1119.2 326.846 1204.94 326.711C1205.48 326.71 1205.91 327.142 1205.91 327.675V327.675C1205.91 328.208 1205.48 328.64 1204.94 328.64C1120.42 328.777 1053.07 346.716 987.91 364.106C921.84 381.666 853.71 399.881 767.561 399.881Z" fill="#818181" fill-opacity="0.1"/>
<path d="M767.561 386.941C681.412 386.941 613.282 368.776 547.326 351.217C481.942 333.773 414.299 315.75 329.351 315.75C244.403 315.75 176.76 333.76 111.347 351.204C76.5407 360.51 40.4882 370.121 2.11889 376.933C1.76335 376.997 1.4003 376.867 1.16523 376.593V376.593C0.650398 375.993 0.984902 375.06 1.7633 374.92C39.3519 368.172 74.9013 358.714 109.231 349.506C175.015 331.946 243.259 313.782 329.465 313.782C415.672 313.782 483.744 331.946 549.7 349.506C615.084 366.95 682.699 384.972 767.675 384.972C852.652 384.972 920.267 366.963 985.679 349.506C1051.22 332.012 1119.2 313.919 1204.94 313.783C1205.48 313.782 1205.91 314.214 1205.91 314.747V314.747C1205.91 315.28 1205.48 315.712 1204.94 315.713C1120.42 315.849 1053.07 333.788 987.91 351.178C921.84 368.802 853.71 386.941 767.561 386.941Z" fill="#818181" fill-opacity="0.1"/>
<path d="M767.561 373.948C681.412 373.948 613.282 355.784 547.326 338.211C481.942 320.78 414.299 302.758 329.351 302.758C244.403 302.758 176.76 320.767 111.347 338.211C76.5391 347.556 40.4848 357.13 2.11336 363.98C1.76111 364.042 1.40116 363.915 1.16726 363.644V363.644C0.652607 363.048 0.984181 362.118 1.75911 361.979C39.3492 355.231 74.9001 345.761 109.231 336.565C175.015 319.005 243.259 300.841 329.465 300.841C415.672 300.841 483.744 319.005 549.7 336.565C615.084 353.995 682.699 372.031 767.675 372.031C852.652 372.031 920.267 354.021 985.679 336.565C1051.22 319.071 1119.2 300.977 1204.94 300.842C1205.48 300.841 1205.91 301.273 1205.91 301.806V301.806C1205.91 302.338 1205.48 302.77 1204.94 302.771C1120.42 302.908 1053.07 320.847 987.91 338.224C921.84 355.835 853.71 373.948 767.561 373.948Z" fill="#818181" fill-opacity="0.1"/>
<path d="M767.561 361.083C681.412 361.083 613.282 342.919 547.326 325.347C481.942 307.916 414.299 289.893 329.351 289.893C244.403 289.893 176.76 307.903 111.347 325.347C76.5388 334.615 40.4843 344.265 2.11259 351.039C1.7607 351.102 1.40148 350.974 1.1679 350.703V350.703C0.652963 350.107 0.984723 349.177 1.76009 349.038C39.3499 342.289 74.9003 332.819 109.231 323.623C175.015 306.064 243.259 287.899 329.465 287.899C415.672 287.899 483.744 306.064 549.7 323.623C615.084 341.054 682.699 359.089 767.675 359.089C852.652 359.089 920.267 341.08 985.679 323.623C1051.22 306.129 1119.2 288.036 1204.94 287.9C1205.48 287.899 1205.91 288.331 1205.91 288.864V288.864C1205.91 289.397 1205.48 289.829 1204.94 289.83C1120.42 289.966 1053.07 307.905 987.91 325.283C921.84 342.894 853.71 361.083 767.561 361.083Z" fill="#818181" fill-opacity="0.1"/>
<path d="M767.561 348.103C681.412 348.103 613.282 329.938 547.326 312.379C481.942 294.948 414.299 276.913 329.351 276.913C244.403 276.913 176.76 294.922 111.347 312.379C76.539 321.672 40.4845 331.284 2.11298 338.097C1.7609 338.159 1.40132 338.031 1.16758 337.761V337.761C0.652783 337.165 0.984452 336.235 1.7596 336.096C39.3495 329.347 74.9002 319.877 109.231 310.681C175.015 293.109 243.259 274.944 329.465 274.944C415.672 274.944 483.744 293.109 549.7 310.681C615.084 328.112 682.699 346.134 767.675 346.134C852.652 346.134 920.267 328.125 985.679 310.681C1051.22 293.174 1119.2 275.081 1204.94 274.945C1205.48 274.944 1205.91 275.376 1205.91 275.909V275.909C1205.91 276.442 1205.48 276.874 1204.94 276.875C1120.42 277.011 1053.07 294.95 987.91 312.34C921.84 329.938 853.71 348.103 767.561 348.103Z" fill="#818181" fill-opacity="0.1"/>
<path d="M767.561 335.161C681.412 335.161 613.282 316.997 547.326 299.438C481.942 282.007 414.299 263.971 329.351 263.971C244.403 263.971 176.76 281.981 111.347 299.438C76.5407 308.731 40.4881 318.342 2.11872 325.154C1.76328 325.217 1.40034 325.088 1.16534 324.814V324.814C0.650557 324.214 0.985196 323.281 1.76356 323.141C39.352 316.405 74.9014 306.935 109.231 297.727C175.015 280.154 243.259 261.99 329.465 261.99C415.672 261.99 483.744 280.154 549.7 297.727C615.084 315.158 682.699 333.18 767.675 333.18C852.652 333.18 920.267 315.171 985.679 297.727C1051.22 280.22 1119.2 262.127 1204.94 261.991C1205.48 261.99 1205.91 262.422 1205.91 262.955V262.955C1205.91 263.488 1205.48 263.92 1204.94 263.921C1120.42 264.057 1053.07 281.996 987.91 299.386C921.84 316.997 853.71 335.161 767.561 335.161Z" fill="#818181" fill-opacity="0.1"/>
<path d="M767.561 322.221C681.412 322.221 613.282 304.057 547.326 286.497C481.942 269.053 414.299 251.031 329.351 251.031C244.403 251.031 176.76 269.04 111.347 286.497C76.5407 295.79 40.4882 305.402 2.11889 312.214C1.76335 312.277 1.4003 312.147 1.16523 311.873V311.873C0.650398 311.273 0.984902 310.34 1.7633 310.2C39.3519 303.452 74.9013 293.995 109.231 284.786C175.015 267.227 243.259 249.062 329.465 249.062C415.672 249.062 483.744 267.227 549.7 284.786C615.084 302.23 682.699 320.253 767.675 320.253C852.652 320.253 920.267 302.243 985.679 284.786C1051.22 267.293 1119.2 249.199 1204.94 249.063C1205.48 249.062 1205.91 249.494 1205.91 250.027V250.027C1205.91 250.56 1205.48 250.992 1204.94 250.993C1120.42 251.129 1053.07 269.068 987.91 286.459C921.84 304.057 853.71 322.221 767.561 322.221Z" fill="#818181" fill-opacity="0.1"/>
<path d="M767.561 309.279C681.412 309.279 613.282 291.115 547.326 273.542C481.942 256.111 414.299 238.089 329.351 238.089C244.403 238.089 176.817 256.111 111.404 273.607C76.5409 282.849 40.488 292.46 2.11849 299.234C1.76314 299.297 1.40046 299.167 1.16555 298.893V298.893C0.650578 298.293 0.985173 297.359 1.76378 297.22C39.3522 290.471 74.9015 281.001 109.231 271.806C175.015 254.246 243.259 236.082 329.465 236.082C415.672 236.082 483.744 254.246 549.7 271.806C615.084 289.249 682.699 307.272 767.675 307.272C852.652 307.272 920.267 289.262 985.679 271.806C1051.22 254.312 1119.2 236.218 1204.94 236.083C1205.48 236.082 1205.91 236.514 1205.91 237.047V237.047C1205.91 237.58 1205.48 238.012 1204.94 238.012C1120.42 238.149 1053.07 256.088 987.91 273.465C921.84 291.115 853.71 309.279 767.561 309.279Z" fill="#818181" fill-opacity="0.1"/>
<path d="M767.561 296.338C681.412 296.338 613.282 278.174 547.326 260.602C481.942 243.171 414.299 225.148 329.351 225.148C244.403 225.148 176.76 243.158 111.347 260.602C76.5391 269.895 40.4848 279.507 2.1135 286.37C1.76117 286.433 1.40111 286.305 1.16715 286.035V286.035C0.652544 285.439 0.984091 284.509 1.75896 284.37C39.3491 277.622 74.9 268.151 109.231 258.955C175.015 241.396 243.259 223.231 329.465 223.231C415.672 223.231 483.744 241.396 549.7 258.955C615.084 276.386 682.699 294.422 767.675 294.422C852.652 294.422 920.267 276.412 985.679 258.955C1051.22 241.462 1119.2 223.368 1204.94 223.232C1205.48 223.231 1205.91 223.663 1205.91 224.196V224.196C1205.91 224.729 1205.48 225.161 1204.94 225.162C1120.42 225.298 1053.07 243.237 987.91 260.615C921.84 278.174 853.71 296.338 767.561 296.338Z" fill="#818181" fill-opacity="0.1"/>
<path d="M767.561 283.397C681.412 283.397 613.282 265.232 547.326 247.66C481.942 230.229 414.299 212.206 329.351 212.206C244.403 212.206 176.76 230.216 111.347 247.66C76.539 256.953 40.4845 266.565 2.11298 273.378C1.7609 273.44 1.40132 273.313 1.16758 273.042V273.042C0.652783 272.446 0.984452 271.516 1.7596 271.377C39.3495 264.628 74.9002 255.158 109.231 245.962C175.015 228.39 243.259 210.238 329.465 210.238C415.672 210.238 483.744 228.402 549.7 245.962C615.084 263.393 682.699 281.428 767.675 281.428C852.652 281.428 920.267 263.419 985.679 245.962C1051.22 228.468 1119.2 210.375 1204.94 210.239C1205.48 210.238 1205.91 210.67 1205.91 211.203V211.203C1205.91 211.736 1205.48 212.168 1204.94 212.169C1120.42 212.305 1053.07 230.244 987.91 247.621C921.84 265.232 853.71 283.397 767.561 283.397Z" fill="#818181" fill-opacity="0.1"/>
<path d="M767.561 270.442C681.412 270.442 613.282 252.278 547.326 234.718C481.942 217.287 414.299 199.252 329.351 199.252C244.403 199.252 176.76 217.261 111.347 234.718C76.5407 243.973 40.4881 253.622 2.11872 260.435C1.76328 260.498 1.40034 260.368 1.16534 260.094V260.094C0.650557 259.494 0.985196 258.561 1.76356 258.422C39.352 251.686 74.9014 242.215 109.231 233.007C175.015 215.435 243.259 197.271 329.465 197.271C415.672 197.271 483.744 215.435 549.7 233.007C614.97 250.451 682.585 268.461 767.561 268.461C852.537 268.461 920.152 250.451 985.565 233.007C1051.1 215.501 1119.08 197.407 1204.83 197.271C1205.36 197.27 1205.8 197.702 1205.8 198.235V198.235C1205.8 198.768 1205.36 199.2 1204.83 199.201C1120.31 199.337 1052.96 217.276 987.796 234.667C921.84 252.277 853.71 270.442 767.561 270.442Z" fill="#818181" fill-opacity="0.1"/>
<path d="M767.561 257.501C681.412 257.501 613.282 239.337 547.326 221.778C481.942 204.347 414.299 186.311 329.351 186.311C244.403 186.311 176.76 204.321 111.347 221.778C76.5407 231.109 40.4881 240.682 2.11873 247.494C1.76329 247.557 1.40034 247.428 1.16534 247.154V247.154C0.650557 246.553 0.985196 245.621 1.76356 245.481C39.352 238.745 74.9014 229.275 109.231 220.067C175.015 202.494 243.259 184.33 329.465 184.33C415.672 184.33 483.744 202.494 549.7 220.067C614.97 237.588 682.585 255.597 767.561 255.597C852.537 255.597 920.152 237.588 985.565 220.144C1051.1 202.637 1119.08 184.544 1204.83 184.408C1205.36 184.407 1205.8 184.839 1205.8 185.372V185.372C1205.8 185.905 1205.36 186.337 1204.83 186.338C1120.31 186.474 1052.96 204.413 987.796 221.803C921.84 239.337 853.71 257.501 767.561 257.501Z" fill="#818181" fill-opacity="0.1"/>
<path d="M767.561 244.559C681.412 244.559 613.282 226.395 547.326 208.822C481.942 191.391 414.299 173.369 329.351 173.369C244.403 173.369 176.76 191.378 111.347 208.822C76.5407 218.128 40.4882 227.739 2.11889 234.552C1.76335 234.615 1.4003 234.485 1.16523 234.211V234.211C0.650398 233.611 0.984902 232.678 1.7633 232.538C39.3519 225.79 74.9013 216.332 109.231 207.124C175.015 189.565 243.259 171.4 329.465 171.4C415.672 171.4 483.744 189.565 549.7 207.124C615.084 224.568 682.699 242.59 767.675 242.59C852.652 242.59 920.267 224.581 985.679 207.124C1051.22 189.63 1119.2 171.537 1204.94 171.401C1205.48 171.4 1205.91 171.832 1205.91 172.365V172.365C1205.91 172.898 1205.48 173.33 1204.94 173.331C1120.42 173.467 1053.07 191.406 987.91 208.784C921.84 226.395 853.71 244.559 767.561 244.559Z" fill="#818181" fill-opacity="0.1"/>
<path d="M767.561 231.618C681.412 231.618 613.282 213.454 547.326 195.882C481.999 178.412 414.356 160.402 329.408 160.402C244.461 160.402 176.817 178.412 111.404 195.856C76.5411 205.187 40.4883 214.786 2.11902 221.611C1.76341 221.674 1.40025 221.545 1.16512 221.27V221.27C0.650334 220.67 0.98481 219.737 1.76314 219.598C39.3518 212.849 74.9013 203.379 109.231 194.184C175.015 176.624 243.259 158.46 329.465 158.46C415.672 158.46 483.744 176.624 549.7 194.184C615.084 211.615 682.699 229.65 767.675 229.65C852.652 229.65 920.267 211.64 985.679 194.184C1051.21 176.69 1119.19 158.597 1204.94 158.461C1205.47 158.46 1205.91 158.895 1205.91 159.431V159.431C1205.91 159.968 1205.47 160.402 1204.94 160.403C1120.42 160.541 1053.07 178.479 987.91 195.856C921.84 213.454 853.71 231.618 767.561 231.618Z" fill="#818181" fill-opacity="0.1"/>
<path d="M767.561 218.678C681.412 218.678 613.282 200.514 547.326 182.941C481.999 165.549 414.356 147.539 329.408 147.539C244.461 147.539 176.817 165.549 111.404 182.993C76.5392 192.235 40.4845 201.847 2.11298 208.659C1.7609 208.721 1.40132 208.594 1.16758 208.323V208.323C0.652783 207.727 0.984452 206.797 1.7596 206.658C39.3495 199.91 74.9002 190.439 109.231 181.243C175.015 163.684 243.259 145.52 329.465 145.52C415.672 145.52 483.744 163.684 549.7 181.243C615.084 198.674 682.699 216.71 767.675 216.71C852.652 216.71 920.267 198.7 985.679 181.243C1051.21 163.753 1119.17 145.662 1204.9 145.52C1205.46 145.519 1205.91 145.972 1205.91 146.529V146.529C1205.91 147.087 1205.46 147.539 1204.9 147.54C1120.4 147.683 1053.06 165.619 987.91 182.993C921.84 200.514 853.71 218.678 767.561 218.678Z" fill="#818181" fill-opacity="0.1"/>
<path d="M767.561 205.723C681.412 205.723 613.282 187.571 547.326 169.999C481.942 152.568 414.299 134.533 329.351 134.533C244.403 134.533 176.76 152.542 111.347 169.999C76.539 179.293 40.4845 188.904 2.11298 195.717C1.7609 195.779 1.40132 195.652 1.16758 195.381V195.381C0.652783 194.785 0.984452 193.855 1.7596 193.716C39.3495 186.967 74.9002 177.497 109.231 168.301C175.015 150.729 243.259 132.564 329.465 132.564C415.672 132.564 483.744 150.729 549.7 168.301C615.084 185.732 682.699 203.755 767.675 203.755C852.652 203.755 920.267 185.745 985.679 168.301C1051.22 150.795 1119.2 132.701 1204.94 132.565C1205.48 132.564 1205.91 132.996 1205.91 133.529V133.529C1205.91 134.062 1205.48 134.494 1204.94 134.495C1120.42 134.631 1053.07 152.57 987.91 169.96C921.84 187.571 853.71 205.723 767.561 205.723Z" fill="#818181" fill-opacity="0.1"/>
<path d="M767.561 192.782C681.412 192.782 613.282 174.618 547.326 157.059C481.942 139.628 414.299 121.592 329.351 121.592C244.403 121.592 176.76 139.602 111.347 157.059C76.5407 166.352 40.4881 175.963 2.11872 182.775C1.76328 182.838 1.40034 182.709 1.16533 182.435V182.435C0.650555 181.835 0.985197 180.902 1.76356 180.762C39.352 174.026 74.9014 164.556 109.231 155.348C175.015 137.775 243.259 119.611 329.465 119.611C415.672 119.611 483.744 137.775 549.7 155.348C615.084 172.779 682.699 190.801 767.675 190.801C852.652 190.801 920.267 172.792 985.679 155.348C1051.22 137.841 1119.2 119.748 1204.94 119.612C1205.48 119.611 1205.91 120.043 1205.91 120.576V120.576C1205.91 121.109 1205.48 121.541 1204.94 121.542C1120.42 121.678 1053.07 139.617 987.91 157.007C921.84 174.618 853.71 192.782 767.561 192.782Z" fill="#818181" fill-opacity="0.1"/>
<path d="M767.561 179.84C681.412 179.84 613.282 161.676 547.326 144.116C481.942 126.673 414.299 108.65 329.351 108.65C244.403 108.65 176.76 126.66 111.347 144.116C76.5425 153.409 40.4918 163.02 2.12465 169.832C1.76573 169.896 1.39932 169.764 1.16299 169.487V169.487C0.648192 168.882 0.985665 167.947 1.76728 167.806C39.3544 161.071 74.9025 151.601 109.231 142.393C175.015 124.833 243.259 106.669 329.465 106.669C415.672 106.669 483.744 124.833 549.7 142.405C615.084 159.836 682.699 177.859 767.675 177.859C852.652 177.859 920.267 159.849 985.679 142.405C1051.22 124.899 1119.2 106.805 1204.94 106.67C1205.48 106.669 1205.91 107.101 1205.91 107.634V107.634C1205.91 108.167 1205.48 108.598 1204.94 108.599C1120.42 108.736 1053.07 126.675 987.91 144.065C921.84 161.689 853.71 179.84 767.561 179.84Z" fill="#818181" fill-opacity="0.1"/>
<path d="M767.561 166.901C681.412 166.901 613.282 148.736 547.326 131.164C481.942 113.733 414.299 95.7105 329.351 95.7105C244.403 95.7105 176.76 113.72 111.347 131.164C76.5319 140.472 40.4698 150.086 2.08949 156.899C1.75123 156.959 1.40545 156.839 1.17714 156.582V156.582C0.66258 156.004 0.982862 155.084 1.74497 154.948C39.3403 148.2 74.8957 138.74 109.231 129.53C175.015 111.971 243.259 93.8066 329.465 93.8066C415.672 93.8066 483.744 111.971 549.7 129.53C615.084 146.974 682.699 164.997 767.675 164.997C852.652 164.997 920.267 146.987 985.679 129.53C1051.22 112.037 1119.2 93.943 1204.94 93.8074C1205.48 93.8066 1205.91 94.2386 1205.91 94.7715V94.7715C1205.91 95.3043 1205.48 95.7362 1204.94 95.737C1120.42 95.8734 1053.07 113.812 987.91 131.19C921.84 148.736 853.71 166.901 767.561 166.901Z" fill="#818181" fill-opacity="0.1"/>
<path d="M767.561 153.971C681.412 153.971 613.282 135.807 547.326 118.234C481.942 100.804 414.299 82.7809 329.351 82.7809C244.403 82.7809 176.76 100.791 111.347 118.234C76.5389 127.515 40.4843 137.152 2.11272 143.94C1.76077 144.002 1.40142 143.874 1.16779 143.604V143.604C0.652903 143.008 0.984633 142.077 1.75993 141.938C39.3497 135.19 74.9003 125.719 109.231 116.523C175.015 98.964 243.259 80.7998 329.465 80.7998C415.672 80.7998 483.744 98.964 549.7 116.523C615.084 133.954 682.699 151.99 767.675 151.99C852.652 151.99 920.267 133.98 985.679 116.523C1051.22 99.0299 1119.2 80.9362 1204.94 80.8006C1205.48 80.7997 1205.91 81.2318 1205.91 81.7646V81.7646C1205.91 82.2975 1205.48 82.7293 1204.94 82.7302C1120.42 82.8666 1053.07 100.806 987.91 118.183C921.84 135.794 853.71 153.971 767.561 153.971Z" fill="#818181" fill-opacity="0.1"/>
<path d="M767.561 141.017C681.412 141.017 613.282 122.853 547.326 105.28C481.942 87.8492 414.299 69.8266 329.351 69.8266C244.403 69.8266 176.76 87.8364 111.347 105.28C76.539 114.574 40.4845 124.186 2.11298 130.998C1.7609 131.06 1.40132 130.933 1.16758 130.662V130.662C0.652783 130.066 0.984452 129.136 1.7596 128.997C39.3495 122.248 74.9002 112.778 109.231 103.582C175.015 86.0225 243.259 67.8584 329.465 67.8584C415.672 67.8584 483.744 86.0225 549.7 103.582C615.084 121.013 682.699 139.048 767.675 139.048C852.652 139.048 920.267 121.039 985.679 103.582C1051.22 86.0885 1119.2 67.9948 1204.94 67.8592C1205.48 67.8583 1205.91 68.2904 1205.91 68.8232V68.8232C1205.91 69.3561 1205.48 69.7879 1204.94 69.7888C1120.42 69.9252 1053.07 87.8642 987.91 105.242C921.84 122.853 853.71 141.017 767.561 141.017Z" fill="#818181" fill-opacity="0.1"/>
<path d="M767.561 128.063C681.412 128.063 613.282 109.898 547.326 92.3389C481.942 74.908 414.299 56.8725 329.351 56.8725C244.403 56.8725 176.76 74.8823 111.347 92.3389C76.539 101.632 40.4845 111.244 2.11299 118.057C1.76091 118.119 1.40132 117.991 1.16758 117.721V117.721C0.652782 117.125 0.984453 116.195 1.75961 116.055C39.3495 109.307 74.9002 99.8368 109.231 90.6408C175.015 73.0684 243.259 54.9043 329.465 54.9043C415.672 54.9043 483.744 73.0684 549.7 90.6408C615.084 108.072 682.699 126.094 767.675 126.094C852.652 126.094 920.267 108.085 985.679 90.6408C1051.22 73.1344 1119.2 55.0407 1204.94 54.9051C1205.48 54.9042 1205.91 55.3363 1205.91 55.8691V55.8691C1205.91 56.402 1205.48 56.8338 1204.94 56.8347C1120.42 56.9711 1053.07 74.9102 987.91 92.3003C921.84 109.898 853.71 128.063 767.561 128.063Z" fill="#818181" fill-opacity="0.1"/>
<path d="M767.561 115.121C681.412 115.121 613.282 96.9572 547.326 79.3977C481.942 61.9668 414.299 43.9313 329.351 43.9313C244.403 43.9313 176.817 61.9668 111.404 79.3591C76.541 88.6905 40.4881 98.3021 2.11872 105.114C1.76328 105.177 1.40034 105.048 1.16533 104.774V104.774C0.650555 104.174 0.985197 103.241 1.76356 103.101C39.352 96.3653 74.9014 86.8951 109.231 77.6867C175.015 60.1143 243.259 41.9502 329.465 41.9502C415.672 41.9502 483.744 60.1143 549.7 77.6867C615.084 95.1176 682.699 113.14 767.675 113.14C852.652 113.14 920.267 95.1305 985.679 77.6867C1051.22 60.1803 1119.2 42.0866 1204.94 41.951C1205.48 41.9501 1205.91 42.3822 1205.91 42.915V42.915C1205.91 43.4479 1205.48 43.8797 1204.94 43.8806C1120.42 44.017 1053.07 61.9561 987.91 79.3462C921.84 96.9572 853.71 115.121 767.561 115.121Z" fill="#818181" fill-opacity="0.1"/>
<path d="M767.561 102.18C681.412 102.18 613.282 84.0161 547.326 66.4566C481.999 49.0128 414.356 30.9902 329.408 30.9902C244.461 30.9902 176.817 49.0128 111.404 66.4952C76.5408 75.7498 40.4878 85.3611 2.11821 92.1225C1.76302 92.1851 1.40055 92.0555 1.16576 91.7818V91.7818C0.650795 91.1813 0.98556 90.2481 1.76421 90.1085C39.3525 83.3726 74.9016 73.9024 109.231 64.6942C175.13 47.199 243.259 29.0605 329.408 29.0605C415.557 29.0605 483.687 47.2247 549.643 64.7971C615.027 82.228 682.642 100.251 767.618 100.251C852.594 100.251 920.209 82.2408 985.622 64.7971C1051.16 47.2907 1119.14 29.1969 1204.89 29.0613C1205.42 29.0605 1205.86 29.4925 1205.86 30.0254V30.0254C1205.86 30.5582 1205.42 30.9901 1204.89 30.9909C1120.37 31.1273 1053.02 49.0664 987.853 66.4566C921.84 84.0161 853.71 102.18 767.561 102.18Z" fill="#818181" fill-opacity="0.1"/>
<path d="M767.561 89.238C681.412 89.238 613.282 71.0739 547.326 53.5015C481.999 36.0706 414.356 18.048 329.408 18.048C244.461 18.048 176.817 36.0577 111.404 53.5015C76.5411 62.8073 40.4884 72.4187 2.11915 79.2562C1.76348 79.3196 1.40019 79.1901 1.16501 78.9159V78.9159C0.650276 78.3157 0.984721 77.3829 1.76298 77.2432C39.3517 70.4953 74.9012 61.0375 109.231 51.8291C175.015 34.2696 243.259 16.1055 329.465 16.1055C415.672 16.1055 483.744 34.2696 549.7 51.8291C615.084 69.2729 682.699 87.2955 767.675 87.2955C852.652 87.2955 920.267 69.2858 985.679 51.8291C1051.22 34.3355 1119.2 16.2419 1204.94 16.1062C1205.48 16.1054 1205.91 16.5374 1205.91 17.0703V17.0703C1205.91 17.6031 1205.48 18.035 1204.94 18.0359C1120.42 18.1723 1053.07 36.1113 987.91 53.4886C921.84 71.0739 853.71 89.238 767.561 89.238Z" fill="#818181" fill-opacity="0.1"/>
<path d="M767.561 76.2969C681.412 76.2969 613.282 58.1328 547.326 40.5604C481.999 23.1295 414.356 5.10688 329.408 5.10688C244.461 5.10688 176.817 23.1295 111.404 40.5604C76.5392 49.8539 40.4845 59.4658 2.11298 66.278C1.7609 66.3405 1.40132 66.2129 1.16758 65.9423V65.9423C0.652783 65.3463 0.984452 64.4161 1.7596 64.277C39.3495 57.5287 74.9002 48.0583 109.231 38.8623C175.015 21.3028 243.259 3.13867 329.465 3.13867C415.672 3.13867 483.744 21.3028 549.7 38.8623C615.084 56.2932 682.699 74.3287 767.675 74.3287C852.652 74.3287 920.267 56.319 985.679 38.8623C1051.22 21.3687 1119.2 3.27507 1204.94 3.13944C1205.48 3.1386 1205.91 3.57063 1205.91 4.10348V4.10348C1205.91 4.63633 1205.48 5.06821 1204.94 5.06907C1120.42 5.20547 1053.07 23.1445 987.91 40.5218C921.84 58.1328 853.71 76.2969 767.561 76.2969Z" fill="#818181" fill-opacity="0.1"/>
<path d="M767.56 63.3558C681.411 63.3558 613.281 45.1788 547.325 27.6193C512.795 18.3973 477.044 8.9008 439.172 2.11482C438.393 1.97532 438.058 1.04221 438.573 0.441782V0.441782C438.808 0.167931 439.171 0.0383598 439.526 0.101091C478.181 6.92659 514.463 16.6024 549.556 25.9598C614.968 43.3392 682.583 61.4262 767.56 61.4262C852.536 61.4262 920.151 43.4164 985.563 25.9598C1020.66 16.6018 1056.94 6.92535 1095.74 0.0997774C1096.09 0.0377773 1096.45 0.16463 1096.69 0.434139V0.434139C1097.21 1.03436 1096.88 1.97754 1096.09 2.11734C1058.01 8.90315 1022.32 18.3984 987.623 27.6193C921.838 45.1917 853.709 63.3558 767.56 63.3558Z" fill="#818181" fill-opacity="0.1"/>
<path d="M2.11301 53.3369C1.76094 53.3994 1.40132 53.2718 1.16758 53.0012V53.0012C0.652783 52.4052 0.984452 51.475 1.7596 51.3358C39.3495 44.5876 74.9002 35.1172 109.231 25.9212C143.926 16.6276 180.689 6.92625 219.265 0.100464C219.618 0.038021 219.978 0.164941 220.214 0.434855V0.434855C220.738 1.03507 220.405 1.97823 219.62 2.11872C181.729 8.90443 145.984 18.399 111.404 27.6193C76.4539 36.9384 40.4837 46.5249 2.11301 53.3369Z" fill="#818181" fill-opacity="0.1"/>
<path d="M767.558 50.4019C681.409 50.4019 613.279 32.2378 547.323 14.6783C531.774 10.5215 515.698 6.24647 499.601 2.31811C498.747 2.10972 498.495 1.01595 499.174 0.456757V0.456757C499.433 0.242389 499.779 0.16345 500.107 0.244038C516.779 4.35069 533.419 8.79251 549.526 13.0831C614.967 30.4754 682.582 48.4852 767.558 48.4852C852.534 48.4852 920.149 30.4754 985.562 13.0188C1001.64 8.72835 1018.28 4.2867 1034.95 0.180182C1035.28 0.0993019 1035.63 0.178526 1035.89 0.393669V0.393669C1036.57 0.953751 1036.32 2.04898 1035.46 2.26061C1019.37 6.24676 1003.31 10.5309 987.736 14.6139C921.837 32.2378 853.707 50.4019 767.558 50.4019Z" fill="#818181" fill-opacity="0.1"/>
<path d="M2.11872 40.3946C1.76328 40.4577 1.40034 40.3282 1.16533 40.0541V40.0541C0.650556 39.4539 0.985197 38.521 1.76356 38.3815C39.352 31.6456 74.901 22.1754 109.202 12.967C125.309 8.67659 141.947 4.23495 158.619 0.128424C158.948 0.0475441 159.295 0.126768 159.556 0.341911V0.341911C160.235 0.901993 159.985 1.99721 159.131 2.20881C143.032 6.19498 126.955 10.4791 111.404 14.5622C76.541 23.996 40.4881 33.5827 2.11872 40.3946Z" fill="#818181" fill-opacity="0.1"/>
<path d="M767.559 37.4603C682.346 37.4603 614.764 19.6891 549.476 2.30971C548.602 2.07695 548.382 0.939592 549.104 0.395086V0.395086C549.37 0.194392 549.714 0.127196 550.036 0.213103C615.262 17.6016 682.746 35.5307 767.501 35.5307C852.257 35.5307 919.741 17.6145 984.966 0.213281C985.289 0.127262 985.632 0.194473 985.899 0.395293V0.395293C986.621 0.939887 986.401 2.07735 985.527 2.31051C920.351 19.6896 852.769 37.4603 767.559 37.4603Z" fill="#818181" fill-opacity="0.1"/>
<path d="M2.11883 27.4548C1.76332 27.5179 1.4003 27.3884 1.16525 27.1143V27.1143C0.650469 26.5141 0.985006 25.5812 1.76336 25.4417C39.1407 18.7392 74.5518 9.34097 108.669 0.163046C108.988 0.0772208 109.328 0.141655 109.594 0.337849V0.337849C110.325 0.877135 110.109 2.02173 109.232 2.25714C75.0164 11.4406 39.6647 20.784 2.11883 27.4548Z" fill="#818181" fill-opacity="0.1"/>
<path d="M767.558 24.5193C700.111 24.5193 644.735 13.3483 599.354 2.25577C598.499 2.04672 598.257 0.953706 598.936 0.393585V0.393585C599.197 0.178488 599.541 0.0985579 599.869 0.179088C645.079 11.2661 700.315 22.5897 767.558 22.5897C834.802 22.5897 889.954 11.2659 935.247 0.178821C935.576 0.0984622 935.92 0.17842 936.18 0.393436V0.393436C936.86 0.953618 936.617 2.04675 935.762 2.25583C890.381 13.3483 835.005 24.5193 767.558 24.5193Z" fill="#818181" fill-opacity="0.1"/>
</svg>
