<svg width="48" height="48" viewBox="0 0 48 48" fill="none" xmlns="http://www.w3.org/2000/svg">
<path d="M40.9706 7.02939C36.4375 2.49643 30.4106 0 24 0C17.5894 0 11.5625 2.49643 7.02939 7.02939C2.49643 11.5625 0 17.5894 0 24C0 30.4106 2.49643 36.4375 7.02939 40.9706C11.5625 45.5036 17.5894 48 24 48C30.4106 48 36.4375 45.5036 40.9706 40.9706C45.5036 36.4375 48 30.4106 48 24C48 17.5894 45.5036 11.5625 40.9706 7.02939ZM24 45.8281C11.9639 45.8281 2.17195 36.0361 2.17195 24C2.17195 11.9639 11.9639 2.17195 24 2.17195C36.0361 2.17195 45.8281 11.9639 45.8281 24C45.8281 36.0361 36.0361 45.8281 24 45.8281Z" fill="#D36635"/>
<path d="M24.0003 4.34387C13.162 4.34387 4.34424 13.1615 4.34424 24C4.34424 34.8384 13.1619 43.6561 24.0003 43.6561C28.5207 43.6561 32.9379 42.0769 36.4383 39.2093C36.9022 38.8292 36.9702 38.145 36.5902 37.6811C36.2102 37.2173 35.526 37.1491 35.062 37.5293C31.9487 40.0796 28.0203 41.4841 24.0003 41.4841C14.3596 41.4841 6.51618 33.6407 6.51618 24C6.51618 14.3593 14.3596 6.51582 24.0003 6.51582C33.6412 6.51582 41.4845 14.3593 41.4845 24C41.4845 28.0199 40.0799 31.9483 37.5295 35.0616C37.1494 35.5254 37.2174 36.2097 37.6813 36.5898C38.1453 36.97 38.8295 36.9019 39.2096 36.438C42.0772 32.9377 43.6565 28.5203 43.6565 24C43.6565 13.1615 34.8388 4.34387 24.0003 4.34387Z" fill="#D36635"/>
<path d="M27.7958 24.1973L32.5237 19.4694C33.0571 18.9361 33.3508 18.2271 33.3508 17.4728C33.3508 16.7187 33.0571 16.0096 32.5237 15.4762C31.4228 14.3754 29.6316 14.3755 28.5306 15.4762L24 20.0069L17.1658 13.1728C16.6325 12.6394 15.9234 12.3457 15.1692 12.3457C14.415 12.3457 13.706 12.6394 13.1728 13.1727C12.6395 13.7059 12.3457 14.4149 12.3457 15.1692C12.3457 15.9235 12.6395 16.6326 13.1727 17.1658L20.2042 24.1974C20.2341 24.7776 20.3946 25.3239 20.657 25.8073L13.1727 33.2916C12.7486 33.7157 12.7486 34.4033 13.1727 34.8275C13.3847 35.0395 13.6627 35.1456 13.9406 35.1456C14.2185 35.1456 14.4965 35.0395 14.7085 34.8275L22.1928 27.3432C22.7306 27.635 23.3463 27.8009 24 27.8009C26.0297 27.8009 27.6929 26.2017 27.7958 24.1973ZM30.0664 17.0121C30.3205 16.7581 30.7338 16.758 30.9878 17.012C31.1109 17.1352 31.1788 17.2988 31.1788 17.4728C31.1788 17.6468 31.111 17.8104 30.9878 17.9335L27.1068 21.8145C26.8546 21.4571 26.5427 21.1452 26.1853 20.8931L30.0664 17.0121ZM14.5176 15.1692C14.5176 14.9952 14.5854 14.8316 14.7086 14.7085C14.8316 14.5854 14.9953 14.5176 15.1692 14.5176C15.3433 14.5176 15.5069 14.5854 15.63 14.7086L21.8146 20.8932C21.4572 21.1453 21.1453 21.4572 20.8932 21.8146L14.7085 15.6299C14.5854 15.5069 14.5176 15.3432 14.5176 15.1692ZM24 25.629C23.5529 25.629 23.1474 25.4478 22.8528 25.1551C22.8515 25.1537 22.8504 25.1523 22.849 25.1508C22.8477 25.1495 22.8462 25.1485 22.8449 25.1472C22.5523 24.8526 22.3711 24.4471 22.3711 24C22.3711 23.1018 23.1018 22.3711 24 22.3711C24.8982 22.3711 25.629 23.1018 25.629 24C25.629 24.8982 24.8982 25.629 24 25.629Z" fill="#D36635"/>
<path d="M11.4029 22.9141H9.77396C9.17418 22.9141 8.68799 23.4004 8.68799 24C8.68799 24.5997 9.17418 25.086 9.77396 25.086H11.4029C12.0027 25.086 12.4889 24.5997 12.4889 24C12.4889 23.4004 12.0027 22.9141 11.4029 22.9141Z" fill="#D36635"/>
<path d="M25.0855 11.4027V9.77372C25.0855 9.17404 24.5993 8.68774 23.9995 8.68774C23.3998 8.68774 22.9136 9.17404 22.9136 9.77372V11.4027C22.9136 12.0023 23.3998 12.4886 23.9995 12.4886C24.5993 12.4886 25.0855 12.0023 25.0855 11.4027Z" fill="#D36635"/>
<path d="M39.3121 24C39.3121 23.4004 38.826 22.9141 38.2262 22.9141H36.5972C35.9974 22.9141 35.5112 23.4004 35.5112 24C35.5112 24.5997 35.9974 25.086 36.5972 25.086H38.2262C38.826 25.086 39.3121 24.5997 39.3121 24Z" fill="#D36635"/>
<path d="M22.9136 36.5973V38.2263C22.9136 38.826 23.3998 39.3123 23.9995 39.3123C24.5993 39.3123 25.0855 38.826 25.0855 38.2263V36.5973C25.0855 35.9977 24.5993 35.5114 23.9995 35.5114C23.3998 35.5114 22.9136 35.9977 22.9136 36.5973Z" fill="#D36635"/>
</svg>
