<svg width="1607" height="1876" viewBox="0 0 1607 1876" fill="none" xmlns="http://www.w3.org/2000/svg">
<path d="M1153.93 1874.1C1153.52 1875.14 1152.34 1875.65 1151.3 1875.23C1011.35 1818.24 854.49 1818.24 714.546 1875.23C713.513 1875.65 712.332 1875.15 711.922 1874.11L710.184 1869.71C709.782 1868.7 710.274 1867.54 711.287 1867.13C853.317 1809.34 1012.49 1809.34 1154.52 1867.14C1155.53 1867.55 1156.02 1868.69 1155.63 1869.71L1153.93 1874.1Z" fill="#818181" fill-opacity="0.1"/>
<path d="M1276.99 1874.02C1276.47 1874.99 1275.26 1875.35 1274.29 1874.82C1182.28 1824.89 1069.84 1774.13 933.045 1774.13C796.249 1774.13 683.644 1824.88 591.74 1874.82C590.771 1875.35 589.567 1874.99 589.037 1874.02L586.761 1869.87C586.229 1868.9 586.579 1867.68 587.552 1867.16C680.559 1816.7 794.273 1765.43 933.045 1765.43C1071.82 1765.43 1185.47 1816.7 1278.48 1867.16C1279.45 1867.68 1279.8 1868.9 1279.27 1869.87L1276.99 1874.02Z" fill="#818181" fill-opacity="0.1"/>
<path d="M1378.61 1874.01C1378.03 1874.92 1376.84 1875.22 1375.9 1874.67C1243.08 1796.37 1105.55 1715.77 933.028 1715.77C760.526 1715.77 623.012 1796.29 490.14 1874.64C489.19 1875.2 487.967 1874.88 487.405 1873.93L485.01 1869.89C484.447 1868.94 484.76 1867.71 485.713 1867.15C619.345 1788.28 758.085 1707.07 933.144 1707.07C1108.18 1707.07 1246.56 1788.26 1380.52 1867.12C1381.5 1867.69 1381.8 1868.96 1381.2 1869.91L1378.61 1874.01Z" fill="#818181" fill-opacity="0.1"/>
<path d="M1480.33 1874.02C1479.8 1874.98 1478.59 1875.34 1477.62 1874.81C1443.91 1856.4 1410.21 1836.51 1377.58 1817.29C1244.24 1738.57 1106.52 1657.35 933.037 1657.35C759.558 1657.35 621.836 1738.57 488.198 1817.29C455.628 1836.51 421.931 1856.4 388.159 1874.81C387.191 1875.34 385.98 1874.99 385.451 1874.02L383.173 1869.87C382.641 1868.9 382.998 1867.68 383.969 1867.15C417.567 1848.79 451.201 1828.96 483.765 1809.81C617.928 1730.62 757.108 1648.71 932.92 1648.71C1108.73 1648.71 1247.56 1730.62 1382.08 1809.81C1414.58 1829.02 1448.22 1848.8 1481.81 1867.15C1482.78 1867.68 1483.14 1868.9 1482.61 1869.87L1480.33 1874.02Z" fill="#818181" fill-opacity="0.1"/>
<path d="M1603.89 1874.21C1603.47 1875.21 1602.33 1875.69 1601.33 1875.29C1522.79 1844.53 1449 1801.01 1377.62 1758.93C1244.22 1680.56 1106.5 1599.34 933.019 1599.34C759.541 1599.34 621.819 1680.56 488.181 1758.93C416.819 1801.01 342.987 1844.51 264.465 1875.28C263.44 1875.68 262.285 1875.17 261.881 1874.15L260.142 1869.75C259.734 1868.72 260.243 1867.55 261.275 1867.15C339.384 1836.5 412.917 1793.34 483.981 1751.45C618.144 1672.2 757.324 1590.35 933.136 1590.35C1108.95 1590.35 1247.78 1672.26 1382.29 1751.45C1453.34 1793.33 1526.91 1836.65 1604.66 1867.13C1605.71 1867.54 1606.21 1868.74 1605.77 1869.77L1603.89 1874.21Z" fill="#818181" fill-opacity="0.1"/>
<path d="M39.3931 1861.67C-136.302 1861.67 -275.249 1779.76 -409.762 1700.57C-543.109 1621.96 -681.063 1540.63 -854.309 1540.63C-1027.55 1540.63 -1165.51 1621.85 -1298.91 1700.57C-1369.69 1742.35 -1442.99 1785.57 -1520.98 1816.27C-1522.01 1816.67 -1523.17 1816.16 -1523.58 1815.13L-1525.28 1810.74C-1525.68 1809.71 -1525.17 1808.55 -1524.14 1808.15C-1446.84 1777.73 -1373.77 1734.69 -1303.23 1692.85C-1169.07 1613.61 -1029.89 1531.7 -854.076 1531.7C-678.263 1531.7 -539.434 1613.61 -404.92 1692.85C-271.574 1771.46 -133.677 1852.74 39.6265 1852.74C212.93 1852.74 350.827 1771.52 484.232 1692.85C617.883 1613.91 756.512 1532.32 931.376 1531.7C932.48 1531.7 933.387 1532.59 933.387 1533.7V1538.4C933.387 1539.5 932.48 1540.4 931.376 1540.4C759.016 1541.03 621.67 1621.92 488.782 1700.34C354.035 1779.76 215.089 1861.67 39.3931 1861.67Z" fill="#818181" fill-opacity="0.1"/>
<path d="M39.3931 1803.31C-136.302 1803.31 -275.249 1721.4 -409.762 1642.21C-543.109 1563.54 -681.063 1482.27 -854.309 1482.27C-1027.55 1482.27 -1165.51 1563.49 -1298.91 1642.21C-1369.69 1683.99 -1442.99 1727.2 -1520.98 1757.91C-1522.01 1758.31 -1523.17 1757.8 -1523.58 1756.77L-1525.28 1752.38C-1525.68 1751.35 -1525.17 1750.19 -1524.14 1749.79C-1446.84 1719.37 -1373.77 1676.33 -1303.23 1634.49C-1169.07 1555.25 -1029.89 1473.34 -854.076 1473.34C-678.263 1473.34 -539.434 1555.25 -404.92 1634.49C-271.574 1713.1 -133.677 1794.37 39.6265 1794.37C212.93 1794.37 350.827 1713.16 484.232 1634.49C617.883 1555.55 756.512 1473.96 931.376 1473.34C932.48 1473.34 933.387 1474.23 933.387 1475.34V1480.04C933.387 1481.14 932.48 1482.04 931.376 1482.04C759.016 1482.67 621.67 1563.56 488.782 1641.98C354.035 1721.16 215.089 1803.31 39.3931 1803.31Z" fill="#818181" fill-opacity="0.1"/>
<path d="M39.3931 1744.95C-136.302 1744.95 -275.249 1663.04 -409.762 1583.85C-543.109 1505.18 -681.063 1423.91 -854.309 1423.91C-1027.55 1423.91 -1165.51 1505.13 -1298.91 1583.79C-1369.69 1625.63 -1442.99 1668.84 -1520.98 1699.55C-1522.01 1699.95 -1523.17 1699.44 -1523.58 1698.41L-1525.28 1694.02C-1525.68 1692.99 -1525.17 1691.83 -1524.14 1691.43C-1446.84 1660.96 -1373.77 1617.97 -1303.23 1576.13C-1169.07 1496.95 -1029.89 1415.03 -854.076 1415.03C-678.263 1415.03 -539.434 1496.95 -404.92 1576.13C-271.574 1654.8 -133.677 1736.07 39.6265 1736.07C212.93 1736.07 350.827 1654.86 484.232 1576.13C617.883 1497.25 756.512 1415.66 931.376 1415.04C932.48 1415.03 933.387 1415.93 933.387 1417.03V1421.74C933.387 1422.84 932.48 1423.73 931.376 1423.74C759.016 1424.36 621.67 1505.26 488.782 1583.67C354.035 1663.15 215.089 1744.95 39.3931 1744.95Z" fill="#818181" fill-opacity="0.1"/>
<path d="M39.3931 1686.36C-136.302 1686.36 -275.249 1604.44 -409.762 1525.2C-543.109 1446.59 -681.063 1365.32 -854.309 1365.32C-1027.55 1365.32 -1165.51 1446.54 -1298.91 1525.2C-1369.69 1567.21 -1442.99 1610.26 -1520.99 1641.13C-1522.01 1641.53 -1523.18 1641.03 -1523.58 1640L-1525.27 1635.66C-1525.67 1634.63 -1525.17 1633.47 -1524.14 1633.07C-1446.84 1602.59 -1373.77 1559.56 -1303.23 1517.77C-1169.07 1438.59 -1029.89 1356.67 -854.076 1356.67C-678.263 1356.67 -539.434 1438.59 -404.92 1517.77C-271.574 1596.38 -133.677 1677.71 39.6265 1677.71C212.93 1677.71 350.827 1596.5 484.232 1517.77C617.883 1438.89 756.512 1357.3 931.376 1356.68C932.48 1356.67 933.387 1357.57 933.387 1358.67V1363.38C933.387 1364.48 932.48 1365.38 931.376 1365.38C759.016 1366.01 621.67 1446.9 488.782 1525.26C354.035 1604.68 215.089 1686.36 39.3931 1686.36Z" fill="#818181" fill-opacity="0.1"/>
<path d="M39.3931 1628.34C-136.302 1628.34 -275.249 1546.43 -409.762 1467.19C-543.109 1388.58 -681.063 1307.31 -854.309 1307.31C-1027.55 1307.31 -1165.51 1388.52 -1298.91 1467.19C-1369.69 1508.86 -1443 1552.24 -1520.99 1582.78C-1522.02 1583.18 -1523.18 1582.67 -1523.58 1581.64L-1525.27 1577.3C-1525.67 1576.27 -1525.17 1575.11 -1524.14 1574.71C-1446.84 1544.23 -1373.77 1501.2 -1303.23 1459.41C-1169.07 1380.23 -1029.89 1298.31 -854.076 1298.31C-678.263 1298.31 -539.434 1380.23 -404.92 1459.41C-271.574 1538.02 -133.677 1619.35 39.6265 1619.35C212.93 1619.35 350.827 1538.14 484.232 1459.41C617.883 1380.53 756.512 1298.94 931.376 1298.32C932.48 1298.31 933.387 1299.21 933.387 1300.31V1305.02C933.387 1306.12 932.48 1307.01 931.376 1307.02C759.016 1307.64 621.67 1388.54 488.782 1466.9C354.035 1546.32 215.089 1628.34 39.3931 1628.34Z" fill="#818181" fill-opacity="0.1"/>
<path d="M39.3931 1569.81C-136.302 1569.81 -275.249 1487.9 -409.762 1408.71C-543.109 1330.1 -681.063 1248.77 -854.309 1248.77C-1027.55 1248.77 -1165.51 1329.99 -1298.91 1408.71C-1369.69 1450.49 -1442.99 1493.71 -1520.99 1524.41C-1522.02 1524.81 -1523.18 1524.31 -1523.58 1523.28L-1525.27 1518.94C-1525.67 1517.91 -1525.17 1516.75 -1524.14 1516.35C-1446.84 1485.87 -1373.77 1442.83 -1303.23 1401.05C-1169.07 1321.81 -1029.89 1239.89 -854.076 1239.89C-678.263 1239.89 -539.434 1321.81 -404.92 1401.05C-271.574 1479.66 -133.677 1560.93 39.6265 1560.93C212.93 1560.93 350.827 1479.72 484.232 1401.05C617.883 1322.11 756.512 1240.52 931.376 1239.9C932.48 1239.89 933.387 1240.79 933.387 1241.89V1246.6C933.387 1247.7 932.48 1248.6 931.376 1248.6C759.016 1249.22 621.67 1330.12 488.782 1408.54C354.035 1487.9 215.089 1569.81 39.3931 1569.81Z" fill="#818181" fill-opacity="0.1"/>
<path d="M39.3931 1511.45C-136.302 1511.45 -275.249 1429.54 -409.762 1350.35C-543.109 1271.74 -681.063 1190.41 -854.309 1190.41C-1027.55 1190.41 -1165.51 1271.63 -1298.91 1350.35C-1369.69 1392.13 -1442.99 1435.34 -1520.98 1466.05C-1522.01 1466.45 -1523.17 1465.94 -1523.58 1464.91L-1525.28 1460.52C-1525.68 1459.49 -1525.17 1458.33 -1524.14 1457.93C-1446.84 1427.51 -1373.77 1384.47 -1303.23 1342.63C-1169.07 1263.39 -1029.89 1181.48 -854.076 1181.48C-678.263 1181.48 -539.434 1263.39 -404.92 1342.63C-271.574 1421.24 -133.677 1502.51 39.6265 1502.51C212.93 1502.51 350.827 1421.3 484.232 1342.63C617.883 1263.69 756.512 1182.1 931.376 1181.48C932.48 1181.47 933.387 1182.37 933.387 1183.48V1188.18C933.387 1189.28 932.48 1190.18 931.376 1190.18C759.016 1190.81 621.67 1271.7 488.782 1350.12C354.035 1429.54 215.089 1511.45 39.3931 1511.45Z" fill="#818181" fill-opacity="0.1"/>
<path d="M39.3931 1453.09C-136.302 1453.09 -275.249 1371.18 -409.762 1291.99C-543.109 1213.33 -681.063 1132.05 -854.309 1132.05C-1027.55 1132.05 -1165.51 1213.27 -1298.91 1291.99C-1369.69 1333.77 -1442.99 1376.99 -1520.98 1407.69C-1522.01 1408.09 -1523.17 1407.58 -1523.58 1406.55L-1525.28 1402.16C-1525.68 1401.13 -1525.17 1399.98 -1524.14 1399.57C-1446.84 1369.1 -1373.77 1326.12 -1303.23 1284.28C-1169.07 1205.09 -1029.89 1123.18 -854.076 1123.18C-678.263 1123.18 -539.434 1205.09 -404.92 1284.28C-271.574 1362.94 -133.677 1444.21 39.6265 1444.21C212.93 1444.21 350.827 1363 484.232 1284.28C617.883 1205.39 756.512 1123.8 931.376 1123.18C932.48 1123.17 933.387 1124.07 933.387 1125.18V1129.88C933.387 1130.98 932.48 1131.88 931.376 1131.88C759.016 1132.51 621.67 1213.4 488.782 1291.82C354.035 1371.18 215.089 1453.09 39.3931 1453.09Z" fill="#818181" fill-opacity="0.1"/>
<path d="M39.3931 1394.73C-136.302 1394.73 -275.249 1312.82 -409.762 1233.57C-543.109 1154.97 -681.063 1073.69 -854.309 1073.69C-1027.55 1073.69 -1165.39 1154.97 -1298.8 1233.86C-1369.69 1275.42 -1442.99 1318.63 -1520.99 1349.16C-1522.01 1349.56 -1523.17 1349.05 -1523.57 1348.02L-1525.28 1343.62C-1525.68 1342.6 -1525.17 1341.44 -1524.14 1341.04C-1446.84 1310.56 -1373.77 1267.52 -1303.23 1225.74C-1169.07 1146.55 -1029.89 1064.64 -854.076 1064.64C-678.263 1064.64 -539.434 1146.55 -404.92 1225.74C-271.574 1304.41 -133.677 1385.68 39.6265 1385.68C212.93 1385.68 350.827 1304.46 484.232 1225.74C617.883 1146.86 756.512 1065.27 931.376 1064.64C932.48 1064.64 933.387 1065.54 933.387 1066.64V1071.34C933.387 1072.45 932.48 1073.34 931.376 1073.35C759.016 1073.97 621.67 1154.86 488.782 1233.22C354.035 1312.82 215.089 1394.73 39.3931 1394.73Z" fill="#818181" fill-opacity="0.1"/>
<path d="M39.3931 1336.37C-136.302 1336.37 -275.249 1254.46 -409.762 1175.21C-543.109 1096.61 -681.063 1015.33 -854.309 1015.33C-1027.55 1015.33 -1165.51 1096.55 -1298.91 1175.21C-1369.69 1217 -1442.99 1260.21 -1520.99 1291.14C-1522.01 1291.55 -1523.18 1291.04 -1523.58 1290.01L-1525.27 1285.67C-1525.67 1284.64 -1525.17 1283.49 -1524.14 1283.08C-1446.84 1252.61 -1373.77 1209.57 -1303.23 1167.79C-1169.07 1088.6 -1029.89 1006.69 -854.076 1006.69C-678.263 1006.69 -539.434 1088.6 -404.92 1167.79C-271.574 1246.39 -133.677 1327.73 39.6265 1327.73C212.93 1327.73 350.827 1246.51 484.232 1167.79C617.883 1088.9 756.512 1007.31 931.376 1006.69C932.48 1006.69 933.387 1007.58 933.387 1008.69V1013.39C933.387 1014.49 932.48 1015.39 931.376 1015.39C759.016 1016.02 621.67 1096.91 488.782 1175.27C354.035 1254.46 215.089 1336.37 39.3931 1336.37Z" fill="#818181" fill-opacity="0.1"/>
<path d="M39.3931 1278.01C-136.302 1278.01 -275.249 1196.09 -409.762 1116.85C-543.109 1038.24 -681.063 956.968 -854.309 956.968C-1027.55 956.968 -1165.51 1038.18 -1298.91 1116.85C-1369.69 1158.63 -1442.99 1201.85 -1520.99 1232.55C-1522.02 1232.95 -1523.18 1232.45 -1523.58 1231.42L-1525.27 1227.08C-1525.67 1226.05 -1525.17 1224.89 -1524.14 1224.49C-1446.84 1194.01 -1373.77 1150.97 -1303.23 1109.19C-1169.07 1029.95 -1029.89 948.092 -854.076 948.092C-678.263 948.092 -539.434 1030 -404.92 1109.19C-271.574 1187.8 -133.677 1269.13 39.6265 1269.13C212.93 1269.13 350.827 1187.91 484.232 1109.19C617.883 1030.31 756.512 948.717 931.376 948.095C932.48 948.091 933.387 948.987 933.387 950.092V954.794C933.387 955.898 932.48 956.793 931.376 956.797C759.016 957.422 621.67 1038.32 488.782 1116.68C354.035 1196.09 215.089 1278.01 39.3931 1278.01Z" fill="#818181" fill-opacity="0.1"/>
<path d="M39.3932 1219.59C-136.302 1219.59 -275.249 1137.68 -409.762 1058.49C-543.108 979.884 -681.063 898.551 -854.309 898.551C-1027.55 898.551 -1165.51 979.768 -1298.91 1058.49C-1369.69 1100.1 -1442.99 1143.48 -1520.98 1174.19C-1522.01 1174.59 -1523.17 1174.08 -1523.58 1173.05L-1525.28 1168.66C-1525.68 1167.63 -1525.17 1166.48 -1524.14 1166.07C-1446.84 1135.65 -1373.77 1092.62 -1303.23 1050.78C-1169.07 971.531 -1029.89 889.617 -854.076 889.617C-678.263 889.617 -539.434 971.531 -404.92 1050.78C-271.807 1129.44 -133.911 1210.66 39.3932 1210.66C212.697 1210.66 350.594 1129.44 483.999 1050.78C617.65 971.833 756.279 890.243 931.143 889.621C932.247 889.617 933.154 890.513 933.154 891.617V896.319C933.154 897.424 932.247 898.319 931.143 898.323C758.782 898.948 621.437 979.841 488.548 1058.26C354.035 1137.68 215.089 1219.59 39.3932 1219.59Z" fill="#818181" fill-opacity="0.1"/>
<path d="M39.3932 1161.23C-136.302 1161.23 -275.249 1079.32 -409.762 1000.13C-543.108 921.524 -681.063 840.191 -854.309 840.191C-1027.55 840.191 -1165.51 921.408 -1298.91 1000.13C-1369.69 1042.09 -1442.99 1085.13 -1520.98 1115.83C-1522.01 1116.23 -1523.17 1115.72 -1523.58 1114.69L-1525.28 1110.3C-1525.68 1109.27 -1525.17 1108.11 -1524.14 1107.71C-1446.84 1077.29 -1373.77 1034.25 -1303.23 992.415C-1169.07 913.17 -1029.89 831.257 -854.076 831.257C-678.263 831.257 -539.434 913.17 -404.92 992.415C-271.807 1071.43 -133.911 1152.64 39.3932 1152.64C212.697 1152.64 350.594 1071.43 483.999 992.763C617.65 913.821 756.279 832.23 931.143 831.609C932.247 831.605 933.154 832.5 933.154 833.605V838.307C933.154 839.411 932.247 840.306 931.143 840.31C758.782 840.935 621.437 921.829 488.548 1000.25C354.035 1079.32 215.089 1161.23 39.3932 1161.23Z" fill="#818181" fill-opacity="0.1"/>
<path d="M39.3931 1102.87C-136.302 1102.87 -275.249 1020.96 -409.762 941.712C-543.109 863.106 -681.063 781.83 -854.309 781.83C-1027.55 781.83 -1165.51 863.048 -1298.91 941.712C-1369.69 983.553 -1442.99 1026.76 -1520.98 1057.47C-1522.01 1057.87 -1523.17 1057.36 -1523.58 1056.33L-1525.28 1051.94C-1525.68 1050.91 -1525.17 1049.75 -1524.14 1049.35C-1446.84 1018.88 -1373.77 975.895 -1303.23 934.055C-1169.07 854.868 -1029.89 772.955 -854.076 772.955C-678.263 772.955 -539.434 854.868 -404.92 934.055C-271.574 1012.72 -133.677 1093.99 39.6265 1093.99C212.93 1093.99 350.827 1012.78 484.232 934.055C617.883 855.17 756.512 773.58 931.376 772.958C932.48 772.954 933.387 773.85 933.387 774.955V779.656C933.387 780.761 932.48 781.656 931.376 781.66C759.016 782.285 621.67 863.178 488.782 941.538C354.035 1020.96 215.089 1102.87 39.3931 1102.87Z" fill="#818181" fill-opacity="0.1"/>
<path d="M39.3931 1044.51C-136.302 1044.51 -275.249 962.597 -409.762 883.352C-542.992 804.572 -680.947 723.355 -854.192 723.355C-1027.44 723.355 -1165.39 804.572 -1298.8 883.236C-1369.69 925.192 -1442.99 968.348 -1520.98 999.107C-1522.01 999.513 -1523.18 999.002 -1523.58 997.97L-1525.28 993.578C-1525.68 992.551 -1525.17 991.394 -1524.14 990.99C-1446.84 960.516 -1373.77 917.477 -1303.23 875.695C-1169.07 796.508 -1029.89 714.595 -854.076 714.595C-678.263 714.595 -539.434 796.508 -404.92 875.695C-271.574 954.301 -133.677 1035.63 39.6265 1035.63C212.93 1035.63 350.827 954.417 484.232 875.695C617.883 796.81 756.512 715.22 931.376 714.598C932.48 714.594 933.387 715.49 933.387 716.595V721.355C933.387 722.459 932.48 723.354 931.376 723.358C759.016 723.983 621.67 804.876 488.782 883.236C354.035 962.597 215.089 1044.51 39.3931 1044.51Z" fill="#818181" fill-opacity="0.1"/>
<path d="M39.3931 986.15C-136.302 986.15 -275.249 904.237 -409.762 824.992C-542.992 746.56 -680.947 665.343 -854.192 665.343C-1027.44 665.343 -1165.39 746.56 -1298.8 825.224C-1369.69 866.778 -1442.99 909.989 -1520.99 940.692C-1522.02 941.097 -1523.18 940.588 -1523.58 939.56L-1525.27 935.221C-1525.67 934.192 -1525.17 933.033 -1524.14 932.628C-1446.84 902.154 -1373.77 859.116 -1303.23 817.335C-1169.07 738.148 -1029.89 656.235 -854.076 656.235C-678.263 656.235 -539.434 738.148 -404.92 817.335C-271.574 895.941 -133.677 977.274 39.6265 977.274C212.93 977.274 350.827 896.057 484.232 817.335C617.883 738.45 756.512 656.86 931.376 656.238C932.48 656.234 933.387 657.13 933.387 658.235V663.343C933.387 664.447 932.48 665.342 931.376 665.346C759.016 665.971 621.67 746.864 488.782 825.224C354.035 904.237 215.089 986.15 39.3931 986.15Z" fill="#818181" fill-opacity="0.1"/>
<path d="M39.3931 927.732C-136.302 927.732 -275.249 845.877 -409.762 766.632C-543.109 688.025 -681.063 606.692 -854.309 606.692C-1027.55 606.692 -1165.51 687.909 -1298.91 766.632C-1369.69 808.416 -1442.99 851.628 -1520.99 882.332C-1522.02 882.737 -1523.18 882.228 -1523.58 881.199L-1525.27 876.861C-1525.67 875.832 -1525.17 874.673 -1524.14 874.268C-1446.84 843.794 -1373.77 800.756 -1303.23 758.974C-1169.07 679.73 -1029.89 597.816 -854.076 597.816C-678.263 597.816 -539.434 679.73 -404.92 758.974C-271.574 837.581 -133.677 918.856 39.6265 918.856C212.93 918.856 350.827 837.639 484.232 758.974C617.883 680.032 756.512 598.442 931.376 597.82C932.48 597.816 933.387 598.712 933.387 599.816V604.518C933.387 605.623 932.48 606.518 931.376 606.522C759.016 607.147 621.67 688.04 488.782 766.458C354.035 845.877 215.089 927.732 39.3931 927.732Z" fill="#818181" fill-opacity="0.1"/>
<path d="M39.3931 869.372C-136.302 869.372 -275.249 787.458 -409.762 708.272C-543.109 629.665 -681.063 548.332 -854.309 548.332C-1027.55 548.332 -1165.51 629.549 -1298.91 708.272C-1369.69 750.055 -1442.99 793.267 -1520.98 823.97C-1522.01 824.375 -1523.17 823.865 -1523.58 822.833L-1525.28 818.441C-1525.68 817.413 -1525.17 816.256 -1524.14 815.852C-1446.84 785.435 -1373.77 742.396 -1303.23 700.556C-1169.07 621.311 -1029.89 539.398 -854.076 539.398C-678.263 539.398 -539.434 621.311 -404.92 700.556C-271.574 779.163 -133.677 860.438 39.6265 860.438C212.93 860.438 350.827 779.221 484.232 700.556C617.883 621.614 756.512 540.023 931.376 539.402C932.48 539.398 933.387 540.294 933.387 541.398V546.1C933.387 547.205 932.48 548.1 931.376 548.104C759.016 548.729 621.67 629.622 488.782 708.04C354.035 787.458 215.089 869.372 39.3931 869.372Z" fill="#818181" fill-opacity="0.1"/>
<path d="M39.3931 811.009C-136.302 811.009 -275.249 729.096 -409.762 649.909C-543.109 571.245 -681.063 489.969 -854.309 489.969C-1027.55 489.969 -1165.51 571.187 -1298.91 649.909C-1369.69 691.692 -1442.99 734.902 -1520.98 765.606C-1522.01 766.012 -1523.17 765.498 -1523.57 764.464L-1525.28 760.018C-1525.68 758.99 -1525.17 757.837 -1524.15 757.434C-1446.84 727.016 -1373.77 683.976 -1303.23 642.136C-1169.07 562.949 -1029.89 481.036 -854.076 481.036C-678.263 481.036 -539.434 562.949 -404.92 642.194C-271.574 720.8 -133.677 802.075 39.6265 802.075C212.93 802.075 350.827 720.858 484.232 642.194C617.883 563.251 756.512 481.661 931.376 481.039C932.48 481.035 933.387 481.931 933.387 483.036V487.737C933.387 488.842 932.48 489.737 931.376 489.741C759.016 490.366 621.67 571.259 488.782 649.677C354.035 729.154 215.089 811.009 39.3931 811.009Z" fill="#818181" fill-opacity="0.1"/>
<path d="M39.3931 752.65C-136.302 752.65 -275.249 670.736 -409.762 591.492C-543.109 512.885 -681.063 431.61 -854.309 431.61C-1027.55 431.61 -1165.51 512.827 -1298.91 591.492C-1369.7 633.337 -1443.01 676.553 -1521.01 707.257C-1522.03 707.659 -1523.18 707.161 -1523.59 706.143L-1525.25 702.022C-1525.66 700.99 -1525.16 699.818 -1524.12 699.411C-1446.83 668.938 -1373.77 625.96 -1303.23 584.124C-1169.07 504.937 -1029.89 423.024 -854.076 423.024C-678.263 423.024 -539.434 504.937 -404.92 584.124C-271.574 662.789 -133.677 744.064 39.6265 744.064C212.93 744.064 350.827 662.847 484.232 584.124C617.883 505.24 756.512 423.649 931.376 423.028C932.48 423.024 933.387 423.92 933.387 425.024V429.726C933.387 430.831 932.48 431.726 931.376 431.73C759.016 432.355 621.67 513.248 488.782 591.608C354.035 670.736 215.089 752.65 39.3931 752.65Z" fill="#818181" fill-opacity="0.1"/>
<path d="M39.3931 694.349C-136.302 694.349 -275.249 612.435 -409.762 533.191C-543.109 454.584 -681.063 373.309 -854.309 373.309C-1027.55 373.309 -1165.51 454.526 -1298.91 533.191C-1369.69 574.918 -1443 618.244 -1520.99 648.836C-1522.02 649.239 -1523.18 648.731 -1523.58 647.703L-1525.27 643.361C-1525.67 642.333 -1525.17 641.174 -1524.14 640.769C-1446.84 610.295 -1373.77 567.257 -1303.23 525.475C-1169.07 446.288 -1029.89 364.375 -854.076 364.375C-678.263 364.375 -539.434 446.288 -404.92 525.475C-271.574 604.082 -133.677 685.415 39.6265 685.415C212.93 685.415 350.827 604.198 484.232 525.475C617.883 446.591 756.512 365 931.376 364.379C932.48 364.375 933.387 365.271 933.387 366.375V371.077C933.387 372.182 932.48 373.077 931.376 373.081C759.016 373.706 621.67 454.599 488.782 532.959C354.035 612.377 215.089 694.349 39.3931 694.349Z" fill="#818181" fill-opacity="0.1"/>
<path d="M39.3931 635.93C-136.302 635.93 -275.249 554.017 -409.762 474.772C-543.109 396.166 -681.063 314.891 -854.309 314.891C-1027.55 314.891 -1165.51 396.108 -1298.91 474.772C-1369.69 516.557 -1442.99 559.769 -1520.99 590.472C-1522.02 590.877 -1523.18 590.368 -1523.58 589.34L-1525.27 585.001C-1525.67 583.972 -1525.17 582.813 -1524.14 582.408C-1446.84 551.934 -1373.77 508.896 -1303.23 467.115C-1169.07 387.928 -1029.89 306.015 -854.076 306.015C-678.263 306.015 -539.434 387.928 -404.92 467.115C-271.574 545.721 -133.677 627.054 39.6265 627.054C212.93 627.054 350.827 545.837 484.232 467.115C617.883 388.23 756.512 306.64 931.376 306.018C932.48 306.014 933.387 306.91 933.387 308.015V312.716C933.387 313.821 932.48 314.716 931.376 314.72C759.016 315.345 621.67 396.238 488.782 474.598C354.035 554.017 215.089 635.93 39.3931 635.93Z" fill="#818181" fill-opacity="0.1"/>
<path d="M39.3931 577.511C-136.302 577.511 -275.249 495.597 -409.762 416.411C-543.109 337.804 -681.063 256.471 -854.309 256.471C-1027.55 256.471 -1165.51 337.688 -1298.91 416.411C-1369.69 458.195 -1442.99 501.407 -1520.99 532.111C-1522.02 532.516 -1523.18 532.007 -1523.58 530.978L-1525.27 526.639C-1525.67 525.611 -1525.17 524.452 -1524.14 524.047C-1446.84 493.573 -1373.77 450.535 -1303.23 408.753C-1169.07 329.508 -1029.89 247.595 -854.076 247.595C-678.263 247.595 -539.434 329.508 -404.92 408.753C-271.574 487.36 -133.677 568.635 39.6265 568.635C212.93 568.635 350.827 487.418 484.232 408.753C617.883 329.811 756.512 248.22 931.376 247.599C932.48 247.595 933.387 248.491 933.387 249.595V254.297C933.387 255.402 932.48 256.297 931.376 256.301C759.016 256.926 621.67 337.819 488.782 416.237C354.035 495.597 215.089 577.511 39.3931 577.511Z" fill="#818181" fill-opacity="0.1"/>
<path d="M39.3931 519.151C-136.302 519.151 -275.249 437.238 -409.762 358.051C-543.109 279.445 -681.063 198.112 -854.309 198.112C-1027.55 198.112 -1165.39 279.445 -1298.8 357.877C-1369.69 399.834 -1442.99 443.046 -1520.98 473.75C-1522.01 474.155 -1523.17 473.644 -1523.58 472.613L-1525.28 468.221C-1525.68 467.192 -1525.17 466.036 -1524.14 465.632C-1446.84 435.215 -1373.77 392.176 -1303.23 350.336C-1169.07 271.091 -1029.89 189.178 -854.076 189.178C-678.263 189.178 -539.434 271.091 -404.92 350.336C-271.574 428.942 -133.677 510.218 39.6265 510.218C212.93 510.218 350.827 429 484.232 350.336C617.883 271.394 756.512 189.803 931.376 189.182C932.48 189.178 933.387 190.073 933.387 191.178V195.88C933.387 196.984 932.48 197.879 931.376 197.883C759.016 198.509 621.67 279.402 488.782 357.819C354.035 437.238 215.089 519.151 39.3931 519.151Z" fill="#818181" fill-opacity="0.1"/>
<path d="M39.3928 460.791C-136.303 460.791 -275.249 378.878 -409.762 299.691C-542.992 221.026 -680.947 139.751 -854.192 139.751C-1027.44 139.751 -1165.39 221.026 -1298.8 299.865C-1369.69 341.477 -1442.99 384.687 -1520.99 415.164C-1522.02 415.566 -1523.17 415.055 -1523.57 414.025L-1525.28 409.628C-1525.68 408.6 -1525.17 407.443 -1524.14 407.04C-1446.84 376.622 -1373.77 333.583 -1303.23 291.743C-1168.83 212.847 -1029.89 131.05 -854.192 131.05C-678.497 131.05 -539.55 212.963 -405.037 292.207C-271.691 370.814 -133.794 452.089 39.5094 452.089C212.813 452.089 350.71 370.872 484.115 292.207C617.766 213.265 756.396 131.675 931.259 131.053C932.363 131.049 933.27 131.945 933.27 133.05V137.751C933.27 138.856 932.363 139.751 931.259 139.755C758.898 140.38 621.553 221.273 488.665 299.691C354.035 378.878 215.088 460.791 39.3928 460.791Z" fill="#818181" fill-opacity="0.1"/>
<path d="M39.3931 402.43C-136.302 402.43 -275.249 320.517 -409.762 241.272C-542.992 162.665 -680.947 81.3902 -854.192 81.3902C-1027.44 81.3902 -1165.39 162.607 -1298.8 241.272C-1369.69 283.113 -1442.99 326.324 -1520.98 357.141C-1522.01 357.548 -1523.18 357.037 -1523.58 356.005L-1525.28 351.614C-1525.68 350.586 -1525.17 349.43 -1524.14 349.026C-1446.84 318.553 -1373.77 275.57 -1303.23 233.73C-1169.07 154.544 -1029.89 72.6304 -854.076 72.6304C-678.263 72.6304 -539.434 154.544 -404.92 233.73C-271.574 312.395 -133.677 393.67 39.6265 393.67C212.93 393.67 350.827 312.453 484.232 233.73C617.883 154.846 756.512 73.2555 931.376 72.6339C932.48 72.63 933.387 73.5258 933.387 74.6304V79.3322C933.387 80.4368 932.48 81.3318 931.376 81.3358C759.016 81.9609 621.67 162.854 488.782 241.214C354.035 320.517 215.089 402.43 39.3931 402.43Z" fill="#818181" fill-opacity="0.1"/>
<path d="M39.3931 344.069C-136.302 344.069 -275.249 262.156 -409.762 182.912C-542.992 104.305 -680.947 23.0299 -854.192 23.0299C-1027.44 23.0299 -1165.39 104.305 -1298.8 182.912C-1369.69 224.696 -1442.99 267.908 -1520.99 298.612C-1522.02 299.016 -1523.18 298.508 -1523.58 297.479L-1525.27 293.14C-1525.67 292.112 -1525.17 290.953 -1524.14 290.548C-1446.84 260.074 -1373.77 217.036 -1303.23 175.254C-1169.07 96.0673 -1029.89 14.1541 -854.076 14.1541C-678.263 14.1541 -539.434 96.0673 -404.92 175.254C-271.574 253.86 -133.677 335.194 39.6265 335.194C212.93 335.194 350.827 253.977 484.232 175.254C617.883 96.3695 756.512 14.7792 931.376 14.1576C932.48 14.1537 933.387 15.0495 933.387 16.1541V20.8559C933.387 21.9605 932.48 22.8555 931.376 22.8595C759.016 23.4846 621.67 104.377 488.782 182.738C354.035 262.156 215.089 344.069 39.3931 344.069Z" fill="#818181" fill-opacity="0.1"/>
<path d="M39.389 285.71C-136.306 285.71 -275.253 203.739 -409.766 124.552C-480.717 82.6523 -554.194 39.4961 -632.078 8.84986C-633.104 8.44609 -633.613 7.28956 -633.214 6.26147L-631.509 1.86589C-631.109 0.835586 -629.95 0.324338 -628.921 0.727237C-550.346 31.4924 -476.575 74.9943 -405.216 117.069C-271.811 195.443 -133.915 277.008 39.389 277.008C212.693 277.008 350.589 195.791 483.994 117.069C555.359 74.9909 629.136 31.4852 708.004 0.719584C709.028 0.320092 710.181 0.825132 710.585 1.84751L712.324 6.25066C712.732 7.28224 712.222 8.44817 711.189 8.85226C632.854 39.4983 559.491 82.6534 488.194 124.552C354.031 203.797 215.085 285.71 39.389 285.71Z" fill="#818181" fill-opacity="0.1"/>
<path d="M39.3887 227.286C-136.307 227.286 -275.253 145.373 -409.767 66.1864C-442.268 46.9751 -475.895 27.2035 -509.542 9.12878C-510.522 8.60233 -510.886 7.37824 -510.351 6.40284L-508.081 2.26376C-507.551 1.29781 -506.34 0.941858 -505.373 1.46926C-471.601 19.8837 -437.902 39.7747 -405.275 58.9929C-271.812 137.425 -133.915 218.643 39.3887 218.643C212.693 218.643 350.589 137.425 483.994 58.7029C516.564 39.4846 550.261 19.5937 584.033 1.17921C585.001 0.6518 586.212 1.00775 586.741 1.9737L589.018 6.12436C589.55 7.09527 589.193 8.31371 588.221 8.84395C554.57 27.1985 520.991 47.0238 488.427 65.8964C354.031 145.373 215.084 227.286 39.3887 227.286Z" fill="#818181" fill-opacity="0.1"/>
<path d="M39.3808 168.929C-135.559 168.929 -274.065 87.7189 -408.038 8.85117C-408.995 8.28745 -409.308 7.05208 -408.736 6.09931L-406.304 2.04655C-405.739 1.10476 -404.521 0.794183 -403.575 1.35197C-270.758 79.6441 -133.3 160.227 39.2642 160.227C211.828 160.227 349.286 79.7018 482.103 1.35286C483.049 0.794648 484.267 1.10511 484.833 2.04713L487.265 6.10063C487.837 7.05289 487.525 8.28753 486.568 8.85167C352.826 87.7192 214.32 168.929 39.3808 168.929Z" fill="#818181" fill-opacity="0.1"/>
<path d="M39.3783 110.566C-99.3936 110.566 -213.108 59.2931 -306.115 8.83799C-307.088 8.30997 -307.438 7.09529 -306.906 6.1244L-304.629 1.9729C-304.099 1.00726 -302.896 0.647475 -301.928 1.17207C-209.854 51.0514 -97.4203 101.864 39.3783 101.864C176.179 101.864 288.44 51.05 380.685 1.17003C381.653 0.646472 382.856 1.00641 383.385 1.97151L385.663 6.1244C386.195 7.09529 385.845 8.30997 384.872 8.83799C291.865 59.2931 178.15 110.566 39.3783 110.566Z" fill="#818181" fill-opacity="0.1"/>
</svg>
