<svg width="157" height="75" viewBox="0 0 157 75" fill="none" xmlns="http://www.w3.org/2000/svg">
<path d="M5.3 17V11.3L1.4 17H0.8V10H1.5V15.7L5.4 10H6V17H5.3ZM11.5469 16.36H12.2469V18.34H11.5869V17H7.50687V18.34H6.84687V16.36H7.45687C7.79687 15.9133 7.96687 15.2833 7.96687 14.47V12H11.5469V16.36ZM8.25688 16.36H10.8869V12.64H8.62688V14.47C8.62688 15.2367 8.50354 15.8667 8.25688 16.36ZM15.21 11.88C15.95 11.88 16.5467 12.1433 17 12.67C17.46 13.19 17.69 13.8067 17.69 14.52C17.69 14.5933 17.6833 14.6967 17.67 14.83H13.28C13.3467 15.3367 13.56 15.74 13.92 16.04C14.2867 16.3333 14.7367 16.48 15.27 16.48C15.65 16.48 15.9767 16.4033 16.25 16.25C16.53 16.09 16.74 15.8833 16.88 15.63L17.46 15.97C17.24 16.3233 16.94 16.6033 16.56 16.81C16.18 17.0167 15.7467 17.12 15.26 17.12C14.4733 17.12 13.8333 16.8733 13.34 16.38C12.8467 15.8867 12.6 15.26 12.6 14.5C12.6 13.7533 12.8433 13.13 13.33 12.63C13.8167 12.13 14.4433 11.88 15.21 11.88ZM15.21 12.52C14.69 12.52 14.2533 12.6767 13.9 12.99C13.5533 13.2967 13.3467 13.6967 13.28 14.19H17.01C16.9433 13.6633 16.74 13.2533 16.4 12.96C16.06 12.6667 15.6633 12.52 15.21 12.52ZM22.8898 12H23.5498V17H22.8898V16.02C22.4298 16.7533 21.7565 17.12 20.8698 17.12C20.1565 17.12 19.5465 16.8667 19.0398 16.36C18.5398 15.8533 18.2898 15.2333 18.2898 14.5C18.2898 13.7667 18.5398 13.1467 19.0398 12.64C19.5465 12.1333 20.1565 11.88 20.8698 11.88C21.7565 11.88 22.4298 12.2467 22.8898 12.98V12ZM19.5198 15.91C19.8998 16.29 20.3665 16.48 20.9198 16.48C21.4732 16.48 21.9398 16.29 22.3198 15.91C22.6998 15.5233 22.8898 15.0533 22.8898 14.5C22.8898 13.9467 22.6998 13.48 22.3198 13.1C21.9398 12.7133 21.4732 12.52 20.9198 12.52C20.3665 12.52 19.8998 12.7133 19.5198 13.1C19.1398 13.48 18.9498 13.9467 18.9498 14.5C18.9498 15.0533 19.1398 15.5233 19.5198 15.91ZM28.8973 12V17H28.2373V12.64H25.9773V14.87C25.9773 15.7033 25.8173 16.2767 25.4973 16.59C25.1839 16.9033 24.7506 17.04 24.1973 17V16.38C24.5773 16.42 24.8573 16.33 25.0373 16.11C25.2239 15.89 25.3173 15.4767 25.3173 14.87V12H28.8973ZM32.1753 13.9C32.642 13.9 33.0353 14.0467 33.3553 14.34C33.682 14.6267 33.8453 14.9967 33.8453 15.45C33.8453 15.9033 33.682 16.2767 33.3553 16.57C33.0353 16.8567 32.642 17 32.1753 17H30.1453V12H30.8053V13.9H32.1753ZM32.1753 16.36C32.4553 16.36 32.692 16.2767 32.8853 16.11C33.0853 15.9433 33.1853 15.7233 33.1853 15.45C33.1853 15.1767 33.0853 14.9567 32.8853 14.79C32.692 14.6233 32.4553 14.54 32.1753 14.54H30.8053V16.36H32.1753ZM38.2326 12H38.8926V17H38.2326V14.82H35.3526V17H34.6926V12H35.3526V14.18H38.2326V12ZM42.1683 13.9C42.6349 13.9 43.0283 14.0467 43.3483 14.34C43.6749 14.6267 43.8383 14.9967 43.8383 15.45C43.8383 15.9033 43.6749 16.2767 43.3483 16.57C43.0283 16.8567 42.6349 17 42.1683 17H40.1383V12H40.7983V13.9H42.1683ZM44.5383 12H45.1983V17H44.5383V12ZM42.1683 16.36C42.4483 16.36 42.6849 16.2767 42.8783 16.11C43.0783 15.9433 43.1783 15.7233 43.1783 15.45C43.1783 15.1767 43.0783 14.9567 42.8783 14.79C42.6849 14.6233 42.4483 14.54 42.1683 14.54H40.7983V16.36H42.1683ZM48.7631 11.88C49.5031 11.88 50.0998 12.1433 50.5531 12.67C51.0131 13.19 51.2431 13.8067 51.2431 14.52C51.2431 14.5933 51.2365 14.6967 51.2231 14.83H46.8331C46.8998 15.3367 47.1131 15.74 47.4731 16.04C47.8398 16.3333 48.2898 16.48 48.8231 16.48C49.2031 16.48 49.5298 16.4033 49.8031 16.25C50.0831 16.09 50.2931 15.8833 50.4331 15.63L51.0131 15.97C50.7931 16.3233 50.4931 16.6033 50.1131 16.81C49.7331 17.0167 49.2998 17.12 48.8131 17.12C48.0265 17.12 47.3865 16.8733 46.8931 16.38C46.3998 15.8867 46.1531 15.26 46.1531 14.5C46.1531 13.7533 46.3965 13.13 46.8831 12.63C47.3698 12.13 47.9965 11.88 48.7631 11.88ZM48.7631 12.52C48.2431 12.52 47.8065 12.6767 47.4531 12.99C47.1065 13.2967 46.8998 13.6967 46.8331 14.19H50.5631C50.4965 13.6633 50.2931 13.2533 49.9531 12.96C49.6131 12.6667 49.2165 12.52 48.7631 12.52ZM56.823 17.12C56.0696 17.12 55.443 16.87 54.943 16.37C54.443 15.8633 54.193 15.24 54.193 14.5C54.193 13.76 54.443 13.14 54.943 12.64C55.443 12.1333 56.0696 11.88 56.823 11.88C57.3163 11.88 57.7596 12 58.153 12.24C58.5463 12.4733 58.833 12.79 59.013 13.19L58.473 13.5C58.3396 13.2 58.123 12.9633 57.823 12.79C57.5296 12.61 57.1963 12.52 56.823 12.52C56.2696 12.52 55.803 12.7133 55.423 13.1C55.043 13.48 54.853 13.9467 54.853 14.5C54.853 15.0533 55.043 15.5233 55.423 15.91C55.803 16.29 56.2696 16.48 56.823 16.48C57.1963 16.48 57.5296 16.3933 57.823 16.22C58.1163 16.04 58.3463 15.8 58.513 15.5L59.063 15.82C58.8563 16.22 58.553 16.5367 58.153 16.77C57.753 17.0033 57.3096 17.12 56.823 17.12ZM63.3629 12V12.64H61.5929V17H60.9329V12.64H59.1629V12H63.3629ZM66.1319 11.88C66.8719 11.88 67.4685 12.1433 67.9219 12.67C68.3819 13.19 68.6119 13.8067 68.6119 14.52C68.6119 14.5933 68.6052 14.6967 68.5919 14.83H64.2019C64.2685 15.3367 64.4819 15.74 64.8419 16.04C65.2085 16.3333 65.6585 16.48 66.1919 16.48C66.5719 16.48 66.8985 16.4033 67.1719 16.25C67.4519 16.09 67.6619 15.8833 67.8019 15.63L68.3819 15.97C68.1619 16.3233 67.8619 16.6033 67.4819 16.81C67.1019 17.0167 66.6685 17.12 66.1819 17.12C65.3952 17.12 64.7552 16.8733 64.2619 16.38C63.7685 15.8867 63.5219 15.26 63.5219 14.5C63.5219 13.7533 63.7652 13.13 64.2519 12.63C64.7385 12.13 65.3652 11.88 66.1319 11.88ZM66.1319 12.52C65.6119 12.52 65.1752 12.6767 64.8219 12.99C64.4752 13.2967 64.2685 13.6967 64.2019 14.19H67.9319C67.8652 13.6633 67.6619 13.2533 67.3219 12.96C66.9819 12.6667 66.5852 12.52 66.1319 12.52ZM73.0517 12H73.7117V17H73.0517V14.82H70.1717V17H69.5117V12H70.1717V14.18H73.0517V12ZM76.9874 13.9C77.4541 13.9 77.8474 14.0467 78.1674 14.34C78.4941 14.6267 78.6574 14.9967 78.6574 15.45C78.6574 15.9033 78.4941 16.2767 78.1674 16.57C77.8474 16.8567 77.4541 17 76.9874 17H74.9574V12H75.6174V13.9H76.9874ZM79.3574 12H80.0174V17H79.3574V12ZM76.9874 16.36C77.2674 16.36 77.5041 16.2767 77.6974 16.11C77.8974 15.9433 77.9974 15.7233 77.9974 15.45C77.9974 15.1767 77.8974 14.9567 77.6974 14.79C77.5041 14.6233 77.2674 14.54 76.9874 14.54H75.6174V16.36H76.9874ZM86.8023 14.43C87.3489 14.63 87.6223 15.02 87.6223 15.6C87.6223 16.0067 87.4856 16.3433 87.2123 16.61C86.9456 16.87 86.5589 17 86.0523 17H83.6223V12H85.8523C86.3389 12 86.7156 12.1267 86.9823 12.38C87.2489 12.6267 87.3823 12.9467 87.3823 13.34C87.3823 13.84 87.1889 14.2033 86.8023 14.43ZM85.8523 12.64H84.2823V14.16H85.8523C86.4323 14.16 86.7223 13.9 86.7223 13.38C86.7223 13.1467 86.6456 12.9667 86.4923 12.84C86.3456 12.7067 86.1323 12.64 85.8523 12.64ZM86.0523 16.36C86.3456 16.36 86.5689 16.29 86.7223 16.15C86.8823 16.01 86.9623 15.8133 86.9623 15.56C86.9623 15.3267 86.8823 15.1433 86.7223 15.01C86.5689 14.87 86.3456 14.8 86.0523 14.8H84.2823V16.36H86.0523ZM95.4223 17V11.3L91.5223 17H90.9223V10H91.6223V15.7L95.5223 10H96.1223V17H95.4223ZM100.149 11.88C100.862 11.88 101.469 12.1333 101.969 12.64C102.476 13.1467 102.729 13.7667 102.729 14.5C102.729 15.2333 102.476 15.8533 101.969 16.36C101.469 16.8667 100.862 17.12 100.149 17.12C99.2625 17.12 98.5891 16.7533 98.1291 16.02V19H97.4691V12H98.1291V12.98C98.5891 12.2467 99.2625 11.88 100.149 11.88ZM98.6991 15.91C99.0791 16.29 99.5458 16.48 100.099 16.48C100.652 16.48 101.119 16.29 101.499 15.91C101.879 15.5233 102.069 15.0533 102.069 14.5C102.069 13.9467 101.879 13.48 101.499 13.1C101.119 12.7133 100.652 12.52 100.099 12.52C99.5458 12.52 99.0791 12.7133 98.6991 13.1C98.3191 13.48 98.1291 13.9467 98.1291 14.5C98.1291 15.0533 98.3191 15.5233 98.6991 15.91ZM107.717 17H106.837L104.337 14.59V17H103.677V12H104.337V14.21L106.717 12H107.617L105.037 14.4L107.717 17ZM111.873 12H112.573L110.433 17.46C110.239 17.9533 109.963 18.34 109.603 18.62C109.249 18.9067 108.853 19.0333 108.413 19V18.38C109.013 18.4467 109.469 18.1 109.783 17.34L109.913 17.03L107.673 12H108.373L110.253 16.19L111.873 12ZM116.82 12V12.64H115.05V17H114.39V12.64H112.62V12H116.82ZM119.609 17.12C118.856 17.12 118.229 16.87 117.729 16.37C117.229 15.8633 116.979 15.24 116.979 14.5C116.979 13.76 117.229 13.14 117.729 12.64C118.229 12.1333 118.856 11.88 119.609 11.88C120.103 11.88 120.546 12 120.939 12.24C121.333 12.4733 121.619 12.79 121.799 13.19L121.259 13.5C121.126 13.2 120.909 12.9633 120.609 12.79C120.316 12.61 119.983 12.52 119.609 12.52C119.056 12.52 118.589 12.7133 118.209 13.1C117.829 13.48 117.639 13.9467 117.639 14.5C117.639 15.0533 117.829 15.5233 118.209 15.91C118.589 16.29 119.056 16.48 119.609 16.48C119.983 16.48 120.316 16.3933 120.609 16.22C120.903 16.04 121.133 15.8 121.299 15.5L121.849 15.82C121.643 16.22 121.339 16.5367 120.939 16.77C120.539 17.0033 120.096 17.12 119.609 17.12ZM126.687 17H125.807L123.307 14.59V17H122.647V12H123.307V14.21L125.687 12H126.587L124.007 14.4L126.687 17ZM129.25 11.88C129.99 11.88 130.587 12.1433 131.04 12.67C131.5 13.19 131.73 13.8067 131.73 14.52C131.73 14.5933 131.724 14.6967 131.71 14.83H127.32C127.387 15.3367 127.6 15.74 127.96 16.04C128.327 16.3333 128.777 16.48 129.31 16.48C129.69 16.48 130.017 16.4033 130.29 16.25C130.57 16.09 130.78 15.8833 130.92 15.63L131.5 15.97C131.28 16.3233 130.98 16.6033 130.6 16.81C130.22 17.0167 129.787 17.12 129.3 17.12C128.514 17.12 127.874 16.8733 127.38 16.38C126.887 15.8867 126.64 15.26 126.64 14.5C126.64 13.7533 126.884 13.13 127.37 12.63C127.857 12.13 128.484 11.88 129.25 11.88ZM129.25 12.52C128.73 12.52 128.294 12.6767 127.94 12.99C127.594 13.2967 127.387 13.6967 127.32 14.19H131.05C130.984 13.6633 130.78 13.2533 130.44 12.96C130.1 12.6667 129.704 12.52 129.25 12.52Z" fill="#D36635"/>
<g clip-path="url(#clip0)">
<path d="M103.022 33.4843C103.624 33.394 104.168 33.328 104.656 33.2863C105.145 33.2411 105.575 33.2168 105.953 33.2168C106.331 33.2168 106.803 33.2411 107.302 33.2863C107.802 33.3315 108.343 33.394 108.918 33.4843V57.3138C107.951 57.4936 106.971 57.5935 105.988 57.6126C104.993 57.597 104.001 57.497 103.022 57.3138V33.4843ZM113.08 33.5399C113.562 33.4531 114.006 33.3871 114.401 33.3419C114.785 33.2997 115.171 33.2777 115.556 33.2759C115.97 33.2771 116.384 33.305 116.795 33.3593C117.225 33.4149 117.596 33.4739 117.901 33.5399L125.565 46.5144V33.4878C126.127 33.401 126.634 33.3349 127.085 33.2932C127.535 33.2515 127.945 33.2272 128.312 33.2272C128.7 33.228 129.088 33.25 129.474 33.2932C129.887 33.3349 130.317 33.401 130.768 33.4878L130.736 57.2582C130.421 57.3441 130.1 57.4103 129.776 57.4562C129.328 57.524 128.876 57.5565 128.423 57.5535C127.925 57.5577 127.427 57.5194 126.935 57.4389C126.495 57.3624 126.176 57.2999 125.978 57.2582L118.282 44.3497V57.3103C117.433 57.494 116.567 57.5918 115.699 57.6022C114.818 57.591 113.941 57.4932 113.08 57.3103V33.5399Z" fill="#262F2F"/>
<path d="M107.032 71.1327C107.077 71.2126 107.111 71.2891 107.146 71.362C107.177 71.4369 107.201 71.5149 107.215 71.5948C107.01 71.6928 106.793 71.7641 106.57 71.8068C106.31 71.8576 106.045 71.8832 105.78 71.8832C105.417 71.8865 105.057 71.8217 104.718 71.6921C104.404 71.5691 104.121 71.3781 103.889 71.1327C103.652 70.8684 103.47 70.5587 103.355 70.2223C103.223 69.82 103.159 69.3984 103.165 68.9749C103.158 68.5402 103.221 68.1073 103.352 67.6928C103.463 67.3437 103.642 67.0201 103.879 66.7407C104.104 66.4832 104.385 66.2811 104.701 66.15C105.043 66.0098 105.41 65.9401 105.78 65.945C106.061 65.9399 106.342 65.9644 106.619 66.018C106.841 66.0666 107.004 66.1083 107.104 66.1396C107.097 66.2207 107.082 66.301 107.059 66.3793C107.036 66.4574 107.009 66.534 106.976 66.6087L106.764 66.5461C106.685 66.522 106.604 66.5035 106.522 66.4905C106.417 66.4712 106.312 66.4572 106.206 66.4488C106.088 66.4488 105.949 66.4488 105.79 66.4488C105.499 66.4433 105.21 66.5014 104.944 66.6191C104.695 66.733 104.476 66.9045 104.306 67.1194C104.119 67.3563 103.981 67.6279 103.9 67.9186C103.798 68.266 103.749 68.6268 103.754 68.9888C103.748 69.3519 103.802 69.7136 103.914 70.059C104.007 70.339 104.158 70.596 104.358 70.813C104.541 71.0108 104.768 71.1631 105.02 71.2578C105.282 71.354 105.559 71.4023 105.838 71.4003C106.072 71.4028 106.304 71.3795 106.532 71.3308C106.71 71.291 106.883 71.2291 107.045 71.1466L107.032 71.1327ZM111.266 71.8832C110.907 71.8909 110.551 71.816 110.226 71.6643C109.933 71.5229 109.679 71.3118 109.487 71.0493C109.283 70.7647 109.135 70.444 109.05 70.1042C108.851 69.3221 108.851 68.5026 109.05 67.7206C109.136 67.3832 109.284 67.0649 109.487 66.7824C109.679 66.52 109.933 66.3088 110.226 66.1674C110.553 66.0218 110.908 65.9466 111.266 65.9466C111.625 65.9466 111.979 66.0218 112.307 66.1674C112.599 66.3088 112.853 66.52 113.045 66.7824C113.248 67.0656 113.397 67.3835 113.486 67.7206C113.68 68.5032 113.68 69.3216 113.486 70.1042C113.398 70.4436 113.249 70.764 113.045 71.0493C112.853 71.3118 112.599 71.5229 112.307 71.6643C111.981 71.8164 111.625 71.8913 111.266 71.8832ZM111.266 71.3794C111.543 71.3875 111.817 71.3253 112.064 71.1987C112.289 71.078 112.48 70.9038 112.622 70.6914C112.78 70.4541 112.892 70.1888 112.952 69.9096C113.1 69.2519 113.1 68.5694 112.952 67.9117C112.892 67.6336 112.78 67.3694 112.622 67.1333C112.478 66.9237 112.287 66.7511 112.064 66.6295C111.817 66.5045 111.543 66.4424 111.266 66.4488C110.988 66.4428 110.713 66.5048 110.465 66.6295C110.241 66.7492 110.049 66.9221 109.907 67.1333C109.752 67.3711 109.642 67.6347 109.581 67.9117C109.437 68.5699 109.437 69.2514 109.581 69.9096C109.642 70.1876 109.752 70.4524 109.907 70.6914C110.047 70.9053 110.239 71.0799 110.465 71.1987C110.713 71.325 110.988 71.3871 111.266 71.3794ZM115.855 66.0423H116.038H116.194H116.337H116.548V71.3064H118.913C118.916 71.34 118.916 71.3737 118.913 71.4072C118.913 71.4593 118.913 71.501 118.913 71.5392C118.913 71.5775 118.913 71.6261 118.913 71.6713C118.913 71.7164 118.913 71.7547 118.913 71.6539H115.855V66.0423ZM122.676 71.8832C122.317 71.8909 121.961 71.816 121.636 71.6643C121.343 71.5229 121.09 71.3118 120.897 71.0493C120.693 70.7647 120.545 70.444 120.46 70.1042C120.261 69.3221 120.261 68.5026 120.46 67.7206C120.546 67.3832 120.694 67.0649 120.897 66.7824C121.09 66.52 121.343 66.3088 121.636 66.1674C121.964 66.0218 122.318 65.9466 122.676 65.9466C123.035 65.9466 123.389 66.0218 123.717 66.1674C124.01 66.3088 124.263 66.52 124.456 66.7824C124.659 67.0649 124.807 67.3832 124.893 67.7206C125.091 68.5026 125.091 69.3221 124.893 70.1042C124.808 70.444 124.659 70.7647 124.456 71.0493C124.263 71.3118 124.01 71.5229 123.717 71.6643C123.391 71.816 123.035 71.8909 122.676 71.8832ZM122.676 71.3794C122.953 71.3872 123.228 71.325 123.474 71.1987C123.699 71.078 123.891 70.9038 124.032 70.6914C124.189 70.4534 124.301 70.1883 124.362 69.9096C124.505 69.2514 124.505 68.5699 124.362 67.9117C124.301 67.6341 124.189 67.3702 124.032 67.1333C123.889 66.9237 123.697 66.7511 123.474 66.6295C123.224 66.5106 122.951 66.4489 122.675 66.4489C122.398 66.4489 122.125 66.5106 121.875 66.6295C121.651 66.7492 121.459 66.9221 121.317 67.1333C121.161 67.3709 121.05 67.6345 120.987 67.9117C120.849 68.5704 120.849 69.2509 120.987 69.9096C121.05 70.1878 121.161 70.4526 121.317 70.6914C121.457 70.9053 121.649 71.0799 121.875 71.1987C122.123 71.325 122.398 71.3871 122.676 71.3794ZM127.299 66.018L127.646 65.9902L127.899 65.9658C127.983 65.9658 128.069 65.9658 128.16 65.9658H128.479C128.732 65.9663 128.984 65.993 129.231 66.0458C129.468 66.0964 129.694 66.1907 129.897 66.3237C130.097 66.4578 130.26 66.6393 130.372 66.8519C130.501 67.1105 130.563 67.3971 130.553 67.6858C130.555 67.8802 130.517 68.073 130.442 68.2522C130.368 68.4187 130.269 68.5732 130.15 68.7108C130.029 68.8457 129.888 68.9627 129.734 69.0583C129.581 69.1556 129.42 69.2382 129.252 69.305L129.19 69.3259L131.014 71.8033C130.962 71.8033 130.854 71.6713 130.854 71.6713H130.539C130.539 71.6713 130.438 71.8137 130.383 71.8033L128.34 69.1278V69.0931L128.538 69.0479C128.717 68.9994 128.892 68.9367 129.061 68.8603C129.223 68.7861 129.374 68.6915 129.512 68.5788C129.64 68.4711 129.748 68.3403 129.828 68.1931C129.911 68.0298 129.953 67.8484 129.949 67.665C129.962 67.4899 129.934 67.3142 129.867 67.1519C129.8 66.9896 129.697 66.8452 129.564 66.7303C129.265 66.5068 128.896 66.396 128.524 66.4175C128.413 66.4175 128.309 66.4175 128.212 66.4175C128.137 66.4227 128.063 66.4331 127.99 66.4488V71.7755H127.736H127.449H127.296L127.299 66.018Z" fill="#262F2F"/>
<path d="M69.4367 31L87.87 41.7403L69.4367 52.4771L51 41.7403L69.4367 31Z" fill="#FF5B30"/>
<path d="M51.0732 43.283L68.688 53.7314V74.9999L51.0732 64.4855" fill="#FFC7BC"/>
<path d="M70.2803 53.7904L87.7632 43.3455V64.6627L70.2803 74.9999" fill="#FF7C63"/>
</g>
<defs>
<clipPath id="clip0">
<rect x="51" y="31" width="80" height="44" fill="white"/>
</clipPath>
</defs>
</svg>
