<svg width="326" height="139" viewBox="0 0 326 139" fill="none" xmlns="http://www.w3.org/2000/svg">
<path d="M12.19 133V119.89L3.22 133H1.84V116.9H3.45V130.01L12.42 116.9H13.8V133H12.19ZM26.5578 131.528H28.1678V136.082H26.6498V133H17.2658V136.082H15.7478V131.528H17.1508C17.9328 130.501 18.3238 129.052 18.3238 127.181V121.5H26.5578V131.528ZM18.9908 131.528H25.0398V122.972H19.8418V127.181C19.8418 128.944 19.5581 130.393 18.9908 131.528ZM34.983 121.224C36.685 121.224 38.0573 121.83 39.1 123.041C40.158 124.237 40.687 125.655 40.687 127.296C40.687 127.465 40.6717 127.702 40.641 128.009H30.544C30.6973 129.174 31.188 130.102 32.016 130.792C32.8593 131.467 33.8943 131.804 35.121 131.804C35.995 131.804 36.7463 131.628 37.375 131.275C38.019 130.907 38.502 130.432 38.824 129.849L40.158 130.631C39.652 131.444 38.962 132.088 38.088 132.563C37.214 133.038 36.2173 133.276 35.098 133.276C33.2887 133.276 31.8167 132.709 30.682 131.574C29.5473 130.439 28.98 128.998 28.98 127.25C28.98 125.533 29.5397 124.099 30.659 122.949C31.7783 121.799 33.2197 121.224 34.983 121.224ZM34.983 122.696C33.787 122.696 32.7827 123.056 31.97 123.777C31.1727 124.482 30.6973 125.402 30.544 126.537H39.123C38.9697 125.326 38.502 124.383 37.72 123.708C36.938 123.033 36.0257 122.696 34.983 122.696ZM52.6466 121.5H54.1646V133H52.6466V130.746C51.5886 132.433 50.04 133.276 48.0006 133.276C46.36 133.276 44.957 132.693 43.7916 131.528C42.6416 130.363 42.0666 128.937 42.0666 127.25C42.0666 125.563 42.6416 124.137 43.7916 122.972C44.957 121.807 46.36 121.224 48.0006 121.224C50.04 121.224 51.5886 122.067 52.6466 123.754V121.5ZM44.8956 130.493C45.7696 131.367 46.843 131.804 48.1156 131.804C49.3883 131.804 50.4616 131.367 51.3356 130.493C52.2096 129.604 52.6466 128.523 52.6466 127.25C52.6466 125.977 52.2096 124.904 51.3356 124.03C50.4616 123.141 49.3883 122.696 48.1156 122.696C46.843 122.696 45.7696 123.141 44.8956 124.03C44.0216 124.904 43.5846 125.977 43.5846 127.25C43.5846 128.523 44.0216 129.604 44.8956 130.493ZM66.4637 121.5V133H64.9457V122.972H59.7477V128.101C59.7477 130.018 59.3797 131.336 58.6437 132.057C57.923 132.778 56.9264 133.092 55.6537 133V131.574C56.5277 131.666 57.1717 131.459 57.5857 130.953C58.015 130.447 58.2297 129.496 58.2297 128.101V121.5H66.4637ZM74.0032 125.87C75.0766 125.87 75.9812 126.207 76.7172 126.882C77.4686 127.541 77.8442 128.392 77.8442 129.435C77.8442 130.478 77.4686 131.336 76.7172 132.011C75.9812 132.67 75.0766 133 74.0032 133H69.3342V121.5H70.8522V125.87H74.0032ZM74.0032 131.528C74.6472 131.528 75.1916 131.336 75.6362 130.953C76.0962 130.57 76.3262 130.064 76.3262 129.435C76.3262 128.806 76.0962 128.3 75.6362 127.917C75.1916 127.534 74.6472 127.342 74.0032 127.342H70.8522V131.528H74.0032ZM87.9349 121.5H89.4529V133H87.9349V127.986H81.3109V133H79.7929V121.5H81.3109V126.514H87.9349V121.5ZM96.987 125.87C98.0604 125.87 98.965 126.207 99.701 126.882C100.452 127.541 100.828 128.392 100.828 129.435C100.828 130.478 100.452 131.336 99.701 132.011C98.965 132.67 98.0604 133 96.987 133H92.318V121.5H93.836V125.87H96.987ZM102.438 121.5H103.956V133H102.438V121.5ZM96.987 131.528C97.631 131.528 98.1754 131.336 98.62 130.953C99.08 130.57 99.31 130.064 99.31 129.435C99.31 128.806 99.08 128.3 98.62 127.917C98.1754 127.534 97.631 127.342 96.987 127.342H93.836V131.528H96.987ZM112.155 121.224C113.857 121.224 115.23 121.83 116.272 123.041C117.33 124.237 117.859 125.655 117.859 127.296C117.859 127.465 117.844 127.702 117.813 128.009H107.716C107.87 129.174 108.36 130.102 109.188 130.792C110.032 131.467 111.067 131.804 112.293 131.804C113.167 131.804 113.919 131.628 114.547 131.275C115.191 130.907 115.674 130.432 115.996 129.849L117.33 130.631C116.824 131.444 116.134 132.088 115.26 132.563C114.386 133.038 113.39 133.276 112.27 133.276C110.461 133.276 108.989 132.709 107.854 131.574C106.72 130.439 106.152 128.998 106.152 127.25C106.152 125.533 106.712 124.099 107.831 122.949C108.951 121.799 110.392 121.224 112.155 121.224ZM112.155 122.696C110.959 122.696 109.955 123.056 109.142 123.777C108.345 124.482 107.87 125.402 107.716 126.537H116.295C116.142 125.326 115.674 124.383 114.892 123.708C114.11 123.033 113.198 122.696 112.155 122.696ZM130.693 133.276C128.96 133.276 127.519 132.701 126.369 131.551C125.219 130.386 124.644 128.952 124.644 127.25C124.644 125.548 125.219 124.122 126.369 122.972C127.519 121.807 128.96 121.224 130.693 121.224C131.827 121.224 132.847 121.5 133.752 122.052C134.656 122.589 135.316 123.317 135.73 124.237L134.488 124.95C134.181 124.26 133.683 123.716 132.993 123.317C132.318 122.903 131.551 122.696 130.693 122.696C129.42 122.696 128.347 123.141 127.473 124.03C126.599 124.904 126.162 125.977 126.162 127.25C126.162 128.523 126.599 129.604 127.473 130.493C128.347 131.367 129.42 131.804 130.693 131.804C131.551 131.804 132.318 131.605 132.993 131.206C133.667 130.792 134.196 130.24 134.58 129.55L135.845 130.286C135.369 131.206 134.672 131.934 133.752 132.471C132.832 133.008 131.812 133.276 130.693 133.276ZM145.735 121.5V122.972H141.664V133H140.146V122.972H136.075V121.5H145.735ZM152.103 121.224C153.805 121.224 155.178 121.83 156.22 123.041C157.278 124.237 157.807 125.655 157.807 127.296C157.807 127.465 157.792 127.702 157.761 128.009H147.664C147.818 129.174 148.308 130.102 149.136 130.792C149.98 131.467 151.015 131.804 152.241 131.804C153.115 131.804 153.867 131.628 154.495 131.275C155.139 130.907 155.622 130.432 155.944 129.849L157.278 130.631C156.772 131.444 156.082 132.088 155.208 132.563C154.334 133.038 153.338 133.276 152.218 133.276C150.409 133.276 148.937 132.709 147.802 131.574C146.668 130.439 146.1 128.998 146.1 127.25C146.1 125.533 146.66 124.099 147.779 122.949C148.899 121.799 150.34 121.224 152.103 121.224ZM152.103 122.696C150.907 122.696 149.903 123.056 149.09 123.777C148.293 124.482 147.818 125.402 147.664 126.537H156.243C156.09 125.326 155.622 124.383 154.84 123.708C154.058 123.033 153.146 122.696 152.103 122.696ZM168.019 121.5H169.537V133H168.019V127.986H161.395V133H159.877V121.5H161.395V126.514H168.019V121.5ZM177.071 125.87C178.144 125.87 179.049 126.207 179.785 126.882C180.536 127.541 180.912 128.392 180.912 129.435C180.912 130.478 180.536 131.336 179.785 132.011C179.049 132.67 178.144 133 177.071 133H172.402V121.5H173.92V125.87H177.071ZM182.522 121.5H184.04V133H182.522V121.5ZM177.071 131.528C177.715 131.528 178.259 131.336 178.704 130.953C179.164 130.57 179.394 130.064 179.394 129.435C179.394 128.806 179.164 128.3 178.704 127.917C178.259 127.534 177.715 127.342 177.071 127.342H173.92V131.528H177.071ZM199.645 127.089C200.903 127.549 201.531 128.446 201.531 129.78C201.531 130.715 201.217 131.49 200.588 132.103C199.975 132.701 199.086 133 197.92 133H192.331V121.5H197.46C198.58 121.5 199.446 121.791 200.059 122.374C200.673 122.941 200.979 123.677 200.979 124.582C200.979 125.732 200.535 126.568 199.645 127.089ZM197.46 122.972H193.849V126.468H197.46C198.794 126.468 199.461 125.87 199.461 124.674C199.461 124.137 199.285 123.723 198.932 123.432C198.595 123.125 198.104 122.972 197.46 122.972ZM197.92 131.528C198.595 131.528 199.109 131.367 199.461 131.045C199.829 130.723 200.013 130.271 200.013 129.688C200.013 129.151 199.829 128.73 199.461 128.423C199.109 128.101 198.595 127.94 197.92 127.94H193.849V131.528H197.92ZM219.471 133V119.89L210.501 133H209.121V116.9H210.731V130.01L219.701 116.9H221.081V133H219.471ZM230.343 121.224C231.984 121.224 233.379 121.807 234.529 122.972C235.694 124.137 236.277 125.563 236.277 127.25C236.277 128.937 235.694 130.363 234.529 131.528C233.379 132.693 231.984 133.276 230.343 133.276C228.304 133.276 226.755 132.433 225.697 130.746V137.6H224.179V121.5H225.697V123.754C226.755 122.067 228.304 121.224 230.343 121.224ZM227.008 130.493C227.882 131.367 228.955 131.804 230.228 131.804C231.501 131.804 232.574 131.367 233.448 130.493C234.322 129.604 234.759 128.523 234.759 127.25C234.759 125.977 234.322 124.904 233.448 124.03C232.574 123.141 231.501 122.696 230.228 122.696C228.955 122.696 227.882 123.141 227.008 124.03C226.134 124.904 225.697 125.977 225.697 127.25C225.697 128.523 226.134 129.604 227.008 130.493ZM247.748 133H245.724L239.974 127.457V133H238.456V121.5H239.974V126.583L245.448 121.5H247.518L241.584 127.02L247.748 133ZM257.307 121.5H258.917L253.995 134.058C253.55 135.193 252.914 136.082 252.086 136.726C251.273 137.385 250.361 137.677 249.349 137.6V136.174C250.729 136.327 251.779 135.53 252.5 133.782L252.799 133.069L247.647 121.5H249.257L253.581 131.137L257.307 121.5ZM268.687 121.5V122.972H264.616V133H263.098V122.972H259.027V121.5H268.687ZM275.101 133.276C273.369 133.276 271.927 132.701 270.777 131.551C269.627 130.386 269.052 128.952 269.052 127.25C269.052 125.548 269.627 124.122 270.777 122.972C271.927 121.807 273.369 121.224 275.101 121.224C276.236 121.224 277.256 121.5 278.16 122.052C279.065 122.589 279.724 123.317 280.138 124.237L278.896 124.95C278.59 124.26 278.091 123.716 277.401 123.317C276.727 122.903 275.96 122.696 275.101 122.696C273.829 122.696 272.755 123.141 271.881 124.03C271.007 124.904 270.57 125.977 270.57 127.25C270.57 128.523 271.007 129.604 271.881 130.493C272.755 131.367 273.829 131.804 275.101 131.804C275.96 131.804 276.727 131.605 277.401 131.206C278.076 130.792 278.605 130.24 278.988 129.55L280.253 130.286C279.778 131.206 279.08 131.934 278.16 132.471C277.24 133.008 276.221 133.276 275.101 133.276ZM291.38 133H289.356L283.606 127.457V133H282.088V121.5H283.606V126.583L289.08 121.5H291.15L285.216 127.02L291.38 133ZM297.276 121.224C298.978 121.224 300.35 121.83 301.393 123.041C302.451 124.237 302.98 125.655 302.98 127.296C302.98 127.465 302.964 127.702 302.934 128.009H292.837C292.99 129.174 293.481 130.102 294.309 130.792C295.152 131.467 296.187 131.804 297.414 131.804C298.288 131.804 299.039 131.628 299.668 131.275C300.312 130.907 300.795 130.432 301.117 129.849L302.451 130.631C301.945 131.444 301.255 132.088 300.381 132.563C299.507 133.038 298.51 133.276 297.391 133.276C295.581 133.276 294.109 132.709 292.975 131.574C291.84 130.439 291.273 128.998 291.273 127.25C291.273 125.533 291.832 124.099 292.952 122.949C294.071 121.799 295.512 121.224 297.276 121.224ZM297.276 122.696C296.08 122.696 295.075 123.056 294.263 123.777C293.465 124.482 292.99 125.402 292.837 126.537H301.416C301.262 125.326 300.795 124.383 300.013 123.708C299.231 123.033 298.318 122.696 297.276 122.696Z" fill="#D36635"/>
<g clip-path="url(#clip0)">
<path d="M235.602 5.81576C237.007 5.60427 238.28 5.44974 239.42 5.35213C240.563 5.24639 241.569 5.18945 242.452 5.18945C243.336 5.18945 244.438 5.24639 245.606 5.35213C246.773 5.45787 248.038 5.60427 249.384 5.81576V61.5983C247.123 62.0192 244.832 62.2531 242.533 62.2978C240.207 62.2612 237.889 62.0272 235.602 61.5983V5.81576ZM259.112 5.9459C260.239 5.74255 261.276 5.58802 262.201 5.48228C263.097 5.38353 263.998 5.33194 264.9 5.32773C265.868 5.33065 266.835 5.39584 267.794 5.52293C268.799 5.65308 269.667 5.79136 270.38 5.9459L288.296 36.318V5.8239C289.61 5.62055 290.793 5.46601 291.847 5.3684C292.901 5.27079 293.858 5.21385 294.717 5.21385C295.624 5.21558 296.531 5.26717 297.433 5.3684C298.397 5.46601 299.403 5.62055 300.457 5.8239L300.384 61.4681C299.645 61.6693 298.895 61.8242 298.138 61.9318C297.092 62.0904 296.035 62.1665 294.976 62.1595C293.812 62.1694 292.648 62.0796 291.499 61.8911C290.469 61.7122 289.723 61.5658 289.261 61.4681L271.272 31.2506V61.5901C269.287 62.0202 267.263 62.2491 265.232 62.2734C263.175 62.2473 261.125 62.0184 259.112 61.5901V5.9459Z" fill="#262F2F"/>
<path d="M244.974 93.947C245.079 94.1341 245.16 94.313 245.241 94.4839C245.315 94.6591 245.369 94.8418 245.403 95.0288C244.924 95.2582 244.417 95.425 243.896 95.525C243.287 95.644 242.668 95.704 242.047 95.704C241.2 95.7116 240.358 95.5598 239.567 95.2566C238.832 94.9686 238.171 94.5214 237.629 93.947C237.074 93.3282 236.649 92.6034 236.381 91.8159C236.072 90.8741 235.921 89.8873 235.935 88.8959C235.919 87.8783 236.067 86.8648 236.372 85.8944C236.633 85.0773 237.052 84.3199 237.605 83.6657C238.131 83.063 238.788 82.5899 239.526 82.283C240.326 81.9548 241.183 81.7916 242.047 81.8031C242.705 81.7911 243.363 81.8484 244.009 81.9739C244.528 82.0877 244.909 82.1854 245.144 82.2586C245.127 82.4486 245.091 82.6365 245.039 82.8198C244.985 83.0026 244.92 83.1819 244.844 83.3566L244.35 83.2102C244.164 83.1538 243.974 83.1104 243.782 83.0801C243.538 83.0348 243.292 83.0022 243.044 82.9825C242.769 82.9825 242.444 82.9825 242.072 82.9825C241.391 82.9696 240.716 83.1056 240.094 83.381C239.511 83.6478 239 84.0492 238.602 84.5523C238.165 85.1068 237.843 85.7427 237.653 86.4231C237.415 87.2363 237.3 88.0809 237.313 88.9284C237.299 89.7784 237.425 90.6249 237.686 91.4336C237.903 92.089 238.257 92.6906 238.723 93.1987C239.152 93.6617 239.682 94.0182 240.272 94.2398C240.885 94.4651 241.533 94.578 242.185 94.5733C242.73 94.5794 243.274 94.5249 243.806 94.4107C244.223 94.3175 244.626 94.1727 245.006 93.9796L244.974 93.947ZM254.872 95.704C254.033 95.722 253.201 95.5466 252.44 95.1915C251.756 94.8605 251.163 94.3662 250.713 93.7518C250.237 93.0855 249.89 92.3348 249.692 91.5394C249.227 89.7086 249.227 87.7902 249.692 85.9595C249.892 85.1697 250.239 84.4248 250.713 83.7633C251.163 83.149 251.756 82.6546 252.44 82.3236C253.206 81.9828 254.034 81.8068 254.872 81.8068C255.71 81.8068 256.538 81.9828 257.304 82.3236C257.989 82.6546 258.581 83.149 259.031 83.7633C259.505 84.4262 259.854 85.1705 260.061 85.9595C260.514 87.7916 260.514 89.7073 260.061 91.5394C259.856 92.334 259.506 93.0839 259.031 93.7518C258.581 94.3662 257.989 94.8605 257.304 95.1915C256.544 95.5475 255.711 95.7228 254.872 95.704ZM254.872 94.5245C255.519 94.5434 256.161 94.3979 256.737 94.1016C257.262 93.8189 257.71 93.4111 258.042 92.914C258.412 92.3585 258.673 91.7374 258.812 91.0839C259.158 89.5442 259.158 87.9466 258.812 86.4069C258.673 85.7559 258.412 85.1375 258.042 84.5848C257.706 84.0941 257.258 83.69 256.737 83.4054C256.159 83.1127 255.519 82.9674 254.872 82.9825C254.223 82.9684 253.58 83.1136 253 83.4054C252.475 83.6855 252.027 84.0905 251.694 84.5848C251.334 85.1415 251.075 85.7586 250.932 86.4069C250.597 87.9478 250.597 89.543 250.932 91.0839C251.076 91.7346 251.334 92.3544 251.694 92.914C252.022 93.4148 252.471 93.8235 253 94.1016C253.579 94.3972 254.223 94.5426 254.872 94.5245ZM265.598 82.0308H266.027H266.392H266.724H267.219V94.3537H272.748C272.753 94.4322 272.753 94.5111 272.748 94.5896C272.748 94.7116 272.748 94.8092 272.748 94.8987C272.748 94.9882 272.748 95.102 272.748 95.2078C272.748 95.3135 272.748 95.403 272.748 95.1671H265.598V82.0308ZM281.544 95.704C280.705 95.722 279.873 95.5466 279.112 95.1915C278.427 94.8605 277.834 94.3662 277.385 93.7518C276.908 93.0855 276.562 92.3348 276.363 91.5394C275.899 89.7086 275.899 87.7902 276.363 85.9595C276.564 85.1697 276.91 84.4248 277.385 83.7633C277.834 83.149 278.427 82.6546 279.112 82.3236C279.877 81.9828 280.706 81.8068 281.544 81.8068C282.381 81.8068 283.21 81.9828 283.976 82.3236C284.66 82.6546 285.253 83.149 285.702 83.7633C286.177 84.4248 286.524 85.1697 286.724 85.9595C287.189 87.7902 287.189 89.7086 286.724 91.5394C286.525 92.3348 286.179 93.0855 285.702 93.7518C285.253 94.3662 284.66 94.8605 283.976 95.1915C283.215 95.5466 282.383 95.722 281.544 95.704ZM281.544 94.5245C282.191 94.5427 282.832 94.3972 283.408 94.1016C283.934 93.8189 284.382 93.4111 284.713 92.914C285.08 92.3567 285.341 91.7363 285.484 91.0839C285.819 89.543 285.819 87.9478 285.484 86.4069C285.341 85.757 285.08 85.1392 284.713 84.5848C284.377 84.0941 283.93 83.69 283.408 83.4054C282.824 83.127 282.186 82.9826 281.54 82.9826C280.893 82.9826 280.255 83.127 279.671 83.4054C279.146 83.6855 278.698 84.0905 278.366 84.5848C278.002 85.141 277.741 85.7581 277.596 86.4069C277.271 87.9489 277.271 89.5418 277.596 91.0839C277.742 91.7351 278.002 92.3549 278.366 92.914C278.693 93.4148 279.142 93.8235 279.671 94.1016C280.25 94.3972 280.894 94.5426 281.544 94.5245ZM292.35 81.9739L293.161 81.9088L293.753 81.8519C293.947 81.8519 294.15 81.8519 294.361 81.8519H295.106C295.698 81.8529 296.287 81.9155 296.866 82.0389C297.42 82.1575 297.948 82.3781 298.422 82.6897C298.888 83.0036 299.27 83.4283 299.533 83.926C299.833 84.5314 299.978 85.2024 299.954 85.8781C299.959 86.3332 299.871 86.7845 299.695 87.204C299.522 87.5937 299.293 87.9555 299.014 88.2777C298.729 88.5935 298.402 88.8673 298.041 89.0911C297.684 89.3187 297.307 89.512 296.914 89.6686L296.768 89.7174L301.032 95.5169C300.911 95.5169 300.66 95.2078 300.66 95.2078H299.922C299.922 95.2078 299.687 95.5413 299.557 95.5169L294.782 89.2537V89.1724L295.244 89.0667C295.663 88.9532 296.073 88.8063 296.468 88.6274C296.846 88.4539 297.2 88.2325 297.522 87.9686C297.822 87.7165 298.072 87.4103 298.26 87.0657C298.455 86.6835 298.553 86.2587 298.544 85.8293C298.574 85.4195 298.509 85.0082 298.352 84.6283C298.196 84.2483 297.953 83.9104 297.644 83.6413C296.944 83.1181 296.083 82.8589 295.212 82.9093C294.952 82.9093 294.709 82.9093 294.482 82.9093C294.308 82.9213 294.134 82.9457 293.963 82.9825V95.4518H293.372H292.699H292.342L292.35 81.9739Z" fill="#262F2F"/>
<path d="M157.096 0L200.184 25.142L157.096 50.2758L114 25.142L157.096 0Z" fill="#FF5B30"/>
<path d="M114.17 28.7534L155.345 53.2122V103L114.17 78.3867" fill="#FFC7BC"/>
<path d="M159.066 53.3505L199.932 28.8999V78.8016L159.066 103" fill="#FF7C63"/>
</g>
<defs>
<clipPath id="clip0">
<rect x="114" width="187" height="103" fill="white"/>
</clipPath>
</defs>
</svg>
