<svg width="1604" height="570" viewBox="0 0 1604 570" fill="none" xmlns="http://www.w3.org/2000/svg">
<path d="M1372.1 569.178C1371.78 569.67 1371.18 569.907 1370.61 569.768C1298.85 552.449 1218.42 552.449 1146.66 569.77C1146.09 569.907 1145.5 569.675 1145.17 569.188V569.188C1144.64 568.383 1145.06 567.291 1146 567.066C1218.24 549.824 1299.03 549.826 1371.27 567.071C1372.2 567.294 1372.62 568.375 1372.1 569.178V569.178Z" fill="#818181" fill-opacity="0.1"/>
<path d="M455.873 569.183C455.552 569.673 454.959 569.909 454.389 569.774C418.782 561.34 380.796 556.931 342.415 556.78C304.032 556.929 266.044 561.339 230.435 569.775C229.868 569.909 229.278 569.677 228.955 569.193V569.193C228.418 568.387 228.846 567.293 229.789 567.073C265.637 558.678 303.83 554.29 342.415 554.136C380.998 554.291 419.189 558.681 455.034 567.078C455.969 567.297 456.399 568.379 455.873 569.183V569.183Z" fill="#818181" fill-opacity="0.1"/>
<path d="M1435.17 569.257C1434.79 569.668 1434.21 569.822 1433.68 569.651C1386.5 554.476 1328.85 539.049 1258.7 539.049C1188.56 539.049 1130.82 554.476 1083.7 569.65C1083.16 569.822 1082.58 569.668 1082.2 569.257V569.257C1081.49 568.486 1081.81 567.237 1082.81 566.917C1130.26 551.716 1188.17 536.405 1258.7 536.405C1329.23 536.405 1387.11 551.716 1434.56 566.917C1435.56 567.237 1435.88 568.486 1435.17 569.257V569.257Z" fill="#818181" fill-opacity="0.1"/>
<path d="M518.892 569.257C518.512 569.668 517.933 569.822 517.4 569.651C470.221 554.476 412.571 539.049 342.425 539.049C272.28 539.049 214.542 554.476 167.42 569.65C166.888 569.822 166.308 569.668 165.928 569.257V569.257C165.215 568.486 165.535 567.237 166.536 566.917C213.989 551.716 271.894 536.405 342.425 536.405C412.956 536.405 470.833 551.716 518.285 566.917C519.285 567.237 519.606 568.486 518.892 569.257V569.257Z" fill="#818181" fill-opacity="0.1"/>
<path d="M1487.25 569.283C1486.85 569.659 1486.28 569.781 1485.76 569.6C1417.66 545.808 1347.15 521.316 1258.69 521.316C1170.24 521.316 1099.74 545.787 1031.61 569.594C1031.09 569.778 1030.5 569.644 1030.11 569.25V569.25C1029.35 568.496 1029.65 567.212 1030.65 566.86C1098.77 543.039 1169.57 518.672 1258.75 518.672C1347.89 518.672 1418.48 543.012 1486.73 566.82C1487.77 567.185 1488.06 568.526 1487.25 569.283V569.283Z" fill="#818181" fill-opacity="0.1"/>
<path d="M570.981 569.283C570.581 569.659 570.007 569.781 569.489 569.6C501.357 545.808 430.876 521.316 342.422 521.316C253.974 521.316 183.468 545.787 115.341 569.594C114.816 569.778 114.233 569.644 113.839 569.25V569.25C113.085 568.496 113.376 567.212 114.384 566.86C182.497 543.039 253.296 518.672 342.482 518.672C431.618 518.672 502.183 543.012 570.46 566.821C571.504 567.185 571.788 568.526 570.981 569.283V569.283Z" fill="#818181" fill-opacity="0.1"/>
<path d="M1539.41 569.255C1539.03 569.666 1538.44 569.819 1537.91 569.647C1520.62 564.05 1503.34 558.003 1486.6 552.162C1418.24 528.243 1347.63 503.566 1258.69 503.566C1169.75 503.566 1099.15 528.243 1030.63 552.162C1013.93 558.003 996.643 564.05 979.321 569.647C978.789 569.819 978.205 569.666 977.825 569.255V569.255C977.111 568.484 977.438 567.233 978.438 566.908C995.249 561.444 1012.07 555.569 1028.36 549.888C1097.14 525.828 1168.5 500.939 1258.63 500.939C1348.77 500.939 1419.94 525.828 1488.9 549.888C1505.17 555.586 1521.98 561.446 1538.8 566.908C1539.8 567.233 1540.12 568.484 1539.41 569.255V569.255Z" fill="#818181" fill-opacity="0.1"/>
<path d="M623.156 569.276C622.767 569.676 622.185 569.821 621.654 569.65C604.359 564.052 587.073 558.005 570.336 552.163C501.973 528.244 431.246 503.567 342.427 503.567C253.608 503.567 182.882 528.244 114.488 552.145C97.7829 557.987 80.4988 564.033 63.1767 569.631C62.6442 569.803 62.0605 569.65 61.6804 569.239V569.239C60.9667 568.468 61.2939 567.216 62.2932 566.891C79.1049 561.428 95.9217 555.552 112.216 549.871C180.998 525.811 252.352 500.923 342.487 500.923C432.622 500.923 503.797 525.811 572.759 549.871C588.993 555.541 605.775 561.405 622.555 566.86C623.587 567.196 623.911 568.497 623.156 569.276V569.276Z" fill="#818181" fill-opacity="0.1"/>
<path d="M1602.78 569.239C1602.45 569.699 1601.88 569.916 1601.32 569.788C1561.05 560.44 1523.22 547.218 1486.62 534.429C1418.23 510.616 1347.62 485.939 1258.68 485.939C1169.74 485.939 1099.14 510.616 1030.62 534.429C994.034 547.215 956.177 560.435 915.915 569.783C915.353 569.913 914.768 569.681 914.448 569.201V569.201C913.91 568.394 914.346 567.298 915.291 567.077C954.965 557.78 992.34 544.78 1028.47 532.155C1097.25 508.078 1168.61 483.207 1258.74 483.207C1348.88 483.207 1420.05 508.095 1489.01 532.155C1525.11 544.77 1562.49 557.81 1601.95 567.056C1602.93 567.284 1603.36 568.426 1602.78 569.239V569.239Z" fill="#818181" fill-opacity="0.1"/>
<path d="M686.552 569.203C686.221 569.684 685.629 569.914 685.06 569.782C644.772 560.434 606.947 547.215 570.33 534.43C501.966 510.617 431.24 485.94 342.42 485.94C253.601 485.94 182.875 510.617 114.482 534.518C78.13 547.129 40.5417 560.26 0.547961 569.589C-0.012322 569.72 -0.595225 569.487 -0.911847 569.007V569.007C-1.43929 568.207 -1.00661 567.126 -0.0737083 566.906C39.1974 557.661 76.34 544.695 112.209 532.104C180.991 508.026 252.345 483.155 342.48 483.155C432.615 483.155 503.79 508.044 572.752 532.104C608.855 544.719 646.229 557.759 685.7 567.006C686.677 567.235 687.121 568.376 686.552 569.203V569.203Z" fill="#818181" fill-opacity="0.1"/>
<path d="M800.541 565.647C710.466 565.647 639.232 540.759 570.27 516.699C501.906 492.815 431.18 468.103 342.361 468.103C253.542 468.103 182.815 492.78 114.422 516.699C78.1322 529.396 40.5472 542.527 0.556804 551.856C-0.00843322 551.988 -0.596357 551.752 -0.914183 551.266V551.266C-1.44118 550.461 -1.00489 549.377 -0.0680036 549.157C39.201 539.928 76.3417 526.962 112.209 514.355C180.991 490.277 252.345 465.389 342.48 465.389C432.615 465.389 503.79 490.277 572.752 514.355C641.116 538.238 711.812 562.933 800.661 562.933C889.51 562.933 960.206 538.256 1028.6 514.355C1097.04 490.396 1168.03 465.634 1257.54 465.39C1258.27 465.388 1258.87 465.981 1258.87 466.711V466.711C1258.87 467.441 1258.27 468.032 1257.54 468.034C1169.32 468.279 1098.98 492.829 1030.93 516.628C961.851 540.759 890.616 565.647 800.541 565.647Z" fill="#818181" fill-opacity="0.1"/>
<path d="M800.541 547.915C710.466 547.915 639.232 523.026 570.27 498.967C501.906 475.065 431.18 450.371 342.361 450.371C253.542 450.371 182.815 475.048 114.422 498.967C78.1322 511.664 40.5472 524.794 0.556804 534.124C-0.00843322 534.255 -0.596357 534.02 -0.914183 533.534V533.534C-1.44118 532.729 -1.00489 531.644 -0.0680036 531.424C39.201 522.196 76.3417 509.23 112.209 496.622C180.991 472.545 252.345 447.656 342.48 447.656C432.615 447.656 503.79 472.545 572.752 496.622C641.116 520.506 711.812 545.2 800.661 545.2C889.51 545.2 960.206 520.523 1028.6 496.622C1097.04 472.663 1168.03 447.901 1257.54 447.658C1258.27 447.656 1258.87 448.248 1258.87 448.978V448.978C1258.87 449.708 1258.27 450.3 1257.54 450.302C1169.32 450.547 1098.98 475.096 1030.93 498.896C961.851 522.956 890.616 547.915 800.541 547.915Z" fill="#818181" fill-opacity="0.1"/>
<path d="M800.541 530.181C710.466 530.181 639.232 505.293 570.27 481.233C501.906 457.332 431.18 432.637 342.361 432.637C253.542 432.637 182.815 457.314 114.422 481.215C78.1323 493.93 40.5474 507.061 0.557085 516.39C-0.00832121 516.522 -0.59642 516.286 -0.914341 515.8V515.8C-1.44137 514.995 -1.00531 513.911 -0.0684643 513.69C39.2007 504.446 76.3416 491.497 112.209 478.889C180.991 454.829 252.345 429.94 342.48 429.94C432.615 429.94 503.79 454.829 572.752 478.889C641.116 502.79 711.812 527.485 800.661 527.485C889.51 527.485 960.206 502.808 1028.6 478.889C1097.04 454.947 1168.03 430.185 1257.54 429.942C1258.27 429.94 1258.87 430.532 1258.87 431.262V431.262C1258.87 431.993 1258.27 432.584 1257.54 432.586C1169.32 432.831 1098.98 457.381 1030.93 481.18C961.851 505.328 890.616 530.181 800.541 530.181Z" fill="#818181" fill-opacity="0.1"/>
<path d="M800.541 512.381C710.466 512.381 639.232 487.493 570.27 463.415C501.906 439.532 431.18 414.837 342.361 414.837C253.542 414.837 182.815 439.514 114.422 463.415C78.1297 476.183 40.5421 489.264 0.548537 498.644C-0.0119544 498.775 -0.595488 498.543 -0.912318 498.062V498.062C-1.43953 497.262 -1.00704 496.182 -0.074541 495.962C39.1968 486.717 76.3397 473.75 112.209 461.159C180.991 437.099 252.345 412.211 342.48 412.211C432.615 412.211 503.79 437.099 572.752 461.159C641.116 485.043 711.812 509.755 800.661 509.755C889.51 509.755 960.206 485.078 1028.6 461.159C1097.04 437.218 1168.03 412.456 1257.54 412.213C1258.27 412.211 1258.87 412.803 1258.87 413.533V413.533C1258.87 414.263 1258.27 414.855 1257.54 414.857C1169.32 415.101 1098.98 439.651 1030.93 463.433C961.851 487.563 890.616 512.381 800.541 512.381Z" fill="#818181" fill-opacity="0.1"/>
<path d="M800.541 494.755C710.466 494.755 639.232 469.866 570.27 445.789C501.906 421.905 431.18 397.211 342.361 397.211C253.542 397.211 182.815 421.887 114.422 445.789C78.1294 458.452 40.5413 471.636 0.547391 480.914C-0.012688 481.044 -0.594964 480.811 -0.91138 480.331V480.331C-1.43905 479.531 -1.00617 478.449 -0.0728671 478.229C39.1979 468.984 76.3402 456.018 112.209 443.427C180.991 419.367 252.345 394.479 342.48 394.479C432.615 394.479 503.79 419.367 572.752 443.427C641.116 467.31 711.812 492.023 800.661 492.023C889.51 492.023 960.206 467.346 1028.6 443.427C1097.04 419.485 1168.03 394.723 1257.54 394.48C1258.27 394.478 1258.87 395.07 1258.87 395.8V395.8C1258.87 396.531 1258.27 397.122 1257.54 397.124C1169.32 397.369 1098.98 421.919 1030.93 445.701C961.851 469.831 890.616 494.755 800.541 494.755Z" fill="#818181" fill-opacity="0.1"/>
<path d="M800.541 476.968C710.466 476.968 639.232 452.08 570.27 428.02C501.906 404.136 431.18 379.424 342.361 379.424C253.542 379.424 182.815 404.101 114.422 428.02C78.1295 440.718 40.5417 453.85 0.547975 463.179C-0.012315 463.31 -0.595227 463.077 -0.911851 462.597V462.597C-1.43929 461.797 -1.0066 460.716 -0.0737008 460.496C39.1974 451.251 76.34 438.285 112.209 425.694C180.991 401.616 252.345 376.728 342.48 376.728C432.615 376.728 503.79 401.616 572.752 425.694C641.116 449.577 711.812 474.272 800.661 474.272C889.51 474.272 960.206 449.595 1028.6 425.694C1097.04 401.734 1168.03 376.972 1257.54 376.729C1258.27 376.727 1258.87 377.319 1258.87 378.05V378.05C1258.87 378.78 1258.27 379.371 1257.54 379.373C1169.32 379.618 1098.98 404.168 1030.93 427.967C961.851 452.08 890.616 476.968 800.541 476.968Z" fill="#818181" fill-opacity="0.1"/>
<path d="M800.541 459.237C710.466 459.237 639.232 434.349 570.27 410.289C501.906 386.405 431.18 361.693 342.361 361.693C253.542 361.693 182.815 386.37 114.422 410.289C78.1322 422.986 40.5472 436.117 0.556804 445.446C-0.00843322 445.578 -0.596357 445.342 -0.914183 444.856V444.856C-1.44118 444.051 -1.00489 442.967 -0.0680036 442.747C39.201 433.518 76.3417 420.552 112.209 407.944C180.991 383.867 252.345 358.979 342.48 358.979C432.615 358.979 503.79 383.867 572.752 407.944C641.116 431.828 711.812 456.523 800.661 456.523C889.51 456.523 960.206 431.846 1028.6 407.944C1097.04 383.985 1168.03 359.223 1257.54 358.98C1258.27 358.978 1258.87 359.57 1258.87 360.3V360.3C1258.87 361.031 1258.27 361.622 1257.54 361.624C1169.32 361.869 1098.98 386.419 1030.93 410.218C961.851 434.349 890.616 459.237 800.541 459.237Z" fill="#818181" fill-opacity="0.1"/>
<path d="M800.541 441.505C710.466 441.505 639.232 416.616 570.27 392.556C501.906 368.655 431.18 343.96 342.361 343.96C253.542 343.96 182.815 368.637 114.422 392.556C78.1323 405.253 40.5474 418.384 0.557085 427.713C-0.0083212 427.845 -0.59642 427.609 -0.914341 427.124V427.124C-1.44137 426.318 -1.00531 425.234 -0.0684641 425.013C39.2007 415.769 76.3416 402.82 112.209 390.212C180.991 366.152 252.345 341.264 342.48 341.264C432.615 341.264 503.79 366.152 572.752 390.212C641.116 414.113 711.812 438.808 800.661 438.808C889.51 438.808 960.206 414.131 1028.6 390.212C1097.04 366.27 1168.03 341.509 1257.54 341.265C1258.27 341.263 1258.87 341.856 1258.87 342.586V342.586C1258.87 343.316 1258.27 343.907 1257.54 343.909C1169.32 344.154 1098.98 368.704 1030.93 392.503C961.851 416.616 890.616 441.505 800.541 441.505Z" fill="#818181" fill-opacity="0.1"/>
<path d="M800.541 423.772C710.466 423.772 639.232 398.884 570.27 374.806C501.906 350.923 431.18 326.228 342.361 326.228C253.542 326.228 182.875 350.923 114.482 374.895C78.1326 387.522 40.5471 400.652 0.556508 409.93C-0.00868983 410.061 -0.596156 409.825 -0.913869 409.339V409.339C-1.44112 408.533 -1.00488 407.449 -0.0676316 407.228C39.2012 397.983 76.3418 385.017 112.209 372.427C180.991 348.367 252.345 323.479 342.48 323.479C432.615 323.479 503.79 348.367 572.752 372.427C641.116 396.328 711.812 421.023 800.661 421.023C889.51 421.023 960.206 396.346 1028.6 372.427C1097.04 348.485 1168.03 323.723 1257.54 323.48C1258.27 323.478 1258.87 324.07 1258.87 324.8V324.8C1258.87 325.531 1258.27 326.122 1257.54 326.124C1169.32 326.369 1098.98 350.919 1030.93 374.701C961.851 398.884 890.616 423.772 800.541 423.772Z" fill="#818181" fill-opacity="0.1"/>
<path d="M800.541 406.04C710.466 406.04 639.232 381.151 570.27 357.074C501.906 333.19 431.18 308.495 342.361 308.495C253.542 308.495 182.815 333.172 114.422 357.074C78.1298 369.772 40.5422 382.903 0.548732 392.302C-0.0118336 392.433 -0.595578 392.201 -0.912478 391.72V391.72C-1.43962 390.92 -1.00718 389.84 -0.0748111 389.62C39.1967 380.375 76.3396 367.409 112.209 354.817C180.991 330.758 252.345 305.869 342.48 305.869C432.615 305.869 503.79 330.758 572.752 354.817C641.116 378.701 711.812 403.413 800.661 403.413C889.51 403.413 960.206 378.736 1028.6 354.817C1097.04 330.876 1168.03 306.114 1257.54 305.871C1258.27 305.869 1258.87 306.461 1258.87 307.191V307.191C1258.87 307.921 1258.27 308.513 1257.54 308.515C1169.32 308.759 1098.98 333.309 1030.93 357.091C961.851 381.151 890.616 406.04 800.541 406.04Z" fill="#818181" fill-opacity="0.1"/>
<path d="M800.541 388.309C710.466 388.309 639.232 363.421 570.27 339.343C501.906 315.46 431.18 290.765 342.361 290.765C253.542 290.765 182.815 315.442 114.422 339.343C78.1295 352.041 40.5417 365.173 0.547975 374.502C-0.0123149 374.633 -0.595227 374.401 -0.911851 373.92V373.92C-1.43929 373.12 -1.0066 372.039 -0.0737008 371.819C39.1974 362.574 76.34 349.608 112.209 337.017C180.991 312.939 252.345 288.068 342.48 288.068C432.615 288.068 503.79 312.957 572.752 337.017C641.116 360.9 711.812 385.612 800.661 385.612C889.51 385.612 960.206 360.936 1028.6 337.017C1097.04 313.075 1168.03 288.313 1257.54 288.07C1258.27 288.068 1258.87 288.66 1258.87 289.39V289.39C1258.87 290.12 1258.27 290.712 1257.54 290.714C1169.32 290.959 1098.98 315.508 1030.93 339.29C961.851 363.421 890.616 388.309 800.541 388.309Z" fill="#818181" fill-opacity="0.1"/>
<path d="M800.541 370.558C710.466 370.558 639.232 345.67 570.27 321.61C501.906 297.726 431.18 273.014 342.361 273.014C253.542 273.014 182.815 297.691 114.422 321.61C78.1322 334.255 40.5472 347.437 0.556789 356.767C-0.00844501 356.899 -0.596357 356.663 -0.914183 356.178V356.178C-1.44118 355.372 -1.00489 354.288 -0.0680039 354.068C39.201 344.84 76.3417 331.873 112.209 319.266C180.991 295.188 252.345 270.3 342.48 270.3C432.615 270.3 503.79 295.188 572.752 319.266C640.996 343.167 711.692 367.844 800.541 367.844C889.39 367.844 960.087 343.167 1028.48 319.266C1096.92 295.307 1167.91 270.545 1257.42 270.302C1258.15 270.3 1258.75 270.892 1258.75 271.622V271.622C1258.75 272.352 1258.15 272.944 1257.42 272.946C1169.2 273.19 1098.87 297.74 1030.81 321.54C961.851 345.67 890.616 370.558 800.541 370.558Z" fill="#818181" fill-opacity="0.1"/>
<path d="M800.541 352.826C710.466 352.826 639.232 327.938 570.27 303.878C501.906 279.994 431.18 255.282 342.361 255.282C253.542 255.282 182.815 279.959 114.422 303.878C78.1322 316.627 40.5472 329.706 0.556811 339.035C-0.0084285 339.167 -0.596357 338.931 -0.914183 338.445V338.445C-1.44118 337.64 -1.00489 336.556 -0.0680042 336.335C39.201 327.107 76.3417 314.141 112.209 301.533C180.991 277.456 252.345 252.567 342.48 252.567C432.615 252.567 503.79 277.456 572.752 301.533C640.996 325.54 711.692 350.217 800.541 350.217C889.39 350.217 960.087 325.54 1028.48 301.639C1096.92 277.68 1167.91 252.918 1257.42 252.675C1258.15 252.673 1258.75 253.265 1258.75 253.995V253.995C1258.75 254.725 1258.15 255.317 1257.42 255.319C1169.2 255.563 1098.87 280.113 1030.81 303.913C961.851 327.938 890.616 352.826 800.541 352.826Z" fill="#818181" fill-opacity="0.1"/>
<path d="M800.541 335.092C710.466 335.092 639.232 310.204 570.27 286.127C501.906 262.243 431.18 237.548 342.361 237.548C253.542 237.548 182.815 262.225 114.422 286.127C78.1323 298.841 40.5474 311.972 0.557085 321.301C-0.0083212 321.433 -0.59642 321.197 -0.914341 320.711V320.711C-1.44137 319.906 -1.00531 318.822 -0.0684641 318.601C39.2007 309.357 76.3416 296.408 112.209 283.8C180.991 259.74 252.345 234.852 342.48 234.852C432.615 234.852 503.79 259.74 572.752 283.8C641.116 307.701 711.812 332.396 800.661 332.396C889.51 332.396 960.206 307.719 1028.6 283.8C1097.04 259.858 1168.03 235.096 1257.54 234.853C1258.27 234.851 1258.87 235.443 1258.87 236.174V236.174C1258.87 236.904 1258.27 237.495 1257.54 237.497C1169.32 237.742 1098.98 262.292 1030.93 286.074C961.851 310.204 890.616 335.092 800.541 335.092Z" fill="#818181" fill-opacity="0.1"/>
<path d="M800.541 317.362C710.466 317.362 639.232 292.474 570.27 268.396C501.966 244.46 431.24 219.783 342.421 219.783C253.601 219.783 182.875 244.46 114.482 268.361C78.1328 281.11 40.5476 294.224 0.557294 303.57C-0.0081899 303.702 -0.59651 303.467 -0.914502 302.981V302.981C-1.44145 302.176 -1.00545 301.091 -0.0687411 300.871C39.2005 291.626 76.3415 278.66 112.209 266.069C180.991 242.009 252.345 217.121 342.48 217.121C432.615 217.121 503.79 242.009 572.752 266.069C641.116 289.953 711.812 314.665 800.661 314.665C889.51 314.665 960.206 289.988 1028.6 266.069C1097.04 242.129 1168.03 217.368 1257.53 217.123C1258.27 217.121 1258.87 217.717 1258.87 218.452V218.452C1258.87 219.187 1258.27 219.782 1257.53 219.785C1169.31 220.031 1098.98 244.58 1030.93 268.361C961.851 292.474 890.616 317.362 800.541 317.362Z" fill="#818181" fill-opacity="0.1"/>
<path d="M800.541 299.631C710.466 299.631 639.232 274.742 570.27 250.665C501.966 226.834 431.24 202.157 342.421 202.157C253.601 202.157 182.875 226.834 114.482 250.735C78.13 263.363 40.5417 276.495 0.547975 285.824C-0.012315 285.955 -0.595227 285.722 -0.911851 285.242V285.242C-1.43929 284.441 -1.0066 283.36 -0.0737008 283.141C39.1974 273.895 76.34 260.929 112.209 248.338C180.991 224.278 252.345 199.39 342.48 199.39C432.615 199.39 503.79 224.278 572.752 248.338C641.116 272.222 711.812 296.934 800.661 296.934C889.51 296.934 960.206 272.257 1028.6 248.338C1097.03 224.402 1168 199.646 1257.48 199.392C1258.24 199.389 1258.87 200.009 1258.87 200.773V200.773C1258.87 201.537 1258.24 202.157 1257.48 202.159C1169.28 202.415 1098.97 226.959 1030.93 250.735C961.851 274.742 890.616 299.631 800.541 299.631Z" fill="#818181" fill-opacity="0.1"/>
<path d="M800.541 281.882C710.466 281.882 639.232 257.011 570.27 232.933C501.906 209.05 431.18 184.337 342.361 184.337C253.542 184.337 182.815 209.014 114.422 232.933C78.1295 245.631 40.5417 258.763 0.547975 268.092C-0.0123149 268.223 -0.595227 267.99 -0.911851 267.51V267.51C-1.43929 266.71 -1.0066 265.629 -0.0737008 265.409C39.1974 256.164 76.34 243.198 112.209 230.607C180.991 206.529 252.345 181.641 342.48 181.641C432.615 181.641 503.79 206.529 572.752 230.607C641.116 254.49 711.812 279.185 800.661 279.185C889.51 279.185 960.206 254.508 1028.6 230.607C1097.04 206.647 1168.03 181.886 1257.54 181.642C1258.27 181.64 1258.87 182.232 1258.87 182.963V182.963C1258.87 183.693 1258.27 184.284 1257.54 184.286C1169.32 184.531 1098.98 209.081 1030.93 232.88C961.851 257.011 890.616 281.882 800.541 281.882Z" fill="#818181" fill-opacity="0.1"/>
<path d="M800.541 264.149C710.466 264.149 639.232 239.261 570.27 215.201C501.906 191.317 431.18 166.605 342.361 166.605C253.542 166.605 182.815 191.282 114.422 215.201C78.1322 227.898 40.5473 241.029 0.556811 250.358C-0.00842943 250.49 -0.596358 250.254 -0.914184 249.768V249.768C-1.44119 248.963 -1.00489 247.879 -0.0680007 247.659C39.201 238.43 76.3417 225.464 112.209 212.857C180.991 188.779 252.345 163.891 342.48 163.891C432.615 163.891 503.79 188.779 572.752 212.857C641.116 236.74 711.812 261.435 800.661 261.435C889.51 261.435 960.206 236.758 1028.6 212.857C1097.04 188.897 1168.03 164.136 1257.54 163.892C1258.27 163.89 1258.87 164.482 1258.87 165.213V165.213C1258.87 165.943 1258.27 166.534 1257.54 166.536C1169.32 166.781 1098.98 191.331 1030.93 215.13C961.851 239.261 890.616 264.149 800.541 264.149Z" fill="#818181" fill-opacity="0.1"/>
<path d="M800.541 246.415C710.466 246.415 639.232 221.526 570.27 197.466C501.906 173.565 431.18 148.871 342.361 148.871C253.542 148.871 182.815 173.548 114.422 197.466C78.135 210.163 40.553 223.292 0.565942 232.621C-0.00442205 232.755 -0.597544 232.516 -0.916655 232.024V232.024C-1.44324 231.214 -1.00358 230.126 -0.0627473 229.905C39.2043 220.677 76.3433 207.712 112.209 195.105C180.991 171.045 252.345 146.156 342.48 146.156C432.615 146.156 503.79 171.045 572.752 195.122C641.116 219.006 711.812 243.7 800.661 243.7C889.51 243.7 960.206 219.023 1028.6 195.122C1097.04 171.163 1168.03 146.401 1257.54 146.158C1258.27 146.156 1258.87 146.748 1258.87 147.478V147.478C1258.87 148.208 1258.27 148.8 1257.54 148.802C1169.32 149.047 1098.98 173.596 1030.93 197.396C961.851 221.544 890.616 246.415 800.541 246.415Z" fill="#818181" fill-opacity="0.1"/>
<path d="M800.541 228.684C710.466 228.684 639.232 203.796 570.27 179.718C501.906 155.834 431.18 131.14 342.361 131.14C253.542 131.14 182.815 155.817 114.422 179.718C78.1185 192.437 40.519 205.574 0.511666 214.903C-0.0281983 215.029 -0.590367 214.809 -0.901661 214.351V214.351C-1.43074 213.571 -1.01159 212.503 -0.0944722 212.287C39.1843 203.042 76.3337 190.09 112.209 177.48C180.991 153.42 252.345 128.531 342.48 128.531C432.615 128.531 503.79 153.42 572.752 177.48C641.116 201.381 711.812 226.075 800.661 226.075C889.51 226.075 960.206 201.398 1028.6 177.48C1097.04 153.538 1168.03 128.776 1257.54 128.533C1258.27 128.531 1258.87 129.123 1258.87 129.853V129.853C1258.87 130.583 1258.27 131.175 1257.54 131.177C1169.32 131.422 1098.98 155.971 1030.93 179.753C961.851 203.796 890.616 228.684 800.541 228.684Z" fill="#818181" fill-opacity="0.1"/>
<path d="M800.541 210.97C710.466 210.97 639.232 186.082 570.27 162.005C501.906 138.121 431.18 113.426 342.361 113.426C253.542 113.426 182.815 138.103 114.422 162.005C78.1294 174.685 40.5415 187.852 0.547586 197.147C-0.0125641 197.277 -0.595051 197.044 -0.911537 196.564V196.564C-1.43913 195.764 -1.00632 194.682 -0.0731446 194.463C39.1977 185.218 76.3402 172.251 112.209 159.66C180.991 135.6 252.345 110.712 342.48 110.712C432.615 110.712 503.79 135.6 572.752 159.66C641.116 183.544 711.812 208.256 800.661 208.256C889.51 208.256 960.206 183.579 1028.6 159.66C1097.04 135.719 1168.03 110.957 1257.54 110.714C1258.27 110.712 1258.87 111.304 1258.87 112.034V112.034C1258.87 112.764 1258.27 113.356 1257.54 113.358C1169.32 113.602 1098.98 138.152 1030.93 161.934C961.851 186.064 890.616 210.97 800.541 210.97Z" fill="#818181" fill-opacity="0.1"/>
<path d="M800.541 193.22C710.466 193.22 639.232 168.332 570.27 144.254C501.906 120.371 431.18 95.6763 342.361 95.6763C253.542 95.6763 182.815 120.353 114.422 144.254C78.1295 156.952 40.5417 170.084 0.547975 179.414C-0.0123149 179.544 -0.595227 179.312 -0.911851 178.831V178.831C-1.43929 178.031 -1.0066 176.95 -0.0737008 176.73C39.1974 167.485 76.34 154.519 112.209 141.928C180.991 117.868 252.345 92.9795 342.48 92.9795C432.615 92.9795 503.79 117.868 572.752 141.928C641.116 165.811 711.812 190.524 800.661 190.524C889.51 190.524 960.206 165.847 1028.6 141.928C1097.04 117.986 1168.03 93.2244 1257.54 92.9813C1258.27 92.9793 1258.87 93.5714 1258.87 94.3015V94.3015C1258.87 95.0316 1258.27 95.6233 1257.54 95.6253C1169.32 95.8697 1098.98 120.42 1030.93 144.202C961.851 168.332 890.616 193.22 800.541 193.22Z" fill="#818181" fill-opacity="0.1"/>
<path d="M800.541 175.47C710.466 175.47 639.232 150.582 570.27 126.522C501.906 102.638 431.18 77.9263 342.361 77.9263C253.542 77.9263 182.815 102.603 114.422 126.522C78.1295 139.22 40.5417 152.352 0.547975 161.681C-0.0123187 161.812 -0.595228 161.579 -0.911853 161.099V161.099C-1.43929 160.299 -1.0066 159.218 -0.0736975 158.998C39.1974 149.753 76.34 136.786 112.209 124.195C180.991 100.118 252.345 75.2295 342.48 75.2295C432.615 75.2295 503.79 100.118 572.752 124.195C641.116 148.079 711.812 172.774 800.661 172.774C889.51 172.774 960.206 148.097 1028.6 124.195C1097.04 100.236 1168.03 75.4744 1257.54 75.2313C1258.27 75.2293 1258.87 75.8214 1258.87 76.5515V76.5515C1258.87 77.2816 1258.27 77.8733 1257.54 77.8753C1169.32 78.1197 1098.98 102.67 1030.93 126.469C961.851 150.582 890.616 175.47 800.541 175.47Z" fill="#818181" fill-opacity="0.1"/>
<path d="M800.541 157.739C710.466 157.739 639.232 132.851 570.27 108.791C501.906 84.907 431.18 60.1949 342.361 60.1949C253.542 60.1949 182.875 84.907 114.482 108.738C78.1327 121.487 40.5473 134.619 0.556811 143.948C-0.00842945 144.08 -0.596358 143.844 -0.914184 143.358V143.358C-1.44119 142.553 -1.00489 141.469 -0.0680009 141.248C39.201 132.02 76.3417 119.054 112.209 106.446C180.991 82.3688 252.345 57.4805 342.48 57.4805C432.615 57.4805 503.79 82.3688 572.752 106.446C641.116 130.33 711.812 155.025 800.661 155.025C889.51 155.025 960.206 130.348 1028.6 106.446C1097.04 82.4873 1168.03 57.7254 1257.54 57.4823C1258.27 57.4803 1258.87 58.0723 1258.87 58.8024V58.8024C1258.87 59.5325 1258.27 60.1242 1257.54 60.1263C1169.32 60.3707 1098.98 84.9207 1030.93 108.72C961.851 132.851 890.616 157.739 800.541 157.739Z" fill="#818181" fill-opacity="0.1"/>
<path d="M800.541 140.007C710.466 140.007 639.232 115.119 570.27 91.0591C501.966 67.1578 431.24 42.4633 342.421 42.4633C253.601 42.4633 182.875 67.1578 114.482 91.1119C78.1324 103.757 40.5468 116.887 0.556047 126.147C-0.00891577 126.278 -0.596006 126.042 -0.913556 125.557V125.557C-1.44086 124.751 -1.00432 123.666 -0.0668828 123.446C39.2017 114.218 76.3421 101.252 112.209 88.6443C181.111 64.6725 252.345 39.8193 342.421 39.8193C432.496 39.8193 503.73 64.7077 572.692 88.7853C641.056 112.669 711.752 137.363 800.601 137.363C889.45 137.363 960.146 112.687 1028.54 88.7853C1096.98 64.8262 1167.97 40.0642 1257.48 39.8211C1258.21 39.8192 1258.81 40.4112 1258.81 41.1413V41.1413C1258.81 41.8714 1258.21 42.4631 1257.48 42.4651C1169.26 42.7096 1098.92 67.2595 1030.87 91.0591C961.851 115.119 890.616 140.007 800.541 140.007Z" fill="#818181" fill-opacity="0.1"/>
<path d="M800.541 122.273C710.466 122.273 639.232 97.3847 570.27 73.3071C501.966 49.4234 431.24 24.729 342.421 24.729C253.601 24.729 182.875 49.4058 114.482 73.3071C78.1329 86.0216 40.5477 99.1526 0.557467 108.516C-0.00808073 108.649 -0.596597 108.413 -0.914657 107.927V107.927C-1.44153 107.122 -1.0056 106.038 -0.0690197 105.817C39.2003 96.5727 76.3414 83.6236 112.209 71.0157C180.991 46.9558 252.345 22.0674 342.48 22.0674C432.615 22.0674 503.79 46.9558 572.752 71.0157C641.116 94.917 711.812 119.611 800.661 119.611C889.51 119.611 960.206 94.9346 1028.6 71.0157C1097.04 47.0741 1168.03 22.3123 1257.54 22.0692C1258.27 22.0672 1258.87 22.6593 1258.87 23.3894V23.3894C1258.87 24.1195 1258.27 24.7111 1257.54 24.7132C1169.32 24.9576 1098.98 49.5075 1030.93 73.2895C961.851 97.3847 890.616 122.273 800.541 122.273Z" fill="#818181" fill-opacity="0.1"/>
<path d="M800.541 104.543C710.466 104.543 639.232 79.6543 570.27 55.5767C501.966 31.6931 431.24 6.99859 342.421 6.99859C253.601 6.99859 182.875 31.6931 114.482 55.5767C78.13 68.2747 40.5417 81.4066 0.547975 90.7359C-0.0123149 90.8666 -0.595227 90.634 -0.911851 90.1536V90.1536C-1.43929 89.3534 -1.0066 88.2722 -0.0737008 88.0526C39.1974 78.8075 76.34 65.8411 112.209 53.2501C180.991 29.1901 252.345 4.30176 342.48 4.30176C432.615 4.30176 503.79 29.1901 572.752 53.2501C641.116 77.1337 711.812 101.846 800.661 101.846C889.51 101.846 960.206 77.169 1028.6 53.2501C1097.04 29.3085 1168.03 4.54666 1257.54 4.30356C1258.27 4.30158 1258.87 4.89363 1258.87 5.62373V5.62373C1258.87 6.35384 1258.27 6.94552 1257.54 6.94755C1169.32 7.19201 1098.98 31.7419 1030.93 55.5239C961.851 79.6543 890.616 104.543 800.541 104.543Z" fill="#818181" fill-opacity="0.1"/>
<path d="M800.539 86.8097C710.464 86.8097 639.229 61.9037 570.267 37.8437C534.19 25.2172 496.839 12.2152 457.274 2.91847C456.336 2.69824 455.9 1.61344 456.427 0.807796V0.807796C456.745 0.322425 457.332 0.0865118 457.897 0.217615C498.186 9.56543 536.011 22.7846 572.6 35.5699C640.994 59.3831 711.69 84.1657 800.539 84.1657C889.388 84.1657 960.084 59.4889 1028.48 35.5699C1065.07 22.7835 1102.9 9.56308 1143.34 0.215123C1143.9 0.0853051 1144.48 0.317207 1144.8 0.796835V0.796835C1145.34 1.60419 1144.9 2.70078 1143.96 2.92154C1104.17 12.218 1066.88 25.2186 1030.63 37.8437C961.849 61.9213 890.614 86.8097 800.539 86.8097Z" fill="#818181" fill-opacity="0.1"/>
<path d="M0.548024 73.0029C-0.0122669 73.1336 -0.595227 72.901 -0.911851 72.4206V72.4206C-1.43929 71.6204 -1.0066 70.5392 -0.073701 70.3196C39.1974 61.0745 76.34 48.1081 112.209 35.5171C148.383 22.8187 186.707 9.565 226.918 0.216602C227.48 0.0858817 228.065 0.317873 228.385 0.798216V0.798216C228.923 1.60532 228.487 2.70158 227.543 2.92333C187.957 12.2197 150.611 25.2194 114.482 37.8437C78.041 50.5767 40.5404 63.6742 0.548024 73.0029Z" fill="#818181" fill-opacity="0.1"/>
<path d="M800.538 69.0598C710.462 69.0598 639.228 44.1714 570.266 20.1114C554.002 14.4138 537.187 8.55408 520.35 3.16989C519.351 2.85015 519.02 1.59965 519.733 0.829204V0.829204C520.112 0.420116 520.693 0.267688 521.224 0.439066C538.547 6.03655 555.833 12.0835 572.569 17.9258C640.992 41.7566 711.689 66.4334 800.538 66.4334C889.386 66.4334 960.083 41.7566 1028.48 17.8376C1045.18 11.9957 1062.47 5.94915 1079.79 0.351942C1080.32 0.179949 1080.9 0.332923 1081.28 0.743476V0.743476C1082 1.5146 1081.67 2.76596 1080.67 3.09026C1063.83 8.55392 1047.04 14.4265 1030.75 20.0233C961.847 44.1714 890.613 69.0598 800.538 69.0598Z" fill="#818181" fill-opacity="0.1"/>
<path d="M0.556811 55.2688C-0.00842936 55.4006 -0.596358 55.1649 -0.914184 54.6792V54.6792C-1.44118 53.8739 -1.00489 52.7896 -0.0680027 52.5694C39.201 43.3412 76.3412 30.3751 112.179 17.7673C128.914 11.9254 146.199 5.87884 163.521 0.28163C164.053 0.109636 164.637 0.262611 165.017 0.673164V0.673164C165.73 1.44429 165.403 2.69564 164.403 3.0199C147.564 8.48358 130.748 14.3562 114.482 19.953C78.1327 32.8425 40.5473 45.9401 0.556811 55.2688Z" fill="#818181" fill-opacity="0.1"/>
<path d="M800.537 51.3276C711.419 51.3276 640.743 26.9652 572.464 3.14635C571.449 2.79228 571.159 1.49719 571.924 0.7419V0.7419C572.318 0.352378 572.899 0.221086 573.423 0.403925C641.521 24.1944 711.999 48.6836 800.477 48.6836C888.956 48.6836 959.433 24.212 1027.53 0.404307C1028.06 0.221244 1028.64 0.352551 1029.03 0.742303V0.742303C1029.8 1.49762 1029.51 2.79269 1028.49 3.1473C960.329 26.9659 889.654 51.3276 800.537 51.3276Z" fill="#818181" fill-opacity="0.1"/>
<path d="M0.556982 37.5383C-0.00835251 37.6703 -0.596417 37.4346 -0.914308 36.9488V36.9488C-1.44129 36.1435 -1.00515 35.0592 -0.0683289 34.8389C38.8639 25.6839 75.756 12.8657 111.303 0.3352C111.822 0.152387 112.399 0.27866 112.794 0.660964V0.660964C113.569 1.41089 113.285 2.71432 112.268 3.07224C76.5783 15.6254 39.7078 28.3986 0.556982 37.5383Z" fill="#818181" fill-opacity="0.1"/>
<path d="M800.539 33.5956C730.008 33.5956 672.103 18.2849 624.65 3.08401C623.649 2.76345 623.329 1.51452 624.043 0.743314V0.743314C624.422 0.332837 625.001 0.178546 625.534 0.349521C672.743 15.5073 730.393 30.9516 800.539 30.9516C870.686 30.9516 928.248 15.507 975.544 0.348956C976.077 0.178323 976.656 0.332684 977.035 0.743023V0.743023C977.749 1.51436 977.428 2.76351 976.428 3.08413C928.975 18.285 871.07 33.5956 800.539 33.5956Z" fill="#818181" fill-opacity="0.1"/>
</svg>
