<svg width="107" height="59" viewBox="0 0 107 59" fill="none" xmlns="http://www.w3.org/2000/svg">
<path d="M68.9297 3.33141C69.7262 3.21027 70.4477 3.12175 71.0941 3.06584C71.742 3.00527 72.3118 2.97266 72.8127 2.97266C73.3136 2.97266 73.9386 3.00527 74.6003 3.06584C75.262 3.12641 75.9789 3.21027 76.7417 3.33141V35.2845C75.4604 35.5256 74.1617 35.6596 72.8587 35.6852C71.5402 35.6643 70.2259 35.5302 68.9297 35.2845V3.33141ZM82.2561 3.40596C82.8948 3.28948 83.483 3.20096 84.0069 3.14039C84.5151 3.08383 85.0259 3.05428 85.5371 3.05186C86.0858 3.05353 86.6337 3.09088 87.1777 3.16368C87.7475 3.23823 88.2392 3.31744 88.6436 3.40596L98.7992 20.8036V3.33608C99.5436 3.2196 100.215 3.13107 100.812 3.07516C101.409 3.01925 101.952 2.98663 102.439 2.98663C102.953 2.98762 103.467 3.01717 103.978 3.07516C104.525 3.13107 105.095 3.2196 105.692 3.33608L105.651 35.21C105.232 35.3252 104.807 35.4139 104.378 35.4755C103.785 35.5664 103.186 35.61 102.586 35.606C101.925 35.6116 101.266 35.5602 100.614 35.4522C100.031 35.3497 99.608 35.2659 99.346 35.21L89.149 17.9009V35.2798C88.0237 35.5262 86.8768 35.6573 85.7255 35.6712C84.5592 35.6563 83.3971 35.5252 82.2561 35.2798V3.40596Z" fill="white"/>
<path d="M74.2416 53.8146C74.3013 53.9217 74.3473 54.0242 74.3932 54.1221C74.435 54.2224 74.4658 54.3271 74.4851 54.4342C74.2134 54.5656 73.9261 54.6612 73.6304 54.7184C73.2852 54.7866 72.9344 54.821 72.5827 54.821C72.1023 54.8253 71.6254 54.7384 71.1765 54.5647C70.7604 54.3997 70.3854 54.1436 70.0782 53.8146C69.7637 53.4601 69.523 53.0449 69.3706 52.5938C69.1955 52.0543 69.1101 51.4891 69.1178 50.9212C69.109 50.3383 69.1927 49.7578 69.366 49.2019C69.5135 48.7338 69.7509 48.3 70.0645 47.9253C70.3627 47.58 70.7354 47.309 71.1535 47.1332C71.6069 46.9452 72.0929 46.8518 72.5827 46.8583C72.9557 46.8515 73.3284 46.8843 73.6948 46.9561C73.9889 47.0214 74.2048 47.0773 74.3381 47.1192C74.3283 47.2281 74.3083 47.3357 74.2784 47.4407C74.248 47.5454 74.2111 47.6482 74.1681 47.7482L73.8878 47.6643C73.7824 47.632 73.6749 47.6071 73.5661 47.5898C73.4277 47.5639 73.2882 47.5452 73.1479 47.5339C72.9917 47.5339 72.8079 47.5339 72.5965 47.5339C72.2108 47.5265 71.8282 47.6045 71.4752 47.7622C71.1451 47.915 70.8553 48.1449 70.6297 48.4331C70.3823 48.7507 70.1995 49.115 70.092 49.5048C69.957 49.9706 69.8919 50.4543 69.899 50.9398C69.8909 51.4267 69.9623 51.9116 70.1104 52.3749C70.2337 52.7503 70.4342 53.0949 70.6986 53.3859C70.9415 53.6511 71.242 53.8553 71.5763 53.9823C71.9236 54.1113 72.2909 54.176 72.6608 54.1733C72.9696 54.1768 73.2779 54.1455 73.5799 54.0801C73.8158 54.0268 74.0443 53.9438 74.26 53.8332L74.2416 53.8146ZM79.8525 54.821C79.3768 54.8313 78.9052 54.7308 78.4739 54.5274C78.086 54.3378 77.7499 54.0546 77.4951 53.7027C77.225 53.3211 77.0286 52.8911 76.9161 52.4354C76.6527 51.3867 76.6527 50.2879 76.9161 49.2392C77.0297 48.7868 77.2261 48.3601 77.4951 47.9812C77.7499 47.6293 78.086 47.3461 78.4739 47.1565C78.908 46.9613 79.3776 46.8605 79.8525 46.8605C80.3273 46.8605 80.797 46.9613 81.2311 47.1565C81.6189 47.3461 81.955 47.6293 82.2099 47.9812C82.4785 48.3609 82.6763 48.7873 82.7935 49.2392C83.0507 50.2886 83.0507 51.386 82.7935 52.4354C82.6772 52.8906 82.4794 53.3201 82.2099 53.7027C81.955 54.0546 81.6189 54.3378 81.2311 54.5274C80.7999 54.7313 80.3281 54.8318 79.8525 54.821ZM79.8525 54.1454C80.2193 54.1562 80.5828 54.0728 80.9094 53.9031C81.2072 53.7412 81.4613 53.5076 81.6492 53.2228C81.859 52.9046 82.0071 52.5488 82.0858 52.1745C82.2818 51.2925 82.2818 50.3774 82.0858 49.4954C82.0071 49.1226 81.8589 48.7683 81.6492 48.4518C81.4585 48.1706 81.205 47.9392 80.9094 47.7762C80.5821 47.6085 80.2191 47.5253 79.8525 47.5339C79.4844 47.5258 79.1201 47.609 78.7909 47.7762C78.4935 47.9366 78.2395 48.1686 78.0511 48.4518C77.8466 48.7706 77.7003 49.1241 77.6192 49.4954C77.4293 50.3781 77.4293 51.2919 77.6192 52.1745C77.7003 52.5473 77.8466 52.9023 78.0511 53.2228C78.2367 53.5097 78.4913 53.7438 78.7909 53.9031C79.1193 54.0725 79.4842 54.1557 79.8525 54.1454ZM85.9321 46.9888H86.1756H86.3824H86.5708H86.8511V54.0475H89.9851C89.9882 54.0925 89.9882 54.1377 89.9851 54.1826C89.9851 54.2525 89.9851 54.3084 89.9851 54.3597C89.9851 54.4109 89.9851 54.4762 89.9851 54.5367C89.9851 54.5973 89.9851 54.6486 89.9851 54.5134H85.9321V46.9888ZM94.971 54.821C94.4954 54.8313 94.0238 54.7308 93.5925 54.5274C93.2046 54.3378 92.8685 54.0546 92.6137 53.7027C92.3436 53.3211 92.1472 52.8911 92.0346 52.4354C91.7713 51.3867 91.7713 50.2879 92.0346 49.2392C92.1482 48.7868 92.3447 48.3601 92.6137 47.9812C92.8685 47.6293 93.2046 47.3461 93.5925 47.1565C94.0266 46.9613 94.4962 46.8605 94.971 46.8605C95.4459 46.8605 95.9155 46.9613 96.3496 47.1565C96.7375 47.3461 97.0736 47.6293 97.3284 47.9812C97.5974 48.3601 97.7938 48.7868 97.9074 49.2392C98.1708 50.2879 98.1708 51.3867 97.9074 52.4354C97.7949 52.8911 97.5985 53.3211 97.3284 53.7027C97.0736 54.0546 96.7375 54.3378 96.3496 54.5274C95.9183 54.7308 95.4467 54.8313 94.971 54.821ZM94.971 54.1454C95.3378 54.1558 95.7013 54.0724 96.028 53.9031C96.3258 53.7412 96.5799 53.5076 96.7678 53.2228C96.9757 52.9036 97.1237 52.5482 97.2044 52.1745C97.3943 51.2919 97.3943 50.3781 97.2044 49.4954C97.1237 49.1232 96.9757 48.7693 96.7678 48.4518C96.5771 48.1706 96.3236 47.9392 96.028 47.7762C95.697 47.6167 95.3352 47.534 94.9687 47.534C94.6023 47.534 94.2405 47.6167 93.9095 47.7762C93.6121 47.9366 93.3581 48.1686 93.1697 48.4518C92.9636 48.7703 92.8158 49.1238 92.7331 49.4954C92.5494 50.3787 92.5494 51.2912 92.7331 52.1745C92.8158 52.5476 92.9637 52.9026 93.1697 53.2228C93.3552 53.5097 93.6099 53.7438 93.9095 53.9031C94.2379 54.0725 94.6028 54.1557 94.971 54.1454ZM101.097 46.9561L101.556 46.9189L101.892 46.8863C102.002 46.8863 102.117 46.8863 102.236 46.8863H102.659C102.994 46.8868 103.328 46.9227 103.656 46.9934C103.97 47.0613 104.27 47.1877 104.538 47.3662C104.803 47.546 105.019 47.7893 105.168 48.0744C105.338 48.4212 105.42 48.8055 105.407 49.1926C105.41 49.4533 105.36 49.7117 105.26 49.952C105.162 50.1753 105.032 50.3825 104.874 50.5671C104.713 50.748 104.527 50.9048 104.322 51.033C104.12 51.1634 103.906 51.2741 103.684 51.3638L103.601 51.3917L106.018 54.7138C105.949 54.7138 105.807 54.5367 105.807 54.5367H105.389C105.389 54.5367 105.255 54.7278 105.182 54.7138L102.475 51.1262V51.0796L102.737 51.019C102.975 50.954 103.207 50.8699 103.431 50.7674C103.645 50.668 103.846 50.5412 104.028 50.39C104.198 50.2456 104.34 50.0702 104.447 49.8728C104.557 49.6539 104.612 49.4105 104.607 49.1646C104.625 48.9299 104.588 48.6942 104.499 48.4766C104.41 48.259 104.273 48.0654 104.097 47.9113C103.701 47.6116 103.213 47.4631 102.719 47.492C102.572 47.492 102.434 47.492 102.305 47.492C102.206 47.4988 102.108 47.5128 102.011 47.5339V54.6765H101.676H101.294H101.092L101.097 46.9561Z" fill="white"/>
<path d="M24.4287 0L48.8527 14.4017L24.4287 28.7988L0 14.4017L24.4287 0Z" fill="#FA4616"/>
<path d="M0.0966797 16.4707L23.4363 30.481V59.0003L0.0966797 44.9014" fill="#FFB5A6"/>
<path d="M25.5459 30.5604L48.7109 16.5547V45.1392L25.5459 59.0004" fill="#FF6648"/>
</svg>
