<svg width="413" height="188" viewBox="0 0 413 188" fill="none" xmlns="http://www.w3.org/2000/svg">
<g opacity="0.1">
<path d="M59.6343 187.999C78.1846 182.185 99.0209 182.185 117.571 187.999L117.993 187.185C99.1733 181.294 78.0398 181.294 59.22 187.185L59.6343 187.999Z" fill="#121212"/>
<path d="M294.674 187.999C303.879 185.169 313.709 183.689 323.643 183.639C333.576 183.688 343.407 185.168 352.611 187.999L353.033 187.185C343.693 184.317 333.72 182.818 323.643 182.767C313.568 182.819 303.598 184.318 294.26 187.185L294.674 187.999Z" fill="#121212"/>
<path d="M43.4801 187.973C55.6244 182.939 70.4846 177.788 88.5899 177.788C106.695 177.788 121.578 182.939 133.707 187.973L134.26 187.206C121.985 182.119 106.956 176.916 88.5899 176.916C70.2237 176.916 55.2025 182.119 42.9277 187.206L43.4801 187.973Z" fill="#121212"/>
<path d="M278.536 187.974C290.68 182.94 305.54 177.789 323.646 177.789C341.751 177.789 356.634 182.94 368.763 187.974L369.315 187.207C357.041 182.12 342.012 176.917 323.646 176.917C305.279 176.917 290.258 182.12 277.983 187.207L278.536 187.974Z" fill="#121212"/>
<path d="M30.1212 187.963C47.6588 180.085 65.8024 171.94 88.5875 171.94C111.373 171.94 129.516 180.079 147.061 187.963L147.645 187.213C130 179.277 111.695 171.068 88.5721 171.068C65.4495 171.068 47.1908 179.277 29.4998 187.213L30.1212 187.963Z" fill="#121212"/>
<path d="M265.175 187.964C282.72 180.086 300.856 171.941 323.641 171.941C346.426 171.941 364.57 180.08 382.115 187.964L382.698 187.214C365.053 179.278 346.748 171.069 323.626 171.069C300.503 171.069 282.252 179.278 264.553 187.214L265.175 187.964Z" fill="#121212"/>
<path d="M16.7344 187.977C21.2454 186.105 25.7564 184.076 30.1216 182.117C47.6592 174.228 65.7722 166.089 88.588 166.089C111.404 166.089 129.517 174.228 147.093 182.117C151.45 184.076 155.961 186.105 160.48 187.977L161.032 187.209C156.537 185.343 152.033 183.32 147.676 181.367C130.031 173.431 111.726 165.223 88.6033 165.223C65.4807 165.223 47.222 173.431 29.5309 181.367C25.181 183.326 20.6777 185.343 16.1821 187.209L16.7344 187.977Z" fill="#121212"/>
<path d="M251.785 187.975C256.296 186.103 260.807 184.074 265.172 182.115C282.709 174.226 300.853 166.087 323.638 166.087C346.423 166.087 364.567 174.226 382.112 182.109C386.47 184.068 390.981 186.097 395.499 187.969L396.052 187.202C391.556 185.336 387.053 183.312 382.695 181.359C365.05 173.424 346.745 165.215 323.623 165.215C300.5 165.215 282.242 173.424 264.55 181.359C260.201 183.312 255.697 185.336 251.202 187.202L251.785 187.975Z" fill="#121212"/>
<path d="M0.452487 188C10.8707 184.913 20.6522 180.518 30.1114 176.268C47.6567 168.414 65.7697 160.275 88.5854 160.275C111.401 160.275 129.514 168.414 147.09 176.268C156.549 180.518 166.339 184.913 176.757 188L177.179 187.186C166.814 184.111 157.063 179.751 147.643 175.518C129.998 167.577 111.693 159.374 88.5701 159.374C65.4475 159.374 47.1887 167.583 29.4977 175.518C20.0768 179.751 10.3184 184.128 -0.000119337 187.186L0.452487 188Z" fill="#121212"/>
<path d="M235.505 187.999C245.931 184.912 255.712 180.517 265.179 176.267C282.717 168.413 300.86 160.274 323.646 160.274C346.431 160.274 364.574 168.413 382.12 176.296C391.517 180.488 401.238 184.854 411.587 187.935L412.001 187.127C401.744 184.069 392.054 179.72 382.703 175.5C365.058 167.558 346.753 159.355 323.63 159.355C300.508 159.355 282.249 167.564 264.558 175.5C255.137 179.732 245.378 184.11 235.06 187.167L235.505 187.999Z" fill="#121212"/>
<path d="M206.122 186.562C229.229 186.562 247.504 178.353 265.195 170.417C282.732 162.54 300.876 154.389 323.661 154.389C346.446 154.389 364.59 162.528 382.135 170.417C391.517 174.638 401.238 179.004 411.587 182.085L412.001 181.271C401.744 178.219 392.054 173.871 382.703 169.644C365.058 161.703 346.753 153.494 323.63 153.494C300.508 153.494 282.249 161.703 264.558 169.644C247.02 177.522 228.884 185.666 206.091 185.666C183.299 185.666 165.163 177.527 147.617 169.644C129.973 161.703 111.668 153.494 88.5451 153.494L88.5451 154.366C111.338 154.366 129.474 162.505 147.019 170.394C164.741 178.353 183.015 186.562 206.122 186.562Z" fill="#121212"/>
<path d="M206.122 180.715C229.229 180.715 247.504 172.506 265.195 164.571C282.732 156.688 300.876 148.543 323.661 148.543C346.446 148.543 364.59 156.682 382.135 164.571C391.517 168.791 401.238 173.157 411.587 176.238L412.001 175.425C401.744 172.372 392.054 168.024 382.703 163.797C365.058 155.856 346.753 147.647 323.63 147.647C300.508 147.647 282.249 155.856 264.558 163.798C247.02 171.675 228.884 179.82 206.091 179.82C183.299 179.82 165.163 171.681 147.617 163.798C129.973 155.856 111.668 147.647 88.5451 147.647L88.5451 148.52C111.338 148.52 129.474 156.658 147.019 164.547C164.741 172.483 183.015 180.715 206.122 180.715Z" fill="#121212"/>
<path d="M206.122 174.866C229.229 174.866 247.504 166.658 265.195 158.722C282.732 150.839 300.876 142.694 323.661 142.694C346.446 142.694 364.59 150.833 382.135 158.716C391.517 162.943 401.238 167.309 411.587 170.39L412.001 169.576C401.744 166.518 392.054 162.175 382.703 157.949C365.058 150.013 346.753 141.805 323.63 141.805C300.508 141.805 282.249 150.013 264.558 157.949C247.02 165.832 228.884 173.977 206.091 173.977C183.299 173.977 165.163 165.838 147.617 157.949C129.973 150.013 111.668 141.805 88.5451 141.805L88.5451 142.677C111.338 142.677 129.474 150.816 147.019 158.705C164.741 166.669 183.015 174.866 206.122 174.866Z" fill="#121212"/>
<path d="M206.122 168.993C229.229 168.993 247.504 160.785 265.195 152.843C282.732 144.966 300.876 136.821 323.661 136.821C346.446 136.821 364.59 144.96 382.135 152.843C391.517 157.087 401.238 161.436 411.587 164.534L412.001 163.726C401.744 160.668 392.054 156.32 382.703 152.099C365.058 144.164 346.753 135.955 323.63 135.955C300.508 135.955 282.249 144.164 264.558 152.099C247.02 159.977 228.884 168.127 206.091 168.127C183.299 168.127 165.163 159.988 147.617 152.099C129.973 144.164 111.668 135.955 88.5451 135.955L88.5451 136.827C111.338 136.827 129.474 144.966 147.019 152.849C164.741 160.808 183.015 168.993 206.122 168.993Z" fill="#121212"/>
<path d="M206.122 163.18C229.229 163.18 247.504 154.971 265.195 147.03C282.732 139.152 300.876 131.008 323.661 131.008C346.446 131.008 364.59 139.147 382.135 147.03C391.517 151.239 401.238 155.622 411.587 158.686L412.001 157.878C401.744 154.82 392.054 150.471 382.703 146.251C365.058 138.315 346.753 130.106 323.63 130.106C300.508 130.106 282.249 138.315 264.558 146.251C247.02 154.128 228.884 162.279 206.091 162.279C183.299 162.279 165.163 154.14 147.617 146.251C129.973 138.315 111.668 130.106 88.5451 130.106L88.5451 130.979C111.338 130.979 129.474 139.117 147.019 147.001C164.741 154.959 183.015 163.18 206.122 163.18Z" fill="#121212"/>
<path d="M206.122 157.317C229.229 157.317 247.504 149.108 265.195 141.172C282.732 133.295 300.876 125.144 323.661 125.144C346.446 125.144 364.59 133.283 382.135 141.172C391.517 145.393 401.238 149.759 411.587 152.84L412.001 152.032C401.744 148.974 392.054 144.626 382.703 140.405C365.058 132.464 346.753 124.255 323.63 124.255C300.508 124.255 282.249 132.464 264.558 140.405C247.02 148.282 228.884 156.427 206.091 156.427C183.299 156.427 165.163 148.288 147.617 140.405C129.973 132.464 111.668 124.255 88.5451 124.255L88.5451 125.127C111.338 125.127 129.474 133.266 147.019 141.155C164.741 149.108 183.015 157.317 206.122 157.317Z" fill="#121212"/>
<path d="M206.122 151.467C229.229 151.467 247.504 143.258 265.195 135.323C282.732 127.445 300.876 119.295 323.661 119.295C346.446 119.295 364.59 127.434 382.135 135.323C391.517 139.543 401.238 143.909 411.587 146.99L412.001 146.177C401.744 143.124 392.054 138.776 382.703 134.549C365.058 126.608 346.753 118.399 323.63 118.399C300.508 118.399 282.249 126.608 264.558 134.549C247.02 142.427 228.884 150.572 206.091 150.572C183.299 150.572 165.163 142.433 147.617 134.549C129.973 126.608 111.668 118.399 88.5451 118.399L88.5451 119.271C111.338 119.271 129.474 127.41 147.019 135.299C164.741 143.258 183.015 151.467 206.122 151.467Z" fill="#121212"/>
<path d="M206.122 145.618C229.229 145.618 247.504 137.41 265.195 129.474C282.732 121.591 300.876 113.446 323.661 113.446C346.446 113.446 364.59 121.585 382.135 129.474C391.517 133.695 401.238 138.061 411.587 141.142L412.001 140.328C401.744 137.27 392.054 132.927 382.703 128.701C365.058 120.765 346.753 112.557 323.63 112.557C300.508 112.557 282.249 120.765 264.558 128.701C247.02 136.584 228.884 144.729 206.091 144.729C183.299 144.729 165.163 136.59 147.617 128.701C129.973 120.765 111.668 112.557 88.5451 112.557L88.5451 113.429C111.338 113.429 129.474 121.568 147.019 129.457C164.741 137.41 183.015 145.618 206.122 145.618Z" fill="#121212"/>
<path d="M206.122 139.77C229.229 139.77 247.504 131.561 265.195 123.619C282.732 115.742 300.876 107.597 323.661 107.597C346.446 107.597 364.574 115.742 382.12 123.649C391.517 127.846 401.238 132.212 411.587 135.276L412.001 134.462C401.744 131.404 392.054 127.055 382.703 122.835C365.058 114.899 346.753 106.69 323.63 106.69C300.508 106.69 282.249 114.899 264.558 122.835C247.02 130.718 228.884 138.863 206.091 138.863C183.299 138.863 165.163 130.724 147.617 122.835C129.973 114.899 111.668 106.69 88.5451 106.69L88.5451 107.562C111.338 107.562 129.474 115.701 147.019 123.585C164.741 131.561 183.015 139.77 206.122 139.77Z" fill="#121212"/>
<path d="M206.119 133.92C229.227 133.92 247.501 125.712 265.192 117.77C282.729 109.893 300.873 101.748 323.658 101.748C346.443 101.748 364.587 109.887 382.132 117.77C391.515 121.991 401.235 126.357 411.584 129.461L411.998 128.653C401.741 125.595 392.052 121.247 382.7 117.026C365.055 109.091 346.75 100.882 323.627 100.882C300.505 100.882 282.246 109.091 264.555 117.026C247.017 124.903 228.881 133.054 206.089 133.054C183.296 133.054 165.16 124.915 147.615 117.026C129.97 109.091 111.665 100.882 88.5422 100.882L88.5422 101.754C111.335 101.754 129.471 109.893 147.016 117.776C164.738 125.712 183.012 133.92 206.119 133.92Z" fill="#121212"/>
<path d="M206.122 128.074C229.229 128.074 247.504 119.866 265.195 111.924C282.732 104.047 300.876 95.9022 323.661 95.9022C346.446 95.9022 364.59 104.041 382.135 111.924C391.517 116.145 401.238 120.511 411.587 123.592L412.001 122.784C401.744 119.726 392.054 115.378 382.703 111.157C365.058 103.216 346.753 95.0127 323.63 95.0127C300.508 95.0127 282.249 103.221 264.558 111.157C247.02 119.034 228.884 127.185 206.091 127.185C183.299 127.185 165.163 119.046 147.617 111.157C129.973 103.221 111.668 95.0127 88.5451 95.0127L88.5451 95.8848C111.338 95.8848 129.474 104.024 147.019 111.907C164.741 119.866 183.015 128.074 206.122 128.074Z" fill="#121212"/>
<path d="M206.122 122.219C229.229 122.219 247.504 114.01 265.195 106.075C282.732 98.1973 300.876 90.0467 323.661 90.0467C346.446 90.0467 364.59 98.1856 382.135 106.075C391.517 110.278 401.238 114.661 411.587 117.742L412.001 116.928C401.744 113.876 392.054 109.528 382.703 105.301C365.058 97.3601 346.753 89.1514 323.63 89.1514C300.508 89.1514 282.249 97.3601 264.558 105.301C247.051 113.185 228.915 121.324 206.122 121.324C183.329 121.324 165.193 113.185 147.648 105.301C130.003 97.3601 111.698 89.1514 88.5758 89.1514L88.5758 90.0234C111.368 90.0234 129.505 98.1624 147.05 106.051C164.741 114.01 183.015 122.219 206.122 122.219Z" fill="#121212"/>
<path d="M206.122 116.369C229.229 116.369 247.504 108.161 265.195 100.225C282.732 92.3477 300.876 84.1971 323.661 84.1971C346.446 84.1971 364.59 92.336 382.135 100.225C391.517 104.463 401.238 108.812 411.587 111.893L412.001 111.079C401.744 108.027 392.054 103.678 382.703 99.4518C365.058 91.5105 346.753 83.3018 323.63 83.3018C300.508 83.3018 282.249 91.5105 264.558 99.4518C247.051 107.37 228.915 115.509 206.122 115.509C183.329 115.509 165.193 107.37 147.648 99.4867C130.003 91.5454 111.698 83.3367 88.5758 83.3367L88.5758 84.2087C111.368 84.2087 129.505 92.3477 147.05 100.237C164.741 108.161 183.015 116.369 206.122 116.369Z" fill="#121212"/>
<path d="M206.119 110.524C229.227 110.524 247.501 102.315 265.192 94.3735C282.729 86.4962 300.873 78.3514 323.658 78.3514C346.443 78.3514 364.587 86.4904 382.132 94.3735C391.515 98.6 401.235 102.966 411.584 106.047L411.998 105.233C401.741 102.175 392.052 97.8326 382.7 93.6061C365.055 85.6707 346.75 77.4619 323.627 77.4619C300.505 77.4619 282.246 85.6707 264.555 93.6062C247.017 101.489 228.881 109.634 206.089 109.634C183.296 109.634 165.16 101.495 147.615 93.6062C129.97 85.6707 111.665 77.4619 88.5422 77.4619L88.5422 78.334C111.335 78.334 129.471 86.4729 147.016 94.3561C164.738 102.315 183.012 110.524 206.119 110.524Z" fill="#121212"/>
<path d="M206.119 104.672C229.227 104.672 247.501 96.4633 265.192 88.522C282.714 80.6272 300.858 72.4882 323.643 72.4882C346.428 72.4882 364.571 80.6272 382.117 88.5103C391.515 92.7484 401.235 97.1086 411.584 100.196L411.998 99.3817C401.741 96.3237 392.052 91.9752 382.7 87.7546C365.055 79.8191 346.75 71.6104 323.627 71.6104C300.505 71.6104 282.246 79.8191 264.555 87.7546C247.017 95.6319 228.881 103.783 206.089 103.783C183.296 103.783 165.16 95.6436 147.615 87.7546C129.97 79.8191 111.665 71.6104 88.5422 71.6104L88.5422 72.4882C111.335 72.4882 129.471 80.6272 147.016 88.5104C164.738 96.4633 183.012 104.672 206.119 104.672Z" fill="#121212"/>
<path d="M206.119 98.8224C229.227 98.8224 247.501 90.6137 265.192 82.6724C282.714 74.8124 300.858 66.6735 323.643 66.6735C346.428 66.6735 364.571 74.8124 382.117 82.6956C391.515 86.893 401.235 91.259 411.584 94.3401L411.998 93.5321C401.741 90.4741 392.052 86.1256 382.7 81.905C365.055 73.9695 346.75 65.7607 323.627 65.7607C300.505 65.7608 282.246 73.9695 264.555 81.905C247.017 89.7823 228.881 97.9329 206.089 97.9329C183.296 97.9329 165.16 89.794 147.615 81.905C129.97 73.9695 111.665 65.7608 88.5422 65.7608L88.5422 66.6735C111.335 66.6735 129.471 74.8125 147.016 82.6956C164.738 90.6137 183.012 98.8224 206.119 98.8224Z" fill="#121212"/>
<path d="M206.119 92.9728C229.227 92.9728 247.501 84.7699 265.192 76.8286C282.729 68.9512 300.873 60.8006 323.658 60.8006C346.443 60.8006 364.587 68.9396 382.132 76.8286C391.515 81.0492 401.235 85.4152 411.584 88.4964L411.998 87.6883C401.741 84.6303 392.052 80.2818 382.7 76.0612C365.055 68.1199 346.75 59.9111 323.627 59.9111C300.505 59.9111 282.246 68.1199 264.555 76.0612C247.017 83.9385 228.881 92.0833 206.089 92.0833C183.296 92.0833 165.16 83.9444 147.615 76.0612C129.97 68.1199 111.665 59.9112 88.5422 59.9112L88.5422 60.7832C111.335 60.7832 129.471 68.9222 147.016 76.8111C164.738 84.7699 183.012 92.9728 206.119 92.9728Z" fill="#121212"/>
<path d="M206.119 87.1192C229.227 87.1192 247.501 78.9105 265.192 70.975C282.729 63.0976 300.873 54.9471 323.658 54.9471C346.443 54.9471 364.587 63.086 382.132 70.975C391.515 75.1956 401.235 79.5616 411.584 82.6428L411.998 81.8289C401.741 78.7768 392.052 74.4282 382.7 70.2018C365.055 62.2605 346.75 54.0518 323.627 54.0518C300.505 54.0518 282.246 62.2605 264.555 70.2018C247.017 78.0792 228.881 86.2239 206.089 86.2239C183.296 86.2239 165.16 78.085 147.615 70.2018C129.97 62.2605 111.665 54.0518 88.5422 54.0518L88.5422 54.9238C111.335 54.9238 129.471 63.0628 147.016 70.9518C164.738 78.9105 183.012 87.1192 206.119 87.1192Z" fill="#121212"/>
<path d="M206.119 81.2735C229.227 81.2735 247.501 73.0648 265.192 65.1293C282.729 57.2461 300.873 49.1013 323.658 49.1013C346.443 49.1013 364.587 57.2403 382.132 65.1293C391.515 69.3499 401.235 73.7159 411.584 76.7971L411.998 75.9774C401.741 72.9253 392.052 68.5767 382.7 64.3503C365.055 56.4148 346.75 48.2061 323.627 48.2061C300.505 48.2061 282.246 56.4148 264.555 64.3561C247.017 72.2335 228.881 80.3782 206.089 80.3782C183.296 80.3782 165.16 72.2393 147.615 64.3561C129.97 56.4148 111.665 48.2061 88.5422 48.2061L88.5422 49.0781C111.335 49.0781 129.471 57.2171 147.016 65.1061C164.738 73.0706 183.012 81.2735 206.119 81.2735Z" fill="#121212"/>
<path d="M206.119 75.4242C229.227 75.4242 247.501 67.2155 265.192 59.2742C282.729 51.3968 300.873 43.252 323.658 43.252C346.443 43.252 364.587 51.391 382.132 59.2741C391.515 63.5006 401.235 67.8666 411.584 70.9477L411.998 70.1629C401.741 67.105 392.052 62.7623 382.7 58.5358C365.055 50.6003 346.75 42.3916 323.627 42.3916C300.505 42.3916 282.246 50.6003 264.555 58.5358C247.017 66.419 228.881 74.5638 206.089 74.5638C183.296 74.5638 165.16 66.4248 147.615 58.5358C129.97 50.6004 111.665 42.3916 88.5422 42.3916L88.5422 43.2637C111.335 43.2637 129.471 51.4026 147.016 59.2858C164.738 67.2155 183.012 75.4242 206.119 75.4242Z" fill="#121212"/>
<path d="M206.119 69.5831C229.227 69.5831 247.501 61.3744 265.192 53.4331C282.729 45.5557 300.873 37.4109 323.658 37.4109C346.443 37.4109 364.587 45.5499 382.132 53.4331C391.515 57.6479 401.235 62.0255 411.584 65.095L411.998 64.2869C401.741 61.229 392.052 56.8805 382.7 52.6598C365.055 44.7244 346.75 36.5156 323.627 36.5156C300.505 36.5156 282.246 44.7244 264.555 52.6599C247.017 60.5372 228.881 68.6878 206.089 68.6878C183.296 68.6878 165.16 60.5488 147.615 52.6599C129.97 44.7244 111.665 36.5156 88.5422 36.5157L88.5422 37.3877C111.335 37.3877 129.471 45.5266 147.016 53.4098C164.738 61.3686 183.012 69.5831 206.119 69.5831Z" fill="#121212"/>
<path d="M206.119 63.7287C229.227 63.7287 247.501 55.5199 265.192 47.5786C282.729 39.7013 300.873 31.5565 323.658 31.5565C346.443 31.5565 364.587 39.6954 382.132 47.5786C391.515 51.7992 401.235 56.1652 411.584 59.2464L411.998 58.4383C401.741 55.3804 392.052 51.0319 382.7 46.8112C365.055 38.8757 346.75 30.667 323.627 30.667C300.505 30.667 282.246 38.8757 264.555 46.8112C247.017 54.6886 228.881 62.8392 206.089 62.8392C183.296 62.8392 165.16 54.7002 147.615 46.8112C129.97 38.8757 111.665 30.667 88.5422 30.667L88.5422 31.5391C111.335 31.539 129.471 39.678 147.016 47.5612C164.738 55.5199 183.012 63.7287 206.119 63.7287Z" fill="#121212"/>
<path d="M206.119 57.8752C229.227 57.8751 247.501 49.6664 265.192 41.7309C282.729 33.8536 300.873 25.703 323.658 25.703C346.443 25.703 364.587 33.8419 382.132 41.7309C391.515 45.9515 401.235 50.3175 411.584 53.3987L411.998 52.5906C401.741 49.5327 392.052 45.1842 382.7 40.9635C365.055 33.0222 346.75 24.8135 323.627 24.8135C300.505 24.8135 282.246 33.0222 264.555 40.9635C247.017 48.8409 228.881 56.9857 206.089 56.9857C183.296 56.9857 165.16 48.8467 147.615 40.9635C129.97 33.0222 111.665 24.8135 88.5422 24.8135L88.5422 25.6855C111.335 25.6855 129.471 33.8245 147.016 41.7135C164.738 49.6664 183.012 57.8752 206.119 57.8752Z" fill="#121212"/>
<path d="M206.119 52.0255C229.227 52.0255 247.501 43.8167 265.192 35.8813C282.729 28.0039 300.873 19.8533 323.658 19.8533C346.443 19.8533 364.571 28.0039 382.117 35.8638C391.515 40.1019 401.235 44.4679 411.584 47.549L411.998 46.7351C401.741 43.683 392.052 39.3345 382.7 35.108C365.055 27.1667 346.75 18.958 323.627 18.958C300.505 18.958 282.246 27.1667 264.555 35.1081C247.017 42.9854 228.881 51.1302 206.089 51.1302C183.296 51.1302 165.16 42.9912 147.615 35.1081C129.97 27.1668 111.665 18.958 88.5422 18.958L88.5422 19.8301C111.335 19.8301 129.471 27.969 147.016 35.858C164.738 43.8168 183.012 52.0255 206.119 52.0255Z" fill="#121212"/>
<path d="M206.119 46.1771C229.227 46.1771 247.501 37.9683 265.192 30.0328C282.714 22.1496 300.858 14.0049 323.643 14.0049C346.428 14.0049 364.571 22.1496 382.117 30.0502C391.514 34.2534 401.235 38.6194 411.584 41.6773L411.998 40.8634C401.741 37.8113 392.052 33.4628 382.7 29.2363C365.024 21.3299 346.75 13.1328 323.643 13.1328C300.535 13.1328 282.261 21.3416 264.57 29.2829C247.033 37.1602 228.897 45.305 206.104 45.305C183.311 45.305 165.175 37.1661 147.63 29.2829C129.985 21.3416 111.68 13.1328 88.5575 13.1328L88.5575 14.0049C111.35 14.0049 129.486 22.1438 147.031 30.0328C164.738 37.9683 183.012 46.1771 206.119 46.1771Z" fill="#121212"/>
<path d="M206.119 40.3264C229.227 40.3264 247.501 32.1177 265.192 24.1764C282.714 16.299 300.858 8.15422 323.643 8.15422C346.428 8.15422 364.571 16.2932 382.117 24.1764C391.515 28.4028 401.235 32.7688 411.584 35.8616L411.998 35.0477C401.741 31.9898 392.052 27.647 382.7 23.4206C365.055 15.4851 346.75 7.27637 323.627 7.27637C300.505 7.27638 282.246 15.4851 264.555 23.4206C247.017 31.3038 228.881 39.4486 206.089 39.4486C183.296 39.4486 165.16 31.3096 147.615 23.4206C129.97 15.4851 111.665 7.27639 88.5422 7.27639L88.5422 8.14843C111.335 8.14842 129.471 16.2874 147.016 24.1706C164.738 32.1177 183.012 40.3264 206.119 40.3264Z" fill="#121212"/>
<path d="M206.119 34.4816C229.227 34.4816 247.501 26.2729 265.192 18.3316C282.714 10.4542 300.858 2.3094 323.643 2.3094C346.428 2.3094 364.571 10.4542 382.117 18.3315C391.515 22.5522 401.235 26.9182 411.584 29.9993L411.998 29.1912C401.741 26.1333 392.052 21.7848 382.7 17.5642C365.055 9.62866 346.75 1.41993 323.627 1.41993C300.505 1.41993 282.246 9.62867 264.555 17.5642C247.017 25.4415 228.881 33.5921 206.089 33.5921C183.296 33.5921 165.16 25.4532 147.615 17.5642C129.97 9.62868 111.665 1.41995 88.5422 1.41995L88.5422 2.29198C111.335 2.29198 129.471 10.4309 147.016 18.3141C164.738 26.2729 183.012 34.4816 206.119 34.4816Z" fill="#121212"/>
<path d="M206.114 28.6317C229.221 28.6317 247.495 20.4172 265.186 12.4817C274.592 8.24943 284.335 3.88927 294.669 0.813897L294.255 3.42741e-08C283.829 3.087 274.047 7.48204 264.588 11.7317C247.043 19.5859 228.907 27.7597 206.114 27.7597C183.321 27.7597 165.185 19.6207 147.64 11.7318C138.181 7.48205 128.399 3.08701 117.935 1.46219e-05L117.513 0.813911C127.908 3.88928 137.636 8.24944 147.088 12.4817C164.733 20.423 183.007 28.6317 206.114 28.6317Z" fill="#121212"/>
<path d="M411.586 24.1495L412 23.3414C401.743 20.2835 392.053 15.9349 382.702 11.7143C373.35 7.49367 363.438 3.087 353.035 4.87845e-06L352.613 0.813902C362.955 3.88927 372.698 8.24943 382.119 12.4817C391.539 16.714 401.237 21.0683 411.586 24.1495Z" fill="#121212"/>
<path d="M206.117 22.7806C229.224 22.7806 247.498 14.5719 265.189 6.63637C269.539 4.67721 274.043 2.65991 278.546 0.822823L277.994 0.0554345C273.475 1.9274 268.964 3.95633 264.599 5.91549C247.046 13.7754 228.91 21.9144 206.117 21.9144C183.324 21.9144 165.188 13.7754 147.643 5.88644C143.285 3.92727 138.774 1.89834 134.256 0.0263791L133.703 0.793768C138.207 2.65992 142.702 4.68303 147.06 6.60732C164.736 14.5719 183.01 22.7806 206.117 22.7806Z" fill="#121212"/>
<path d="M411.586 18.3011L412 17.4872C401.743 14.435 392.053 10.0865 382.709 5.86006C378.344 3.90089 373.833 1.87197 369.314 3.53151e-06L368.762 0.767392C373.265 2.63354 377.769 4.65666 382.119 6.58094C391.516 10.8655 401.237 15.2199 411.586 18.3011Z" fill="#121212"/>
<path d="M206.118 16.9303C229.225 16.9303 247.499 8.72158 265.19 0.78608L264.6 0.0361329C247.062 7.91349 228.926 16.0583 206.133 16.0583C183.341 16.0583 165.205 7.91932 147.667 0.0361425L147.076 0.78609C164.737 8.72158 183.011 16.9303 206.118 16.9303Z" fill="#121212"/>
<path d="M411.587 12.4537L412.001 11.6398C401.752 8.58768 392.054 4.24496 382.718 0.0126977L382.12 0.756832C391.525 5.01235 401.245 9.37251 411.587 12.4537Z" fill="#121212"/>
<path d="M206.124 11.0837C224.49 11.0837 239.519 5.88061 251.794 0.793755L251.242 0.0263672C239.09 5.05509 224.229 10.2117 206.124 10.2117C188.019 10.2117 173.182 5.05509 161.007 0.0263747L160.454 0.793763C172.729 5.88061 187.758 11.0837 206.124 11.0837Z" fill="#121212"/>
<path d="M411.587 6.60731L412.001 5.79341C406.531 4.12966 401.206 2.20341 396.059 0.0263685L395.507 0.793757C400.698 2.98866 406.069 4.93044 411.587 6.60731Z" fill="#121212"/>
<path d="M206.123 5.2322C216.197 5.18109 226.168 3.68181 235.505 0.813897L235.091 3.42865e-08C225.887 2.83075 216.056 4.31038 206.123 4.36016C196.189 4.31038 186.359 2.83075 177.154 4.82924e-06L176.732 0.813901C186.072 3.68131 196.045 5.18056 206.123 5.2322Z" fill="#121212"/>
</g>
</svg>
