<svg width="48" height="49" viewBox="0 0 48 49" fill="none" xmlns="http://www.w3.org/2000/svg">
<g clip-path="url(#clip0)">
<path d="M46.914 41.8217H6.29962V1.76753C6.29962 1.17602 5.81332 0.696533 5.21365 0.696533C4.61397 0.696533 4.12767 1.17602 4.12767 1.76753V41.8217H1.08597C0.486299 41.8217 0 42.3012 0 42.8927C0 43.4842 0.486299 43.9637 1.08597 43.9637H4.12767V46.9635C4.12767 47.555 4.61397 48.0345 5.21365 48.0345C5.81332 48.0345 6.29962 47.555 6.29962 46.9635V43.9637H46.914C47.5137 43.9637 48 43.4842 48 42.8927C48 42.3012 47.5137 41.8217 46.914 41.8217Z" fill="#D36635"/>
<path d="M12.1662 39.6797C14.2037 39.6797 15.8612 38.045 15.8612 36.0357C15.8612 35.2416 15.6016 34.5067 15.1627 33.9074L21.458 26.3752C21.8923 26.5524 22.3676 26.6508 22.8661 26.6508C23.8046 26.6508 24.6619 26.3033 25.3143 25.7328L29.9847 28.5407C29.9105 28.8283 29.8708 29.1294 29.8708 29.4394C29.8708 31.4488 31.5285 33.0835 33.5659 33.0835C35.6032 33.0835 37.2609 31.4487 37.2609 29.4394C37.2609 28.383 36.8023 27.4306 36.0716 26.7644L43.6608 11.1624C43.8578 11.1945 44.0597 11.2121 44.2657 11.2121C46.3032 11.2121 47.9607 9.5773 47.9607 7.56801C47.9607 5.55872 46.3031 3.92395 44.2657 3.92395C42.2283 3.92395 40.5707 5.55872 40.5707 7.56801C40.5707 8.60398 41.012 9.53971 41.7183 10.2038L34.1144 25.8358C33.9353 25.8095 33.7522 25.7955 33.5659 25.7955C32.6274 25.7955 31.7701 26.1429 31.1176 26.7134L26.4472 23.9055C26.5215 23.6179 26.5611 23.3169 26.5611 23.0068C26.5611 20.9974 24.9035 19.3626 22.8661 19.3626C20.8287 19.3626 19.1711 20.9974 19.1711 23.0068C19.1711 23.7472 19.3967 24.4363 19.7829 25.0119L13.4312 32.6117C13.0364 32.4694 12.6104 32.3916 12.1662 32.3916C10.1287 32.3916 8.47119 34.0264 8.47119 36.0358C8.47119 38.0452 10.1287 39.6797 12.1662 39.6797ZM44.2658 6.06583C45.1056 6.06583 45.7889 6.7397 45.7889 7.5679C45.7889 8.3961 45.1056 9.06997 44.2658 9.06997C43.4261 9.06997 42.7428 8.3961 42.7428 7.5679C42.7428 6.7397 43.4261 6.06583 44.2658 6.06583ZM33.566 27.9373C34.4057 27.9373 35.089 28.6112 35.089 29.4394C35.089 30.2676 34.4057 30.9415 33.566 30.9415C32.7262 30.9415 32.0429 30.2676 32.0429 29.4394C32.0429 28.6112 32.7261 27.9373 33.566 27.9373ZM22.8662 21.5045C23.706 21.5045 24.3893 22.1784 24.3893 23.0067C24.3893 23.8349 23.706 24.5088 22.8662 24.5088C22.0264 24.5088 21.3431 23.8349 21.3431 23.0067C21.343 22.1784 22.0263 21.5045 22.8662 21.5045ZM12.1662 34.5335C13.006 34.5335 13.6893 35.2074 13.6893 36.0357C13.6893 36.8639 13.006 37.5377 12.1662 37.5377C11.3264 37.5377 10.6431 36.8639 10.6431 36.0357C10.6431 35.2074 11.3264 34.5335 12.1662 34.5335Z" fill="#D36635"/>
</g>
<defs>
<clipPath id="clip0">
<rect y="0.696533" width="48" height="47.3379" rx="2" fill="white"/>
</clipPath>
</defs>
</svg>
