<svg width="54" height="55" viewBox="0 0 54 55" fill="none" xmlns="http://www.w3.org/2000/svg">
<path d="M25.4504 -1V7.88641H28.6624V-1H25.4501H25.4504ZM12.3343 1.6705L9.70263 3.40197L15.1258 10.6795L17.756 8.94793L12.3343 1.6705ZM41.7779 1.6705L36.3563 8.94798L38.9869 10.6795L44.41 3.40197L41.7783 1.6705H41.7779ZM27.0557 10.3178C19.1979 10.3178 12.8281 14.8017 12.8281 20.3336L20.9116 43.3379H33.2013L41.2841 20.3336C41.2841 14.8018 34.9146 10.3178 27.0565 10.3178H27.0557ZM1.50372 12.9847L0.40625 15.8227L9.28815 18.8614L10.3897 16.0247L1.50352 12.9847H1.50372ZM52.6084 12.9847L43.7222 16.025L44.82 18.8619L53.7063 15.8228L52.6084 12.9847ZM9.96062 25.9584L0.827876 28.2603L1.65653 31.1738L10.7893 28.8752L9.96077 25.9584H9.96062ZM44.1515 25.9584L43.3235 28.8752L52.4562 31.1734L53.2843 28.2599L44.1515 25.9584V25.9584ZM20.7324 45.0148V49.0135H33.3805V45.0154H20.7324L20.7324 45.0148ZM20.7324 51.0013V55H33.3805V51.002H20.7324L20.7324 51.0013Z" fill="white"/>
</svg>
