<svg width="31" height="31" viewBox="0 0 31 31" fill="none" xmlns="http://www.w3.org/2000/svg">
<path d="M1.27148 31H7.75C8.59766 31 9.02148 30.5762 9.02148 29.7285C9.02148 28.8405 8.59766 28.3965 7.75 28.3965H4.41992L12.5332 20.2832C13.0579 19.6777 13.0579 19.0723 12.5332 18.4668C11.9277 17.9421 11.3223 17.9421 10.7168 18.4668L2.60352 26.5801V23.25C2.60352 22.4023 2.15951 21.9785 1.27148 21.9785C0.423828 21.9785 0 22.4023 0 23.25V29.7285C0 30.0918 0.121094 30.3945 0.363281 30.6367C0.605469 30.8789 0.908203 31 1.27148 31ZM29.7285 21.9785C28.8405 21.9785 28.3965 22.4023 28.3965 23.25V26.5801L20.2832 18.4668C19.6777 17.9421 19.0723 17.9421 18.4668 18.4668C17.9421 19.0723 17.9421 19.6777 18.4668 20.2832L26.5801 28.3965H23.25C22.4023 28.3965 21.9785 28.8405 21.9785 29.7285C21.9785 30.5762 22.4023 31 23.25 31H29.7285C30.0918 31 30.3945 30.8789 30.6367 30.6367C30.8789 30.3945 31 30.0918 31 29.7285V23.25C31 22.4023 30.5762 21.9785 29.7285 21.9785ZM29.7285 0H23.25C22.4023 0 21.9785 0.423828 21.9785 1.27148C21.9785 2.15951 22.4023 2.60352 23.25 2.60352H26.5801L18.4668 10.7168C17.9421 11.3223 17.9421 11.9277 18.4668 12.5332C18.709 12.7754 19.0117 12.8965 19.375 12.8965C19.7383 12.8965 20.041 12.7754 20.2832 12.5332L28.3965 4.41992V7.75C28.3965 8.59766 28.8405 9.02148 29.7285 9.02148C30.5762 9.02148 31 8.59766 31 7.75V1.27148C31 0.908203 30.8789 0.605469 30.6367 0.363281C30.3945 0.121094 30.0918 0 29.7285 0ZM1.27148 9.02148C2.15951 9.02148 2.60352 8.59766 2.60352 7.75V4.41992L10.7168 12.5332C10.959 12.7754 11.2617 12.8965 11.625 12.8965C11.9883 12.8965 12.291 12.7754 12.5332 12.5332C13.0579 11.9277 13.0579 11.3223 12.5332 10.7168L4.41992 2.60352H7.75C8.59766 2.60352 9.02148 2.15951 9.02148 1.27148C9.02148 0.423828 8.59766 0 7.75 0H1.27148C0.908203 0 0.605469 0.121094 0.363281 0.363281C0.121094 0.605469 0 0.908203 0 1.27148V7.75C0 8.59766 0.423828 9.02148 1.27148 9.02148Z" fill="white"/>
</svg>
