<svg width="1336" height="10944" viewBox="0 0 1336 10944" fill="none" xmlns="http://www.w3.org/2000/svg">
<g opacity="0.05">
<path d="M-0.000395748 10190.5C77.5899 9654.03 77.5899 9051.44 -0.000351276 8514.96L10.8617 8502.75C89.4836 9047.03 89.4836 9658.22 10.8617 10202.5L-0.000395748 10190.5Z" fill="#818181"/>
<path d="M-0.000395748 10190.5C77.5899 9654.03 77.5899 9051.44 -0.000351276 8514.96L10.8617 8502.75C89.4836 9047.03 89.4836 9658.22 10.8617 10202.5L-0.000395748 10190.5Z" fill="url(#paint0_linear)" fill-opacity="0.7"/>
<path d="M0.00026801 3393.02C37.7716 3126.82 57.5182 2842.52 58.1901 2555.24C57.5257 2267.97 37.7789 1983.66 0.000312481 1717.47L10.8624 1705.26C49.1303 1975.38 69.139 2263.81 69.8281 2555.24C69.1311 2846.61 49.1224 3134.95 10.8623 3405L0.00026801 3393.02Z" fill="#818181"/>
<path d="M0.00026801 3393.02C37.7716 3126.82 57.5182 2842.52 58.1901 2555.24C57.5257 2267.97 37.7789 1983.66 0.000312481 1717.47L10.8624 1705.26C49.1303 1975.38 69.139 2263.81 69.8281 2555.24C69.1311 2846.61 49.1224 3134.95 10.8623 3405L0.00026801 3393.02Z" fill="url(#paint1_linear)" fill-opacity="0.7"/>
<path d="M0.329032 10657.8C67.5189 10306.5 136.26 9876.77 136.26 9353.16C136.26 8829.55 67.519 8399.12 0.329101 8048.35L10.5706 8032.37C78.4587 8387.36 147.898 8822 147.898 9353.16C147.898 9884.32 78.4586 10318.7 10.5705 10673.7L0.329032 10657.8Z" fill="#818181"/>
<path d="M0.329032 10657.8C67.5189 10306.5 136.26 9876.77 136.26 9353.16C136.26 8829.55 67.519 8399.12 0.329101 8048.35L10.5706 8032.37C78.4587 8387.36 147.898 8822 147.898 9353.16C147.898 9884.32 78.4586 10318.7 10.5705 10673.7L0.329032 10657.8Z" fill="url(#paint2_linear)" fill-opacity="0.7"/>
<path d="M0.328055 3859.91C67.5179 3508.69 136.259 3078.93 136.259 2555.32C136.259 2031.7 67.518 1601.28 0.328125 1250.5L10.5696 1234.53C78.4577 1589.52 147.897 2024.16 147.897 2555.32C147.897 3086.47 78.4577 3520.89 10.5695 3875.88L0.328055 3859.91Z" fill="#818181"/>
<path d="M0.328055 3859.91C67.5179 3508.69 136.259 3078.93 136.259 2555.32C136.259 2031.7 67.518 1601.28 0.328125 1250.5L10.5696 1234.53C78.4577 1589.52 147.897 2024.16 147.897 2555.32C147.897 3086.47 78.4577 3520.89 10.5695 3875.88L0.328055 3859.91Z" fill="url(#paint3_linear)" fill-opacity="0.7"/>
<path d="M0.48874 11043.9C105.618 10536.7 214.317 10012 214.317 9353.07C214.317 8694.12 105.696 8169.4 0.48883 7661.98L10.4975 7645.12C116.403 8155.42 225.955 8684.8 225.955 9353.51C225.955 10022.2 116.403 10550.3 10.4975 11061.9L0.48874 11043.9Z" fill="#818181"/>
<path d="M0.48874 11043.9C105.618 10536.7 214.317 10012 214.317 9353.07C214.317 8694.12 105.696 8169.4 0.48883 7661.98L10.4975 7645.12C116.403 8155.42 225.955 8684.8 225.955 9353.51C225.955 10022.2 116.403 10550.3 10.4975 11061.9L0.48874 11043.9Z" fill="url(#paint4_linear)" fill-opacity="0.7"/>
<path d="M0.479951 4246.16C105.61 3738.75 214.308 3214.25 214.308 2555.3C214.308 1896.34 105.687 1371.62 0.480041 864.207L10.4888 847.345C116.394 1357.64 225.946 1887.02 225.946 2555.74C225.946 3224.45 116.394 3752.28 10.4887 4264.13L0.479951 4246.16Z" fill="#818181"/>
<path d="M0.479951 4246.16C105.61 3738.75 214.308 3214.25 214.308 2555.3C214.308 1896.34 105.687 1371.62 0.480041 864.207L10.4888 847.345C116.394 1357.64 225.946 1887.02 225.946 2555.74C225.946 3224.45 116.394 3752.28 10.4887 4264.13L0.479951 4246.16Z" fill="url(#paint5_linear)" fill-opacity="0.7"/>
<path d="M0.325664 11431.2C25.3085 11300.7 52.3861 11170.2 78.5327 11044C183.818 10536.8 292.439 10013 292.439 9353.13C292.439 8693.29 183.818 8169.46 78.5328 7661.16C52.3862 7535.13 25.3086 7404.68 0.325775 7273.99L10.5673 7258.02C35.4725 7388.04 62.4725 7518.27 88.5415 7644.29C194.447 8154.59 303.999 8683.97 303.999 9352.69C303.999 10021.4 194.447 10549.5 88.5414 11061.1C62.3948 11186.9 35.4724 11317.1 10.5671 11447.1L0.325664 11431.2Z" fill="#818181"/>
<path d="M0.325664 11431.2C25.3085 11300.7 52.3861 11170.2 78.5327 11044C183.818 10536.8 292.439 10013 292.439 9353.13C292.439 8693.29 183.818 8169.46 78.5328 7661.16C52.3862 7535.13 25.3086 7404.68 0.325775 7273.99L10.5673 7258.02C35.4725 7388.04 62.4725 7518.27 88.5415 7644.29C194.447 8154.59 303.999 8683.97 303.999 9352.69C303.999 10021.4 194.447 10549.5 88.5414 11061.1C62.3948 11186.9 35.4724 11317.1 10.5671 11447.1L0.325664 11431.2Z" fill="url(#paint6_linear)" fill-opacity="0.7"/>
<path d="M0.321178 4633.35C25.304 4502.89 52.3816 4372.43 78.5282 4246.19C183.813 3739 292.434 3214.28 292.434 2555.32C292.434 1896.37 183.813 1371.65 78.606 864.235C52.4594 738.214 25.3816 607.754 0.398712 477.073L10.6402 461.099C35.5454 591.114 62.5457 721.351 88.6147 847.373C194.52 1357.67 304.072 1887.05 304.072 2555.77C304.072 3224.48 194.52 3752.53 88.6146 4264.16C62.5456 4389.96 35.5453 4520.2 10.6401 4650.21L0.321178 4633.35Z" fill="#818181"/>
<path d="M0.321178 4633.35C25.304 4502.89 52.3816 4372.43 78.5282 4246.19C183.813 3739 292.434 3214.28 292.434 2555.32C292.434 1896.37 183.813 1371.65 78.606 864.235C52.4594 738.214 25.3816 607.754 0.398712 477.073L10.6402 461.099C35.5454 591.114 62.5457 721.351 88.6147 847.373C194.52 1357.67 304.072 1887.05 304.072 2555.77C304.072 3224.48 194.52 3752.53 88.6146 4264.16C62.5456 4389.96 35.5453 4520.2 10.6401 4650.21L0.321178 4633.35Z" fill="url(#paint7_linear)" fill-opacity="0.7"/>
<path d="M0.00718857 11901.9C41.2056 11600.6 99.8609 11317.7 156.577 11044.2C261.396 10536.7 370.017 10012.9 370.017 9353.07C370.017 8693.23 261.396 8169.4 156.577 7661.1C99.861 7387.53 41.2057 7104.43 0.00732389 6803.13L10.8694 6790.93C51.9126 7090.67 110.102 7372.67 166.585 7645.12C272.569 8155.42 382.043 8684.8 382.043 9353.52C382.043 10022.2 272.491 10550.3 166.585 11061.9C110.102 11334.4 51.6797 11616.6 10.8692 11915L0.00718857 11901.9Z" fill="#818181"/>
<path d="M0.00718857 11901.9C41.2056 11600.6 99.8609 11317.7 156.577 11044.2C261.396 10536.7 370.017 10012.9 370.017 9353.07C370.017 8693.23 261.396 8169.4 156.577 7661.1C99.861 7387.53 41.2057 7104.43 0.00732389 6803.13L10.8694 6790.93C51.9126 7090.67 110.102 7372.67 166.585 7645.12C272.569 8155.42 382.043 8684.8 382.043 9353.52C382.043 10022.2 272.491 10550.3 166.585 11061.9C110.102 11334.4 51.6797 11616.6 10.8692 11915L0.00718857 11901.9Z" fill="url(#paint8_linear)" fill-opacity="0.7"/>
<path d="M0.0108203 5104.33C41.2093 4802.81 99.8645 4519.92 156.58 4246.14C261.4 3738.94 370.021 3214.22 370.021 2555.27C370.021 1896.32 261.4 1371.6 156.192 864.182C100.253 592.392 41.9853 311.283 0.864532 11.9813L11.6489 0.00033953C52.4594 296.64 110.494 576.861 166.822 847.32C272.805 1357.62 382.279 1887 382.279 2555.71C382.279 3224.43 272.727 3752.48 166.822 4264.11C110.339 4536.56 51.9161 4818.78 11.1056 5117.2L0.0108203 5104.33Z" fill="#818181"/>
<path d="M0.0108203 5104.33C41.2093 4802.81 99.8645 4519.92 156.58 4246.14C261.4 3738.94 370.021 3214.22 370.021 2555.27C370.021 1896.32 261.4 1371.6 156.192 864.182C100.253 592.392 41.9853 311.283 0.864532 11.9813L11.6489 0.00033953C52.4594 296.64 110.494 576.861 166.822 847.32C272.805 1357.62 382.279 1887 382.279 2555.71C382.279 3224.43 272.727 3752.48 166.822 4264.11C110.339 4536.56 51.9161 4818.78 11.1056 5117.2L0.0108203 5104.33Z" fill="url(#paint9_linear)" fill-opacity="0.7"/>
<path d="M19.1882 5954.09C19.1882 5285.82 128.74 4757.32 234.646 4245.69C339.775 3738.5 448.552 3213.78 448.552 2554.83C448.552 1895.87 339.931 1371.15 234.646 863.738C178.318 592.392 120.051 311.283 78.93 11.9813L89.7921 0.000339524C130.525 296.64 188.56 576.861 244.965 847.32C350.948 1357.62 460.5 1887 460.5 2555.71C460.5 3224.43 350.948 3752.48 244.965 4264.11C139.835 4771.3 31.1366 5295.8 31.1366 5954.97C31.1366 6614.15 139.758 7138.65 244.965 7646.06C350.948 8156.36 460.5 8685.74 460.5 9354.46L448.862 9354.46C448.862 8695.28 340.241 8170.78 234.956 7663.37C128.74 7150.85 19.1882 6622.36 19.1882 5954.09Z" fill="#818181"/>
<path d="M19.1882 5954.09C19.1882 5285.82 128.74 4757.32 234.646 4245.69C339.775 3738.5 448.552 3213.78 448.552 2554.83C448.552 1895.87 339.931 1371.15 234.646 863.738C178.318 592.392 120.051 311.283 78.93 11.9813L89.7921 0.000339524C130.525 296.64 188.56 576.861 244.965 847.32C350.948 1357.62 460.5 1887 460.5 2555.71C460.5 3224.43 350.948 3752.48 244.965 4264.11C139.835 4771.3 31.1366 5295.8 31.1366 5954.97C31.1366 6614.15 139.758 7138.65 244.965 7646.06C350.948 8156.36 460.5 8685.74 460.5 9354.46L448.862 9354.46C448.862 8695.28 340.241 8170.78 234.956 7663.37C128.74 7150.85 19.1882 6622.36 19.1882 5954.09Z" fill="url(#paint10_linear)" fill-opacity="0.7"/>
<path d="M97.2248 5954.09C97.2248 5285.82 206.777 4757.32 312.682 4245.69C417.89 3738.5 526.588 3213.78 526.588 2554.83C526.588 1895.87 417.967 1371.15 312.682 863.738C256.355 592.392 198.087 311.283 156.967 11.9813L167.829 0.000339524C208.562 296.64 266.596 576.861 323.002 847.32C428.985 1357.62 538.537 1887 538.537 2555.71C538.537 3224.43 428.984 3752.48 323.001 4264.11C217.872 4771.3 109.173 5295.8 109.173 5954.97C109.173 6614.15 217.794 7138.65 323.001 7646.06C428.984 8156.36 538.536 8685.74 538.536 9354.46L526.898 9354.46C526.898 8695.28 418.277 8170.78 312.993 7663.37C207.087 7150.85 97.2248 6622.36 97.2248 5954.09Z" fill="#818181"/>
<path d="M97.2248 5954.09C97.2248 5285.82 206.777 4757.32 312.682 4245.69C417.89 3738.5 526.588 3213.78 526.588 2554.83C526.588 1895.87 417.967 1371.15 312.682 863.738C256.355 592.392 198.087 311.283 156.967 11.9813L167.829 0.000339524C208.562 296.64 266.596 576.861 323.002 847.32C428.985 1357.62 538.537 1887 538.537 2555.71C538.537 3224.43 428.984 3752.48 323.001 4264.11C217.872 4771.3 109.173 5295.8 109.173 5954.97C109.173 6614.15 217.794 7138.65 323.001 7646.06C428.984 8156.36 538.536 8685.74 538.536 9354.46L526.898 9354.46C526.898 8695.28 418.277 8170.78 312.993 7663.37C207.087 7150.85 97.2248 6622.36 97.2248 5954.09Z" fill="url(#paint11_linear)" fill-opacity="0.7"/>
<path d="M175.273 5954.09C175.273 5285.82 284.825 4757.32 390.731 4245.69C495.938 3738.5 604.637 3213.78 604.637 2554.83C604.637 1895.87 496.015 1371.15 390.808 863.738C334.403 592.391 276.136 311.283 235.015 11.9811L245.877 0.000156424C286.687 296.64 344.644 576.861 401.05 847.319C506.955 1357.62 616.507 1887 616.507 2555.71C616.507 3224.43 506.955 3752.48 401.05 4264.11C295.842 4771.3 187.144 5295.8 187.144 5954.97C187.144 6614.15 295.765 7138.65 401.049 7646.06C506.955 8156.36 616.507 8685.74 616.507 9354.46L604.869 9354.46C604.869 8695.28 496.248 8170.78 390.963 7663.37C284.67 7150.85 175.273 6622.36 175.273 5954.09Z" fill="#818181"/>
<path d="M175.273 5954.09C175.273 5285.82 284.825 4757.32 390.731 4245.69C495.938 3738.5 604.637 3213.78 604.637 2554.83C604.637 1895.87 496.015 1371.15 390.808 863.738C334.403 592.391 276.136 311.283 235.015 11.9811L245.877 0.000156424C286.687 296.64 344.644 576.861 401.05 847.319C506.955 1357.62 616.507 1887 616.507 2555.71C616.507 3224.43 506.955 3752.48 401.05 4264.11C295.842 4771.3 187.144 5295.8 187.144 5954.97C187.144 6614.15 295.765 7138.65 401.049 7646.06C506.955 8156.36 616.507 8685.74 616.507 9354.46L604.869 9354.46C604.869 8695.28 496.248 8170.78 390.963 7663.37C284.67 7150.85 175.273 6622.36 175.273 5954.09Z" fill="url(#paint12_linear)" fill-opacity="0.7"/>
<path d="M253.64 5954.09C253.64 5285.82 363.192 4757.32 469.175 4245.69C574.305 3738.5 683.003 3213.78 683.003 2554.83C683.003 1895.87 574.382 1371.15 469.175 863.738C412.537 592.392 354.503 311.283 313.149 11.9812L323.933 0.000217459C364.744 296.64 422.779 576.861 479.106 847.319C585.012 1357.62 694.564 1887 694.564 2555.71C694.564 3224.43 585.012 3752.48 479.106 4264.11C373.977 4771.3 265.2 5295.8 265.2 5954.97C265.2 6614.15 373.821 7138.65 479.106 7646.06C585.012 8156.36 694.564 8685.74 694.564 9354.46L682.926 9354.46C682.926 8695.28 574.305 8170.78 469.098 7663.37C362.882 7150.85 253.64 6622.36 253.64 5954.09Z" fill="#818181"/>
<path d="M253.64 5954.09C253.64 5285.82 363.192 4757.32 469.175 4245.69C574.305 3738.5 683.003 3213.78 683.003 2554.83C683.003 1895.87 574.382 1371.15 469.175 863.738C412.537 592.392 354.503 311.283 313.149 11.9812L323.933 0.000217459C364.744 296.64 422.779 576.861 479.106 847.319C585.012 1357.62 694.564 1887 694.564 2555.71C694.564 3224.43 585.012 3752.48 479.106 4264.11C373.977 4771.3 265.2 5295.8 265.2 5954.97C265.2 6614.15 373.821 7138.65 479.106 7646.06C585.012 8156.36 694.564 8685.74 694.564 9354.46L682.926 9354.46C682.926 8695.28 574.305 8170.78 469.098 7663.37C362.882 7150.85 253.64 6622.36 253.64 5954.09Z" fill="url(#paint13_linear)" fill-opacity="0.7"/>
<path d="M331.227 5954.09C331.227 5285.82 440.779 4757.32 546.762 4245.69C651.892 3738.5 760.591 3213.78 760.591 2554.83C760.591 1895.87 651.97 1371.15 546.763 863.738C490.59 592.391 432.09 311.283 391.202 11.9811L401.986 0.000156424C442.797 296.64 500.831 576.861 557.159 847.319C663.065 1357.62 772.617 1887 772.617 2555.71C772.617 3224.43 663.065 3752.48 557.159 4264.11C452.029 4771.3 343.253 5295.8 343.253 5954.97C343.253 6614.15 451.874 7138.65 557.159 7646.06C663.064 8156.36 772.616 8685.74 772.616 9354.46L760.978 9354.46C760.979 8695.28 652.358 8170.78 547.15 7663.37C440.935 7150.85 331.227 6622.36 331.227 5954.09Z" fill="#818181"/>
<path d="M331.227 5954.09C331.227 5285.82 440.779 4757.32 546.762 4245.69C651.892 3738.5 760.591 3213.78 760.591 2554.83C760.591 1895.87 651.97 1371.15 546.763 863.738C490.59 592.391 432.09 311.283 391.202 11.9811L401.986 0.000156424C442.797 296.64 500.831 576.861 557.159 847.319C663.065 1357.62 772.617 1887 772.617 2555.71C772.617 3224.43 663.065 3752.48 557.159 4264.11C452.029 4771.3 343.253 5295.8 343.253 5954.97C343.253 6614.15 451.874 7138.65 557.159 7646.06C663.064 8156.36 772.616 8685.74 772.616 9354.46L760.978 9354.46C760.979 8695.28 652.358 8170.78 547.15 7663.37C440.935 7150.85 331.227 6622.36 331.227 5954.09Z" fill="url(#paint14_linear)" fill-opacity="0.7"/>
<path d="M409.508 5954.09C409.508 5285.82 519.06 4757.32 624.966 4245.69C730.096 3738.5 838.872 3213.78 838.872 2554.83C838.872 1895.87 730.251 1371.15 624.966 863.738C568.638 592.392 510.371 311.283 469.25 11.9812L480.034 0.000217454C520.845 296.64 578.88 576.861 635.207 847.319C741.19 1357.62 850.743 1887 850.743 2555.71C850.743 3224.43 741.19 3752.48 635.207 4264.11C530.078 4771.3 421.379 5295.8 421.379 5954.97C421.379 6614.15 530 7138.65 635.207 7646.06C741.19 8156.36 850.742 8685.74 850.742 9354.46L839.104 9354.46C839.104 8695.28 730.483 8170.78 625.199 7663.37C519.06 7150.85 409.508 6622.36 409.508 5954.09Z" fill="#818181"/>
<path d="M409.508 5954.09C409.508 5285.82 519.06 4757.32 624.966 4245.69C730.096 3738.5 838.872 3213.78 838.872 2554.83C838.872 1895.87 730.251 1371.15 624.966 863.738C568.638 592.392 510.371 311.283 469.25 11.9812L480.034 0.000217454C520.845 296.64 578.88 576.861 635.207 847.319C741.19 1357.62 850.743 1887 850.743 2555.71C850.743 3224.43 741.19 3752.48 635.207 4264.11C530.078 4771.3 421.379 5295.8 421.379 5954.97C421.379 6614.15 530 7138.65 635.207 7646.06C741.19 8156.36 850.742 8685.74 850.742 9354.46L839.104 9354.46C839.104 8695.28 730.483 8170.78 625.199 7663.37C519.06 7150.85 409.508 6622.36 409.508 5954.09Z" fill="url(#paint15_linear)" fill-opacity="0.7"/>
<path d="M487.552 5954.09C487.552 5285.82 597.104 4757.32 703.01 4245.69C808.139 3738.5 916.915 3213.78 916.915 2554.83C916.915 1895.87 808.294 1371.15 703.01 863.738C646.682 592.391 588.415 311.283 547.294 11.9811L558.156 0.000156419C598.889 296.64 656.923 576.861 713.329 847.319C819.312 1357.62 928.864 1887 928.864 2555.71C928.864 3224.43 819.312 3752.48 713.329 4264.11C608.199 4771.3 499.5 5295.8 499.5 5954.97C499.5 6614.15 608.121 7138.65 713.328 7646.06C819.312 8156.36 928.864 8685.74 928.864 9354.46L917.226 9354.46C917.226 8695.28 808.605 8170.78 703.32 7663.37C597.104 7150.85 487.552 6622.36 487.552 5954.09Z" fill="#818181"/>
<path d="M487.552 5954.09C487.552 5285.82 597.104 4757.32 703.01 4245.69C808.139 3738.5 916.915 3213.78 916.915 2554.83C916.915 1895.87 808.294 1371.15 703.01 863.738C646.682 592.391 588.415 311.283 547.294 11.9811L558.156 0.000156419C598.889 296.64 656.923 576.861 713.329 847.319C819.312 1357.62 928.864 1887 928.864 2555.71C928.864 3224.43 819.312 3752.48 713.329 4264.11C608.199 4771.3 499.5 5295.8 499.5 5954.97C499.5 6614.15 608.121 7138.65 713.328 7646.06C819.312 8156.36 928.864 8685.74 928.864 9354.46L917.226 9354.46C917.226 8695.28 808.605 8170.78 703.32 7663.37C597.104 7150.85 487.552 6622.36 487.552 5954.09Z" fill="url(#paint16_linear)" fill-opacity="0.7"/>
<path d="M565.63 5954.09C565.63 5285.82 675.182 4757.32 781.088 4245.69C886.295 3738.5 994.994 3213.78 994.994 2554.83C994.994 1895.87 886.373 1371.15 781.088 863.738C724.76 592.391 666.493 311.283 625.372 11.9811L636.234 0.000156424C677.045 296.64 735.002 576.861 791.407 847.319C897.313 1357.62 1006.86 1887 1006.86 2555.71C1006.86 3224.43 897.313 3752.48 791.407 4264.11C686.2 4771.3 577.501 5295.8 577.501 5954.97C577.501 6614.15 686.122 7138.65 791.407 7646.06C897.312 8156.36 1006.86 8685.74 1006.86 9354.46L995.227 9354.46C995.227 8695.28 886.605 8170.78 781.321 7663.37C675.182 7150.85 565.63 6622.36 565.63 5954.09Z" fill="#818181"/>
<path d="M565.63 5954.09C565.63 5285.82 675.182 4757.32 781.088 4245.69C886.295 3738.5 994.994 3213.78 994.994 2554.83C994.994 1895.87 886.373 1371.15 781.088 863.738C724.76 592.391 666.493 311.283 625.372 11.9811L636.234 0.000156424C677.045 296.64 735.002 576.861 791.407 847.319C897.313 1357.62 1006.86 1887 1006.86 2555.71C1006.86 3224.43 897.313 3752.48 791.407 4264.11C686.2 4771.3 577.501 5295.8 577.501 5954.97C577.501 6614.15 686.122 7138.65 791.407 7646.06C897.312 8156.36 1006.86 8685.74 1006.86 9354.46L995.227 9354.46C995.227 8695.28 886.605 8170.78 781.321 7663.37C675.182 7150.85 565.63 6622.36 565.63 5954.09Z" fill="url(#paint17_linear)" fill-opacity="0.7"/>
<path d="M643.661 5954.09C643.661 5285.82 753.213 4757.32 859.197 4245.69C964.326 3738.5 1073.02 3213.78 1073.02 2554.83C1073.02 1895.87 964.326 1371.6 858.809 864.181C802.791 592.391 744.524 311.283 703.636 11.9811L714.498 0.000156424C755.308 296.64 813.343 576.861 869.671 847.319C975.576 1357.62 1085.13 1887 1085.13 2555.71C1085.13 3224.43 975.576 3752.48 869.671 4264.11C764.463 4771.3 655.765 5295.8 655.765 5954.97C655.765 6614.15 764.386 7138.65 869.671 7646.06C975.576 8156.36 1085.13 8685.74 1085.13 9354.46L1073.49 9354.46C1073.49 8695.28 964.869 8170.78 859.662 7663.37C753.213 7150.85 643.661 6622.36 643.661 5954.09Z" fill="#818181"/>
<path d="M643.661 5954.09C643.661 5285.82 753.213 4757.32 859.197 4245.69C964.326 3738.5 1073.02 3213.78 1073.02 2554.83C1073.02 1895.87 964.326 1371.6 858.809 864.181C802.791 592.391 744.524 311.283 703.636 11.9811L714.498 0.000156424C755.308 296.64 813.343 576.861 869.671 847.319C975.576 1357.62 1085.13 1887 1085.13 2555.71C1085.13 3224.43 975.576 3752.48 869.671 4264.11C764.463 4771.3 655.765 5295.8 655.765 5954.97C655.765 6614.15 764.386 7138.65 869.671 7646.06C975.576 8156.36 1085.13 8685.74 1085.13 9354.46L1073.49 9354.46C1073.49 8695.28 964.869 8170.78 859.662 7663.37C753.213 7150.85 643.661 6622.36 643.661 5954.09Z" fill="url(#paint18_linear)" fill-opacity="0.7"/>
<path d="M721.727 5954.09C721.727 5285.82 831.279 4757.32 937.262 4245.69C1042.39 3738.5 1151.09 3213.78 1151.09 2554.83C1151.09 1895.87 1042.47 1371.15 937.262 863.738C880.934 592.391 822.667 311.283 781.236 11.9811L792.02 0.000156424C832.831 296.64 890.865 576.861 947.193 847.319C1053.1 1357.62 1162.65 1887 1162.65 2555.71C1162.65 3224.43 1053.1 3752.48 947.193 4264.11C842.063 4771.3 733.287 5295.8 733.287 5954.97C733.287 6614.15 841.908 7138.65 947.193 7646.06C1053.1 8156.36 1162.65 8685.74 1162.65 9354.46L1151.01 9354.46C1151.01 8695.28 1042.39 8170.78 937.184 7663.37C831.279 7150.85 721.727 6622.36 721.727 5954.09Z" fill="#818181"/>
<path d="M721.727 5954.09C721.727 5285.82 831.279 4757.32 937.262 4245.69C1042.39 3738.5 1151.09 3213.78 1151.09 2554.83C1151.09 1895.87 1042.47 1371.15 937.262 863.738C880.934 592.391 822.667 311.283 781.236 11.9811L792.02 0.000156424C832.831 296.64 890.865 576.861 947.193 847.319C1053.1 1357.62 1162.65 1887 1162.65 2555.71C1162.65 3224.43 1053.1 3752.48 947.193 4264.11C842.063 4771.3 733.287 5295.8 733.287 5954.97C733.287 6614.15 841.908 7138.65 947.193 7646.06C1053.1 8156.36 1162.65 8685.74 1162.65 9354.46L1151.01 9354.46C1151.01 8695.28 1042.39 8170.78 937.184 7663.37C831.279 7150.85 721.727 6622.36 721.727 5954.09Z" fill="url(#paint19_linear)" fill-opacity="0.7"/>
<path d="M799.766 5954.09C799.766 5285.82 909.318 4757.32 1015.3 4245.69C1120.43 3738.5 1229.13 3213.78 1229.13 2554.83C1229.13 1895.87 1120.51 1371.15 1015.3 863.738C958.974 592.392 900.706 311.283 859.586 11.9812L870.37 0.000217459C911.181 296.64 969.215 576.861 1025.54 847.319C1131.53 1357.62 1241 1887 1241 2555.71C1241 3224.43 1131.45 3752.48 1025.54 4264.11C920.413 4771.3 811.637 5295.8 811.637 5954.97C811.637 6614.15 920.258 7138.65 1025.54 7646.06C1131.45 8156.36 1241 8685.74 1241 9354.46L1229.36 9354.46C1229.36 8695.28 1120.74 8170.78 1015.53 7663.37C909.318 7150.85 799.766 6622.36 799.766 5954.09Z" fill="#818181"/>
<path d="M799.766 5954.09C799.766 5285.82 909.318 4757.32 1015.3 4245.69C1120.43 3738.5 1229.13 3213.78 1229.13 2554.83C1229.13 1895.87 1120.51 1371.15 1015.3 863.738C958.974 592.392 900.706 311.283 859.586 11.9812L870.37 0.000217459C911.181 296.64 969.215 576.861 1025.54 847.319C1131.53 1357.62 1241 1887 1241 2555.71C1241 3224.43 1131.45 3752.48 1025.54 4264.11C920.413 4771.3 811.637 5295.8 811.637 5954.97C811.637 6614.15 920.258 7138.65 1025.54 7646.06C1131.45 8156.36 1241 8685.74 1241 9354.46L1229.36 9354.46C1229.36 8695.28 1120.74 8170.78 1015.53 7663.37C909.318 7150.85 799.766 6622.36 799.766 5954.09Z" fill="url(#paint20_linear)" fill-opacity="0.7"/>
<path d="M877.888 5954.09C877.888 5285.82 987.44 4757.32 1093.35 4245.69C1198.48 3738.5 1307.25 3213.78 1307.25 2554.83C1307.25 1895.87 1198.63 1371.15 1093.35 863.738C1037.25 592.392 978.75 311.283 937.63 11.9812L948.492 0.000278489C989.225 296.64 1047.26 576.861 1103.66 847.32C1209.65 1357.62 1319.2 1887 1319.2 2555.71C1319.2 3224.43 1209.65 3752.48 1103.66 4264.11C998.457 4770.41 889.836 5294.91 889.836 5954.09C889.836 6613.26 998.457 7137.76 1103.66 7645.18C1209.65 8155.48 1319.2 8684.86 1319.2 9353.57L1307.56 9353.57C1307.56 8694.4 1198.94 8169.9 1093.66 7662.48C987.44 7150.85 877.888 6622.36 877.888 5954.09Z" fill="#818181"/>
<path d="M877.888 5954.09C877.888 5285.82 987.44 4757.32 1093.35 4245.69C1198.48 3738.5 1307.25 3213.78 1307.25 2554.83C1307.25 1895.87 1198.63 1371.15 1093.35 863.738C1037.25 592.392 978.75 311.283 937.63 11.9812L948.492 0.000278489C989.225 296.64 1047.26 576.861 1103.66 847.32C1209.65 1357.62 1319.2 1887 1319.2 2555.71C1319.2 3224.43 1209.65 3752.48 1103.66 4264.11C998.457 4770.41 889.836 5294.91 889.836 5954.09C889.836 6613.26 998.457 7137.76 1103.66 7645.18C1209.65 8155.48 1319.2 8684.86 1319.2 9353.57L1307.56 9353.57C1307.56 8694.4 1198.94 8169.9 1093.66 7662.48C987.44 7150.85 877.888 6622.36 877.888 5954.09Z" fill="url(#paint21_linear)" fill-opacity="0.7"/>
<path d="M955.957 5954.09C955.957 5285.82 1065.51 4757.32 1171.41 4245.69C1276.54 3738.5 1385.32 3213.78 1385.32 2554.83C1385.32 1895.87 1276.7 1371.15 1171.41 863.738C1114.85 592.392 1056.82 311.283 1015.7 11.9812L1026.56 0.000278489C1067.29 296.64 1125.33 576.861 1181.73 847.32C1287.72 1357.62 1397.27 1887 1397.27 2555.71C1397.27 3224.43 1287.72 3752.48 1181.73 4264.11C1076.06 4770.41 967.44 5294.91 967.44 5954.09C967.439 6613.26 1076.06 7137.76 1181.27 7645.18C1287.25 8155.48 1396.8 8684.86 1396.8 9353.57L1385.16 9353.57C1385.16 8694.4 1276.54 8169.9 1171.26 7662.48C1065.51 7150.85 955.957 6622.36 955.957 5954.09Z" fill="#818181"/>
<path d="M955.957 5954.09C955.957 5285.82 1065.51 4757.32 1171.41 4245.69C1276.54 3738.5 1385.32 3213.78 1385.32 2554.83C1385.32 1895.87 1276.7 1371.15 1171.41 863.738C1114.85 592.392 1056.82 311.283 1015.7 11.9812L1026.56 0.000278489C1067.29 296.64 1125.33 576.861 1181.73 847.32C1287.72 1357.62 1397.27 1887 1397.27 2555.71C1397.27 3224.43 1287.72 3752.48 1181.73 4264.11C1076.06 4770.41 967.44 5294.91 967.44 5954.09C967.439 6613.26 1076.06 7137.76 1181.27 7645.18C1287.25 8155.48 1396.8 8684.86 1396.8 9353.57L1385.16 9353.57C1385.16 8694.4 1276.54 8169.9 1171.26 7662.48C1065.51 7150.85 955.957 6622.36 955.957 5954.09Z" fill="url(#paint22_linear)" fill-opacity="0.7"/>
<path d="M1033.99 5954.09C1033.99 5285.82 1143.54 4757.32 1249.53 4245.69C1354.66 3738.5 1463.36 3213.78 1463.36 2554.83C1463.36 1895.87 1354.73 1371.15 1249.53 863.738C1193.12 592.392 1134.85 311.283 1093.73 11.9812L1104.6 0.000217459C1145.41 296.64 1203.36 576.861 1259.77 847.319C1365.67 1357.62 1475.23 1887 1475.23 2555.71C1475.23 3224.43 1365.67 3752.48 1259.77 4264.11C1154.56 4771.3 1045.86 5295.8 1045.86 5954.97C1045.86 6614.15 1154.48 7138.65 1259.77 7646.06C1365.67 8156.36 1475.23 8685.74 1475.23 9354.46L1463.59 9354.46C1463.59 8695.28 1354.97 8170.78 1249.76 7663.37C1143.54 7150.85 1033.99 6622.36 1033.99 5954.09Z" fill="#818181"/>
<path d="M1033.99 5954.09C1033.99 5285.82 1143.54 4757.32 1249.53 4245.69C1354.66 3738.5 1463.36 3213.78 1463.36 2554.83C1463.36 1895.87 1354.73 1371.15 1249.53 863.738C1193.12 592.392 1134.85 311.283 1093.73 11.9812L1104.6 0.000217459C1145.41 296.64 1203.36 576.861 1259.77 847.319C1365.67 1357.62 1475.23 1887 1475.23 2555.71C1475.23 3224.43 1365.67 3752.48 1259.77 4264.11C1154.56 4771.3 1045.86 5295.8 1045.86 5954.97C1045.86 6614.15 1154.48 7138.65 1259.77 7646.06C1365.67 8156.36 1475.23 8685.74 1475.23 9354.46L1463.59 9354.46C1463.59 8695.28 1354.97 8170.78 1249.76 7663.37C1143.54 7150.85 1033.99 6622.36 1033.99 5954.09Z" fill="url(#paint23_linear)" fill-opacity="0.7"/>
<path d="M1112.05 5954.09C1112.05 5285.82 1221.6 4757.32 1327.59 4245.69C1432.95 3738.94 1541.57 3214.22 1541.57 2555.27C1541.57 1896.32 1432.95 1371.6 1327.74 864.182C1271.18 592.392 1212.99 311.283 1171.79 11.9812L1182.66 0.000217459C1223.47 296.64 1281.5 576.861 1337.83 847.319C1443.74 1357.62 1553.29 1887 1553.29 2555.71C1553.29 3224.43 1443.73 3752.48 1337.83 4264.11C1232.7 4771.3 1123.92 5295.8 1123.92 5954.97C1123.92 6614.15 1232.54 7138.65 1337.83 7646.06C1443.73 8156.36 1553.29 8685.74 1553.29 9354.46L1541.57 9354.46C1541.57 8695.28 1432.95 8170.78 1327.74 7663.37C1221.6 7150.85 1112.05 6622.36 1112.05 5954.09Z" fill="#818181"/>
<path d="M1112.05 5954.09C1112.05 5285.82 1221.6 4757.32 1327.59 4245.69C1432.95 3738.94 1541.57 3214.22 1541.57 2555.27C1541.57 1896.32 1432.95 1371.6 1327.74 864.182C1271.18 592.392 1212.99 311.283 1171.79 11.9812L1182.66 0.000217459C1223.47 296.64 1281.5 576.861 1337.83 847.319C1443.74 1357.62 1553.29 1887 1553.29 2555.71C1553.29 3224.43 1443.73 3752.48 1337.83 4264.11C1232.7 4771.3 1123.92 5295.8 1123.92 5954.97C1123.92 6614.15 1232.54 7138.65 1337.83 7646.06C1443.73 8156.36 1553.29 8685.74 1553.29 9354.46L1541.57 9354.46C1541.57 8695.28 1432.95 8170.78 1327.74 7663.37C1221.6 7150.85 1112.05 6622.36 1112.05 5954.09Z" fill="url(#paint24_linear)" fill-opacity="0.7"/>
<path d="M1190.12 5954.09C1190.12 5285.82 1299.67 4757.32 1405.65 4245.69C1510.55 3738.94 1619.17 3214.22 1619.17 2555.27C1619.17 1896.32 1510.55 1371.6 1405.34 864.182C1349.33 592.392 1291.06 311.283 1249.94 11.9812L1260.72 0.000217459C1301.53 296.64 1359.57 576.861 1415.9 847.319C1521.8 1357.62 1631.35 1887 1631.35 2555.71C1631.35 3224.43 1521.8 3752.48 1415.9 4264.11C1310.77 4771.3 1201.99 5295.8 1201.99 5954.97C1201.99 6614.15 1310.61 7138.65 1415.9 7646.06C1521.8 8156.36 1631.35 8685.74 1631.35 9354.46L1619.17 9354.46C1619.17 8695.28 1510.55 8170.78 1405.34 7663.37C1299.67 7150.85 1190.12 6622.36 1190.12 5954.09Z" fill="#818181"/>
<path d="M1190.12 5954.09C1190.12 5285.82 1299.67 4757.32 1405.65 4245.69C1510.55 3738.94 1619.17 3214.22 1619.17 2555.27C1619.17 1896.32 1510.55 1371.6 1405.34 864.182C1349.33 592.392 1291.06 311.283 1249.94 11.9812L1260.72 0.000217459C1301.53 296.64 1359.57 576.861 1415.9 847.319C1521.8 1357.62 1631.35 1887 1631.35 2555.71C1631.35 3224.43 1521.8 3752.48 1415.9 4264.11C1310.77 4771.3 1201.99 5295.8 1201.99 5954.97C1201.99 6614.15 1310.61 7138.65 1415.9 7646.06C1521.8 8156.36 1631.35 8685.74 1631.35 9354.46L1619.17 9354.46C1619.17 8695.28 1510.55 8170.78 1405.34 7663.37C1299.67 7150.85 1190.12 6622.36 1190.12 5954.09Z" fill="url(#paint25_linear)" fill-opacity="0.7"/>
<path d="M1268.24 5954.09C1268.24 5285.82 1377.71 4757.32 1483.69 4245.69C1588.82 3738.5 1697.6 3213.78 1697.6 2554.83C1697.6 1895.87 1588.98 1371.15 1483.69 863.738C1427.37 592.392 1369.1 311.283 1327.98 11.9812L1338.76 0.000217454C1379.57 296.64 1437.61 576.861 1493.94 847.319C1599.92 1357.62 1709.47 1887 1709.47 2555.71C1709.47 3224.43 1599.92 3752.48 1493.94 4264.11C1388.81 4771.3 1280.11 5295.8 1280.11 5954.97C1280.11 6614.15 1388.73 7138.65 1493.94 7646.06C1599.92 8156.36 1709.47 8685.74 1709.47 9354.46L1697.83 9354.46C1697.83 8695.28 1589.21 8170.78 1483.93 7663.37C1377.71 7150.85 1268.24 6622.36 1268.24 5954.09Z" fill="#818181"/>
<path d="M1268.24 5954.09C1268.24 5285.82 1377.71 4757.32 1483.69 4245.69C1588.82 3738.5 1697.6 3213.78 1697.6 2554.83C1697.6 1895.87 1588.98 1371.15 1483.69 863.738C1427.37 592.392 1369.1 311.283 1327.98 11.9812L1338.76 0.000217454C1379.57 296.64 1437.61 576.861 1493.94 847.319C1599.92 1357.62 1709.47 1887 1709.47 2555.71C1709.47 3224.43 1599.92 3752.48 1493.94 4264.11C1388.81 4771.3 1280.11 5295.8 1280.11 5954.97C1280.11 6614.15 1388.73 7138.65 1493.94 7646.06C1599.92 8156.36 1709.47 8685.74 1709.47 9354.46L1697.83 9354.46C1697.83 8695.28 1589.21 8170.78 1483.93 7663.37C1377.71 7150.85 1268.24 6622.36 1268.24 5954.09Z" fill="url(#paint26_linear)" fill-opacity="0.7"/>
</g>
<defs>
<linearGradient id="paint0_linear" x1="69.8281" y1="9352.63" x2="-0.000373509" y2="9352.63" gradientUnits="userSpaceOnUse">
<stop stop-color="white"/>
<stop offset="1" stop-color="white" stop-opacity="0"/>
</linearGradient>
<linearGradient id="paint1_linear" x1="69.8281" y1="2555.13" x2="0.000290248" y2="2555.13" gradientUnits="userSpaceOnUse">
<stop stop-color="white"/>
<stop offset="1" stop-color="white" stop-opacity="0"/>
</linearGradient>
<linearGradient id="paint2_linear" x1="147.898" y1="9353.05" x2="0.329067" y2="9353.05" gradientUnits="userSpaceOnUse">
<stop stop-color="white"/>
<stop offset="1" stop-color="white" stop-opacity="0"/>
</linearGradient>
<linearGradient id="paint3_linear" x1="147.897" y1="2555.2" x2="0.32809" y2="2555.2" gradientUnits="userSpaceOnUse">
<stop stop-color="white"/>
<stop offset="1" stop-color="white" stop-opacity="0"/>
</linearGradient>
<linearGradient id="paint4_linear" x1="225.955" y1="9353.51" x2="0.488785" y2="9353.51" gradientUnits="userSpaceOnUse">
<stop stop-color="white"/>
<stop offset="1" stop-color="white" stop-opacity="0"/>
</linearGradient>
<linearGradient id="paint5_linear" x1="225.946" y1="2555.74" x2="0.479996" y2="2555.74" gradientUnits="userSpaceOnUse">
<stop stop-color="white"/>
<stop offset="1" stop-color="white" stop-opacity="0"/>
</linearGradient>
<linearGradient id="paint6_linear" x1="303.999" y1="9352.58" x2="0.32572" y2="9352.58" gradientUnits="userSpaceOnUse">
<stop stop-color="white"/>
<stop offset="1" stop-color="white" stop-opacity="0"/>
</linearGradient>
<linearGradient id="paint7_linear" x1="304.072" y1="2555.66" x2="0.321233" y2="2555.66" gradientUnits="userSpaceOnUse">
<stop stop-color="white"/>
<stop offset="1" stop-color="white" stop-opacity="0"/>
</linearGradient>
<linearGradient id="paint8_linear" x1="382.043" y1="9352.96" x2="0.00725622" y2="9352.96" gradientUnits="userSpaceOnUse">
<stop stop-color="white"/>
<stop offset="1" stop-color="white" stop-opacity="0"/>
</linearGradient>
<linearGradient id="paint9_linear" x1="382.279" y1="2558.6" x2="0.0108879" y2="2558.6" gradientUnits="userSpaceOnUse">
<stop stop-color="white"/>
<stop offset="1" stop-color="white" stop-opacity="0"/>
</linearGradient>
<linearGradient id="paint10_linear" x1="460.5" y1="4677.23" x2="19.1882" y2="4677.23" gradientUnits="userSpaceOnUse">
<stop stop-color="white"/>
<stop offset="1" stop-color="white" stop-opacity="0"/>
</linearGradient>
<linearGradient id="paint11_linear" x1="538.536" y1="4677.23" x2="97.2249" y2="4677.23" gradientUnits="userSpaceOnUse">
<stop stop-color="white"/>
<stop offset="1" stop-color="white" stop-opacity="0"/>
</linearGradient>
<linearGradient id="paint12_linear" x1="616.507" y1="4677.23" x2="175.273" y2="4677.23" gradientUnits="userSpaceOnUse">
<stop stop-color="white"/>
<stop offset="1" stop-color="white" stop-opacity="0"/>
</linearGradient>
<linearGradient id="paint13_linear" x1="694.564" y1="4677.23" x2="253.64" y2="4677.23" gradientUnits="userSpaceOnUse">
<stop stop-color="white"/>
<stop offset="1" stop-color="white" stop-opacity="0"/>
</linearGradient>
<linearGradient id="paint14_linear" x1="772.617" y1="4677.23" x2="331.227" y2="4677.23" gradientUnits="userSpaceOnUse">
<stop stop-color="white"/>
<stop offset="1" stop-color="white" stop-opacity="0"/>
</linearGradient>
<linearGradient id="paint15_linear" x1="850.743" y1="4677.23" x2="409.508" y2="4677.23" gradientUnits="userSpaceOnUse">
<stop stop-color="white"/>
<stop offset="1" stop-color="white" stop-opacity="0"/>
</linearGradient>
<linearGradient id="paint16_linear" x1="928.864" y1="4677.23" x2="487.552" y2="4677.23" gradientUnits="userSpaceOnUse">
<stop stop-color="white"/>
<stop offset="1" stop-color="white" stop-opacity="0"/>
</linearGradient>
<linearGradient id="paint17_linear" x1="1006.86" y1="4677.23" x2="565.63" y2="4677.23" gradientUnits="userSpaceOnUse">
<stop stop-color="white"/>
<stop offset="1" stop-color="white" stop-opacity="0"/>
</linearGradient>
<linearGradient id="paint18_linear" x1="1085.13" y1="4677.23" x2="643.661" y2="4677.23" gradientUnits="userSpaceOnUse">
<stop stop-color="white"/>
<stop offset="1" stop-color="white" stop-opacity="0"/>
</linearGradient>
<linearGradient id="paint19_linear" x1="1162.65" y1="4677.23" x2="721.727" y2="4677.23" gradientUnits="userSpaceOnUse">
<stop stop-color="white"/>
<stop offset="1" stop-color="white" stop-opacity="0"/>
</linearGradient>
<linearGradient id="paint20_linear" x1="1241" y1="4677.23" x2="799.766" y2="4677.23" gradientUnits="userSpaceOnUse">
<stop stop-color="white"/>
<stop offset="1" stop-color="white" stop-opacity="0"/>
</linearGradient>
<linearGradient id="paint21_linear" x1="1319.2" y1="4676.79" x2="877.888" y2="4676.79" gradientUnits="userSpaceOnUse">
<stop stop-color="white"/>
<stop offset="1" stop-color="white" stop-opacity="0"/>
</linearGradient>
<linearGradient id="paint22_linear" x1="1397.27" y1="4676.79" x2="955.957" y2="4676.79" gradientUnits="userSpaceOnUse">
<stop stop-color="white"/>
<stop offset="1" stop-color="white" stop-opacity="0"/>
</linearGradient>
<linearGradient id="paint23_linear" x1="1475.23" y1="4677.23" x2="1033.99" y2="4677.23" gradientUnits="userSpaceOnUse">
<stop stop-color="white"/>
<stop offset="1" stop-color="white" stop-opacity="0"/>
</linearGradient>
<linearGradient id="paint24_linear" x1="1553.29" y1="4677.23" x2="1112.05" y2="4677.23" gradientUnits="userSpaceOnUse">
<stop stop-color="white"/>
<stop offset="1" stop-color="white" stop-opacity="0"/>
</linearGradient>
<linearGradient id="paint25_linear" x1="1631.35" y1="4677.23" x2="1190.12" y2="4677.23" gradientUnits="userSpaceOnUse">
<stop stop-color="white"/>
<stop offset="1" stop-color="white" stop-opacity="0"/>
</linearGradient>
<linearGradient id="paint26_linear" x1="1709.47" y1="4677.23" x2="1268.24" y2="4677.23" gradientUnits="userSpaceOnUse">
<stop stop-color="white"/>
<stop offset="1" stop-color="white" stop-opacity="0"/>
</linearGradient>
</defs>
</svg>
