<svg width="47" height="47" viewBox="0 0 47 47" fill="none" xmlns="http://www.w3.org/2000/svg">
<path d="M42.6716 24.0263H39.6347C38.7267 22.0811 37.3121 20.3156 35.4968 18.8646C35.46 16.704 35.3051 15.0638 35.0249 13.8621C34.5909 12 33.7689 11.0559 32.5816 11.0559C31.2862 11.0559 28.5298 12.676 26.41 15.0583C25.4557 14.9246 24.4841 14.8571 23.5136 14.8571C18.9358 14.8571 14.6228 16.3267 11.369 18.9952C8.41761 21.4156 6.64701 24.561 6.29178 27.9595C4.96707 27.5216 4.00822 26.2726 4.00822 24.8031C4.00822 24.191 3.5119 23.6948 2.89986 23.6948C2.28783 23.6948 1.7915 24.191 1.7915 24.8031C1.7915 27.494 3.72005 29.7421 6.26728 30.2402C6.56477 33.773 8.42105 37.1011 11.4839 39.5683L10.5318 44.9678C10.4807 45.2573 10.5468 45.5552 10.7154 45.796C10.8839 46.0367 11.1413 46.2008 11.4308 46.2518L15.5786 46.9832C15.868 47.0339 16.1659 46.9681 16.4068 46.7995C16.6476 46.6309 16.8116 46.3736 16.8625 46.0841L17.4577 42.7089C19.3882 43.3099 21.4191 43.614 23.5136 43.614C25.6079 43.614 27.6389 43.3101 29.5693 42.7089L30.1645 46.0841C30.2155 46.3736 30.3794 46.6309 30.6203 46.7995C30.8078 46.9308 31.03 47 31.2559 47C31.32 47 31.3844 46.9945 31.4483 46.9832L35.5962 46.2518C36.199 46.1455 36.6014 45.5706 36.4951 44.9678L35.5433 39.5685C37.3366 38.1242 38.7344 36.3734 39.6346 34.4448H42.6715C44.0703 34.4448 45.2084 33.3068 45.2084 31.908V26.5631C45.2084 25.1643 44.0704 24.0263 42.6716 24.0263ZM42.6716 32.2281H38.9059C38.4512 32.2281 38.0427 32.5058 37.8754 32.9285C37.0774 34.9443 35.6256 36.7702 33.677 38.2088C33.3385 38.4587 33.1708 38.8786 33.2439 39.2929L34.1198 44.2611L32.1549 44.6076L31.5259 41.0406C31.4683 40.7138 31.2673 40.43 30.9783 40.2672C30.689 40.1043 30.3421 40.0799 30.033 40.1999C27.989 40.9942 25.7956 41.3971 23.5136 41.3971C21.2315 41.3971 19.038 40.9944 16.9941 40.1999C16.6849 40.0799 16.338 40.1043 16.0488 40.2672C15.7597 40.43 15.5587 40.7137 15.5011 41.0406L14.8721 44.6076L12.9074 44.2611L13.7833 39.2929C13.8563 38.8786 13.6886 38.4587 13.3501 38.2088C10.2302 35.9054 8.44078 32.6348 8.44078 29.2356C8.44078 22.5295 15.2024 17.0737 23.5136 17.0737C24.5726 17.0737 25.6323 17.1636 26.6632 17.341C27.0571 17.4087 27.457 17.2592 27.7097 16.9495C29.4599 14.8054 31.7272 13.4821 32.4757 13.2939C32.668 13.5702 33.2504 14.7875 33.2867 19.4227C33.2893 19.7696 33.4545 20.0952 33.7324 20.3026C35.6523 21.7341 37.0849 23.546 37.8753 25.5425C38.0426 25.9652 38.4511 26.2429 38.9058 26.2429H42.6715C42.848 26.2429 42.9917 26.3864 42.9917 26.563V27.0623H42.8963C42.2842 27.0623 41.7879 27.5585 41.7879 28.1706C41.7879 28.7828 42.2842 29.279 42.8963 29.279H42.9917V31.9078C42.9917 32.0846 42.848 32.2281 42.6716 32.2281Z" fill="#D36635"/>
<path d="M23.5137 11.8595C26.7834 11.8595 29.4434 9.19939 29.4434 5.92973C29.4434 2.66006 26.7834 0 23.5137 0C20.244 0 17.584 2.66006 17.584 5.92973C17.584 9.19939 20.244 11.8595 23.5137 11.8595ZM23.5137 2.21672C25.5611 2.21672 27.2267 3.88236 27.2267 5.92973C27.2267 7.97709 25.5611 9.64273 23.5137 9.64273C21.4663 9.64273 19.8007 7.97709 19.8007 5.92973C19.8007 3.88236 21.4663 2.21672 23.5137 2.21672Z" fill="#D36635"/>
<path d="M27.8497 19.6893C26.4651 19.2495 25.0064 19.0265 23.5139 19.0265C22.0215 19.0265 20.5626 19.2495 19.178 19.6893C18.5945 19.8746 18.2718 20.4977 18.4571 21.0812C18.6425 21.6646 19.2655 21.9874 19.8491 21.8019C21.0164 21.4312 22.2495 21.2431 23.5139 21.2431C24.7783 21.2431 26.0113 21.4311 27.1786 21.8019C27.2902 21.8374 27.4031 21.8543 27.5144 21.8543C27.9842 21.8543 28.4206 21.5529 28.5703 21.0811C28.7559 20.4978 28.4331 19.8746 27.8497 19.6893Z" fill="#D36635"/>
</svg>
