<svg width="556" height="1829" viewBox="0 0 556 1829" fill="none" xmlns="http://www.w3.org/2000/svg">
<path d="M0.687237 264.101C0.269357 264.42 0.0716007 264.949 0.17832 265.464C17.1397 347.298 17.1393 439.071 0.177042 520.904C0.0709353 521.416 0.264986 521.942 0.677609 522.263C1.47717 522.885 2.65085 522.457 2.85392 521.464C19.6872 439.194 19.6854 347.173 2.8485 264.905C2.64696 263.92 1.48604 263.491 0.687237 264.101Z" fill="#818181" fill-opacity="0.1"/>
<path d="M0.683256 1307.17C0.26763 1307.49 0.0701959 1308.01 0.174429 1308.53C8.43332 1349.13 12.7507 1392.47 12.8985 1436.25C12.7523 1480.03 8.43449 1523.36 0.173209 1563.97C0.0695592 1564.48 0.263286 1565.01 0.673663 1565.33C1.47349 1565.95 2.64797 1565.52 2.84742 1564.52C11.0431 1523.69 15.3275 1480.19 15.4775 1436.25C15.3257 1392.3 11.0396 1348.8 2.84211 1307.98C2.64415 1306.99 1.48238 1306.56 0.683256 1307.17Z" fill="#818181" fill-opacity="0.1"/>
<path d="M0.607205 192.341C0.273106 192.702 0.148377 193.206 0.279102 193.68C15.1016 247.434 30.1925 313.139 30.1925 393.111C30.1925 473.083 15.1018 538.889 0.279377 592.577C0.148472 593.051 0.273171 593.555 0.607349 593.916C1.36323 594.732 2.71927 594.41 3.01374 593.337C17.8398 539.317 32.7715 473.4 32.7715 393.111C32.7715 312.823 17.8399 246.939 3.01382 192.92C2.71932 191.847 1.36315 191.524 0.607205 192.341Z" fill="#818181" fill-opacity="0.1"/>
<path d="M0.607205 1235.48C0.273106 1235.84 0.148377 1236.34 0.279102 1236.82C15.1016 1290.57 30.1925 1356.28 30.1925 1436.25C30.1925 1516.22 15.1018 1582.03 0.279377 1635.71C0.148472 1636.19 0.273171 1636.69 0.607349 1637.05C1.36323 1637.87 2.71927 1637.55 3.01374 1636.47C17.8398 1582.45 32.7715 1516.54 32.7715 1436.25C32.7715 1355.96 17.8399 1290.08 3.01382 1236.06C2.71932 1234.98 1.36315 1234.66 0.607205 1235.48Z" fill="#818181" fill-opacity="0.1"/>
<path d="M0.585785 133.062C0.285133 133.436 0.187492 133.933 0.325054 134.392C23.5536 211.994 47.4903 292.324 47.4903 393.123C47.4903 493.915 23.5738 574.241 0.329865 651.871C0.189907 652.339 0.297489 652.845 0.61504 653.215C1.35315 654.076 2.75093 653.782 3.07647 652.696C26.3087 575.163 50.0693 494.572 50.0693 393.055C50.0693 291.596 26.3364 211.24 3.11704 133.556C2.78088 132.431 1.32146 132.147 0.585785 133.062Z" fill="#818181" fill-opacity="0.1"/>
<path d="M0.585674 1176.18C0.285087 1176.56 0.187442 1177.05 0.324924 1177.51C23.5535 1255.15 47.4903 1335.45 47.4903 1436.24C47.4903 1537.04 23.5738 1617.36 0.329865 1694.99C0.189907 1695.46 0.297489 1695.97 0.615044 1696.34C1.35315 1697.2 2.75092 1696.9 3.07646 1695.82C26.3087 1618.29 50.0693 1537.69 50.0693 1436.18C50.0693 1334.72 26.3362 1254.39 3.11679 1176.68C2.78077 1175.55 1.32134 1175.27 0.585674 1176.18Z" fill="#818181" fill-opacity="0.1"/>
<path d="M0.609279 73.6609C0.274982 74.022 0.151286 74.5303 0.282703 75.0045C5.76018 94.7691 11.6818 114.526 17.4024 133.652C40.7338 211.481 64.8044 291.863 64.8044 393.116C64.8044 494.368 40.7337 574.751 17.4024 652.75C11.6817 671.843 5.75987 691.6 0.28228 711.398C0.151108 711.872 0.274864 712.38 0.609047 712.741C1.36514 713.557 2.72431 713.227 3.02286 712.155C8.35088 693.021 14.0805 673.882 19.6203 655.338C43.0892 577.032 67.3662 495.798 67.3662 393.184C67.3662 290.57 43.0893 209.54 19.6204 131.03C14.064 112.518 8.34948 93.3804 3.02272 74.2466C2.72428 73.1746 1.36528 72.8444 0.609279 73.6609Z" fill="#818181" fill-opacity="0.1"/>
<path d="M0.593311 1116.78C0.269283 1117.15 0.152446 1117.65 0.283122 1118.12C5.76113 1137.89 11.6835 1157.65 17.4047 1176.78C40.7361 1254.61 64.8068 1335.12 64.8068 1436.24C64.8067 1537.36 40.7361 1617.88 17.4219 1695.74C11.7012 1714.83 5.77934 1734.59 0.30175 1754.39C0.170578 1754.86 0.294334 1755.37 0.628517 1755.73C1.38461 1756.55 2.74378 1756.22 3.04233 1755.14C8.37035 1736.01 14.1 1716.87 19.6399 1698.33C43.1088 1620.02 67.3857 1538.79 67.3858 1436.17C67.3858 1333.56 43.1088 1252.53 19.6399 1174.02C14.1111 1155.54 8.3933 1136.45 3.07434 1117.35C2.76615 1116.24 1.35389 1115.92 0.593311 1116.78Z" fill="#818181" fill-opacity="0.1"/>
<path d="M0.628242 1.48583C0.242233 1.80792 0.0628123 2.31591 0.160736 2.80902C9.28195 48.744 22.2026 91.8936 34.6983 133.63C57.9265 211.493 81.9972 291.875 81.9972 393.128C81.9972 494.38 57.9265 574.763 34.6983 652.762C22.2047 694.491 9.28639 737.667 0.165428 783.593C0.0651475 784.098 0.258537 784.617 0.664871 784.933C1.46532 785.556 2.64172 785.116 2.84126 784.121C11.9101 738.933 24.5964 696.364 36.9162 655.213C60.4023 576.908 84.6621 495.674 84.6621 393.06C84.6621 290.445 60.3852 209.416 36.9163 130.906C24.6071 89.7911 11.8822 47.2274 2.86237 2.27581C2.65686 1.25164 1.43028 0.816584 0.628242 1.48583Z" fill="#818181" fill-opacity="0.1"/>
<path d="M0.659622 1044.57C0.254081 1044.89 0.063087 1045.42 0.164344 1045.93C9.28523 1091.88 22.203 1135.02 34.696 1176.79C57.9242 1254.61 81.9949 1335.13 81.9949 1436.25C81.9949 1537.37 57.9242 1617.88 34.6101 1695.75C22.2878 1737.2 9.45587 1780.07 0.352867 1825.69C0.252358 1826.2 0.446625 1826.72 0.853752 1827.03C1.64803 1827.64 2.80823 1827.2 3.00629 1826.22C12.025 1781.49 24.6786 1739.19 36.9656 1698.33C60.4517 1620.03 84.7114 1538.8 84.7114 1436.18C84.7114 1333.57 60.4345 1252.54 36.9656 1174.03C24.6553 1132.91 11.9292 1090.34 2.90925 1045.38C2.70272 1044.36 1.47814 1043.91 0.659622 1044.57Z" fill="#818181" fill-opacity="0.1"/>
<path d="M4.24778 914.7C4.24778 1017.25 28.5247 1098.34 51.9936 1176.85C75.2906 1254.68 99.3957 1335.2 99.3957 1436.32C99.3957 1537.43 75.325 1617.95 51.9936 1695.82C39.5866 1737.2 26.755 1780.07 17.6521 1825.69C17.5507 1826.19 17.7477 1826.72 18.1597 1827.03C18.9594 1827.64 20.1229 1827.2 20.3214 1826.22C29.3237 1781.49 41.977 1739.19 54.2804 1698.33C77.7665 1620.03 102.043 1538.8 102.043 1436.18C102.043 1333.57 77.7665 1252.54 54.2804 1174.03C30.9834 1096.2 6.89557 1015.71 6.89557 914.564C6.89557 813.413 30.9662 732.929 54.2804 655.066C77.6675 577.09 101.839 496.211 102.042 394.209C102.044 393.496 101.466 392.912 100.754 392.912C100.042 392.912 99.4646 393.496 99.4632 394.208C99.2586 494.751 75.294 574.88 52.0625 652.41C28.5248 731.056 4.24779 812.153 4.24778 914.7Z" fill="#818181" fill-opacity="0.1"/>
<path d="M21.5422 914.7C21.5422 1017.25 45.8192 1098.34 69.2881 1176.85C92.6022 1254.68 116.69 1335.2 116.69 1436.32C116.69 1537.43 92.6194 1617.95 69.2881 1695.82C56.8811 1737.2 44.0494 1780.07 34.9465 1825.69C34.8451 1826.19 35.0421 1826.72 35.4541 1827.03C36.2538 1827.64 37.4173 1827.2 37.6159 1826.22C46.6181 1781.49 59.2714 1739.19 71.5748 1698.33C95.0609 1620.03 119.338 1538.8 119.338 1436.18C119.338 1333.57 95.0609 1252.54 71.5748 1174.03C48.2779 1096.2 24.19 1015.71 24.19 914.564C24.19 813.413 48.2607 732.929 71.5748 655.066C94.9619 577.09 119.133 496.211 119.337 394.209C119.338 393.496 118.761 392.912 118.048 392.912C117.336 392.912 116.759 393.496 116.758 394.208C116.553 494.751 92.5885 574.88 69.3569 652.41C45.888 731.056 21.5422 812.153 21.5422 914.7Z" fill="#818181" fill-opacity="0.1"/>
<path d="M38.8426 914.7C38.8426 1017.25 63.1196 1098.34 86.5885 1176.85C109.903 1254.68 133.991 1335.2 133.991 1436.32C133.991 1537.43 109.92 1617.95 86.6057 1695.82C74.1816 1737.2 61.3499 1780.07 52.247 1825.69C52.1455 1826.19 52.3426 1826.72 52.7547 1827.03C53.5545 1827.64 54.7181 1827.2 54.917 1826.22C63.9351 1781.49 76.5717 1739.19 88.8752 1698.33C112.344 1620.03 136.621 1538.8 136.621 1436.18C136.621 1333.57 112.344 1252.54 88.8752 1174.03C65.561 1096.2 41.4732 1015.71 41.4732 914.564C41.4732 813.413 65.5439 732.929 88.8752 655.066C112.245 577.09 136.416 496.211 136.62 394.209C136.621 393.496 136.044 392.912 135.332 392.912C134.619 392.912 134.042 393.496 134.041 394.208C133.836 494.751 109.872 574.88 86.6401 652.41C63.0852 731.056 38.8426 812.153 38.8426 914.7Z" fill="#818181" fill-opacity="0.1"/>
<path d="M56.2049 914.7C56.2048 1017.25 80.4818 1098.34 103.968 1176.85C127.265 1254.68 151.353 1335.2 151.353 1436.32C151.353 1537.43 127.282 1617.95 103.968 1695.82C91.4919 1737.2 78.71 1780.07 69.557 1825.69C69.4559 1826.2 69.65 1826.72 70.0574 1827.03C70.8514 1827.64 72.0113 1827.2 72.2093 1826.22C81.228 1781.49 93.8816 1739.19 106.169 1698.33C129.638 1620.03 153.915 1538.8 153.915 1436.18C153.915 1333.57 129.638 1252.54 106.169 1174.03C82.8717 1096.2 58.7666 1015.71 58.7666 914.564C58.7666 813.413 82.8373 732.929 106.169 655.066C129.539 577.09 153.71 496.211 153.913 394.209C153.915 393.496 153.337 392.912 152.625 392.912C151.913 392.912 151.336 393.496 151.334 394.208C151.13 494.751 127.165 574.88 103.951 652.41C80.4131 731.056 56.2049 812.153 56.2049 914.7Z" fill="#818181" fill-opacity="0.1"/>
<path d="M73.3986 914.7C73.3986 1017.25 97.6756 1098.34 121.162 1176.85C144.459 1254.68 168.546 1335.2 168.546 1436.32C168.546 1537.43 144.476 1617.95 121.162 1695.82C108.788 1737.2 95.9048 1780.07 86.8518 1825.69C86.7519 1826.2 86.9463 1826.72 87.3532 1827.03C88.1477 1827.64 89.3083 1827.2 89.5064 1826.22C98.5252 1781.49 111.179 1739.19 123.466 1698.33C146.934 1620.03 171.211 1538.8 171.211 1436.18C171.211 1333.57 146.934 1252.54 123.466 1174.03C100.169 1096.2 76.0635 1015.71 76.0635 914.564C76.0635 813.413 100.134 732.929 123.466 655.066C146.836 577.09 171.007 496.211 171.21 394.209C171.212 393.496 170.634 392.912 169.922 392.912C169.21 392.912 168.633 393.496 168.631 394.208C168.427 494.751 144.462 574.88 121.248 652.41C97.71 731.056 73.3986 812.153 73.3986 914.7Z" fill="#818181" fill-opacity="0.1"/>
<path d="M90.7498 914.7C90.7498 1017.25 115.027 1098.34 138.496 1176.85C161.793 1254.68 185.898 1335.2 185.898 1436.32C185.898 1537.43 161.827 1617.95 138.496 1695.82C126.088 1737.2 113.256 1780.07 104.153 1825.69C104.052 1826.2 104.246 1826.72 104.653 1827.03C105.448 1827.64 106.608 1827.2 106.806 1826.22C115.825 1781.49 128.478 1739.19 140.765 1698.33C164.251 1620.03 188.528 1538.8 188.528 1436.18C188.528 1333.57 164.251 1252.54 140.765 1174.03C117.468 1096.2 93.3804 1015.71 93.3804 914.564C93.3804 813.413 117.451 732.929 140.765 655.066C164.152 577.09 188.324 496.211 188.527 394.209C188.528 393.496 187.951 392.912 187.239 392.912C186.527 392.912 185.949 393.496 185.948 394.208C185.744 494.751 161.779 574.88 138.547 652.41C115.027 731.056 90.7498 812.153 90.7498 914.7Z" fill="#818181" fill-opacity="0.1"/>
<path d="M108.047 914.7C108.047 1017.25 132.324 1098.34 155.793 1176.85C179.089 1254.68 203.195 1335.2 203.195 1436.32C203.195 1537.43 179.124 1617.95 155.792 1695.82C143.385 1737.2 130.554 1780.07 121.451 1825.69C121.349 1826.19 121.547 1826.72 121.959 1827.03C122.758 1827.64 123.922 1827.2 124.12 1826.22C133.123 1781.49 145.776 1739.19 158.079 1698.33C181.565 1620.03 205.842 1538.8 205.842 1436.18C205.842 1333.57 181.565 1252.54 158.079 1174.03C134.782 1096.2 110.694 1015.71 110.694 914.564C110.694 813.413 134.765 732.929 158.079 655.066C181.466 577.09 205.638 496.211 205.841 394.209C205.842 393.496 205.265 392.912 204.553 392.912C203.841 392.912 203.263 393.496 203.262 394.208C203.057 494.751 179.093 574.88 155.861 652.41C132.324 731.056 108.047 812.153 108.047 914.7Z" fill="#818181" fill-opacity="0.1"/>
<path d="M125.341 914.7C125.341 1017.25 149.618 1098.34 173.087 1176.85C196.401 1254.68 220.489 1335.2 220.489 1436.32C220.489 1537.43 196.418 1617.95 173.087 1695.82C160.68 1737.2 147.848 1780.07 138.745 1825.69C138.644 1826.19 138.841 1826.72 139.253 1827.03C140.052 1827.64 141.216 1827.2 141.415 1826.22C150.433 1781.49 163.07 1739.19 175.373 1698.33C198.842 1620.03 223.119 1538.8 223.119 1436.18C223.119 1333.57 198.842 1252.54 175.373 1174.03C152.059 1096.2 127.971 1015.71 127.971 914.564C127.971 813.413 152.042 732.929 175.373 655.066C198.743 577.09 222.914 496.211 223.118 394.209C223.119 393.496 222.542 392.912 221.83 392.912C221.118 392.912 220.54 393.496 220.539 394.208C220.334 494.751 196.37 574.88 173.138 652.41C149.618 731.056 125.341 812.153 125.341 914.7Z" fill="#818181" fill-opacity="0.1"/>
<path d="M142.639 914.7C142.639 1017.25 166.916 1098.34 190.402 1176.85C213.699 1254.68 237.787 1335.2 237.787 1436.32C237.787 1537.43 213.699 1617.88 190.316 1695.75C177.977 1737.2 165.146 1780.07 156.094 1825.69C155.993 1826.19 156.19 1826.72 156.602 1827.03C157.402 1827.64 158.566 1827.2 158.765 1826.21C167.783 1781.49 180.436 1739.19 192.723 1698.33C216.192 1620.03 240.469 1538.8 240.469 1436.18C240.469 1333.57 216.192 1252.54 192.723 1174.03C169.409 1096.2 145.321 1015.71 145.321 914.564C145.321 813.413 169.392 732.929 192.723 655.066C216.093 577.09 240.264 496.211 240.467 394.209C240.469 393.496 239.891 392.912 239.179 392.912C238.467 392.912 237.89 393.496 237.888 394.208C237.684 494.751 213.719 574.88 190.505 652.41C166.916 731.056 142.639 812.153 142.639 914.7Z" fill="#818181" fill-opacity="0.1"/>
<path d="M159.934 914.7C159.934 1017.25 184.211 1098.34 207.697 1176.85C230.994 1254.68 255.082 1335.2 255.082 1436.32C255.082 1537.43 231.012 1617.95 207.697 1695.82C195.29 1737.2 182.457 1780.07 173.287 1825.69C173.185 1826.2 173.38 1826.72 173.787 1827.03C174.581 1827.64 175.741 1827.2 175.939 1826.22C184.957 1781.49 197.611 1739.19 209.898 1698.33C233.367 1620.03 257.644 1538.8 257.644 1436.18C257.644 1333.57 233.367 1252.54 209.898 1174.03C186.601 1096.2 162.496 1015.71 162.496 914.564C162.496 813.413 186.567 732.929 209.898 655.066C233.268 577.09 257.439 496.211 257.643 394.209C257.644 393.496 257.067 392.912 256.355 392.912C255.642 392.912 255.065 393.496 255.064 394.208C254.859 494.751 230.895 574.88 207.68 652.41C184.211 731.056 159.934 812.153 159.934 914.7Z" fill="#818181" fill-opacity="0.1"/>
<path d="M177.232 914.7C177.232 1017.25 201.509 1098.34 224.995 1176.85C248.292 1254.68 272.38 1335.2 272.38 1436.32C272.38 1537.43 248.309 1617.95 224.995 1695.82C212.587 1737.2 199.755 1780.07 190.652 1825.69C190.551 1826.2 190.745 1826.72 191.153 1827.03C191.947 1827.64 193.107 1827.2 193.305 1826.22C202.324 1781.49 214.977 1739.19 227.264 1698.33C250.75 1620.03 275.01 1538.8 275.01 1436.18C275.01 1333.57 250.733 1252.54 227.264 1174.03C203.967 1096.2 179.862 1015.71 179.862 914.564C179.862 813.413 203.933 732.929 227.264 655.066C250.634 577.09 274.806 496.211 275.009 394.209C275.01 393.496 274.433 392.912 273.721 392.912C273.009 392.912 272.431 393.496 272.43 394.208C272.225 494.751 248.261 574.88 225.046 652.41C201.509 731.056 177.232 812.153 177.232 914.7Z" fill="#818181" fill-opacity="0.1"/>
<path d="M194.543 914.7C194.543 1017.25 218.82 1098.34 242.289 1176.85C265.586 1254.68 289.691 1335.2 289.691 1436.32C289.691 1537.43 265.62 1617.95 242.289 1695.82C229.933 1737.2 217.051 1780.07 207.948 1825.69C207.846 1826.19 208.043 1826.72 208.455 1827.03C209.255 1827.64 210.418 1827.2 210.617 1826.22C219.619 1781.49 232.272 1739.19 244.576 1698.33C268.062 1620.03 292.339 1538.8 292.339 1436.18C292.339 1333.57 268.062 1252.54 244.576 1174.03C221.262 1096.33 197.191 1015.85 197.191 914.7C197.191 813.549 221.262 733.065 244.576 655.202C267.963 577.226 292.134 496.348 292.338 394.345C292.339 393.633 291.762 393.048 291.049 393.048C290.337 393.048 289.76 393.633 289.759 394.345C289.554 494.887 265.589 575.016 242.358 652.546C218.82 731.056 194.543 812.153 194.543 914.7Z" fill="#818181" fill-opacity="0.1"/>
<path d="M211.841 914.7C211.841 1017.25 236.118 1098.34 259.587 1176.85C282.884 1254.68 306.989 1335.2 306.989 1436.32C306.989 1537.43 282.918 1617.95 259.587 1695.82C247.129 1737.2 234.348 1780.07 225.245 1825.69C225.144 1826.19 225.341 1826.72 225.753 1827.03C226.553 1827.64 227.716 1827.2 227.915 1826.22C236.917 1781.49 249.57 1739.19 261.874 1698.33C285.36 1620.03 309.637 1538.8 309.637 1436.18C309.637 1333.57 285.36 1252.54 261.874 1174.03C238.456 1096.33 214.386 1015.85 214.386 914.7C214.386 813.549 238.456 733.065 261.771 655.202C285.158 577.226 309.329 496.348 309.532 394.345C309.534 393.633 308.956 393.048 308.244 393.048C307.532 393.048 306.955 393.633 306.953 394.345C306.749 494.887 282.784 575.016 259.553 652.546C236.118 731.056 211.841 812.153 211.841 914.7Z" fill="#818181" fill-opacity="0.1"/>
<path d="M229.14 914.7C229.14 1017.25 253.416 1098.34 276.903 1176.85C300.2 1254.68 324.287 1335.2 324.287 1436.32C324.287 1537.43 300.217 1617.95 276.903 1695.82C264.478 1737.2 251.647 1780.07 242.544 1825.69C242.442 1826.19 242.639 1826.72 243.052 1827.03C243.851 1827.64 245.015 1827.2 245.214 1826.22C254.232 1781.49 266.869 1739.19 279.172 1698.33C302.641 1620.03 326.918 1538.8 326.918 1436.18C326.918 1333.57 302.641 1252.54 279.172 1174.03C255.858 1096.2 231.77 1015.71 231.77 914.564C231.77 813.413 255.841 732.929 279.172 655.066C302.542 577.09 326.713 496.211 326.917 394.209C326.918 393.496 326.341 392.912 325.629 392.912C324.916 392.912 324.339 393.496 324.338 394.208C324.133 494.751 300.169 574.88 276.954 652.41C253.417 731.056 229.14 812.153 229.14 914.7Z" fill="#818181" fill-opacity="0.1"/>
<path d="M246.433 914.7C246.433 1017.25 270.71 1098.34 294.197 1176.85C317.545 1254.61 341.616 1335.13 341.616 1436.25C341.616 1537.37 317.545 1617.88 294.231 1695.75C281.773 1737.2 268.958 1780.07 259.838 1825.69C259.736 1826.19 259.934 1826.72 260.346 1827.03C261.145 1827.64 262.309 1827.2 262.508 1826.22C271.526 1781.49 284.179 1739.19 296.466 1698.33C319.935 1620.03 344.212 1538.8 344.212 1436.18C344.212 1333.57 319.935 1252.54 296.466 1174.03C273.169 1096.2 249.064 1015.71 249.064 914.564C249.064 813.413 273.135 732.929 296.466 655.066C319.835 577.092 344.006 496.216 344.211 394.217C344.212 393.5 343.631 392.912 342.914 392.912C342.197 392.912 341.616 393.5 341.614 394.217C341.409 494.755 317.445 574.882 294.231 652.41C270.71 731.056 246.433 812.153 246.433 914.7Z" fill="#818181" fill-opacity="0.1"/>
<path d="M263.733 914.7C263.733 1017.25 288.01 1098.34 311.496 1176.85C334.742 1254.61 358.812 1335.13 358.812 1436.25C358.812 1537.37 334.742 1617.88 311.428 1695.75C299.088 1737.2 286.256 1780.07 277.153 1825.69C277.053 1826.2 277.247 1826.72 277.654 1827.03C278.448 1827.64 279.609 1827.2 279.807 1826.22C288.825 1781.49 301.479 1739.19 313.766 1698.33C337.235 1620.03 361.512 1538.8 361.512 1436.18C361.512 1333.57 337.235 1252.54 313.766 1174.03C290.469 1096.2 266.364 1015.71 266.364 914.564C266.364 813.413 290.435 732.929 313.766 655.066C337.131 577.105 361.298 496.243 361.51 394.269C361.512 393.524 360.907 392.912 360.162 392.912C359.417 392.912 358.813 393.524 358.811 394.269C358.597 494.783 334.637 574.896 311.428 652.41C288.01 731.056 263.733 812.153 263.733 914.7Z" fill="#818181" fill-opacity="0.1"/>
<path d="M281.046 914.7C281.046 1017.25 305.306 1098.34 328.792 1176.85C352.089 1254.68 376.194 1335.2 376.194 1436.32C376.194 1537.43 352.123 1617.95 328.792 1695.82C316.384 1737.2 303.551 1780.07 294.448 1825.69C294.348 1826.2 294.542 1826.72 294.949 1827.03C295.744 1827.64 296.904 1827.2 297.102 1826.22C306.121 1781.49 318.774 1739.19 331.061 1698.33C354.547 1620.03 378.824 1538.8 378.824 1436.18C378.824 1333.57 354.547 1252.54 331.061 1174.03C307.764 1096.2 283.676 1015.71 283.676 914.564C283.676 813.413 307.747 732.929 331.061 655.066C354.448 577.09 378.62 496.211 378.823 394.209C378.824 393.496 378.247 392.912 377.535 392.912C376.823 392.912 376.245 393.496 376.244 394.208C376.039 494.751 352.075 574.88 328.843 652.41C305.306 731.056 281.046 812.153 281.046 914.7Z" fill="#818181" fill-opacity="0.1"/>
<path d="M298.341 914.7C298.341 1017.25 322.618 1098.34 346.086 1176.85C369.383 1254.68 393.488 1335.2 393.488 1436.32C393.488 1537.43 369.418 1617.95 346.086 1695.82C333.679 1737.2 320.848 1780.07 311.745 1825.69C311.643 1826.19 311.84 1826.72 312.252 1827.03C313.052 1827.64 314.216 1827.2 314.414 1826.22C323.417 1781.49 336.07 1739.19 348.373 1698.33C371.859 1620.03 396.136 1538.8 396.136 1436.18C396.136 1333.57 371.859 1252.54 348.373 1174.03C325.076 1096.2 300.988 1015.71 300.988 914.564C300.988 813.413 325.059 732.929 348.373 655.066C371.76 577.09 395.932 496.211 396.135 394.209C396.136 393.496 395.559 392.912 394.847 392.912C394.135 392.912 393.557 393.496 393.556 394.208C393.351 494.751 369.387 574.88 346.155 652.41C322.618 731.056 298.341 812.153 298.341 914.7Z" fill="#818181" fill-opacity="0.1"/>
<path d="M315.637 914.7C315.637 1017.25 339.914 1098.34 363.383 1176.85C386.698 1254.68 410.785 1335.2 410.785 1436.32C410.785 1537.43 386.715 1617.95 363.383 1695.82C350.977 1737.2 338.146 1780.06 329.043 1825.68C328.941 1826.19 329.141 1826.72 329.558 1827.03C330.363 1827.64 331.53 1827.2 331.729 1826.21C340.732 1781.48 353.384 1739.18 365.687 1698.33C389.156 1620.03 413.433 1538.8 413.433 1436.18C413.433 1333.57 389.156 1252.54 365.67 1174.03C342.373 1096.2 318.285 1015.71 318.285 914.564C318.285 813.413 342.356 732.929 365.67 655.066C389.057 577.09 413.228 496.211 413.432 394.209C413.433 393.496 412.856 392.912 412.144 392.912C411.431 392.912 410.854 393.496 410.853 394.208C410.648 494.751 386.684 574.88 363.452 652.41C339.897 731.056 315.637 812.153 315.637 914.7Z" fill="#818181" fill-opacity="0.1"/>
<path d="M332.934 914.7C332.934 1017.25 357.211 1098.34 380.698 1176.85C403.994 1254.68 428.082 1335.2 428.082 1436.32C428.082 1537.43 404.012 1617.95 380.698 1695.82C368.27 1737.21 355.434 1780.09 346.331 1825.73C346.234 1826.21 346.417 1826.71 346.804 1827.02C347.577 1827.63 348.723 1827.21 348.918 1826.24C357.936 1781.5 370.575 1739.19 382.881 1698.33C406.35 1620.03 430.627 1538.8 430.627 1436.18C430.627 1333.57 406.35 1252.54 382.881 1174.03C359.567 1096.2 335.479 1015.71 335.479 914.564C335.479 813.413 359.55 732.929 382.881 655.066C406.251 577.09 430.422 496.211 430.626 394.209C430.627 393.496 430.05 392.912 429.337 392.912C428.625 392.912 428.048 393.496 428.047 394.208C427.842 494.751 403.878 574.88 380.663 652.41C357.211 731.056 332.934 812.153 332.934 914.7Z" fill="#818181" fill-opacity="0.1"/>
<path d="M350.215 914.7C350.215 1017.25 374.492 1098.34 397.978 1176.85C421.275 1254.68 445.363 1335.2 445.363 1436.32C445.363 1537.43 421.292 1617.95 397.978 1695.82C385.587 1737.2 372.721 1780.07 363.651 1825.69C363.551 1826.2 363.746 1826.72 364.153 1827.03C364.947 1827.64 366.108 1827.2 366.306 1826.22C375.324 1781.49 387.978 1739.19 400.265 1698.33C423.734 1620.03 448.011 1538.8 448.011 1436.18C448.011 1333.57 423.734 1252.54 400.265 1174.03C376.968 1096.2 352.863 1015.71 352.863 914.564C352.863 813.413 376.934 732.929 400.265 655.066C423.635 577.09 447.806 496.211 448.009 394.209C448.011 393.496 447.433 392.912 446.721 392.912C446.009 392.912 445.432 393.496 445.43 394.208C445.226 494.751 421.261 574.88 398.047 652.41C374.509 731.056 350.215 812.153 350.215 914.7Z" fill="#818181" fill-opacity="0.1"/>
<path d="M367.527 914.7C367.527 1017.25 391.804 1098.34 415.29 1176.85C438.587 1254.68 462.675 1335.2 462.675 1436.32C462.675 1537.43 438.604 1617.95 415.29 1695.82C402.882 1737.2 390.05 1780.07 380.947 1825.69C380.846 1826.2 381.04 1826.72 381.447 1827.03C382.242 1827.64 383.402 1827.2 383.6 1826.22C392.619 1781.49 405.272 1739.19 417.559 1698.33C441.028 1620.03 465.305 1538.8 465.305 1436.18C465.305 1333.57 441.028 1252.54 417.559 1174.03C394.262 1096.2 370.157 1015.71 370.157 914.564C370.157 813.413 394.228 732.929 417.559 655.066C440.929 577.09 465.101 496.211 465.304 394.209C465.305 393.496 464.728 392.912 464.016 392.912C463.304 392.912 462.726 393.496 462.725 394.208C462.52 494.751 438.556 574.88 415.341 652.41C391.804 731.056 367.527 812.153 367.527 914.7Z" fill="#818181" fill-opacity="0.1"/>
<path d="M384.839 914.7C384.839 1017.25 409.116 1098.34 432.585 1176.85C455.882 1254.68 479.987 1335.2 479.987 1436.32C479.987 1537.43 455.916 1617.95 432.585 1695.82C420.177 1737.2 407.345 1780.07 398.242 1825.69C398.141 1826.2 398.336 1826.72 398.743 1827.03C399.537 1827.64 400.697 1827.2 400.895 1826.22C409.914 1781.49 422.568 1739.19 434.855 1698.33C458.341 1620.03 482.618 1538.8 482.618 1436.18C482.618 1333.57 458.341 1252.54 434.855 1174.03C411.558 1096.2 387.47 1015.71 387.47 914.564C387.47 813.413 411.54 732.929 434.855 655.066C458.242 577.09 482.413 496.211 482.616 394.209C482.618 393.496 482.04 392.912 481.328 392.912C480.616 392.912 480.039 393.496 480.037 394.208C479.833 494.751 455.868 574.88 432.637 652.41C409.116 731.056 384.839 812.153 384.839 914.7Z" fill="#818181" fill-opacity="0.1"/>
<path d="M402.135 914.7C402.135 1017.25 426.412 1098.34 449.881 1176.85C473.178 1254.68 497.283 1335.2 497.283 1436.32C497.283 1537.43 473.178 1617.88 449.932 1695.75C437.474 1737.2 424.642 1780.07 415.539 1825.69C415.438 1826.19 415.635 1826.72 416.047 1827.03C416.847 1827.64 418.01 1827.2 418.209 1826.22C427.211 1781.49 439.864 1739.19 452.168 1698.33C475.654 1620.03 499.931 1538.8 499.931 1436.18C499.931 1333.57 475.654 1252.54 452.168 1174.03C428.871 1096.2 404.783 1015.71 404.783 914.564C404.783 813.413 428.853 732.929 452.168 655.066C475.555 577.09 499.726 496.211 499.929 394.209C499.931 393.496 499.353 392.912 498.641 392.912C497.929 392.912 497.352 393.496 497.35 394.208C497.146 494.751 473.181 574.88 449.95 652.41C426.412 731.056 402.135 812.153 402.135 914.7Z" fill="#818181" fill-opacity="0.1"/>
<path d="M419.432 914.7C419.432 1017.25 443.709 1098.34 467.178 1176.85C490.492 1254.61 514.58 1335.13 514.58 1436.25C514.58 1537.37 490.492 1617.88 467.127 1695.75C454.771 1737.2 441.939 1780.07 432.904 1825.69C432.803 1826.19 433.001 1826.72 433.412 1827.03C434.212 1827.64 435.376 1827.2 435.575 1826.21C444.577 1781.49 457.23 1739.19 469.534 1698.33C492.917 1619.89 517.159 1538.8 517.159 1436.25C517.159 1333.7 492.882 1252.61 469.396 1174.1C446.099 1096.27 422.011 1015.78 422.011 914.632C422.011 813.481 446.082 732.997 469.396 655.134C492.783 577.158 516.955 496.28 517.158 394.277C517.159 393.565 516.582 392.98 515.87 392.98C515.158 392.98 514.58 393.565 514.579 394.277C514.374 494.819 490.41 574.948 467.178 652.478C443.709 731.056 419.432 812.154 419.432 914.7Z" fill="#818181" fill-opacity="0.1"/>
<path d="M436.726 914.7C436.726 1017.25 461.003 1098.34 484.489 1176.85C507.786 1254.61 531.874 1335.13 531.874 1436.25C531.874 1537.37 507.803 1617.88 484.489 1695.75C472.065 1737.2 459.233 1780.07 450.097 1825.69C449.995 1826.19 450.192 1826.72 450.604 1827.03C451.404 1827.64 452.567 1827.2 452.766 1826.22C461.784 1781.49 474.421 1739.19 486.724 1698.33C510.193 1620.03 534.47 1538.8 534.47 1436.18C534.47 1333.57 510.193 1252.54 486.724 1174.03C463.41 1096.2 439.322 1015.71 439.322 914.564C439.322 813.413 463.393 732.929 486.724 655.066C510.094 577.09 534.266 496.211 534.469 394.209C534.47 393.496 533.893 392.912 533.181 392.912C532.469 392.912 531.891 393.496 531.89 394.208C531.685 494.751 507.721 574.88 484.506 652.41C461.003 731.056 436.726 812.153 436.726 914.7Z" fill="#818181" fill-opacity="0.1"/>
<path d="M454.028 914.7C454.028 1017.25 478.305 1098.34 501.791 1176.85C525.088 1254.61 549.176 1335.13 549.176 1436.25C549.176 1537.37 525.088 1617.88 501.791 1695.75C489.383 1737.2 476.551 1780.07 467.448 1825.69C467.347 1826.2 467.541 1826.72 467.948 1827.03C468.743 1827.64 469.903 1827.2 470.101 1826.22C479.12 1781.49 491.773 1739.19 504.06 1698.33C527.529 1620.03 551.806 1538.8 551.806 1436.18C551.806 1333.57 527.529 1252.54 504.06 1174.03C480.763 1096.2 456.658 1015.71 456.658 914.564C456.658 813.413 480.729 732.929 504.06 655.066C527.43 577.09 551.602 496.211 551.805 394.209C551.806 393.496 551.229 392.912 550.517 392.912C549.805 392.912 549.227 393.496 549.226 394.208C549.021 494.751 525.057 574.88 501.842 652.41C478.305 731.056 454.028 812.153 454.028 914.7Z" fill="#818181" fill-opacity="0.1"/>
<path d="M471.323 914.702C471.323 1017.25 495.617 1098.35 519.086 1176.86C531.408 1217.95 544.096 1260.49 553.165 1305.55C553.364 1306.54 554.528 1306.98 555.327 1306.37C555.739 1306.05 555.936 1305.53 555.836 1305.02C546.715 1259.07 533.797 1215.93 521.304 1174.2C498.076 1096.34 473.902 1015.85 473.902 914.702C473.902 813.551 497.972 733.067 521.304 655.204C533.798 613.473 546.717 570.33 555.838 524.202C555.937 523.697 555.744 523.179 555.338 522.863C554.537 522.24 553.361 522.681 553.162 523.675C544.093 568.992 531.406 611.466 519.086 652.752C495.6 731.058 471.323 812.155 471.323 914.702Z" fill="#818181" fill-opacity="0.1"/>
<path d="M484.743 1825.69C484.642 1826.2 484.836 1826.72 485.244 1827.03C486.038 1827.64 487.198 1827.2 487.396 1826.22C496.415 1781.49 509.068 1739.19 521.355 1698.34C533.763 1657.08 546.715 1613.37 555.836 1567.5C555.937 1567 555.743 1566.48 555.337 1566.16C554.536 1565.54 553.36 1565.98 553.16 1566.98C544.091 1612.06 531.405 1654.6 519.086 1695.75C506.644 1737.31 493.845 1780.08 484.743 1825.69Z" fill="#818181" fill-opacity="0.1"/>
<path d="M488.632 914.702C488.632 1017.25 512.909 1098.35 536.378 1176.86C541.934 1195.37 547.648 1214.5 552.899 1233.67C553.193 1234.74 554.55 1235.07 555.305 1234.26C555.638 1233.9 555.762 1233.39 555.631 1232.92C550.153 1213.12 544.231 1193.36 538.51 1174.23C515.265 1096.34 491.194 1015.85 491.194 914.702C491.194 813.552 515.265 733.067 538.596 655.204C544.317 636.111 550.238 616.354 555.716 596.556C555.847 596.082 555.724 595.575 555.389 595.214C554.633 594.397 553.274 594.728 552.976 595.8C547.648 614.962 541.922 634.071 536.464 652.617C512.909 731.058 488.632 812.156 488.632 914.702Z" fill="#818181" fill-opacity="0.1"/>
<path d="M502.041 1825.69C501.939 1826.19 502.136 1826.72 502.548 1827.03C503.348 1827.64 504.512 1827.2 504.71 1826.22C513.712 1781.49 526.366 1739.19 538.669 1698.37C544.39 1679.24 550.312 1659.49 555.789 1639.69C555.92 1639.21 555.797 1638.71 555.463 1638.34C554.707 1637.53 553.348 1637.86 553.05 1638.93C547.721 1658.1 541.995 1677.23 536.537 1695.75C523.942 1737.2 511.143 1780.07 502.041 1825.69Z" fill="#818181" fill-opacity="0.1"/>
<path d="M505.936 914.706C505.936 1016.15 529.692 1096.6 552.922 1174.32C553.249 1175.41 554.659 1175.7 555.396 1174.83C555.71 1174.46 555.816 1173.96 555.676 1173.49C532.449 1095.9 508.515 1015.6 508.515 914.774C508.515 813.947 532.432 733.654 555.676 656.056C555.816 655.59 555.71 655.086 555.396 654.715C554.658 653.843 553.248 654.136 552.921 655.23C529.691 732.817 505.936 813.268 505.936 914.706Z" fill="#818181" fill-opacity="0.1"/>
<path d="M519.342 1825.69C519.241 1826.19 519.438 1826.72 519.85 1827.03C520.649 1827.64 521.813 1827.2 522.012 1826.22C530.959 1781.79 543.498 1739.7 555.747 1699.14C555.887 1698.68 555.785 1698.18 555.478 1697.81C554.747 1696.93 553.328 1697.21 552.997 1698.31C540.734 1739 528.257 1781.04 519.342 1825.69Z" fill="#818181" fill-opacity="0.1"/>
<path d="M523.225 914.707C523.225 994.995 538.157 1060.91 552.983 1114.93C553.277 1116.01 554.634 1116.33 555.39 1115.51C555.724 1115.15 555.848 1114.65 555.718 1114.17C540.912 1060.38 525.804 994.68 525.804 914.707C525.804 834.734 540.912 769.13 555.718 715.241C555.849 714.767 555.724 714.264 555.39 713.903C554.634 713.087 553.277 713.409 552.983 714.482C538.157 768.502 523.225 834.419 523.225 914.707Z" fill="#818181" fill-opacity="0.1"/>
</svg>
