<svg width="17" height="30" viewBox="0 0 17 30" fill="none" xmlns="http://www.w3.org/2000/svg">
<path d="M1.54997 29.5254C1.28718 29.5254 1.06193 29.4314 0.874226 29.2433C0.799143 29.1869 0.742831 29.1211 0.70529 29.0459C0.667748 28.9707 0.639592 28.8908 0.620822 28.8061C0.602051 28.7215 0.592666 28.6369 0.592666 28.5523C0.592666 28.4677 0.602051 28.3878 0.620822 28.3126C0.639592 28.2373 0.667749 28.1621 0.70529 28.0869C0.742831 28.0117 0.799143 27.9365 0.874226 27.8613L13.7133 14.9996L1.04316 2.30707C0.93054 2.19425 0.850765 2.05322 0.803838 1.88399C0.756912 1.71476 0.756912 1.54552 0.803838 1.37629C0.850765 1.20706 0.93054 1.06603 1.04316 0.953208C1.23087 0.765172 1.46081 0.671153 1.73299 0.671153C2.00516 0.671153 2.2351 0.765172 2.42281 0.953208L15.7687 14.3226C15.9564 14.5107 16.0503 14.7363 16.0503 14.9996C16.0503 15.2628 15.9564 15.4884 15.7687 15.6765L2.22571 29.2433C2.03801 29.4314 1.81276 29.5254 1.54997 29.5254Z" fill="white"/>
</svg>
