<svg width="32" height="33" viewBox="0 0 32 33" fill="none" xmlns="http://www.w3.org/2000/svg">
<g clip-path="url(#clip0)">
<path d="M16.004 0H15.996C7.174 0 0 7.2059 0 16.0667C0 19.5812 1.128 22.8388 3.046 25.4837L1.052 31.4525L7.202 29.4783C9.732 31.1613 12.75 32.1333 16.004 32.1333C24.826 32.1333 32 24.9254 32 16.0667C32 7.20791 24.826 0 16.004 0Z" fill="#4CAF50"/>
<path d="M25.3141 22.6882C24.9281 23.7827 23.3961 24.6905 22.1741 24.9556C21.3381 25.1343 20.2461 25.2769 16.5701 23.7465C11.8681 21.7904 8.8401 16.9925 8.6041 16.6812C8.3781 16.3699 6.7041 14.1407 6.7041 11.8351C6.7041 9.52956 7.8701 8.4069 8.3401 7.9249C8.7261 7.52926 9.3641 7.34851 9.9761 7.34851C10.1741 7.34851 10.3521 7.35855 10.5121 7.36659C10.9821 7.38667 11.2181 7.41479 11.5281 8.15988C11.9141 9.09375 12.8541 11.3993 12.9661 11.6363C13.0801 11.8733 13.1941 12.1946 13.0341 12.5059C12.8841 12.8272 12.7521 12.9698 12.5161 13.243C12.2801 13.5161 12.0561 13.725 11.8201 14.0182C11.6041 14.2732 11.3601 14.5464 11.6321 15.0183C11.9041 15.4802 12.8441 17.0206 14.2281 18.2578C16.0141 19.8544 17.4621 20.3645 17.9801 20.5814C18.3661 20.7421 18.8261 20.7039 19.1081 20.4027C19.4661 20.0151 19.9081 19.3724 20.3581 18.7398C20.6781 18.2859 21.0821 18.2297 21.5061 18.3903C21.9381 18.5409 24.2241 19.6757 24.6941 19.9106C25.1641 20.1476 25.4741 20.2601 25.5881 20.4589C25.7001 20.6577 25.7001 21.5916 25.3141 22.6882Z" fill="#FAFAFA"/>
</g>
<defs>
<clipPath id="clip0">
<rect width="32" height="32.1333" fill="white"/>
</clipPath>
</defs>
</svg>
